<svg width="328" height="325" viewBox="0 0 328 325" fill="none" xmlns="http://www.w3.org/2000/svg">
<path d="M95.1715 136.847H83.3545C83.2833 136.847 83.215 136.819 83.1646 136.769C83.1143 136.718 83.086 136.65 83.086 136.579V118.477H79.5785C79.528 118.478 79.4784 118.464 79.4355 118.438C79.3927 118.411 79.3584 118.373 79.3368 118.327C79.3107 118.284 79.2969 118.235 79.2969 118.185C79.2969 118.134 79.3107 118.085 79.3368 118.042L89.0052 105.839C89.0309 105.808 89.063 105.784 89.0991 105.767C89.1353 105.75 89.1748 105.741 89.2147 105.741C89.2546 105.741 89.294 105.75 89.3302 105.767C89.3664 105.784 89.3984 105.808 89.4241 105.839L99.0926 118.042C99.1238 118.082 99.1433 118.129 99.1488 118.179C99.1543 118.229 99.1457 118.28 99.1238 118.325C99.102 118.371 99.0678 118.409 99.0253 118.436C98.9827 118.463 98.9334 118.477 98.8831 118.477H95.3595V136.579C95.3622 136.638 95.3452 136.697 95.3112 136.745C95.2772 136.794 95.2281 136.83 95.1715 136.847ZM83.6338 136.31H94.9137V118.209C94.9137 118.138 94.9419 118.069 94.9923 118.019C95.0427 117.969 95.111 117.94 95.1822 117.94H98.405L89.2737 106.44L80.1425 117.94H83.3653C83.4365 117.94 83.5048 117.969 83.5552 118.019C83.6055 118.069 83.6338 118.138 83.6338 118.209V136.31Z" fill="#2196F3"/>
<path d="M213.792 136.847H201.975C201.904 136.847 201.836 136.819 201.785 136.769C201.735 136.718 201.707 136.65 201.707 136.579V118.477H198.183C198.133 118.477 198.083 118.463 198.041 118.436C197.998 118.409 197.964 118.371 197.942 118.325C197.921 118.28 197.912 118.229 197.917 118.179C197.923 118.129 197.942 118.082 197.974 118.042L207.669 105.839C207.695 105.808 207.727 105.784 207.763 105.767C207.799 105.75 207.838 105.741 207.878 105.741C207.918 105.741 207.958 105.75 207.994 105.767C208.03 105.784 208.062 105.808 208.088 105.839L217.783 118.042C217.814 118.082 217.834 118.129 217.839 118.179C217.845 118.229 217.836 118.28 217.814 118.325C217.793 118.371 217.758 118.409 217.716 118.436C217.673 118.463 217.624 118.477 217.574 118.477H214.05V136.579C214.05 136.648 214.023 136.715 213.975 136.765C213.927 136.815 213.862 136.845 213.792 136.847ZM202.255 136.31H213.534V118.209C213.534 118.138 213.563 118.069 213.613 118.019C213.663 117.969 213.732 117.94 213.803 117.94H217.026L207.894 106.44L198.763 117.94H201.986C202.057 117.94 202.126 117.969 202.176 118.019C202.226 118.069 202.255 118.138 202.255 118.209V136.31Z" fill="#2196F3"/>
<path d="M243.721 166.9H231.904C231.833 166.9 231.765 166.871 231.715 166.821C231.664 166.771 231.636 166.702 231.636 166.631V148.53H228.128C228.078 148.529 228.029 148.515 227.986 148.488C227.944 148.461 227.91 148.423 227.888 148.378C227.866 148.332 227.857 148.282 227.863 148.232C227.868 148.182 227.888 148.134 227.919 148.095L237.587 135.896C237.613 135.866 237.645 135.841 237.681 135.824C237.717 135.808 237.757 135.799 237.797 135.799C237.837 135.799 237.876 135.808 237.912 135.824C237.949 135.841 237.981 135.866 238.006 135.896L247.675 148.095C247.706 148.134 247.725 148.182 247.731 148.232C247.736 148.282 247.728 148.332 247.706 148.378C247.684 148.423 247.65 148.461 247.607 148.488C247.565 148.515 247.516 148.529 247.465 148.53H243.942V166.631C243.943 166.695 243.921 166.757 243.881 166.806C243.84 166.855 243.784 166.888 243.721 166.9ZM232.189 166.362H243.469V148.261C243.469 148.19 243.497 148.122 243.548 148.071C243.598 148.021 243.666 147.992 243.738 147.992H246.96L237.829 136.492L228.698 147.992H231.921C231.991 147.994 232.059 148.023 232.109 148.073C232.159 148.123 232.188 148.19 232.189 148.261V166.362Z" fill="#2196F3"/>
<path d="M231.458 96.708H219.641C219.57 96.708 219.502 96.6797 219.452 96.6293C219.401 96.5789 219.373 96.5106 219.373 96.4394V78.338H215.849C215.798 78.3383 215.748 78.3237 215.705 78.296C215.662 78.2684 215.628 78.2288 215.608 78.1822C215.586 78.1364 215.578 78.0856 215.584 78.0353C215.589 77.9851 215.609 77.9374 215.64 77.8975L225.308 65.6992C225.334 65.6686 225.367 65.644 225.404 65.6271C225.44 65.6103 225.48 65.6016 225.52 65.6016C225.561 65.6016 225.601 65.6103 225.637 65.6271C225.674 65.644 225.706 65.6686 225.733 65.6992L235.401 77.8975C235.432 77.9376 235.451 77.9853 235.456 78.0354C235.461 78.0856 235.453 78.1363 235.431 78.1818C235.409 78.2274 235.375 78.266 235.333 78.2936C235.291 78.3212 235.242 78.3365 235.192 78.338H231.668V96.4394C231.669 96.5015 231.649 96.5622 231.611 96.6111C231.573 96.6601 231.519 96.6943 231.458 96.708ZM219.926 96.1708H231.206V78.0694C231.206 77.9982 231.234 77.9299 231.285 77.8795C231.335 77.8291 231.403 77.8008 231.475 77.8008H234.697L225.566 66.2954L216.435 77.8008H219.658C219.729 77.8008 219.797 77.8291 219.847 77.8795C219.898 77.9299 219.926 77.9982 219.926 78.0694V96.1708Z" fill="#2196F3"/>
<path d="M119.821 98.8191H108.004C107.933 98.8191 107.864 98.7908 107.814 98.7404C107.764 98.69 107.735 98.6217 107.735 98.5505V80.4491H104.217C104.166 80.4499 104.116 80.4362 104.073 80.4097C104.03 80.3832 103.995 80.345 103.972 80.2995C103.95 80.2539 103.94 80.2029 103.946 80.1524C103.951 80.1018 103.971 80.0539 104.002 80.014L113.697 67.8103C113.723 67.7798 113.755 67.7553 113.791 67.7384C113.828 67.7216 113.867 67.7129 113.907 67.7129C113.947 67.7129 113.986 67.7216 114.022 67.7384C114.059 67.7553 114.091 67.7798 114.116 67.8103L123.812 80.014C123.843 80.0535 123.862 80.101 123.868 80.151C123.873 80.2011 123.865 80.2517 123.843 80.297C123.821 80.3424 123.787 80.3807 123.744 80.4076C123.702 80.4345 123.653 80.4488 123.602 80.4491H120.079V98.5505C120.079 98.6199 120.052 98.6866 120.004 98.7367C119.956 98.7868 119.89 98.8163 119.821 98.8191ZM108.283 98.2819H119.563V80.1805C119.563 80.1093 119.591 80.041 119.642 79.9906C119.692 79.9402 119.76 79.9119 119.832 79.9119H123.054L113.923 68.4119L104.792 79.9119H108.015C108.086 79.9119 108.154 79.9402 108.205 79.9906C108.255 80.041 108.283 80.1093 108.283 80.1805V98.2819Z" fill="#2196F3"/>
<path d="M138.62 166.9H126.803C126.732 166.9 126.664 166.871 126.613 166.821C126.563 166.771 126.535 166.702 126.535 166.631V148.53H123.011C122.961 148.529 122.912 148.515 122.869 148.488C122.826 148.461 122.792 148.423 122.77 148.378C122.749 148.332 122.74 148.282 122.746 148.232C122.751 148.182 122.771 148.134 122.802 148.095L132.497 135.896C132.523 135.866 132.555 135.841 132.591 135.824C132.627 135.808 132.667 135.799 132.707 135.799C132.746 135.799 132.786 135.808 132.822 135.824C132.858 135.841 132.89 135.866 132.916 135.896L142.611 148.095C142.643 148.134 142.662 148.182 142.668 148.233C142.673 148.283 142.664 148.334 142.641 148.38C142.619 148.426 142.584 148.464 142.541 148.49C142.497 148.517 142.447 148.53 142.396 148.53H138.878V166.631C138.878 166.7 138.851 166.767 138.803 166.817C138.755 166.867 138.69 166.897 138.62 166.9ZM127.083 166.362H138.363V148.261C138.363 148.19 138.391 148.122 138.441 148.071C138.492 148.021 138.56 147.992 138.631 147.992H141.854L132.723 136.492L123.591 147.992H126.814C126.885 147.992 126.954 148.021 127.004 148.071C127.054 148.122 127.083 148.19 127.083 148.261V166.362Z" fill="#2196F3"/>
<path d="M164.295 201C194.553 201 219.082 197.869 219.082 194.006C219.082 190.143 194.553 187.012 164.295 187.012C134.036 187.012 109.507 190.143 109.507 194.006C109.507 197.869 134.036 201 164.295 201Z" fill="#2196F3"/>
<path opacity="0.5" d="M164.295 201C194.553 201 219.082 197.869 219.082 194.006C219.082 190.143 194.553 187.012 164.295 187.012C134.036 187.012 109.507 190.143 109.507 194.006C109.507 197.869 134.036 201 164.295 201Z" fill="white"/>
<path d="M206.044 40.8624C206.779 36.9485 206.342 32.9047 204.788 29.2382C203.234 25.5716 200.632 22.4455 197.308 20.2519C193.985 18.0583 190.087 16.8948 186.105 16.9073C182.123 16.9199 178.233 18.1079 174.923 20.3224C172.519 14.4789 168.162 9.65078 162.594 6.66216C157.027 3.67354 150.595 2.70967 144.397 3.93509C138.198 5.1605 132.616 8.49924 128.605 13.3814C124.594 18.2636 122.401 24.3866 122.402 30.7052C122.402 31.0436 122.402 31.3767 122.402 31.7097C118.483 32.8265 115.067 35.2568 112.728 38.5929C110.388 41.929 109.266 45.9682 109.551 50.0331C109.835 54.098 111.509 57.9415 114.291 60.919C117.073 63.8966 120.794 65.8272 124.83 66.3871V66.5751H205.174C208.439 66.4618 211.538 65.1138 213.847 62.8032C216.155 60.4927 217.501 57.392 217.611 54.1277C217.722 50.8633 216.589 47.6788 214.442 45.2174C212.295 42.7561 209.294 41.2015 206.044 40.8678V40.8624Z" fill="#263238" stroke="#263238" stroke-linecap="round" stroke-linejoin="round"/>
<path d="M206.044 38.4455C206.779 34.5315 206.342 30.4877 204.788 26.8212C203.234 23.1546 200.632 20.0285 197.308 17.8349C193.985 15.6413 190.087 14.4778 186.105 14.4904C182.123 14.5029 178.233 15.6909 174.923 17.9054C172.519 12.0623 168.162 7.23448 162.595 4.2458C157.029 1.25712 150.598 0.292859 144.399 1.51758C138.201 2.74229 132.619 6.08008 128.608 10.9613C124.596 15.8425 122.403 21.9647 122.402 28.2829C122.402 28.6213 122.402 28.9543 122.402 29.2873C118.483 30.4042 115.067 32.8344 112.728 36.1705C110.388 39.5067 109.266 43.5458 109.551 47.6107C109.835 51.6756 111.509 55.5191 114.291 58.4967C117.073 61.4742 120.794 63.4048 124.83 63.9647V64.1527H205.174C208.439 64.0395 211.538 62.6914 213.847 60.3809C216.155 58.0704 217.501 54.9697 217.611 51.7053C217.722 48.441 216.589 45.2564 214.442 42.7951C212.295 40.3337 209.294 38.7791 206.044 38.4455Z" fill="#2196F3" stroke="#263238" stroke-linecap="round" stroke-linejoin="round"/>
<path d="M164.305 110.449L160.927 112.222C160.927 112.222 157.226 113.833 154.809 115.117C152.392 116.401 140.483 125.58 140.483 125.58L138.072 125.741L136.621 126.708C136.621 126.708 134.204 127.192 134.204 127.675C134.204 128.159 134.688 128.314 135.171 128.314C135.899 128.131 136.602 127.862 137.266 127.514C137.266 127.514 135.628 129.91 136.272 129.91C137.206 130.006 138.133 130.155 139.049 130.355C140.115 130.157 141.191 130.013 142.272 129.926C143.078 129.926 145.006 125.58 145.006 125.58C145.006 125.58 158.848 120.107 160.621 118.818C162.393 117.529 167.539 114.311 167.539 114.311L164.305 110.449Z" fill="white" stroke="#263238" stroke-linecap="round" stroke-linejoin="round"/>
<path d="M177.299 97.2256L162.21 110.933L166.561 116.084L174.93 112.867L177.825 97.4136L177.299 97.2256Z" fill="#2196F3" stroke="#263238" stroke-linecap="round" stroke-linejoin="round"/>
<path d="M164.225 109.106L162.21 110.933L166.561 116.084L169.156 115.085L164.225 109.106Z" fill="#263238" stroke="#263238" stroke-linecap="round" stroke-linejoin="round"/>
<path d="M203.634 183C203.634 183 208.426 187.985 208.914 190.429C209.403 192.873 208.232 195.027 206.277 194.436C204.322 193.845 202.56 187.792 202.071 186.717C201.583 185.643 200.997 184.467 200.997 184.467C200.997 184.467 202.463 182.512 203.634 183Z" fill="#2196F3" stroke="#263238" stroke-linecap="round" stroke-linejoin="round"/>
<path d="M208.957 190.691C209.312 193.022 208.157 194.988 206.272 194.451C205.589 194.252 204.934 193.377 204.349 192.303C205.627 190.235 207.684 190.348 208.957 190.691Z" fill="white" stroke="#263238" stroke-linecap="round" stroke-linejoin="round"/>
<path d="M203.683 190.891C204.757 192.358 206.121 193.931 207.153 193.657C208.184 193.383 208.726 191.444 208.914 190.435C209.398 192.873 208.227 195.011 206.277 194.425C205.321 194.152 204.418 192.567 203.683 190.891Z" fill="white" stroke="#263238" stroke-linecap="round" stroke-linejoin="round"/>
<path d="M202.657 185.739C202.657 185.739 204.805 184.563 204.907 184.955C205.009 185.347 202.855 186.421 202.56 186.421C202.264 186.421 202.071 186.325 202.657 185.739Z" fill="white" stroke="#263238" stroke-width="0.5" stroke-linecap="round" stroke-linejoin="round"/>
<path d="M203.146 186.422C203.146 186.422 205.294 185.251 205.396 185.643C205.498 186.035 203.344 187.109 203.049 187.109C202.753 187.109 202.56 187.013 203.146 186.422Z" fill="white" stroke="#263238" stroke-width="0.5" stroke-linecap="round" stroke-linejoin="round"/>
<path d="M203.635 187.109C203.635 187.109 205.783 185.933 205.885 186.325C205.987 186.717 203.833 187.792 203.538 187.792C203.242 187.792 203.049 187.695 203.635 187.109Z" fill="white" stroke="#263238" stroke-width="0.5" stroke-linecap="round" stroke-linejoin="round"/>
<path d="M204.123 187.791C204.123 187.791 206.271 186.62 206.373 187.007C206.475 187.394 204.322 188.473 204.026 188.473C203.731 188.473 203.537 188.377 204.123 187.791Z" fill="white" stroke="#263238" stroke-width="0.5" stroke-linecap="round" stroke-linejoin="round"/>
<path d="M165.03 187.485C165.03 187.485 166.9 190.09 167.066 191.568C167.233 193.045 165.992 193.082 164.413 192.916C162.834 192.749 160.948 193.915 158.724 193.856C156.501 193.797 153.928 192.824 155.163 191.766C156.399 190.708 159.621 189.838 160.32 189.231C160.737 188.866 161.128 188.473 161.491 188.055L165.03 187.485Z" fill="#2196F3" stroke="#263238" stroke-linecap="round" stroke-linejoin="round"/>
<path d="M155.163 191.766C155.597 191.425 156.074 191.141 156.581 190.923C157.149 191.227 157.649 191.644 158.05 192.148C158.451 192.653 158.744 193.234 158.912 193.856H158.719C156.495 193.797 153.928 192.824 155.163 191.766Z" fill="white" stroke="#263238" stroke-linecap="round" stroke-linejoin="round"/>
<path d="M160.524 188.886C160.524 188.886 162.817 190.084 162.237 190.32C161.657 190.556 159.917 189.213 160.524 188.886Z" fill="white" stroke="#263238" stroke-width="0.5" stroke-linecap="round" stroke-linejoin="round"/>
<path d="M159.632 189.129C159.632 189.129 161.926 190.327 161.346 190.563C160.766 190.799 159.025 189.457 159.632 189.129Z" fill="white" stroke="#263238" stroke-width="0.5" stroke-linecap="round" stroke-linejoin="round"/>
<path d="M159.117 189.482C159.117 189.482 161.41 190.68 160.83 190.917C160.25 191.153 158.51 189.81 159.117 189.482Z" fill="white" stroke="#263238" stroke-width="0.5" stroke-linecap="round" stroke-linejoin="round"/>
<path d="M158.182 189.913C158.182 189.913 160.476 191.111 159.896 191.347C159.315 191.584 157.564 190.235 158.182 189.913Z" fill="white" stroke="#263238" stroke-width="0.5" stroke-linecap="round" stroke-linejoin="round"/>
<path d="M154.906 192.093C156.513 193.04 158.426 193.323 160.239 192.883C161.923 192.513 163.632 192.276 165.353 192.174C165.938 192.157 166.518 192.059 167.077 191.884C167.034 193.049 165.874 193.071 164.391 192.915C162.812 192.743 160.927 193.914 158.703 193.855C156.726 193.801 154.47 193.017 154.906 192.093Z" fill="white" stroke="#263238" stroke-linecap="round" stroke-linejoin="round"/>
<path d="M188.519 130.076C188.519 130.076 187.391 145.782 188.073 149.59C188.756 153.398 190.437 164.737 190.437 164.737C190.437 164.737 192.983 166.596 195.523 170.699C198.064 174.803 203.634 183.016 203.634 183.016C203.634 183.016 203.833 184.482 202.071 184.971C202.071 184.971 201.19 185.363 200.701 184.971C200.213 184.579 183.513 169.136 181.542 165.913C179.571 162.691 176.949 142.86 176.949 142.86L174.409 142.371L163.666 162.9L165.535 187.855C165.535 187.855 165.68 188.715 164.461 189.064C163.242 189.413 162.259 189.537 161.528 188.908C160.798 188.28 155.142 160.95 155.62 159.973C156.098 158.995 166.937 132.128 166.937 132.128L167.813 129.882C167.813 129.882 178.077 131.053 182.67 130.172C187.262 129.292 188.132 128.593 188.519 130.076Z" fill="#263238" stroke="#263238" stroke-linecap="round" stroke-linejoin="round"/>
<path d="M174.409 142.355L168.833 140.695" stroke="white" stroke-linecap="round" stroke-linejoin="round"/>
<path d="M173.818 142.65L166.196 141.77" stroke="white" stroke-linecap="round" stroke-linejoin="round"/>
<path d="M186.768 133.116C186.768 133.116 182.643 135.748 186.768 137.505" stroke="white" stroke-linecap="round" stroke-linejoin="round"/>
<path d="M175.091 134.19L174.457 136.726L172.76 138.423L174.876 140.324" stroke="white" stroke-linecap="round" stroke-linejoin="round"/>
<path d="M199.257 104.143C195.497 101.093 190.829 97.4078 190.829 97.4078C190.829 97.4078 180.93 97.1822 177.298 97.2252L172.196 113.511C172.196 113.511 167.507 129.733 167.7 130.42C167.893 131.108 171.224 132.665 178.652 133.546C186.081 134.427 189.207 131.301 189.395 130.323C189.476 129.438 189.41 128.545 189.201 127.681L191.742 123.185L200.148 109.359C200.655 108.529 200.844 107.543 200.68 106.584C200.516 105.625 200.011 104.758 199.257 104.143Z" fill="#2196F3" stroke="#263238" stroke-linecap="round" stroke-linejoin="round"/>
<path d="M196.318 101.763C193.439 99.4537 190.845 97.4072 190.845 97.4072C190.845 97.4072 187.558 97.332 184.082 97.2783C183.202 99.2872 181.681 103.391 182.933 105.421C184.458 107.924 189.502 108.671 196.318 101.763Z" fill="#263238" stroke="#263238" stroke-linecap="round" stroke-linejoin="round"/>
<path d="M191.844 80.6608C191.844 80.6608 189.014 81.445 187.837 83.2014C186.661 84.9579 183.245 95.2279 183.341 96.0926C183.438 96.9574 187.837 96.0926 187.837 96.0926C187.837 96.0926 184.808 102.447 184.808 103.521C184.808 104.595 186.177 105.186 187.934 104.794C189.69 104.402 195.69 94.0891 195.69 94.0891C195.69 94.0891 197.468 96.1517 198.591 95.4427C199.88 94.6316 199.472 92.9988 198.494 92.9988C197.516 92.9988 201.228 88.9917 199.96 86.3544C198.693 83.7171 193.021 79.7853 191.844 80.6608Z" fill="white" stroke="#263238" stroke-linecap="round" stroke-linejoin="round"/>
<path d="M190.77 77.5392C190.77 77.5392 185.296 77.5392 185.001 80.1765C184.705 82.8138 187.547 83.9901 190.673 83.5013C193.799 83.0126 196.635 83.2059 197.027 83.6947C197.419 84.1835 193.214 85.1611 194.191 85.8432C194.76 86.2513 195.447 86.4591 196.146 86.4341C196.146 86.4341 194.777 86.8208 194.873 87.7984C194.97 88.776 195.824 93.0946 196.485 93.0946C197.146 93.0946 198.472 93.0086 198.472 93.0086C199.71 92.3861 200.834 91.56 201.797 90.5647C203.263 89.0016 203.65 85.6767 201.797 83.7269C199.944 81.7772 198.472 79.8811 197.006 78.318C195.539 76.7549 194.17 75.0952 191.237 74.7031C188.304 74.311 186.763 75.4819 190.77 77.5392Z" fill="#263238" stroke="#263238" stroke-linecap="round" stroke-linejoin="round"/>
<path d="M202.184 87.6416C202.285 88.2143 202.305 88.7983 202.243 89.3765" stroke="white" stroke-linecap="round" stroke-linejoin="round"/>
<path d="M192.14 80.6221C192.14 80.6221 186.14 81.2075 188.38 82.3516C190.62 83.4957 194.116 81.3526 198.483 83.0821C199.22 83.3482 199.893 83.7658 200.458 84.308C201.023 84.8502 201.468 85.5048 201.765 86.2298" stroke="white" stroke-linecap="round" stroke-linejoin="round"/>
<path d="M195.781 85.1777C195.781 85.1777 199.88 87.1812 200.422 90.0925" stroke="white" stroke-linecap="round" stroke-linejoin="round"/>
<path d="M187.837 96.1085C187.837 96.1085 192.532 95.8184 193.799 94.7441" stroke="#263238" stroke-linecap="round" stroke-linejoin="round"/>
<path d="M186.371 92.1973C186.371 92.1973 189.792 93.1749 190.77 91.123" stroke="#263238" stroke-linecap="round" stroke-linejoin="round"/>
<path d="M190.184 90.7314L191.651 91.3223" stroke="#263238" stroke-linecap="round" stroke-linejoin="round"/>
<path d="M187.445 87.7021C187.445 87.7021 184.416 88.0943 184.416 88.583C184.416 89.0718 186.371 90.4415 186.371 90.4415" fill="white"/>
<path d="M187.445 87.7021C187.445 87.7021 184.416 88.0943 184.416 88.583C184.416 89.0718 186.371 90.4415 186.371 90.4415" stroke="#263238" stroke-linecap="round" stroke-linejoin="round"/>
<path d="M187.832 86.7615C187.692 87.1859 187.407 87.4706 187.192 87.4007C186.978 87.3309 186.924 86.9334 187.069 86.5091C187.214 86.0848 187.493 85.8001 187.708 85.8699C187.923 85.9397 187.977 86.3426 187.832 86.7615Z" fill="#263238"/>
<path d="M190.41 88.0671C190.265 88.4914 189.98 88.7761 189.771 88.7062C189.561 88.6364 189.502 88.2336 189.642 87.8146C189.782 87.3956 190.072 87.1056 190.281 87.1754C190.491 87.2452 190.544 87.6427 190.41 88.0671Z" fill="#263238"/>
<path d="M190.544 85.291C190.544 85.291 192.027 85.4253 191.887 87.4396L190.544 85.291Z" fill="#263238" stroke="#263238" stroke-linecap="round" stroke-linejoin="round"/>
<path d="M189.202 84.3499C189.202 84.3499 188.39 83.2756 187.316 84.7528L189.202 84.3499Z" fill="#263238" stroke="#263238" stroke-linecap="round" stroke-linejoin="round"/>
<path d="M162.227 48.598L148.079 30.792L133.936 48.598H139.469V75.4063H156.694V48.598H162.227Z" fill="#263238" stroke="#263238" stroke-linecap="round" stroke-linejoin="round"/>
<path d="M162.227 47.4437L148.079 29.6377L133.936 47.4437H139.469V74.2521H156.694V47.4437H162.227Z" fill="white" stroke="#263238" stroke-linecap="round" stroke-linejoin="round"/>
<path d="M175.671 71.2275H118.139V128.76H175.671V71.2275Z" fill="white" stroke="#263238" stroke-linecap="round" stroke-linejoin="round"/>
<path d="M172.996 73.9014H120.814V126.084H172.996V73.9014Z" fill="#263238" stroke="#263238" stroke-linecap="round" stroke-linejoin="round"/>
<path d="M160.895 91.4725L148.723 104.192L139.248 101.538C138.781 101.408 138.291 101.385 137.814 101.471C137.337 101.556 136.885 101.748 136.493 102.033L120.814 113.425V126.107H172.996V99.2502L165.53 91.4671C165.229 91.1564 164.869 90.9094 164.47 90.7409C164.072 90.5724 163.644 90.4858 163.211 90.4863C162.779 90.4868 162.351 90.5744 161.953 90.7438C161.555 90.9133 161.195 91.1611 160.895 91.4725Z" fill="white" stroke="#263238" stroke-linecap="round" stroke-linejoin="round"/>
<path d="M146.253 90.4413C147.634 87.0768 146.027 83.2297 142.662 81.8484C139.298 80.4672 135.451 82.0749 134.069 85.4394C132.688 88.8038 134.296 92.651 137.66 94.0322C141.025 95.4134 144.872 93.8057 146.253 90.4413Z" fill="white" stroke="#263238" stroke-linecap="round" stroke-linejoin="round"/>
<path d="M192.07 106.631L177.691 121.413L155.776 127.45C155.776 127.45 153.821 125.178 152.413 125.162C151.006 125.146 146.473 126.774 146.473 126.774C146.473 126.774 145.898 128.181 147.01 128.192C148.153 128.111 149.287 127.931 150.399 127.654L144.184 128.729C144.259 129.202 144.5 129.633 144.862 129.946C145.225 130.259 145.687 130.433 146.166 130.437H148.965L153.751 131.044L158.279 129.674C158.279 129.674 179.732 127.338 180.865 127.064C181.999 126.79 200.202 111.164 200.202 111.164C200.202 111.164 202.259 109.354 201.475 107.254C200.691 105.154 196.678 103.666 196.678 103.666" fill="white"/>
<path d="M192.07 106.631L177.691 121.413L155.776 127.45C155.776 127.45 153.821 125.178 152.413 125.162C151.006 125.146 146.473 126.774 146.473 126.774C146.473 126.774 145.898 128.181 147.01 128.192C148.153 128.111 149.287 127.931 150.399 127.654L144.184 128.729C144.259 129.202 144.5 129.633 144.862 129.946C145.225 130.259 145.687 130.433 146.166 130.437H148.965L153.751 131.044L158.279 129.674C158.279 129.674 179.732 127.338 180.865 127.064C181.999 126.79 200.202 111.164 200.202 111.164C200.202 111.164 202.259 109.354 201.475 107.254C200.691 105.154 196.678 103.666 196.678 103.666" stroke="#263238" stroke-linecap="round" stroke-linejoin="round"/>
<path d="M189.475 108.171L178.512 119.166L186.65 125.037L200.787 111.721C201.477 111.075 201.926 110.212 202.058 109.276C202.189 108.34 201.997 107.387 201.513 106.575L201.464 106.5C200.45 104.892 199.016 103.592 197.318 102.74" fill="#2196F3"/>
<path d="M189.475 108.171L178.512 119.166L186.65 125.037L200.787 111.721C201.477 111.075 201.926 110.212 202.058 109.276C202.189 108.34 201.997 107.387 201.513 106.575L201.464 106.5C200.45 104.892 199.016 103.592 197.318 102.74" stroke="#263238" stroke-linecap="round" stroke-linejoin="round"/>
<path d="M186.672 125.037L188.584 123.233L180.403 117.271L178.512 119.167L186.672 125.037Z" fill="#263238" stroke="#263238" stroke-linecap="round" stroke-linejoin="round"/>
<path d="M134.204 127.675L136.272 129.91L138.276 130.13L135.166 127.466L134.204 127.675Z" fill="white" stroke="#263238" stroke-linecap="round" stroke-linejoin="round"/>
<path d="M138.093 127.675L140.161 129.91L142.159 130.13L139.049 127.466L138.093 127.675Z" fill="white" stroke="#263238" stroke-linecap="round" stroke-linejoin="round"/>
<path d="M138.276 130.13L135.939 127.133H137.384L140.274 130.13L139.049 130.356L138.276 130.13Z" fill="white" stroke="#263238" stroke-linecap="round" stroke-linejoin="round"/>
<path d="M133.388 127.912L134.387 129.797L136.272 129.91L134.204 127.676L133.388 127.912Z" fill="white" stroke="#263238" stroke-linecap="round" stroke-linejoin="round"/>
<path d="M41.2969 255.913C41.1832 254.905 40.7145 254.124 39.8906 253.57C39.0668 253.009 38.0298 252.728 36.7798 252.728C35.8849 252.728 35.1108 252.87 34.4574 253.154C33.804 253.431 33.2962 253.815 32.9339 254.305C32.5788 254.788 32.4013 255.338 32.4013 255.956C32.4013 256.474 32.522 256.922 32.7635 257.298C33.0121 257.675 33.3352 257.991 33.733 258.246C34.1378 258.495 34.571 258.705 35.0327 258.875C35.4943 259.038 35.9382 259.173 36.3643 259.28L38.495 259.834C39.1911 260.004 39.9048 260.235 40.6364 260.526C41.3679 260.817 42.0462 261.201 42.6712 261.677C43.2962 262.153 43.8004 262.742 44.1839 263.445C44.5746 264.148 44.7699 264.99 44.7699 265.97C44.7699 267.206 44.4503 268.303 43.8111 269.262C43.179 270.221 42.2592 270.977 41.0518 271.531C39.8516 272.085 38.3991 272.362 36.6946 272.362C35.0611 272.362 33.6477 272.103 32.4545 271.585C31.2614 271.066 30.3274 270.331 29.6527 269.379C28.978 268.42 28.6051 267.284 28.5341 265.97H31.8366C31.9006 266.759 32.1563 267.415 32.6037 267.941C33.0582 268.46 33.6371 268.847 34.3402 269.102C35.0504 269.351 35.8281 269.475 36.6733 269.475C37.6037 269.475 38.4311 269.33 39.1555 269.038C39.8871 268.74 40.4624 268.328 40.8814 267.803C41.3004 267.27 41.5099 266.648 41.5099 265.938C41.5099 265.292 41.3253 264.763 40.956 264.351C40.5938 263.939 40.1001 263.598 39.4751 263.328C38.8572 263.058 38.1577 262.82 37.3764 262.614L34.7983 261.911C33.0511 261.435 31.6662 260.736 30.6435 259.812C29.6278 258.889 29.12 257.668 29.12 256.148C29.12 254.891 29.4609 253.793 30.1428 252.856C30.8246 251.918 31.7479 251.19 32.9126 250.672C34.0774 250.146 35.3913 249.884 36.8544 249.884C38.3317 249.884 39.6349 250.143 40.7642 250.661C41.9006 251.18 42.7955 251.893 43.4489 252.803C44.1023 253.705 44.4432 254.741 44.4716 255.913H41.2969ZM53.2851 272.362C52.2481 272.362 51.3106 272.17 50.4726 271.787C49.6345 271.396 48.9704 270.832 48.4804 270.093C47.9974 269.354 47.7559 268.449 47.7559 267.376C47.7559 266.453 47.9335 265.693 48.2886 265.097C48.6437 264.5 49.1231 264.028 49.7268 263.68C50.3305 263.332 51.0052 263.069 51.751 262.891C52.4967 262.714 53.2566 262.579 54.0308 262.487C55.0109 262.373 55.8064 262.281 56.4172 262.21C57.0279 262.131 57.4718 262.007 57.7488 261.837C58.0258 261.666 58.1643 261.389 58.1643 261.006V260.931C58.1643 260.001 57.9015 259.28 57.376 258.768C56.8575 258.257 56.0833 258.001 55.0535 258.001C53.9811 258.001 53.1359 258.239 52.518 258.715C51.9072 259.184 51.4846 259.706 51.2502 260.281L48.2566 259.599C48.6118 258.605 49.1302 257.803 49.812 257.192C50.501 256.574 51.2929 256.126 52.1877 255.849C53.0826 255.565 54.0237 255.423 55.0109 255.423C55.6643 255.423 56.3568 255.501 57.0883 255.658C57.827 255.807 58.5159 256.084 59.1551 256.489C59.8014 256.893 60.3305 257.472 60.7424 258.225C61.1544 258.971 61.3603 259.94 61.3603 261.134V272H58.2495V269.763H58.1217C57.9157 270.175 57.6068 270.58 57.1949 270.977C56.7829 271.375 56.2538 271.705 55.6075 271.968C54.9612 272.231 54.187 272.362 53.2851 272.362ZM53.9775 269.805C54.8582 269.805 55.611 269.631 56.236 269.283C56.8681 268.935 57.3476 268.481 57.6743 267.92C58.0081 267.352 58.175 266.744 58.175 266.098V263.989C58.0613 264.102 57.8412 264.209 57.5145 264.308C57.1949 264.401 56.8291 264.482 56.4172 264.553C56.0052 264.617 55.6039 264.678 55.2133 264.734C54.8227 264.784 54.496 264.827 54.2332 264.862C53.6153 264.94 53.0507 265.072 52.5393 265.256C52.0351 265.441 51.6302 265.707 51.3248 266.055C51.0265 266.396 50.8774 266.851 50.8774 267.419C50.8774 268.207 51.1686 268.804 51.751 269.209C52.3333 269.607 53.0755 269.805 53.9775 269.805ZM73.3166 255.636V258.193H64.3783V255.636H73.3166ZM66.7754 251.716H69.9607V267.195C69.9607 267.813 70.0531 268.278 70.2377 268.591C70.4224 268.896 70.6603 269.106 70.9515 269.219C71.2498 269.326 71.5729 269.379 71.921 269.379C72.1766 269.379 72.4004 269.362 72.5921 269.326C72.7839 269.29 72.933 269.262 73.0396 269.241L73.6148 271.872C73.4302 271.943 73.1674 272.014 72.8265 272.085C72.4856 272.163 72.0594 272.206 71.5481 272.213C70.71 272.227 69.9288 272.078 69.2043 271.766C68.4799 271.453 67.894 270.97 67.4465 270.317C66.9991 269.663 66.7754 268.843 66.7754 267.856V251.716ZM87.2809 265.214V255.636H90.477V272H87.3448V269.166H87.1744C86.798 270.04 86.1943 270.768 85.3633 271.35C84.5395 271.925 83.5132 272.213 82.2845 272.213C81.2333 272.213 80.3029 271.982 79.4933 271.521C78.6907 271.052 78.0586 270.359 77.597 269.443C77.1424 268.527 76.9152 267.394 76.9152 266.045V255.636H80.1005V265.661C80.1005 266.776 80.4095 267.664 81.0274 268.325C81.6453 268.985 82.4478 269.315 83.435 269.315C84.0316 269.315 84.6247 269.166 85.2142 268.868C85.8108 268.57 86.3044 268.119 86.695 267.515C87.0927 266.911 87.288 266.144 87.2809 265.214ZM103.102 272V250.182H106.394V269.166H116.28V272H103.102ZM124.617 272.362C123.58 272.362 122.643 272.17 121.805 271.787C120.967 271.396 120.302 270.832 119.812 270.093C119.329 269.354 119.088 268.449 119.088 267.376C119.088 266.453 119.266 265.693 119.621 265.097C119.976 264.5 120.455 264.028 121.059 263.68C121.663 263.332 122.337 263.069 123.083 262.891C123.829 262.714 124.589 262.579 125.363 262.487C126.343 262.373 127.138 262.281 127.749 262.21C128.36 262.131 128.804 262.007 129.081 261.837C129.358 261.666 129.496 261.389 129.496 261.006V260.931C129.496 260.001 129.234 259.28 128.708 258.768C128.19 258.257 127.415 258.001 126.386 258.001C125.313 258.001 124.468 258.239 123.85 258.715C123.239 259.184 122.817 259.706 122.582 260.281L119.589 259.599C119.944 258.605 120.462 257.803 121.144 257.192C121.833 256.574 122.625 256.126 123.52 255.849C124.415 255.565 125.356 255.423 126.343 255.423C126.996 255.423 127.689 255.501 128.42 255.658C129.159 255.807 129.848 256.084 130.487 256.489C131.133 256.893 131.663 257.472 132.074 258.225C132.486 258.971 132.692 259.94 132.692 261.134V272H129.582V269.763H129.454C129.248 270.175 128.939 270.58 128.527 270.977C128.115 271.375 127.586 271.705 126.94 271.968C126.293 272.231 125.519 272.362 124.617 272.362ZM125.31 269.805C126.19 269.805 126.943 269.631 127.568 269.283C128.2 268.935 128.68 268.481 129.006 267.92C129.34 267.352 129.507 266.744 129.507 266.098V263.989C129.393 264.102 129.173 264.209 128.846 264.308C128.527 264.401 128.161 264.482 127.749 264.553C127.337 264.617 126.936 264.678 126.545 264.734C126.155 264.784 125.828 264.827 125.565 264.862C124.947 264.94 124.383 265.072 123.871 265.256C123.367 265.441 122.962 265.707 122.657 266.055C122.359 266.396 122.209 266.851 122.209 267.419C122.209 268.207 122.501 268.804 123.083 269.209C123.665 269.607 124.408 269.805 125.31 269.805ZM140.195 262.284V272H137.01V255.636H140.068V258.3H140.27C140.646 257.433 141.236 256.737 142.038 256.212C142.848 255.686 143.867 255.423 145.096 255.423C146.211 255.423 147.188 255.658 148.026 256.126C148.864 256.588 149.514 257.277 149.975 258.193C150.437 259.109 150.668 260.242 150.668 261.592V272H147.482V261.975C147.482 260.789 147.173 259.862 146.556 259.195C145.938 258.52 145.089 258.183 144.009 258.183C143.271 258.183 142.614 258.342 142.038 258.662C141.47 258.982 141.019 259.45 140.686 260.068C140.359 260.679 140.195 261.418 140.195 262.284ZM161.876 278.477C160.576 278.477 159.457 278.307 158.52 277.966C157.589 277.625 156.829 277.174 156.24 276.613C155.65 276.052 155.21 275.438 154.919 274.77L157.657 273.641C157.849 273.953 158.104 274.283 158.424 274.631C158.751 274.987 159.191 275.288 159.745 275.537C160.306 275.786 161.027 275.91 161.908 275.91C163.115 275.91 164.113 275.615 164.901 275.026C165.689 274.443 166.084 273.513 166.084 272.234V269.017H165.881C165.689 269.365 165.412 269.752 165.05 270.178C164.695 270.604 164.205 270.974 163.58 271.286C162.955 271.599 162.142 271.755 161.14 271.755C159.848 271.755 158.683 271.453 157.646 270.849C156.616 270.239 155.8 269.34 155.196 268.154C154.599 266.961 154.301 265.494 154.301 263.754C154.301 262.014 154.596 260.523 155.185 259.28C155.782 258.037 156.599 257.085 157.636 256.425C158.672 255.757 159.848 255.423 161.162 255.423C162.177 255.423 162.998 255.594 163.623 255.935C164.248 256.268 164.734 256.659 165.082 257.107C165.437 257.554 165.711 257.948 165.903 258.289H166.137V255.636H169.258V272.362C169.258 273.768 168.932 274.923 168.278 275.825C167.625 276.727 166.741 277.394 165.626 277.827C164.518 278.261 163.268 278.477 161.876 278.477ZM161.844 269.113C162.76 269.113 163.534 268.9 164.166 268.474C164.805 268.04 165.288 267.423 165.615 266.62C165.949 265.81 166.116 264.841 166.116 263.712C166.116 262.611 165.952 261.641 165.626 260.803C165.299 259.965 164.819 259.312 164.187 258.843C163.555 258.367 162.774 258.129 161.844 258.129C160.885 258.129 160.086 258.378 159.447 258.875C158.807 259.365 158.324 260.033 157.998 260.878C157.678 261.723 157.518 262.668 157.518 263.712C157.518 264.784 157.682 265.725 158.008 266.535C158.335 267.344 158.818 267.977 159.457 268.431C160.104 268.886 160.899 269.113 161.844 269.113ZM176.535 266.45L176.514 262.561H177.068L183.588 255.636H187.402L179.965 263.52H179.465L176.535 266.45ZM173.605 272V250.182H176.791V272H173.605ZM183.939 272L178.08 264.223L180.274 261.996L187.849 272H183.939ZM195.142 272.362C194.105 272.362 193.167 272.17 192.329 271.787C191.491 271.396 190.827 270.832 190.337 270.093C189.854 269.354 189.613 268.449 189.613 267.376C189.613 266.453 189.79 265.693 190.145 265.097C190.5 264.5 190.98 264.028 191.583 263.68C192.187 263.332 192.862 263.069 193.608 262.891C194.353 262.714 195.113 262.579 195.887 262.487C196.868 262.373 197.663 262.281 198.274 262.21C198.885 262.131 199.328 262.007 199.605 261.837C199.882 261.666 200.021 261.389 200.021 261.006V260.931C200.021 260.001 199.758 259.28 199.233 258.768C198.714 258.257 197.94 258.001 196.91 258.001C195.838 258.001 194.993 258.239 194.375 258.715C193.764 259.184 193.341 259.706 193.107 260.281L190.113 259.599C190.468 258.605 190.987 257.803 191.669 257.192C192.358 256.574 193.15 256.126 194.044 255.849C194.939 255.565 195.88 255.423 196.868 255.423C197.521 255.423 198.213 255.501 198.945 255.658C199.684 255.807 200.373 256.084 201.012 256.489C201.658 256.893 202.187 257.472 202.599 258.225C203.011 258.971 203.217 259.94 203.217 261.134V272H200.106V269.763H199.978C199.772 270.175 199.463 270.58 199.051 270.977C198.64 271.375 198.11 271.705 197.464 271.968C196.818 272.231 196.044 272.362 195.142 272.362ZM195.834 269.805C196.715 269.805 197.468 269.631 198.093 269.283C198.725 268.935 199.204 268.481 199.531 267.92C199.865 267.352 200.032 266.744 200.032 266.098V263.989C199.918 264.102 199.698 264.209 199.371 264.308C199.051 264.401 198.686 264.482 198.274 264.553C197.862 264.617 197.461 264.678 197.07 264.734C196.679 264.784 196.353 264.827 196.09 264.862C195.472 264.94 194.907 265.072 194.396 265.256C193.892 265.441 193.487 265.707 193.181 266.055C192.883 266.396 192.734 266.851 192.734 267.419C192.734 268.207 193.025 268.804 193.608 269.209C194.19 269.607 194.932 269.805 195.834 269.805ZM210.72 262.284V272H207.535V250.182H210.677V258.3H210.88C211.263 257.419 211.849 256.719 212.638 256.201C213.426 255.683 214.456 255.423 215.727 255.423C216.849 255.423 217.829 255.654 218.668 256.116C219.513 256.577 220.166 257.266 220.628 258.183C221.096 259.092 221.331 260.228 221.331 261.592V272H218.145V261.975C218.145 260.775 217.837 259.844 217.219 259.184C216.601 258.516 215.741 258.183 214.641 258.183C213.888 258.183 213.213 258.342 212.616 258.662C212.027 258.982 211.562 259.45 211.221 260.068C210.887 260.679 210.72 261.418 210.72 262.284ZM233.927 272V250.182H237.219V269.166H247.105V272H233.927ZM255.442 272.362C254.405 272.362 253.467 272.17 252.629 271.787C251.791 271.396 251.127 270.832 250.637 270.093C250.154 269.354 249.913 268.449 249.913 267.376C249.913 266.453 250.09 265.693 250.445 265.097C250.8 264.5 251.28 264.028 251.883 263.68C252.487 263.332 253.162 263.069 253.908 262.891C254.653 262.714 255.413 262.579 256.187 262.487C257.168 262.373 257.963 262.281 258.574 262.21C259.185 262.131 259.628 262.007 259.905 261.837C260.182 261.666 260.321 261.389 260.321 261.006V260.931C260.321 260.001 260.058 259.28 259.533 258.768C259.014 258.257 258.24 258.001 257.21 258.001C256.138 258.001 255.293 258.239 254.675 258.715C254.064 259.184 253.641 259.706 253.407 260.281L250.413 259.599C250.768 258.605 251.287 257.803 251.969 257.192C252.658 256.574 253.45 256.126 254.344 255.849C255.239 255.565 256.18 255.423 257.168 255.423C257.821 255.423 258.513 255.501 259.245 255.658C259.984 255.807 260.673 256.084 261.312 256.489C261.958 256.893 262.487 257.472 262.899 258.225C263.311 258.971 263.517 259.94 263.517 261.134V272H260.406V269.763H260.278C260.072 270.175 259.763 270.58 259.351 270.977C258.94 271.375 258.41 271.705 257.764 271.968C257.118 272.231 256.344 272.362 255.442 272.362ZM256.134 269.805C257.015 269.805 257.768 269.631 258.393 269.283C259.025 268.935 259.504 268.481 259.831 267.92C260.165 267.352 260.332 266.744 260.332 266.098V263.989C260.218 264.102 259.998 264.209 259.671 264.308C259.351 264.401 258.986 264.482 258.574 264.553C258.162 264.617 257.761 264.678 257.37 264.734C256.979 264.784 256.653 264.827 256.39 264.862C255.772 264.94 255.207 265.072 254.696 265.256C254.192 265.441 253.787 265.707 253.481 266.055C253.183 266.396 253.034 266.851 253.034 267.419C253.034 268.207 253.325 268.804 253.908 269.209C254.49 269.607 255.232 269.805 256.134 269.805ZM274.695 278.477C273.396 278.477 272.277 278.307 271.34 277.966C270.409 277.625 269.649 277.174 269.06 276.613C268.47 276.052 268.03 275.438 267.739 274.77L270.477 273.641C270.669 273.953 270.924 274.283 271.244 274.631C271.57 274.987 272.011 275.288 272.565 275.537C273.126 275.786 273.847 275.91 274.727 275.91C275.935 275.91 276.933 275.615 277.721 275.026C278.509 274.443 278.904 273.513 278.904 272.234V269.017H278.701C278.509 269.365 278.232 269.752 277.87 270.178C277.515 270.604 277.025 270.974 276.4 271.286C275.775 271.599 274.962 271.755 273.96 271.755C272.668 271.755 271.503 271.453 270.466 270.849C269.436 270.239 268.619 269.34 268.016 268.154C267.419 266.961 267.121 265.494 267.121 263.754C267.121 262.014 267.416 260.523 268.005 259.28C268.602 258.037 269.419 257.085 270.455 256.425C271.492 255.757 272.668 255.423 273.982 255.423C274.997 255.423 275.818 255.594 276.443 255.935C277.068 256.268 277.554 256.659 277.902 257.107C278.257 257.554 278.531 257.948 278.722 258.289H278.957V255.636H282.078V272.362C282.078 273.768 281.752 274.923 281.098 275.825C280.445 276.727 279.561 277.394 278.445 277.827C277.338 278.261 276.088 278.477 274.695 278.477ZM274.664 269.113C275.58 269.113 276.354 268.9 276.986 268.474C277.625 268.04 278.108 267.423 278.435 266.62C278.769 265.81 278.936 264.841 278.936 263.712C278.936 262.611 278.772 261.641 278.445 260.803C278.119 259.965 277.639 259.312 277.007 258.843C276.375 258.367 275.594 258.129 274.664 258.129C273.705 258.129 272.906 258.378 272.267 258.875C271.627 259.365 271.144 260.033 270.818 260.878C270.498 261.723 270.338 262.668 270.338 263.712C270.338 264.784 270.502 265.725 270.828 266.535C271.155 267.344 271.638 267.977 272.277 268.431C272.923 268.886 273.719 269.113 274.664 269.113ZM286.425 272V255.636H289.611V272H286.425ZM288.034 253.112C287.48 253.112 287.004 252.927 286.606 252.558C286.216 252.181 286.021 251.734 286.021 251.215C286.021 250.69 286.216 250.242 286.606 249.873C287.004 249.496 287.48 249.308 288.034 249.308C288.588 249.308 289.06 249.496 289.451 249.873C289.849 250.242 290.047 250.69 290.047 251.215C290.047 251.734 289.849 252.181 289.451 252.558C289.06 252.927 288.588 253.112 288.034 253.112ZM297.987 250.182L297.71 265.725H294.759L294.482 250.182H297.987ZM296.24 272.202C295.651 272.202 295.146 271.996 294.727 271.585C294.308 271.165 294.102 270.661 294.11 270.072C294.102 269.489 294.308 268.992 294.727 268.58C295.146 268.161 295.651 267.952 296.24 267.952C296.815 267.952 297.313 268.161 297.732 268.58C298.151 268.992 298.364 269.489 298.371 270.072C298.364 270.462 298.261 270.821 298.062 271.148C297.87 271.467 297.614 271.723 297.295 271.915C296.975 272.107 296.624 272.202 296.24 272.202Z" fill="#0A0A0A"/>
<path d="M17.3059 296.273H18.3627V302.051C18.3627 302.648 18.2221 303.18 17.9409 303.649C17.6625 304.115 17.269 304.483 16.7605 304.753C16.2519 305.02 15.6554 305.153 14.9707 305.153C14.286 305.153 13.6894 305.02 13.1809 304.753C12.6724 304.483 12.2775 304.115 11.9963 303.649C11.7179 303.18 11.5787 302.648 11.5787 302.051V296.273H12.6355V301.966C12.6355 302.392 12.7292 302.771 12.9167 303.104C13.1042 303.433 13.3713 303.693 13.7179 303.884C14.0673 304.071 14.4849 304.165 14.9707 304.165C15.4565 304.165 15.8741 304.071 16.2235 303.884C16.573 303.693 16.84 303.433 17.0247 303.104C17.2122 302.771 17.3059 302.392 17.3059 301.966V296.273ZM21.3905 301.062V305H20.3848V298.455H21.3564V299.477H21.4416C21.595 299.145 21.828 298.878 22.1405 298.676C22.453 298.472 22.8564 298.369 23.3507 298.369C23.7939 298.369 24.1817 298.46 24.5141 298.642C24.8465 298.821 25.105 299.094 25.2897 299.46C25.4743 299.824 25.5666 300.284 25.5666 300.841V305H24.561V300.909C24.561 300.395 24.4274 299.994 24.1604 299.707C23.8933 299.418 23.5269 299.273 23.061 299.273C22.7399 299.273 22.453 299.342 22.2002 299.482C21.9502 299.621 21.7527 299.824 21.6078 300.091C21.4629 300.358 21.3905 300.682 21.3905 301.062ZM30.0944 307.591C29.6086 307.591 29.191 307.528 28.8416 307.403C28.4921 307.281 28.2009 307.119 27.968 306.918C27.7379 306.719 27.5546 306.506 27.4183 306.278L28.2194 305.716C28.3103 305.835 28.4254 305.972 28.5646 306.125C28.7038 306.281 28.8941 306.416 29.1356 306.53C29.3799 306.646 29.6995 306.705 30.0944 306.705C30.6228 306.705 31.0589 306.577 31.4026 306.321C31.7464 306.065 31.9183 305.665 31.9183 305.119V303.79H31.833C31.7592 303.909 31.6541 304.057 31.5177 304.233C31.3842 304.406 31.191 304.561 30.9381 304.697C30.6881 304.831 30.3501 304.898 29.9239 304.898C29.3955 304.898 28.9211 304.773 28.5006 304.523C28.083 304.273 27.7521 303.909 27.5078 303.432C27.2663 302.955 27.1455 302.375 27.1455 301.693C27.1455 301.023 27.2634 300.439 27.4992 299.942C27.735 299.442 28.0631 299.055 28.4836 298.783C28.9041 298.507 29.3899 298.369 29.941 298.369C30.3671 298.369 30.7052 298.44 30.9552 298.582C31.208 298.722 31.4012 298.881 31.5347 299.06C31.6711 299.236 31.7762 299.381 31.8501 299.494H31.9524V298.455H32.9239V305.188C32.9239 305.75 32.7961 306.207 32.5404 306.56C32.2876 306.915 31.9467 307.175 31.5177 307.339C31.0916 307.507 30.6171 307.591 30.0944 307.591ZM30.0603 303.994C30.4637 303.994 30.8046 303.902 31.083 303.717C31.3614 303.533 31.5731 303.267 31.718 302.92C31.8629 302.574 31.9353 302.159 31.9353 301.676C31.9353 301.205 31.8643 300.788 31.7222 300.428C31.5802 300.067 31.37 299.784 31.0916 299.58C30.8131 299.375 30.4694 299.273 30.0603 299.273C29.6342 299.273 29.2791 299.381 28.995 299.597C28.7137 299.812 28.5021 300.102 28.36 300.466C28.2208 300.83 28.1512 301.233 28.1512 301.676C28.1512 302.131 28.2222 302.533 28.3643 302.882C28.5092 303.229 28.7222 303.501 29.0035 303.7C29.2876 303.896 29.6399 303.994 30.0603 303.994ZM37.4549 307.591C36.9691 307.591 36.5515 307.528 36.2021 307.403C35.8526 307.281 35.5614 307.119 35.3285 306.918C35.0984 306.719 34.9151 306.506 34.7788 306.278L35.5799 305.716C35.6708 305.835 35.7859 305.972 35.9251 306.125C36.0643 306.281 36.2546 306.416 36.4961 306.53C36.7404 306.646 37.06 306.705 37.4549 306.705C37.9833 306.705 38.4194 306.577 38.7631 306.321C39.1069 306.065 39.2788 305.665 39.2788 305.119V303.79H39.1935C39.1197 303.909 39.0146 304.057 38.8782 304.233C38.7447 304.406 38.5515 304.561 38.2986 304.697C38.0486 304.831 37.7106 304.898 37.2844 304.898C36.756 304.898 36.2816 304.773 35.8611 304.523C35.4435 304.273 35.1126 303.909 34.8682 303.432C34.6268 302.955 34.506 302.375 34.506 301.693C34.506 301.023 34.6239 300.439 34.8597 299.942C35.0955 299.442 35.4236 299.055 35.8441 298.783C36.2646 298.507 36.7503 298.369 37.3015 298.369C37.7276 298.369 38.0657 298.44 38.3157 298.582C38.5685 298.722 38.7617 298.881 38.8952 299.06C39.0316 299.236 39.1367 299.381 39.2106 299.494H39.3128V298.455H40.2844V305.188C40.2844 305.75 40.1566 306.207 39.9009 306.56C39.6481 306.915 39.3072 307.175 38.8782 307.339C38.4521 307.507 37.9776 307.591 37.4549 307.591ZM37.4208 303.994C37.8242 303.994 38.1651 303.902 38.4435 303.717C38.7219 303.533 38.9336 303.267 39.0785 302.92C39.2234 302.574 39.2958 302.159 39.2958 301.676C39.2958 301.205 39.2248 300.788 39.0827 300.428C38.9407 300.067 38.7305 299.784 38.4521 299.58C38.1736 299.375 37.8299 299.273 37.4208 299.273C36.9947 299.273 36.6396 299.381 36.3555 299.597C36.0742 299.812 35.8626 300.102 35.7205 300.466C35.5813 300.83 35.5117 301.233 35.5117 301.676C35.5117 302.131 35.5827 302.533 35.7248 302.882C35.8697 303.229 36.0827 303.501 36.364 303.7C36.6481 303.896 37.0003 303.994 37.4208 303.994ZM44.0995 305.153C43.6847 305.153 43.3083 305.075 42.9702 304.919C42.6322 304.76 42.3637 304.531 42.1648 304.233C41.966 303.932 41.8665 303.568 41.8665 303.142C41.8665 302.767 41.9404 302.463 42.0881 302.23C42.2359 301.994 42.4333 301.81 42.6805 301.676C42.9276 301.543 43.2003 301.443 43.4986 301.378C43.7998 301.31 44.1023 301.256 44.4063 301.216C44.804 301.165 45.1265 301.126 45.3736 301.101C45.6236 301.072 45.8055 301.026 45.9191 300.96C46.0356 300.895 46.0938 300.781 46.0938 300.619V300.585C46.0938 300.165 45.9788 299.838 45.7486 299.605C45.5214 299.372 45.1762 299.256 44.7131 299.256C44.233 299.256 43.8566 299.361 43.5839 299.571C43.3111 299.781 43.1194 300.006 43.0086 300.244L42.054 299.903C42.2245 299.506 42.4518 299.196 42.7359 298.974C43.0228 298.75 43.3353 298.594 43.6734 298.506C44.0143 298.415 44.3495 298.369 44.679 298.369C44.8893 298.369 45.1307 298.395 45.4035 298.446C45.679 298.494 45.9447 298.595 46.2003 298.749C46.4589 298.902 46.6734 299.134 46.8438 299.443C47.0143 299.753 47.0995 300.168 47.0995 300.688V305H46.0938V304.114H46.0427C45.9745 304.256 45.8609 304.408 45.7018 304.57C45.5427 304.732 45.331 304.869 45.0668 304.983C44.8026 305.097 44.4802 305.153 44.0995 305.153ZM44.2529 304.25C44.6506 304.25 44.9859 304.172 45.2586 304.016C45.5341 303.859 45.7415 303.658 45.8807 303.411C46.0228 303.163 46.0938 302.903 46.0938 302.631V301.71C46.0512 301.761 45.9574 301.808 45.8126 301.851C45.6705 301.891 45.5057 301.926 45.3182 301.957C45.1336 301.986 44.9532 302.011 44.777 302.034C44.6038 302.054 44.4631 302.071 44.3552 302.085C44.0938 302.119 43.8495 302.175 43.6222 302.251C43.3978 302.325 43.216 302.437 43.0768 302.588C42.9404 302.736 42.8722 302.937 42.8722 303.193C42.8722 303.543 43.0015 303.807 43.26 303.986C43.5214 304.162 43.8523 304.25 44.2529 304.25ZM49.9888 301.062V305H48.9831V296.273H49.9888V299.477H50.074C50.2274 299.139 50.4575 298.871 50.7643 298.672C51.074 298.47 51.4859 298.369 52.0001 298.369C52.4461 298.369 52.8368 298.459 53.172 298.638C53.5072 298.814 53.7672 299.085 53.9518 299.452C54.1393 299.815 54.2331 300.278 54.2331 300.841V305H53.2274V300.909C53.2274 300.389 53.0924 299.987 52.8226 299.703C52.5555 299.416 52.1848 299.273 51.7103 299.273C51.3808 299.273 51.0853 299.342 50.824 299.482C50.5655 299.621 50.3609 299.824 50.2103 300.091C50.0626 300.358 49.9888 300.682 49.9888 301.062ZM59.6803 305V296.273H62.7314C63.3394 296.273 63.8408 296.378 64.2357 296.588C64.6306 296.795 64.9246 297.075 65.1178 297.428C65.311 297.777 65.4076 298.165 65.4076 298.591C65.4076 298.966 65.3408 299.276 65.2073 299.52C65.0766 299.764 64.9033 299.957 64.6874 300.099C64.4743 300.241 64.2428 300.347 63.9928 300.415V300.5C64.2598 300.517 64.5283 300.611 64.7982 300.781C65.0681 300.952 65.2939 301.196 65.4757 301.514C65.6575 301.832 65.7485 302.222 65.7485 302.682C65.7485 303.119 65.649 303.513 65.4502 303.862C65.2513 304.212 64.9374 304.489 64.5084 304.693C64.0794 304.898 63.5212 305 62.8337 305H59.6803ZM60.7371 304.062H62.8337C63.524 304.062 64.0141 303.929 64.3039 303.662C64.5965 303.392 64.7428 303.065 64.7428 302.682C64.7428 302.386 64.6675 302.114 64.5169 301.864C64.3664 301.611 64.1519 301.409 63.8735 301.259C63.595 301.105 63.2655 301.028 62.8848 301.028H60.7371V304.062ZM60.7371 300.108H62.6973C63.0155 300.108 63.3024 300.045 63.5581 299.92C63.8166 299.795 64.0212 299.619 64.1718 299.392C64.3252 299.165 64.4019 298.898 64.4019 298.591C64.4019 298.207 64.2683 297.882 64.0013 297.615C63.7343 297.345 63.311 297.21 62.7314 297.21H60.7371V300.108ZM71.5216 302.324V298.455H72.5273V305H71.5216V303.892H71.4534C71.3 304.224 71.0614 304.507 70.7375 304.74C70.4137 304.97 70.0046 305.085 69.5102 305.085C69.1012 305.085 68.7375 304.996 68.4193 304.817C68.1012 304.635 67.8512 304.362 67.6693 303.999C67.4875 303.632 67.3966 303.17 67.3966 302.614V298.455H68.4023V302.545C68.4023 303.023 68.5358 303.403 68.8029 303.688C69.0727 303.972 69.4165 304.114 69.8341 304.114C70.0841 304.114 70.3384 304.05 70.5969 303.922C70.8583 303.794 71.077 303.598 71.2531 303.334C71.4321 303.07 71.5216 302.733 71.5216 302.324ZM75.3548 302.614L75.3377 301.369H75.5423L78.4059 298.455H79.6502L76.5991 301.54H76.5138L75.3548 302.614ZM74.4173 305V296.273H75.4229V305H74.4173ZM78.5763 305L76.0195 301.761L76.7354 301.062L79.8548 305H78.5763ZM83.8392 298.455V299.307H80.4472V298.455H83.8392ZM81.4358 296.886H82.4415V303.125C82.4415 303.409 82.4827 303.622 82.565 303.764C82.6503 303.903 82.7582 303.997 82.8889 304.045C83.0224 304.091 83.1631 304.114 83.3108 304.114C83.4216 304.114 83.5125 304.108 83.5835 304.097C83.6545 304.082 83.7114 304.071 83.754 304.062L83.9585 304.966C83.8903 304.991 83.7952 305.017 83.673 305.043C83.5508 305.071 83.396 305.085 83.2085 305.085C82.9244 305.085 82.646 305.024 82.3733 304.902C82.1034 304.78 81.879 304.594 81.7 304.344C81.5239 304.094 81.4358 303.778 81.4358 303.398V296.886ZM85.4 305V298.455H86.4057V305H85.4ZM85.9113 297.364C85.7153 297.364 85.5463 297.297 85.4042 297.163C85.265 297.03 85.1954 296.869 85.1954 296.682C85.1954 296.494 85.265 296.334 85.4042 296.2C85.5463 296.067 85.7153 296 85.9113 296C86.1074 296 86.275 296.067 86.4142 296.2C86.5562 296.334 86.6273 296.494 86.6273 296.682C86.6273 296.869 86.5562 297.03 86.4142 297.163C86.275 297.297 86.1074 297.364 85.9113 297.364ZM91.855 305V296.273H94.8039C95.4885 296.273 96.0482 296.396 96.4828 296.643C96.9203 296.888 97.2442 297.219 97.4544 297.636C97.6647 298.054 97.7698 298.52 97.7698 299.034C97.7698 299.548 97.6647 300.016 97.4544 300.436C97.247 300.857 96.926 301.192 96.4914 301.442C96.0567 301.689 95.4999 301.812 94.8209 301.812H92.7073V300.875H94.7868C95.2556 300.875 95.632 300.794 95.9161 300.632C96.2002 300.47 96.4061 300.251 96.534 299.976C96.6647 299.697 96.73 299.384 96.73 299.034C96.73 298.685 96.6647 298.372 96.534 298.097C96.4061 297.821 96.1987 297.605 95.9118 297.449C95.6249 297.29 95.2442 297.21 94.7698 297.21H92.9118V305H91.855ZM102.058 305.136C101.427 305.136 100.883 304.997 100.426 304.719C99.9712 304.438 99.6203 304.045 99.3732 303.543C99.1288 303.037 99.0067 302.449 99.0067 301.778C99.0067 301.108 99.1288 300.517 99.3732 300.006C99.6203 299.491 99.9641 299.091 100.404 298.804C100.848 298.514 101.365 298.369 101.956 298.369C102.296 298.369 102.633 298.426 102.965 298.54C103.298 298.653 103.6 298.838 103.873 299.094C104.146 299.347 104.363 299.682 104.525 300.099C104.687 300.517 104.768 301.031 104.768 301.642V302.068H99.7226V301.199H103.745C103.745 300.83 103.671 300.5 103.524 300.21C103.379 299.92 103.171 299.692 102.902 299.524C102.635 299.357 102.319 299.273 101.956 299.273C101.555 299.273 101.208 299.372 100.916 299.571C100.626 299.767 100.403 300.023 100.247 300.338C100.09 300.653 100.012 300.991 100.012 301.352V301.932C100.012 302.426 100.098 302.845 100.268 303.189C100.441 303.53 100.681 303.79 100.988 303.969C101.295 304.145 101.652 304.233 102.058 304.233C102.322 304.233 102.561 304.196 102.774 304.122C102.99 304.045 103.176 303.932 103.332 303.781C103.488 303.628 103.609 303.437 103.694 303.21L104.666 303.483C104.564 303.812 104.392 304.102 104.15 304.352C103.909 304.599 103.61 304.793 103.255 304.932C102.9 305.068 102.501 305.136 102.058 305.136ZM106.346 305V298.455H107.317V299.477H107.403C107.539 299.128 107.759 298.857 108.063 298.663C108.367 298.467 108.732 298.369 109.158 298.369C109.59 298.369 109.95 298.467 110.237 298.663C110.526 298.857 110.752 299.128 110.914 299.477H110.982C111.15 299.139 111.401 298.871 111.737 298.672C112.072 298.47 112.474 298.369 112.942 298.369C113.528 298.369 114.006 298.553 114.379 298.919C114.751 299.283 114.937 299.849 114.937 300.619V305H113.931V300.619C113.931 300.136 113.799 299.791 113.535 299.584C113.271 299.376 112.96 299.273 112.602 299.273C112.141 299.273 111.785 299.412 111.532 299.69C111.279 299.966 111.153 300.315 111.153 300.739V305H110.13V300.517C110.13 300.145 110.009 299.845 109.768 299.618C109.526 299.388 109.215 299.273 108.835 299.273C108.573 299.273 108.329 299.342 108.102 299.482C107.877 299.621 107.695 299.814 107.556 300.061C107.42 300.305 107.352 300.588 107.352 300.909V305H106.346ZM116.96 305V296.273H117.966V299.494H118.051C118.125 299.381 118.227 299.236 118.358 299.06C118.491 298.881 118.682 298.722 118.929 298.582C119.179 298.44 119.517 298.369 119.943 298.369C120.494 298.369 120.98 298.507 121.4 298.783C121.821 299.058 122.149 299.449 122.385 299.955C122.62 300.46 122.738 301.057 122.738 301.744C122.738 302.438 122.62 303.038 122.385 303.547C122.149 304.053 121.822 304.445 121.405 304.723C120.987 304.999 120.505 305.136 119.96 305.136C119.539 305.136 119.203 305.067 118.95 304.928C118.697 304.786 118.503 304.625 118.366 304.446C118.23 304.264 118.125 304.114 118.051 303.994H117.932V305H116.96ZM117.949 301.727C117.949 302.222 118.021 302.658 118.166 303.036C118.311 303.411 118.522 303.705 118.801 303.918C119.079 304.128 119.42 304.233 119.824 304.233C120.244 304.233 120.595 304.122 120.876 303.901C121.16 303.676 121.373 303.375 121.515 302.997C121.66 302.616 121.733 302.193 121.733 301.727C121.733 301.267 121.662 300.852 121.52 300.483C121.38 300.111 121.169 299.817 120.885 299.601C120.603 299.382 120.25 299.273 119.824 299.273C119.414 299.273 119.071 299.376 118.792 299.584C118.514 299.788 118.304 300.075 118.162 300.445C118.02 300.811 117.949 301.239 117.949 301.727ZM126.251 305.153C125.836 305.153 125.46 305.075 125.122 304.919C124.784 304.76 124.515 304.531 124.316 304.233C124.117 303.932 124.018 303.568 124.018 303.142C124.018 302.767 124.092 302.463 124.239 302.23C124.387 301.994 124.585 301.81 124.832 301.676C125.079 301.543 125.352 301.443 125.65 301.378C125.951 301.31 126.254 301.256 126.558 301.216C126.955 301.165 127.278 301.126 127.525 301.101C127.775 301.072 127.957 301.026 128.07 300.96C128.187 300.895 128.245 300.781 128.245 300.619V300.585C128.245 300.165 128.13 299.838 127.9 299.605C127.673 299.372 127.328 299.256 126.864 299.256C126.384 299.256 126.008 299.361 125.735 299.571C125.462 299.781 125.271 300.006 125.16 300.244L124.205 299.903C124.376 299.506 124.603 299.196 124.887 298.974C125.174 298.75 125.487 298.594 125.825 298.506C126.166 298.415 126.501 298.369 126.83 298.369C127.041 298.369 127.282 298.395 127.555 298.446C127.83 298.494 128.096 298.595 128.352 298.749C128.61 298.902 128.825 299.134 128.995 299.443C129.166 299.753 129.251 300.168 129.251 300.688V305H128.245V304.114H128.194C128.126 304.256 128.012 304.408 127.853 304.57C127.694 304.732 127.482 304.869 127.218 304.983C126.954 305.097 126.632 305.153 126.251 305.153ZM126.404 304.25C126.802 304.25 127.137 304.172 127.41 304.016C127.685 303.859 127.893 303.658 128.032 303.411C128.174 303.163 128.245 302.903 128.245 302.631V301.71C128.203 301.761 128.109 301.808 127.964 301.851C127.822 301.891 127.657 301.926 127.47 301.957C127.285 301.986 127.105 302.011 126.928 302.034C126.755 302.054 126.614 302.071 126.507 302.085C126.245 302.119 126.001 302.175 125.774 302.251C125.549 302.325 125.367 302.437 125.228 302.588C125.092 302.736 125.024 302.937 125.024 303.193C125.024 303.543 125.153 303.807 125.411 303.986C125.673 304.162 126.004 304.25 126.404 304.25ZM131.548 307.455C131.377 307.455 131.225 307.44 131.092 307.412C130.958 307.386 130.866 307.361 130.815 307.335L131.07 306.449C131.315 306.511 131.531 306.534 131.718 306.517C131.906 306.5 132.072 306.416 132.217 306.266C132.365 306.118 132.499 305.878 132.622 305.545L132.809 305.034L130.389 298.455H131.48L133.286 303.67H133.355L135.161 298.455H136.252L133.474 305.955C133.349 306.293 133.194 306.572 133.009 306.794C132.825 307.018 132.61 307.185 132.366 307.293C132.124 307.401 131.852 307.455 131.548 307.455ZM139.355 305.153C138.94 305.153 138.563 305.075 138.225 304.919C137.887 304.76 137.619 304.531 137.42 304.233C137.221 303.932 137.122 303.568 137.122 303.142C137.122 302.767 137.196 302.463 137.343 302.23C137.491 301.994 137.688 301.81 137.936 301.676C138.183 301.543 138.455 301.443 138.754 301.378C139.055 301.31 139.357 301.256 139.661 301.216C140.059 301.165 140.382 301.126 140.629 301.101C140.879 301.072 141.061 301.026 141.174 300.96C141.291 300.895 141.349 300.781 141.349 300.619V300.585C141.349 300.165 141.234 299.838 141.004 299.605C140.777 299.372 140.431 299.256 139.968 299.256C139.488 299.256 139.112 299.361 138.839 299.571C138.566 299.781 138.375 300.006 138.264 300.244L137.309 299.903C137.48 299.506 137.707 299.196 137.991 298.974C138.278 298.75 138.59 298.594 138.929 298.506C139.269 298.415 139.605 298.369 139.934 298.369C140.144 298.369 140.386 298.395 140.659 298.446C140.934 298.494 141.2 298.595 141.455 298.749C141.714 298.902 141.929 299.134 142.099 299.443C142.269 299.753 142.355 300.168 142.355 300.688V305H141.349V304.114H141.298C141.23 304.256 141.116 304.408 140.957 304.57C140.798 304.732 140.586 304.869 140.322 304.983C140.058 305.097 139.735 305.153 139.355 305.153ZM139.508 304.25C139.906 304.25 140.241 304.172 140.514 304.016C140.789 303.859 140.997 303.658 141.136 303.411C141.278 303.163 141.349 302.903 141.349 302.631V301.71C141.306 301.761 141.213 301.808 141.068 301.851C140.926 301.891 140.761 301.926 140.573 301.957C140.389 301.986 140.208 302.011 140.032 302.034C139.859 302.054 139.718 302.071 139.61 302.085C139.349 302.119 139.105 302.175 138.877 302.251C138.653 302.325 138.471 302.437 138.332 302.588C138.196 302.736 138.127 302.937 138.127 303.193C138.127 303.543 138.257 303.807 138.515 303.986C138.777 304.162 139.107 304.25 139.508 304.25ZM144.238 305V298.455H145.21V299.443H145.278C145.397 299.119 145.613 298.857 145.926 298.655C146.238 298.453 146.591 298.352 146.983 298.352C147.056 298.352 147.149 298.354 147.26 298.357C147.37 298.359 147.454 298.364 147.511 298.369V299.392C147.477 299.384 147.399 299.371 147.277 299.354C147.157 299.334 147.031 299.324 146.897 299.324C146.579 299.324 146.295 299.391 146.045 299.524C145.798 299.655 145.602 299.837 145.457 300.07C145.315 300.3 145.244 300.562 145.244 300.858V305H144.238ZM150.677 305.153C150.262 305.153 149.886 305.075 149.548 304.919C149.21 304.76 148.941 304.531 148.743 304.233C148.544 303.932 148.444 303.568 148.444 303.142C148.444 302.767 148.518 302.463 148.666 302.23C148.814 301.994 149.011 301.81 149.258 301.676C149.505 301.543 149.778 301.443 150.076 301.378C150.377 301.31 150.68 301.256 150.984 301.216C151.382 301.165 151.704 301.126 151.951 301.101C152.201 301.072 152.383 301.026 152.497 300.96C152.613 300.895 152.672 300.781 152.672 300.619V300.585C152.672 300.165 152.556 299.838 152.326 299.605C152.099 299.372 151.754 299.256 151.291 299.256C150.811 299.256 150.434 299.361 150.162 299.571C149.889 299.781 149.697 300.006 149.586 300.244L148.632 299.903C148.802 299.506 149.029 299.196 149.314 298.974C149.6 298.75 149.913 298.594 150.251 298.506C150.592 298.415 150.927 298.369 151.257 298.369C151.467 298.369 151.708 298.395 151.981 298.446C152.257 298.494 152.522 298.595 152.778 298.749C153.037 298.902 153.251 299.134 153.422 299.443C153.592 299.753 153.677 300.168 153.677 300.688V305H152.672V304.114H152.62C152.552 304.256 152.439 304.408 152.279 304.57C152.12 304.732 151.909 304.869 151.645 304.983C151.38 305.097 151.058 305.153 150.677 305.153ZM150.831 304.25C151.228 304.25 151.564 304.172 151.836 304.016C152.112 303.859 152.319 303.658 152.458 303.411C152.6 303.163 152.672 302.903 152.672 302.631V301.71C152.629 301.761 152.535 301.808 152.39 301.851C152.248 301.891 152.083 301.926 151.896 301.957C151.711 301.986 151.531 302.011 151.355 302.034C151.181 302.054 151.041 302.071 150.933 302.085C150.672 302.119 150.427 302.175 150.2 302.251C149.975 302.325 149.794 302.437 149.654 302.588C149.518 302.736 149.45 302.937 149.45 303.193C149.45 303.543 149.579 303.807 149.838 303.986C150.099 304.162 150.43 304.25 150.831 304.25ZM156.566 301.062V305H155.561V298.455H156.532V299.477H156.618C156.771 299.145 157.004 298.878 157.316 298.676C157.629 298.472 158.032 298.369 158.527 298.369C158.97 298.369 159.358 298.46 159.69 298.642C160.022 298.821 160.281 299.094 160.466 299.46C160.65 299.824 160.743 300.284 160.743 300.841V305H159.737V300.909C159.737 300.395 159.603 299.994 159.336 299.707C159.069 299.418 158.703 299.273 158.237 299.273C157.916 299.273 157.629 299.342 157.376 299.482C157.126 299.621 156.929 299.824 156.784 300.091C156.639 300.358 156.566 300.682 156.566 301.062ZM167.244 296.273V305H166.188V296.273H167.244ZM169.411 305V296.273H172.36C173.045 296.273 173.605 296.396 174.039 296.643C174.477 296.888 174.801 297.219 175.011 297.636C175.221 298.054 175.326 298.52 175.326 299.034C175.326 299.548 175.221 300.016 175.011 300.436C174.804 300.857 174.482 301.192 174.048 301.442C173.613 301.689 173.056 301.812 172.377 301.812H170.264V300.875H172.343C172.812 300.875 173.188 300.794 173.473 300.632C173.757 300.47 173.963 300.251 174.09 299.976C174.221 299.697 174.286 299.384 174.286 299.034C174.286 298.685 174.221 298.372 174.09 298.097C173.963 297.821 173.755 297.605 173.468 297.449C173.181 297.29 172.801 297.21 172.326 297.21H170.468V305H169.411ZM177.077 305V296.273H178.133V304.062H182.19V305H177.077ZM187.656 305H186.548L189.752 296.273H190.843L194.048 305H192.94L190.332 297.653H190.264L187.656 305ZM188.065 301.591H192.531V302.528H188.065V301.591ZM196.324 301.062V305H195.319V298.455H196.29V299.477H196.375C196.529 299.145 196.762 298.878 197.074 298.676C197.387 298.472 197.79 298.369 198.285 298.369C198.728 298.369 199.116 298.46 199.448 298.642C199.78 298.821 200.039 299.094 200.223 299.46C200.408 299.824 200.5 300.284 200.5 300.841V305H199.495V300.909C199.495 300.395 199.361 299.994 199.094 299.707C198.827 299.418 198.461 299.273 197.995 299.273C197.674 299.273 197.387 299.342 197.134 299.482C196.884 299.621 196.687 299.824 196.542 300.091C196.397 300.358 196.324 300.682 196.324 301.062ZM204.858 305.136C204.312 305.136 203.831 304.999 203.413 304.723C202.996 304.445 202.669 304.053 202.433 303.547C202.197 303.038 202.079 302.438 202.079 301.744C202.079 301.057 202.197 300.46 202.433 299.955C202.669 299.449 202.997 299.058 203.417 298.783C203.838 298.507 204.324 298.369 204.875 298.369C205.301 298.369 205.638 298.44 205.885 298.582C206.135 298.722 206.325 298.881 206.456 299.06C206.589 299.236 206.693 299.381 206.767 299.494H206.852V296.273H207.858V305H206.886V303.994H206.767C206.693 304.114 206.588 304.264 206.452 304.446C206.315 304.625 206.121 304.786 205.868 304.928C205.615 305.067 205.278 305.136 204.858 305.136ZM204.994 304.233C205.398 304.233 205.738 304.128 206.017 303.918C206.295 303.705 206.507 303.411 206.652 303.036C206.797 302.658 206.869 302.222 206.869 301.727C206.869 301.239 206.798 300.811 206.656 300.445C206.514 300.075 206.304 299.788 206.025 299.584C205.747 299.376 205.403 299.273 204.994 299.273C204.568 299.273 204.213 299.382 203.929 299.601C203.648 299.817 203.436 300.111 203.294 300.483C203.155 300.852 203.085 301.267 203.085 301.727C203.085 302.193 203.156 302.616 203.298 302.997C203.443 303.375 203.656 303.676 203.937 303.901C204.221 304.122 204.574 304.233 204.994 304.233ZM211.813 305.153C211.399 305.153 211.022 305.075 210.684 304.919C210.346 304.76 210.078 304.531 209.879 304.233C209.68 303.932 209.581 303.568 209.581 303.142C209.581 302.767 209.654 302.463 209.802 302.23C209.95 301.994 210.147 301.81 210.394 301.676C210.642 301.543 210.914 301.443 211.213 301.378C211.514 301.31 211.816 301.256 212.12 301.216C212.518 301.165 212.84 301.126 213.088 301.101C213.338 301.072 213.519 301.026 213.633 300.96C213.75 300.895 213.808 300.781 213.808 300.619V300.585C213.808 300.165 213.693 299.838 213.463 299.605C213.235 299.372 212.89 299.256 212.427 299.256C211.947 299.256 211.571 299.361 211.298 299.571C211.025 299.781 210.833 300.006 210.723 300.244L209.768 299.903C209.938 299.506 210.166 299.196 210.45 298.974C210.737 298.75 211.049 298.594 211.387 298.506C211.728 298.415 212.063 298.369 212.393 298.369C212.603 298.369 212.845 298.395 213.117 298.446C213.393 298.494 213.659 298.595 213.914 298.749C214.173 298.902 214.387 299.134 214.558 299.443C214.728 299.753 214.813 300.168 214.813 300.688V305H213.808V304.114H213.757C213.688 304.256 213.575 304.408 213.416 304.57C213.257 304.732 213.045 304.869 212.781 304.983C212.517 305.097 212.194 305.153 211.813 305.153ZM211.967 304.25C212.365 304.25 212.7 304.172 212.973 304.016C213.248 303.859 213.456 303.658 213.595 303.411C213.737 303.163 213.808 302.903 213.808 302.631V301.71C213.765 301.761 213.671 301.808 213.527 301.851C213.384 301.891 213.22 301.926 213.032 301.957C212.848 301.986 212.667 302.011 212.491 302.034C212.318 302.054 212.177 302.071 212.069 302.085C211.808 302.119 211.563 302.175 211.336 302.251C211.112 302.325 210.93 302.437 210.791 302.588C210.654 302.736 210.586 302.937 210.586 303.193C210.586 303.543 210.715 303.807 210.974 303.986C211.235 304.162 211.566 304.25 211.967 304.25ZM224.245 302.324V298.455H225.251V305H224.245V303.892H224.177C224.023 304.224 223.785 304.507 223.461 304.74C223.137 304.97 222.728 305.085 222.234 305.085C221.825 305.085 221.461 304.996 221.143 304.817C220.825 304.635 220.575 304.362 220.393 303.999C220.211 303.632 220.12 303.17 220.12 302.614V298.455H221.126V302.545C221.126 303.023 221.259 303.403 221.526 303.688C221.796 303.972 222.14 304.114 222.558 304.114C222.808 304.114 223.062 304.05 223.32 303.922C223.582 303.794 223.8 303.598 223.977 303.334C224.156 303.07 224.245 302.733 224.245 302.324ZM228.146 301.062V305H227.141V298.455H228.112V299.477H228.198C228.351 299.145 228.584 298.878 228.896 298.676C229.209 298.472 229.612 298.369 230.107 298.369C230.55 298.369 230.938 298.46 231.27 298.642C231.602 298.821 231.861 299.094 232.046 299.46C232.23 299.824 232.323 300.284 232.323 300.841V305H231.317V300.909C231.317 300.395 231.183 299.994 230.916 299.707C230.649 299.418 230.283 299.273 229.817 299.273C229.496 299.273 229.209 299.342 228.956 299.482C228.706 299.621 228.509 299.824 228.364 300.091C228.219 300.358 228.146 300.682 228.146 301.062ZM237.055 298.455V299.307H233.663V298.455H237.055ZM234.651 296.886H235.657V303.125C235.657 303.409 235.698 303.622 235.781 303.764C235.866 303.903 235.974 303.997 236.105 304.045C236.238 304.091 236.379 304.114 236.526 304.114C236.637 304.114 236.728 304.108 236.799 304.097C236.87 304.082 236.927 304.071 236.97 304.062L237.174 304.966C237.106 304.991 237.011 305.017 236.889 305.043C236.766 305.071 236.612 305.085 236.424 305.085C236.14 305.085 235.862 305.024 235.589 304.902C235.319 304.78 235.095 304.594 234.916 304.344C234.739 304.094 234.651 303.778 234.651 303.398V296.886ZM242.741 302.324V298.455H243.746V305H242.741V303.892H242.672C242.519 304.224 242.28 304.507 241.957 304.74C241.633 304.97 241.224 305.085 240.729 305.085C240.32 305.085 239.957 304.996 239.638 304.817C239.32 304.635 239.07 304.362 238.888 303.999C238.707 303.632 238.616 303.17 238.616 302.614V298.455H239.621V302.545C239.621 303.023 239.755 303.403 240.022 303.688C240.292 303.972 240.635 304.114 241.053 304.114C241.303 304.114 241.557 304.05 241.816 303.922C242.077 303.794 242.296 303.598 242.472 303.334C242.651 303.07 242.741 302.733 242.741 302.324ZM246.574 302.614L246.557 301.369H246.761L249.625 298.455H250.869L247.818 301.54H247.733L246.574 302.614ZM245.636 305V296.273H246.642V305H245.636ZM249.795 305L247.239 301.761L247.954 301.062L251.074 305H249.795ZM255.771 296.273H257.032L259.998 303.517H260.101L263.066 296.273H264.328V305H263.339V298.369H263.254L260.527 305H259.572L256.845 298.369H256.76V305H255.771V296.273ZM269.103 305.136C268.472 305.136 267.928 304.997 267.471 304.719C267.016 304.438 266.665 304.045 266.418 303.543C266.174 303.037 266.052 302.449 266.052 301.778C266.052 301.108 266.174 300.517 266.418 300.006C266.665 299.491 267.009 299.091 267.449 298.804C267.892 298.514 268.41 298.369 269 298.369C269.341 298.369 269.678 298.426 270.01 298.54C270.343 298.653 270.645 298.838 270.918 299.094C271.191 299.347 271.408 299.682 271.57 300.099C271.732 300.517 271.813 301.031 271.813 301.642V302.068H266.767V301.199H270.79C270.79 300.83 270.716 300.5 270.569 300.21C270.424 299.92 270.216 299.692 269.946 299.524C269.679 299.357 269.364 299.273 269 299.273C268.6 299.273 268.253 299.372 267.961 299.571C267.671 299.767 267.448 300.023 267.292 300.338C267.135 300.653 267.057 300.991 267.057 301.352V301.932C267.057 302.426 267.142 302.845 267.313 303.189C267.486 303.53 267.726 303.79 268.033 303.969C268.34 304.145 268.696 304.233 269.103 304.233C269.367 304.233 269.606 304.196 269.819 304.122C270.035 304.045 270.221 303.932 270.377 303.781C270.533 303.628 270.654 303.437 270.739 303.21L271.711 303.483C271.608 303.812 271.437 304.102 271.195 304.352C270.954 304.599 270.655 304.793 270.3 304.932C269.945 305.068 269.546 305.136 269.103 305.136ZM274.396 301.062V305H273.391V298.455H274.362V299.477H274.448C274.601 299.145 274.834 298.878 275.146 298.676C275.459 298.472 275.862 298.369 276.357 298.369C276.8 298.369 277.188 298.46 277.52 298.642C277.852 298.821 278.111 299.094 278.296 299.46C278.48 299.824 278.573 300.284 278.573 300.841V305H277.567V300.909C277.567 300.395 277.433 299.994 277.166 299.707C276.899 299.418 276.533 299.273 276.067 299.273C275.746 299.273 275.459 299.342 275.206 299.482C274.956 299.621 274.759 299.824 274.614 300.091C274.469 300.358 274.396 300.682 274.396 301.062ZM283.1 307.591C282.615 307.591 282.197 307.528 281.848 307.403C281.498 307.281 281.207 307.119 280.974 306.918C280.744 306.719 280.561 306.506 280.424 306.278L281.225 305.716C281.316 305.835 281.431 305.972 281.571 306.125C281.71 306.281 281.9 306.416 282.142 306.53C282.386 306.646 282.705 306.705 283.1 306.705C283.629 306.705 284.065 306.577 284.409 306.321C284.752 306.065 284.924 305.665 284.924 305.119V303.79H284.839C284.765 303.909 284.66 304.057 284.524 304.233C284.39 304.406 284.197 304.561 283.944 304.697C283.694 304.831 283.356 304.898 282.93 304.898C282.401 304.898 281.927 304.773 281.507 304.523C281.089 304.273 280.758 303.909 280.514 303.432C280.272 302.955 280.151 302.375 280.151 301.693C280.151 301.023 280.269 300.439 280.505 299.942C280.741 299.442 281.069 299.055 281.49 298.783C281.91 298.507 282.396 298.369 282.947 298.369C283.373 298.369 283.711 298.44 283.961 298.582C284.214 298.722 284.407 298.881 284.541 299.06C284.677 299.236 284.782 299.381 284.856 299.494H284.958V298.455H285.93V305.188C285.93 305.75 285.802 306.207 285.546 306.56C285.294 306.915 284.953 307.175 284.524 307.339C284.098 307.507 283.623 307.591 283.1 307.591ZM283.066 303.994C283.47 303.994 283.811 303.902 284.089 303.717C284.367 303.533 284.579 303.267 284.724 302.92C284.869 302.574 284.941 302.159 284.941 301.676C284.941 301.205 284.87 300.788 284.728 300.428C284.586 300.067 284.376 299.784 284.098 299.58C283.819 299.375 283.475 299.273 283.066 299.273C282.64 299.273 282.285 299.381 282.001 299.597C281.72 299.812 281.508 300.102 281.366 300.466C281.227 300.83 281.157 301.233 281.157 301.676C281.157 302.131 281.228 302.533 281.37 302.882C281.515 303.229 281.728 303.501 282.009 303.7C282.294 303.896 282.646 303.994 283.066 303.994ZM289.745 305.153C289.33 305.153 288.954 305.075 288.616 304.919C288.278 304.76 288.009 304.531 287.81 304.233C287.611 303.932 287.512 303.568 287.512 303.142C287.512 302.767 287.586 302.463 287.734 302.23C287.881 301.994 288.079 301.81 288.326 301.676C288.573 301.543 288.846 301.443 289.144 301.378C289.445 301.31 289.748 301.256 290.052 301.216C290.449 301.165 290.772 301.126 291.019 301.101C291.269 301.072 291.451 301.026 291.565 300.96C291.681 300.895 291.739 300.781 291.739 300.619V300.585C291.739 300.165 291.624 299.838 291.394 299.605C291.167 299.372 290.822 299.256 290.359 299.256C289.878 299.256 289.502 299.361 289.229 299.571C288.957 299.781 288.765 300.006 288.654 300.244L287.699 299.903C287.87 299.506 288.097 299.196 288.381 298.974C288.668 298.75 288.981 298.594 289.319 298.506C289.66 298.415 289.995 298.369 290.324 298.369C290.535 298.369 290.776 298.395 291.049 298.446C291.324 298.494 291.59 298.595 291.846 298.749C292.104 298.902 292.319 299.134 292.489 299.443C292.66 299.753 292.745 300.168 292.745 300.688V305H291.739V304.114H291.688C291.62 304.256 291.506 304.408 291.347 304.57C291.188 304.732 290.976 304.869 290.712 304.983C290.448 305.097 290.126 305.153 289.745 305.153ZM289.898 304.25C290.296 304.25 290.631 304.172 290.904 304.016C291.18 303.859 291.387 303.658 291.526 303.411C291.668 303.163 291.739 302.903 291.739 302.631V301.71C291.697 301.761 291.603 301.808 291.458 301.851C291.316 301.891 291.151 301.926 290.964 301.957C290.779 301.986 290.599 302.011 290.422 302.034C290.249 302.054 290.109 302.071 290.001 302.085C289.739 302.119 289.495 302.175 289.268 302.251C289.043 302.325 288.861 302.437 288.722 302.588C288.586 302.736 288.518 302.937 288.518 303.193C288.518 303.543 288.647 303.807 288.905 303.986C289.167 304.162 289.498 304.25 289.898 304.25ZM294.629 305V298.455H295.6V299.477H295.685C295.822 299.128 296.042 298.857 296.346 298.663C296.65 298.467 297.015 298.369 297.441 298.369C297.873 298.369 298.232 298.467 298.519 298.663C298.809 298.857 299.035 299.128 299.197 299.477H299.265C299.433 299.139 299.684 298.871 300.019 298.672C300.354 298.47 300.756 298.369 301.225 298.369C301.81 298.369 302.289 298.553 302.661 298.919C303.033 299.283 303.219 299.849 303.219 300.619V305H302.214V300.619C302.214 300.136 302.082 299.791 301.817 299.584C301.553 299.376 301.242 299.273 300.884 299.273C300.424 299.273 300.067 299.412 299.815 299.69C299.562 299.966 299.435 300.315 299.435 300.739V305H298.413V300.517C298.413 300.145 298.292 299.845 298.05 299.618C297.809 299.388 297.498 299.273 297.117 299.273C296.856 299.273 296.611 299.342 296.384 299.482C296.16 299.621 295.978 299.814 295.839 300.061C295.702 300.305 295.634 300.588 295.634 300.909V305H294.629ZM305.243 305V296.273H306.248V299.494H306.333C306.407 299.381 306.51 299.236 306.64 299.06C306.774 298.881 306.964 298.722 307.211 298.582C307.461 298.44 307.799 298.369 308.226 298.369C308.777 298.369 309.262 298.507 309.683 298.783C310.103 299.058 310.431 299.449 310.667 299.955C310.903 300.46 311.021 301.057 311.021 301.744C311.021 302.438 310.903 303.038 310.667 303.547C310.431 304.053 310.105 304.445 309.687 304.723C309.27 304.999 308.788 305.136 308.243 305.136C307.822 305.136 307.485 305.067 307.233 304.928C306.98 304.786 306.785 304.625 306.649 304.446C306.512 304.264 306.407 304.114 306.333 303.994H306.214V305H305.243ZM306.231 301.727C306.231 302.222 306.304 302.658 306.449 303.036C306.593 303.411 306.805 303.705 307.083 303.918C307.362 304.128 307.703 304.233 308.106 304.233C308.527 304.233 308.877 304.122 309.159 303.901C309.443 303.676 309.656 303.375 309.798 302.997C309.943 302.616 310.015 302.193 310.015 301.727C310.015 301.267 309.944 300.852 309.802 300.483C309.663 300.111 309.451 299.817 309.167 299.601C308.886 299.382 308.532 299.273 308.106 299.273C307.697 299.273 307.353 299.376 307.075 299.584C306.797 299.788 306.586 300.075 306.444 300.445C306.302 300.811 306.231 301.239 306.231 301.727ZM312.607 305V298.455H313.613V305H312.607ZM313.119 297.364C312.923 297.364 312.754 297.297 312.612 297.163C312.472 297.03 312.403 296.869 312.403 296.682C312.403 296.494 312.472 296.334 312.612 296.2C312.754 296.067 312.923 296 313.119 296C313.315 296 313.482 296.067 313.622 296.2C313.764 296.334 313.835 296.494 313.835 296.682C313.835 296.869 313.764 297.03 313.622 297.163C313.482 297.297 313.315 297.364 313.119 297.364ZM316.509 296.273V305H315.503V296.273H316.509ZM116.358 321V312.273H117.415V316.602H117.517L121.438 312.273H122.818L119.154 316.21L122.818 321H121.54L118.506 316.943L117.415 318.17V321H116.358ZM126.024 321.153C125.609 321.153 125.233 321.075 124.895 320.919C124.557 320.76 124.288 320.531 124.089 320.233C123.89 319.932 123.791 319.568 123.791 319.142C123.791 318.767 123.865 318.463 124.013 318.23C124.16 317.994 124.358 317.81 124.605 317.676C124.852 317.543 125.125 317.443 125.423 317.378C125.724 317.31 126.027 317.256 126.331 317.216C126.729 317.165 127.051 317.126 127.298 317.101C127.548 317.072 127.73 317.026 127.844 316.96C127.96 316.895 128.018 316.781 128.018 316.619V316.585C128.018 316.165 127.903 315.838 127.673 315.605C127.446 315.372 127.101 315.256 126.638 315.256C126.158 315.256 125.781 315.361 125.508 315.571C125.236 315.781 125.044 316.006 124.933 316.244L123.979 315.903C124.149 315.506 124.376 315.196 124.66 314.974C124.947 314.75 125.26 314.594 125.598 314.506C125.939 314.415 126.274 314.369 126.604 314.369C126.814 314.369 127.055 314.395 127.328 314.446C127.604 314.494 127.869 314.595 128.125 314.749C128.383 314.902 128.598 315.134 128.768 315.443C128.939 315.753 129.024 316.168 129.024 316.688V321H128.018V320.114H127.967C127.899 320.256 127.785 320.408 127.626 320.57C127.467 320.732 127.256 320.869 126.991 320.983C126.727 321.097 126.405 321.153 126.024 321.153ZM126.177 320.25C126.575 320.25 126.91 320.172 127.183 320.016C127.459 319.859 127.666 319.658 127.805 319.411C127.947 319.163 128.018 318.903 128.018 318.631V317.71C127.976 317.761 127.882 317.808 127.737 317.851C127.595 317.891 127.43 317.926 127.243 317.957C127.058 317.986 126.878 318.011 126.702 318.034C126.528 318.054 126.388 318.071 126.28 318.085C126.018 318.119 125.774 318.175 125.547 318.251C125.322 318.325 125.14 318.437 125.001 318.588C124.865 318.736 124.797 318.937 124.797 319.193C124.797 319.543 124.926 319.807 125.185 319.986C125.446 320.162 125.777 320.25 126.177 320.25ZM131.913 317.062V321H130.908V314.455H131.879V315.477H131.964C132.118 315.145 132.351 314.878 132.663 314.676C132.976 314.472 133.379 314.369 133.873 314.369C134.317 314.369 134.704 314.46 135.037 314.642C135.369 314.821 135.628 315.094 135.812 315.46C135.997 315.824 136.089 316.284 136.089 316.841V321H135.084V316.909C135.084 316.395 134.95 315.994 134.683 315.707C134.416 315.418 134.05 315.273 133.584 315.273C133.263 315.273 132.976 315.342 132.723 315.482C132.473 315.621 132.275 315.824 132.131 316.091C131.986 316.358 131.913 316.682 131.913 317.062ZM140.822 314.455V315.307H137.43V314.455H140.822ZM138.418 312.886H139.424V319.125C139.424 319.409 139.465 319.622 139.548 319.764C139.633 319.903 139.741 319.997 139.871 320.045C140.005 320.091 140.146 320.114 140.293 320.114C140.404 320.114 140.495 320.108 140.566 320.097C140.637 320.082 140.694 320.071 140.736 320.062L140.941 320.966C140.873 320.991 140.778 321.017 140.656 321.043C140.533 321.071 140.379 321.085 140.191 321.085C139.907 321.085 139.629 321.024 139.356 320.902C139.086 320.78 138.861 320.594 138.682 320.344C138.506 320.094 138.418 319.778 138.418 319.398V312.886ZM144.971 321.136C144.38 321.136 143.862 320.996 143.416 320.714C142.973 320.433 142.626 320.04 142.376 319.534C142.129 319.028 142.005 318.437 142.005 317.761C142.005 317.08 142.129 316.484 142.376 315.976C142.626 315.467 142.973 315.072 143.416 314.791C143.862 314.51 144.38 314.369 144.971 314.369C145.562 314.369 146.079 314.51 146.522 314.791C146.968 315.072 147.315 315.467 147.562 315.976C147.812 316.484 147.937 317.08 147.937 317.761C147.937 318.437 147.812 319.028 147.562 319.534C147.315 320.04 146.968 320.433 146.522 320.714C146.079 320.996 145.562 321.136 144.971 321.136ZM144.971 320.233C145.42 320.233 145.789 320.118 146.079 319.888C146.369 319.658 146.583 319.355 146.723 318.98C146.862 318.605 146.931 318.199 146.931 317.761C146.931 317.324 146.862 316.916 146.723 316.538C146.583 316.161 146.369 315.855 146.079 315.622C145.789 315.389 145.42 315.273 144.971 315.273C144.522 315.273 144.153 315.389 143.863 315.622C143.574 315.855 143.359 316.161 143.22 316.538C143.081 316.916 143.011 317.324 143.011 317.761C143.011 318.199 143.081 318.605 143.22 318.98C143.359 319.355 143.574 319.658 143.863 319.888C144.153 320.118 144.522 320.233 144.971 320.233ZM150.526 317.062V321H149.52V314.455H150.492V315.477H150.577C150.731 315.145 150.964 314.878 151.276 314.676C151.589 314.472 151.992 314.369 152.486 314.369C152.929 314.369 153.317 314.46 153.65 314.642C153.982 314.821 154.241 315.094 154.425 315.46C154.61 315.824 154.702 316.284 154.702 316.841V321H153.696V316.909C153.696 316.395 153.563 315.994 153.296 315.707C153.029 315.418 152.662 315.273 152.196 315.273C151.875 315.273 151.589 315.342 151.336 315.482C151.086 315.621 150.888 315.824 150.743 316.091C150.598 316.358 150.526 316.682 150.526 317.062ZM159.23 323.591C158.744 323.591 158.326 323.528 157.977 323.403C157.628 323.281 157.336 323.119 157.103 322.918C156.873 322.719 156.69 322.506 156.554 322.278L157.355 321.716C157.446 321.835 157.561 321.972 157.7 322.125C157.839 322.281 158.03 322.416 158.271 322.53C158.515 322.646 158.835 322.705 159.23 322.705C159.758 322.705 160.194 322.577 160.538 322.321C160.882 322.065 161.054 321.665 161.054 321.119V319.79H160.969C160.895 319.909 160.79 320.057 160.653 320.233C160.52 320.406 160.326 320.561 160.074 320.697C159.824 320.831 159.486 320.898 159.059 320.898C158.531 320.898 158.057 320.773 157.636 320.523C157.219 320.273 156.888 319.909 156.643 319.432C156.402 318.955 156.281 318.375 156.281 317.693C156.281 317.023 156.399 316.439 156.635 315.942C156.871 315.442 157.199 315.055 157.619 314.783C158.04 314.507 158.525 314.369 159.076 314.369C159.503 314.369 159.841 314.44 160.091 314.582C160.344 314.722 160.537 314.881 160.67 315.06C160.807 315.236 160.912 315.381 160.986 315.494H161.088V314.455H162.059V321.188C162.059 321.75 161.932 322.207 161.676 322.56C161.423 322.915 161.082 323.175 160.653 323.339C160.227 323.507 159.753 323.591 159.23 323.591ZM159.196 319.994C159.599 319.994 159.94 319.902 160.219 319.717C160.497 319.533 160.709 319.267 160.853 318.92C160.998 318.574 161.071 318.159 161.071 317.676C161.071 317.205 161 316.788 160.858 316.428C160.716 316.067 160.505 315.784 160.227 315.58C159.949 315.375 159.605 315.273 159.196 315.273C158.77 315.273 158.415 315.381 158.13 315.597C157.849 315.812 157.638 316.102 157.496 316.466C157.356 316.83 157.287 317.233 157.287 317.676C157.287 318.131 157.358 318.533 157.5 318.882C157.645 319.229 157.858 319.501 158.139 319.7C158.423 319.896 158.775 319.994 159.196 319.994ZM172.28 314.455C172.229 314.023 172.022 313.688 171.658 313.449C171.295 313.21 170.849 313.091 170.32 313.091C169.934 313.091 169.596 313.153 169.306 313.278C169.019 313.403 168.795 313.575 168.633 313.794C168.474 314.013 168.394 314.261 168.394 314.54C168.394 314.773 168.449 314.973 168.56 315.141C168.674 315.305 168.819 315.443 168.995 315.554C169.171 315.662 169.356 315.751 169.549 315.822C169.742 315.891 169.92 315.946 170.082 315.989L170.968 316.227C171.195 316.287 171.448 316.369 171.726 316.474C172.008 316.58 172.276 316.723 172.532 316.905C172.79 317.084 173.003 317.314 173.171 317.595C173.339 317.876 173.423 318.222 173.423 318.631C173.423 319.102 173.299 319.528 173.052 319.909C172.807 320.29 172.449 320.592 171.978 320.817C171.509 321.041 170.94 321.153 170.269 321.153C169.644 321.153 169.103 321.053 168.646 320.851C168.191 320.649 167.833 320.368 167.572 320.007C167.313 319.646 167.167 319.227 167.133 318.75H168.224C168.252 319.08 168.363 319.352 168.556 319.568C168.752 319.781 168.999 319.94 169.298 320.045C169.599 320.148 169.923 320.199 170.269 320.199C170.673 320.199 171.035 320.134 171.356 320.003C171.677 319.869 171.931 319.685 172.119 319.449C172.306 319.21 172.4 318.932 172.4 318.614C172.4 318.324 172.319 318.088 172.157 317.906C171.995 317.724 171.782 317.577 171.518 317.463C171.253 317.349 170.968 317.25 170.661 317.165L169.587 316.858C168.905 316.662 168.366 316.382 167.968 316.018C167.57 315.655 167.371 315.179 167.371 314.591C167.371 314.102 167.503 313.676 167.768 313.312C168.035 312.946 168.393 312.662 168.842 312.46C169.293 312.256 169.798 312.153 170.354 312.153C170.917 312.153 171.417 312.254 171.854 312.456C172.292 312.655 172.638 312.928 172.894 313.274C173.153 313.621 173.289 314.014 173.303 314.455H172.28ZM176.998 321.153C176.583 321.153 176.207 321.075 175.869 320.919C175.531 320.76 175.262 320.531 175.063 320.233C174.864 319.932 174.765 319.568 174.765 319.142C174.765 318.767 174.839 318.463 174.986 318.23C175.134 317.994 175.332 317.81 175.579 317.676C175.826 317.543 176.099 317.443 176.397 317.378C176.698 317.31 177.001 317.256 177.305 317.216C177.702 317.165 178.025 317.126 178.272 317.101C178.522 317.072 178.704 317.026 178.817 316.96C178.934 316.895 178.992 316.781 178.992 316.619V316.585C178.992 316.165 178.877 315.838 178.647 315.605C178.42 315.372 178.075 315.256 177.611 315.256C177.131 315.256 176.755 315.361 176.482 315.571C176.209 315.781 176.018 316.006 175.907 316.244L174.952 315.903C175.123 315.506 175.35 315.196 175.634 314.974C175.921 314.75 176.234 314.594 176.572 314.506C176.913 314.415 177.248 314.369 177.577 314.369C177.788 314.369 178.029 314.395 178.302 314.446C178.577 314.494 178.843 314.595 179.099 314.749C179.357 314.902 179.572 315.134 179.742 315.443C179.913 315.753 179.998 316.168 179.998 316.688V321H178.992V320.114H178.941C178.873 320.256 178.759 320.408 178.6 320.57C178.441 320.732 178.229 320.869 177.965 320.983C177.701 321.097 177.379 321.153 176.998 321.153ZM177.151 320.25C177.549 320.25 177.884 320.172 178.157 320.016C178.432 319.859 178.64 319.658 178.779 319.411C178.921 319.163 178.992 318.903 178.992 318.631V317.71C178.95 317.761 178.856 317.808 178.711 317.851C178.569 317.891 178.404 317.926 178.217 317.957C178.032 317.986 177.852 318.011 177.675 318.034C177.502 318.054 177.361 318.071 177.254 318.085C176.992 318.119 176.748 318.175 176.521 318.251C176.296 318.325 176.114 318.437 175.975 318.588C175.839 318.736 175.771 318.937 175.771 319.193C175.771 319.543 175.9 319.807 176.158 319.986C176.42 320.162 176.751 320.25 177.151 320.25ZM181.881 321V314.455H182.853V315.477H182.938C183.075 315.128 183.295 314.857 183.599 314.663C183.903 314.467 184.268 314.369 184.694 314.369C185.126 314.369 185.485 314.467 185.772 314.663C186.062 314.857 186.288 315.128 186.45 315.477H186.518C186.685 315.139 186.937 314.871 187.272 314.672C187.607 314.47 188.009 314.369 188.478 314.369C189.063 314.369 189.542 314.553 189.914 314.919C190.286 315.283 190.472 315.849 190.472 316.619V321H189.467V316.619C189.467 316.136 189.335 315.791 189.07 315.584C188.806 315.376 188.495 315.273 188.137 315.273C187.677 315.273 187.32 315.412 187.068 315.69C186.815 315.966 186.688 316.315 186.688 316.739V321H185.666V316.517C185.666 316.145 185.545 315.845 185.303 315.618C185.062 315.388 184.751 315.273 184.37 315.273C184.109 315.273 183.864 315.342 183.637 315.482C183.413 315.621 183.231 315.814 183.092 316.061C182.955 316.305 182.887 316.588 182.887 316.909V321H181.881ZM192.359 323.455V314.455H193.331V315.494H193.45C193.524 315.381 193.626 315.236 193.757 315.06C193.89 314.881 194.081 314.722 194.328 314.582C194.578 314.44 194.916 314.369 195.342 314.369C195.893 314.369 196.379 314.507 196.799 314.783C197.22 315.058 197.548 315.449 197.784 315.955C198.02 316.46 198.138 317.057 198.138 317.744C198.138 318.438 198.02 319.038 197.784 319.547C197.548 320.053 197.221 320.445 196.804 320.723C196.386 320.999 195.905 321.136 195.359 321.136C194.939 321.136 194.602 321.067 194.349 320.928C194.096 320.786 193.902 320.625 193.765 320.446C193.629 320.264 193.524 320.114 193.45 319.994H193.365V323.455H192.359ZM193.348 317.727C193.348 318.222 193.42 318.658 193.565 319.036C193.71 319.411 193.922 319.705 194.2 319.918C194.478 320.128 194.819 320.233 195.223 320.233C195.643 320.233 195.994 320.122 196.275 319.901C196.559 319.676 196.772 319.375 196.915 318.997C197.059 318.616 197.132 318.193 197.132 317.727C197.132 317.267 197.061 316.852 196.919 316.483C196.78 316.111 196.568 315.817 196.284 315.601C196.003 315.382 195.649 315.273 195.223 315.273C194.814 315.273 194.47 315.376 194.192 315.584C193.913 315.788 193.703 316.075 193.561 316.445C193.419 316.811 193.348 317.239 193.348 317.727ZM201.646 321.153C201.231 321.153 200.855 321.075 200.516 320.919C200.178 320.76 199.91 320.531 199.711 320.233C199.512 319.932 199.413 319.568 199.413 319.142C199.413 318.767 199.487 318.463 199.634 318.23C199.782 317.994 199.98 317.81 200.227 317.676C200.474 317.543 200.747 317.443 201.045 317.378C201.346 317.31 201.649 317.256 201.953 317.216C202.35 317.165 202.673 317.126 202.92 317.101C203.17 317.072 203.352 317.026 203.465 316.96C203.582 316.895 203.64 316.781 203.64 316.619V316.585C203.64 316.165 203.525 315.838 203.295 315.605C203.068 315.372 202.722 315.256 202.259 315.256C201.779 315.256 201.403 315.361 201.13 315.571C200.857 315.781 200.666 316.006 200.555 316.244L199.6 315.903C199.771 315.506 199.998 315.196 200.282 314.974C200.569 314.75 200.882 314.594 201.22 314.506C201.561 314.415 201.896 314.369 202.225 314.369C202.436 314.369 202.677 314.395 202.95 314.446C203.225 314.494 203.491 314.595 203.747 314.749C204.005 314.902 204.22 315.134 204.39 315.443C204.561 315.753 204.646 316.168 204.646 316.688V321H203.64V320.114H203.589C203.521 320.256 203.407 320.408 203.248 320.57C203.089 320.732 202.877 320.869 202.613 320.983C202.349 321.097 202.026 321.153 201.646 321.153ZM201.799 320.25C202.197 320.25 202.532 320.172 202.805 320.016C203.08 319.859 203.288 319.658 203.427 319.411C203.569 319.163 203.64 318.903 203.64 318.631V317.71C203.597 317.761 203.504 317.808 203.359 317.851C203.217 317.891 203.052 317.926 202.865 317.957C202.68 317.986 202.499 318.011 202.323 318.034C202.15 318.054 202.009 318.071 201.901 318.085C201.64 318.119 201.396 318.175 201.168 318.251C200.944 318.325 200.762 318.437 200.623 318.588C200.487 318.736 200.418 318.937 200.418 319.193C200.418 319.543 200.548 319.807 200.806 319.986C201.068 320.162 201.399 320.25 201.799 320.25ZM207.535 317.062V321H206.529V312.273H207.535V315.477H207.62C207.774 315.139 208.004 314.871 208.311 314.672C208.62 314.47 209.032 314.369 209.546 314.369C209.992 314.369 210.383 314.459 210.718 314.638C211.053 314.814 211.313 315.085 211.498 315.452C211.686 315.815 211.779 316.278 211.779 316.841V321H210.774V316.909C210.774 316.389 210.639 315.987 210.369 315.703C210.102 315.416 209.731 315.273 209.257 315.273C208.927 315.273 208.632 315.342 208.37 315.482C208.112 315.621 207.907 315.824 207.757 316.091C207.609 316.358 207.535 316.682 207.535 317.062Z" fill="#757575"/>
</svg>
