<svg width="16" height="16" viewBox="0 0 16 16" fill="none" xmlns="http://www.w3.org/2000/svg">
<path d="M1.6001 8.80002C1.6001 8.3582 1.95827 8.00002 2.4001 8.00002H4.0001C4.44193 8.00002 4.8001 8.3582 4.8001 8.80002V12.8C4.8001 13.2419 4.44193 13.6 4.0001 13.6H2.4001C1.95827 13.6 1.6001 13.2419 1.6001 12.8V8.80002Z" fill="#404040"/>
<path d="M6.4001 5.60002C6.4001 5.1582 6.75827 4.80002 7.2001 4.80002H8.8001C9.24192 4.80002 9.6001 5.1582 9.6001 5.60002V12.8C9.6001 13.2419 9.24192 13.6 8.8001 13.6H7.2001C6.75827 13.6 6.4001 13.2419 6.4001 12.8V5.60002Z" fill="#404040"/>
<path d="M11.2001 3.20002C11.2001 2.7582 11.5583 2.40002 12.0001 2.40002H13.6001C14.0419 2.40002 14.4001 2.7582 14.4001 3.20002V12.8C14.4001 13.2419 14.0419 13.6 13.6001 13.6H12.0001C11.5583 13.6 11.2001 13.2419 11.2001 12.8V3.20002Z" fill="#404040"/>
</svg>
