<svg width="136" height="136" viewBox="0 0 136 136" fill="none" xmlns="http://www.w3.org/2000/svg">
<g filter="url(#filter0_d_89_977)">
<circle cx="68" cy="64" r="60" fill="#2094F3"/>
<path fill-rule="evenodd" clip-rule="evenodd" d="M60.0494 34.4328C62.9716 33.25 66.1634 32.6 69.5 32.6C83.4176 32.6 94.7001 43.8824 94.7001 57.8C94.7001 59.3464 93.4464 60.6 91.9001 60.6C90.3537 60.6 89.1001 59.3464 89.1001 57.8C89.1001 46.9752 80.3248 38.2 69.5 38.2C66.8957 38.2 64.4165 38.7064 62.1507 39.6236C60.7172 40.2039 59.0849 39.5122 58.5046 38.0788C57.9244 36.6454 58.616 35.013 60.0494 34.4328ZM54.5529 40.8841C55.7123 41.9074 55.8226 43.6768 54.7993 44.8362C51.7482 48.2931 49.9 52.8273 49.9 57.8C49.9 59.3464 48.6464 60.6 47.1 60.6C45.5537 60.6 44.3 59.3464 44.3 57.8C44.3 51.4109 46.6814 45.5712 50.6008 41.1305C51.6241 39.9711 53.3935 39.8608 54.5529 40.8841Z" fill="white"/>
<path fill-rule="evenodd" clip-rule="evenodd" d="M55.5 57.8C55.5 50.068 61.7681 43.8 69.5 43.8C77.232 43.8 83.5001 50.068 83.5001 57.8C83.5001 59.3464 82.2464 60.6 80.7001 60.6C79.1537 60.6 77.9001 59.3464 77.9001 57.8C77.9001 53.1608 74.1392 49.4 69.5 49.4C64.8609 49.4 61.1 53.1608 61.1 57.8C61.1 62.496 60.135 66.9739 58.3898 71.0405C57.78 72.4616 56.1336 73.1192 54.7125 72.5093C53.2915 71.8995 52.6338 70.2531 53.2437 68.832C54.695 65.4503 55.5 61.7228 55.5 57.8ZM80.4793 63.4346C82.0066 63.6768 83.0483 65.1113 82.8061 66.6386C82.4374 68.9627 81.9258 71.2395 81.2803 73.4597C80.8487 74.9446 79.295 75.7985 77.81 75.3668C76.3251 74.9351 75.4713 73.3814 75.903 71.8965C76.4833 69.9001 76.9435 67.8523 77.2752 65.7613C77.5175 64.234 78.952 63.1923 80.4793 63.4346Z" fill="white"/>
<path fill-rule="evenodd" clip-rule="evenodd" d="M69.5 55C71.0464 55 72.3001 56.2536 72.3001 57.8C72.3001 64.0616 71.0138 70.0301 68.6885 75.4499C68.0787 76.871 66.4324 77.5288 65.0113 76.9191C63.5902 76.3094 62.9324 74.663 63.5421 73.2419C65.5737 68.5069 66.7001 63.2886 66.7001 57.8C66.7001 56.2536 67.9537 55 69.5 55Z" fill="white"/>
<path d="M41.3977 90.2727H42.4545V96.5114C42.4545 97.0682 42.3523 97.5412 42.1477 97.9304C41.9432 98.3196 41.6548 98.6151 41.2827 98.8168C40.9105 99.0185 40.4716 99.1193 39.9659 99.1193C39.4886 99.1193 39.0639 99.0327 38.6918 98.8594C38.3196 98.6832 38.027 98.4332 37.8139 98.1094C37.6009 97.7855 37.4943 97.4006 37.4943 96.9545H38.5341C38.5341 97.2017 38.5952 97.4176 38.7173 97.6023C38.8423 97.7841 39.0128 97.9261 39.2287 98.0284C39.4446 98.1307 39.6903 98.1818 39.9659 98.1818C40.2699 98.1818 40.5284 98.1179 40.7415 97.9901C40.9545 97.8622 41.1165 97.6747 41.2273 97.4276C41.3409 97.1776 41.3977 96.8722 41.3977 96.5114V90.2727ZM46.3742 99.1534C45.9594 99.1534 45.583 99.0753 45.245 98.919C44.9069 98.7599 44.6384 98.5312 44.4396 98.233C44.2407 97.9318 44.1413 97.5682 44.1413 97.142C44.1413 96.767 44.2151 96.4631 44.3629 96.2301C44.5106 95.9943 44.708 95.8097 44.9552 95.6761C45.2023 95.5426 45.4751 95.4432 45.7734 95.3778C46.0745 95.3097 46.3771 95.2557 46.681 95.2159C47.0788 95.1648 47.4012 95.1264 47.6484 95.1009C47.8984 95.0724 48.0802 95.0256 48.1938 94.9602C48.3103 94.8949 48.3685 94.7812 48.3685 94.6193V94.5852C48.3685 94.1648 48.2535 93.8381 48.0234 93.6051C47.7961 93.3722 47.4509 93.2557 46.9879 93.2557C46.5077 93.2557 46.1313 93.3608 45.8586 93.571C45.5859 93.7812 45.3941 94.0057 45.2833 94.2443L44.3288 93.9034C44.4992 93.5057 44.7265 93.196 45.0106 92.9744C45.2975 92.75 45.61 92.5937 45.9481 92.5057C46.289 92.4148 46.6242 92.3693 46.9538 92.3693C47.164 92.3693 47.4055 92.3949 47.6782 92.446C47.9538 92.4943 48.2194 92.5952 48.4751 92.7486C48.7336 92.902 48.9481 93.1335 49.1185 93.4432C49.289 93.7528 49.3742 94.1676 49.3742 94.6875V99H48.3685V98.1136H48.3174C48.2492 98.2557 48.1356 98.4077 47.9765 98.5696C47.8174 98.7315 47.6058 98.8693 47.3415 98.983C47.0773 99.0966 46.7549 99.1534 46.3742 99.1534ZM46.5276 98.25C46.9254 98.25 47.2606 98.1719 47.5333 98.0156C47.8089 97.8594 48.0163 97.6577 48.1555 97.4105C48.2975 97.1634 48.3685 96.9034 48.3685 96.6307V95.7102C48.3259 95.7614 48.2322 95.8082 48.0873 95.8509C47.9452 95.8906 47.7805 95.9261 47.593 95.9574C47.4083 95.9858 47.2279 96.0114 47.0518 96.0341C46.8785 96.054 46.7379 96.071 46.6299 96.0852C46.3685 96.1193 46.1242 96.1747 45.8969 96.2514C45.6725 96.3253 45.4907 96.4375 45.3515 96.5881C45.2151 96.7358 45.1469 96.9375 45.1469 97.1932C45.1469 97.5426 45.2762 97.8068 45.5347 97.9858C45.7961 98.1619 46.1271 98.25 46.5276 98.25ZM51.2218 99V92.4545H52.1934V93.4773H52.2786C52.415 93.1278 52.6352 92.8565 52.9391 92.6634C53.2431 92.4673 53.6082 92.3693 54.0343 92.3693C54.4661 92.3693 54.8255 92.4673 55.1124 92.6634C55.4022 92.8565 55.628 93.1278 55.79 93.4773H55.8582C56.0258 93.1392 56.2772 92.8707 56.6124 92.6719C56.9477 92.4702 57.3496 92.3693 57.8184 92.3693C58.4036 92.3693 58.8823 92.5526 59.2545 92.919C59.6266 93.2827 59.8127 93.8494 59.8127 94.6193V99H58.807V94.6193C58.807 94.1364 58.6749 93.7912 58.4107 93.5838C58.1465 93.3764 57.8354 93.2727 57.4775 93.2727C57.0173 93.2727 56.6607 93.4119 56.4079 93.6903C56.155 93.9659 56.0286 94.3153 56.0286 94.7386V99H55.0059V94.517C55.0059 94.1449 54.8852 93.8452 54.6437 93.6179C54.4022 93.3878 54.0911 93.2727 53.7104 93.2727C53.4491 93.2727 53.2048 93.3423 52.9775 93.4815C52.753 93.6207 52.5712 93.8139 52.432 94.0611C52.2957 94.3054 52.2275 94.5881 52.2275 94.9091V99H51.2218ZM65.0505 99V92.4545H66.0221V93.4773H66.1073C66.2437 93.1278 66.4638 92.8565 66.7678 92.6634C67.0718 92.4673 67.4368 92.3693 67.863 92.3693C68.2948 92.3693 68.6542 92.4673 68.9411 92.6634C69.2309 92.8565 69.4567 93.1278 69.6187 93.4773H69.6868C69.8545 93.1392 70.1059 92.8707 70.4411 92.6719C70.7763 92.4702 71.1783 92.3693 71.6471 92.3693C72.2323 92.3693 72.711 92.5526 73.0832 92.919C73.4553 93.2827 73.6414 93.8494 73.6414 94.6193V99H72.6357V94.6193C72.6357 94.1364 72.5036 93.7912 72.2394 93.5838C71.9752 93.3764 71.6641 93.2727 71.3062 93.2727C70.8459 93.2727 70.4894 93.4119 70.2366 93.6903C69.9837 93.9659 69.8573 94.3153 69.8573 94.7386V99H68.8346V94.517C68.8346 94.1449 68.7138 93.8452 68.4724 93.6179C68.2309 93.3878 67.9198 93.2727 67.5391 93.2727C67.2778 93.2727 67.0334 93.3423 66.8062 93.4815C66.5817 93.6207 66.3999 93.8139 66.2607 94.0611C66.1243 94.3054 66.0562 94.5881 66.0562 94.9091V99H65.0505ZM77.4183 99.1534C77.0035 99.1534 76.6271 99.0753 76.289 98.919C75.951 98.7599 75.6825 98.5312 75.4837 98.233C75.2848 97.9318 75.1854 97.5682 75.1854 97.142C75.1854 96.767 75.2592 96.4631 75.4069 96.2301C75.5547 95.9943 75.7521 95.8097 75.9993 95.6761C76.2464 95.5426 76.5192 95.4432 76.8175 95.3778C77.1186 95.3097 77.4212 95.2557 77.7251 95.2159C78.1229 95.1648 78.4453 95.1264 78.6925 95.1009C78.9425 95.0724 79.1243 95.0256 79.2379 94.9602C79.3544 94.8949 79.4126 94.7812 79.4126 94.6193V94.5852C79.4126 94.1648 79.2976 93.8381 79.0675 93.6051C78.8402 93.3722 78.495 93.2557 78.0319 93.2557C77.5518 93.2557 77.1754 93.3608 76.9027 93.571C76.63 93.7812 76.4382 94.0057 76.3274 94.2443L75.3729 93.9034C75.5433 93.5057 75.7706 93.196 76.0547 92.9744C76.3416 92.75 76.6541 92.5937 76.9922 92.5057C77.3331 92.4148 77.6683 92.3693 77.9979 92.3693C78.2081 92.3693 78.4496 92.3949 78.7223 92.446C78.9979 92.4943 79.2635 92.5952 79.5192 92.7486C79.7777 92.902 79.9922 93.1335 80.1626 93.4432C80.3331 93.7528 80.4183 94.1676 80.4183 94.6875V99H79.4126V98.1136H79.3615C79.2933 98.2557 79.1797 98.4077 79.0206 98.5696C78.8615 98.7315 78.6498 98.8693 78.3856 98.983C78.1214 99.0966 77.799 99.1534 77.4183 99.1534ZM77.5717 98.25C77.9694 98.25 78.3047 98.1719 78.5774 98.0156C78.853 97.8594 79.0604 97.6577 79.1996 97.4105C79.3416 97.1634 79.4126 96.9034 79.4126 96.6307V95.7102C79.37 95.7614 79.2763 95.8082 79.1314 95.8509C78.9893 95.8906 78.8246 95.9261 78.6371 95.9574C78.4524 95.9858 78.272 96.0114 78.0959 96.0341C77.9226 96.054 77.7819 96.071 77.674 96.0852C77.4126 96.1193 77.1683 96.1747 76.941 96.2514C76.7166 96.3253 76.5348 96.4375 76.3956 96.5881C76.2592 96.7358 76.191 96.9375 76.191 97.1932C76.191 97.5426 76.3203 97.8068 76.5788 97.9858C76.8402 98.1619 77.1712 98.25 77.5717 98.25ZM86.9023 93.9205L85.9988 94.1761C85.942 94.0256 85.8582 93.8793 85.7474 93.7372C85.6395 93.5923 85.4917 93.473 85.3042 93.3793C85.1167 93.2855 84.8767 93.2386 84.5841 93.2386C84.1835 93.2386 83.8497 93.331 83.5827 93.5156C83.3184 93.6974 83.1863 93.929 83.1863 94.2102C83.1863 94.4602 83.2773 94.6577 83.4591 94.8026C83.6409 94.9474 83.925 95.0682 84.3113 95.1648L85.2829 95.4034C85.8682 95.5455 86.3042 95.7628 86.5912 96.0554C86.8781 96.3452 87.0216 96.7187 87.0216 97.1761C87.0216 97.5511 86.9136 97.8864 86.6977 98.1818C86.4846 98.4773 86.1863 98.7102 85.8028 98.8807C85.4193 99.0511 84.9733 99.1364 84.4648 99.1364C83.7971 99.1364 83.2446 98.9915 82.8071 98.7017C82.3696 98.4119 82.0926 97.9886 81.9761 97.4318L82.9307 97.1932C83.0216 97.5455 83.1934 97.8097 83.4463 97.9858C83.702 98.1619 84.0358 98.25 84.4477 98.25C84.9165 98.25 85.2886 98.1506 85.5642 97.9517C85.8426 97.75 85.9818 97.5085 85.9818 97.2273C85.9818 97 85.9023 96.8097 85.7432 96.6562C85.5841 96.5 85.3398 96.3835 85.0102 96.3068L83.9193 96.0511C83.3199 95.9091 82.8795 95.6889 82.5983 95.3906C82.3199 95.0895 82.1807 94.7131 82.1807 94.2614C82.1807 93.892 82.2844 93.5653 82.4917 93.2812C82.702 92.9972 82.9875 92.7741 83.3483 92.6122C83.7119 92.4503 84.1238 92.3693 84.5841 92.3693C85.2318 92.3693 85.7403 92.5114 86.1096 92.7955C86.4818 93.0795 86.746 93.4545 86.9023 93.9205ZM92.6724 96.3239V92.4545H93.6781V99H92.6724V97.892H92.6042C92.4508 98.2244 92.2122 98.5071 91.8883 98.7401C91.5645 98.9702 91.1554 99.0852 90.6611 99.0852C90.252 99.0852 89.8883 98.9957 89.5702 98.8168C89.252 98.6349 89.002 98.3622 88.8202 97.9986C88.6383 97.6321 88.5474 97.1705 88.5474 96.6136V92.4545H89.5531V96.5455C89.5531 97.0227 89.6866 97.4034 89.9537 97.6875C90.2236 97.9716 90.5673 98.1136 90.9849 98.1136C91.2349 98.1136 91.4892 98.0497 91.7477 97.9219C92.0091 97.794 92.2278 97.598 92.404 97.3338C92.5829 97.0696 92.6724 96.733 92.6724 96.3239ZM96.4696 96.6136L96.4525 95.3693H96.6571L99.5207 92.4545H100.765L97.7139 95.5398H97.6287L96.4696 96.6136ZM95.5321 99V90.2727H96.5378V99H95.5321ZM99.6912 99L97.1344 95.7614L97.8503 95.0625L100.97 99H99.6912Z" fill="white"/>
</g>
<defs>
<filter id="filter0_d_89_977" x="0" y="0" width="136" height="136" filterUnits="userSpaceOnUse" color-interpolation-filters="sRGB">
<feFlood flood-opacity="0" result="BackgroundImageFix"/>
<feColorMatrix in="SourceAlpha" type="matrix" values="0 0 0 0 0 0 0 0 0 0 0 0 0 0 0 0 0 0 127 0" result="hardAlpha"/>
<feOffset dy="4"/>
<feGaussianBlur stdDeviation="4"/>
<feComposite in2="hardAlpha" operator="out"/>
<feColorMatrix type="matrix" values="0 0 0 0 0 0 0 0 0 0 0 0 0 0 0 0 0 0 0.12 0"/>
<feBlend mode="normal" in2="BackgroundImageFix" result="effect1_dropShadow_89_977"/>
<feBlend mode="normal" in="SourceGraphic" in2="effect1_dropShadow_89_977" result="shape"/>
</filter>
</defs>
</svg>
