<svg width="136" height="136" viewBox="0 0 136 136" fill="none" xmlns="http://www.w3.org/2000/svg">
<g filter="url(#filter0_d_89_1018)">
<circle cx="68" cy="64" r="60" fill="#2094F3"/>
<path fill-rule="evenodd" clip-rule="evenodd" d="M60.5494 34.4328C63.4716 33.25 66.6634 32.6 70.0001 32.6C83.9176 32.6 95.2001 43.8824 95.2001 57.8C95.2001 59.3464 93.9464 60.6 92.4001 60.6C90.8537 60.6 89.6001 59.3464 89.6001 57.8C89.6001 46.9752 80.8248 38.2 70.0001 38.2C67.3957 38.2 64.9165 38.7064 62.6507 39.6236C61.2172 40.2039 59.5849 39.5122 59.0046 38.0788C58.4244 36.6454 59.116 35.013 60.5494 34.4328ZM55.0529 40.8841C56.2123 41.9074 56.3226 43.6768 55.2993 44.8362C52.2482 48.2931 50.4 52.8273 50.4 57.8C50.4 59.3464 49.1464 60.6 47.6 60.6C46.0537 60.6 44.8 59.3464 44.8 57.8C44.8 51.4109 47.1814 45.5712 51.1008 41.1305C52.1241 39.9711 53.8935 39.8608 55.0529 40.8841Z" fill="white"/>
<path fill-rule="evenodd" clip-rule="evenodd" d="M56 57.8C56 50.068 62.2681 43.8 70.0001 43.8C77.732 43.8 84.0001 50.068 84.0001 57.8C84.0001 59.3464 82.7464 60.6 81.2001 60.6C79.6537 60.6 78.4001 59.3464 78.4001 57.8C78.4001 53.1608 74.6392 49.4 70.0001 49.4C65.3609 49.4 61.6 53.1608 61.6 57.8C61.6 62.496 60.635 66.9739 58.8898 71.0405C58.28 72.4616 56.6336 73.1192 55.2125 72.5093C53.7915 71.8995 53.1338 70.2531 53.7437 68.832C55.195 65.4503 56 61.7228 56 57.8ZM80.9793 63.4346C82.5066 63.6768 83.5483 65.1113 83.3061 66.6386C82.9374 68.9627 82.4258 71.2395 81.7803 73.4597C81.3487 74.9446 79.795 75.7985 78.31 75.3668C76.8251 74.9351 75.9713 73.3814 76.403 71.8965C76.9833 69.9001 77.4435 67.8523 77.7752 65.7613C78.0175 64.234 79.452 63.1923 80.9793 63.4346Z" fill="white"/>
<path fill-rule="evenodd" clip-rule="evenodd" d="M70.0001 55C71.5464 55 72.8001 56.2536 72.8001 57.8C72.8001 64.0616 71.5138 70.0301 69.1885 75.4499C68.5787 76.871 66.9324 77.5288 65.5113 76.9191C64.0902 76.3094 63.4324 74.663 64.0421 73.2419C66.0737 68.5069 67.2001 63.2886 67.2001 57.8C67.2001 56.2536 68.4537 55 70.0001 55Z" fill="white"/>
<path d="M41.3977 90.2727H42.4545V96.5114C42.4545 97.0682 42.3523 97.5412 42.1477 97.9304C41.9432 98.3196 41.6548 98.6151 41.2827 98.8168C40.9105 99.0185 40.4716 99.1193 39.9659 99.1193C39.4886 99.1193 39.0639 99.0327 38.6918 98.8594C38.3196 98.6832 38.027 98.4332 37.8139 98.1094C37.6009 97.7855 37.4943 97.4006 37.4943 96.9545H38.5341C38.5341 97.2017 38.5952 97.4176 38.7173 97.6023C38.8423 97.7841 39.0128 97.9261 39.2287 98.0284C39.4446 98.1307 39.6903 98.1818 39.9659 98.1818C40.2699 98.1818 40.5284 98.1179 40.7415 97.9901C40.9545 97.8622 41.1165 97.6747 41.2273 97.4276C41.3409 97.1776 41.3977 96.8722 41.3977 96.5114V90.2727ZM46.3742 99.1534C45.9594 99.1534 45.583 99.0753 45.245 98.919C44.9069 98.7599 44.6384 98.5312 44.4396 98.233C44.2407 97.9318 44.1413 97.5682 44.1413 97.142C44.1413 96.767 44.2151 96.4631 44.3629 96.2301C44.5106 95.9943 44.708 95.8097 44.9552 95.6761C45.2023 95.5426 45.4751 95.4432 45.7734 95.3778C46.0745 95.3097 46.3771 95.2557 46.681 95.2159C47.0788 95.1648 47.4012 95.1264 47.6484 95.1009C47.8984 95.0724 48.0802 95.0256 48.1938 94.9602C48.3103 94.8949 48.3685 94.7812 48.3685 94.6193V94.5852C48.3685 94.1648 48.2535 93.8381 48.0234 93.6051C47.7961 93.3722 47.4509 93.2557 46.9879 93.2557C46.5077 93.2557 46.1313 93.3608 45.8586 93.571C45.5859 93.7812 45.3941 94.0057 45.2833 94.2443L44.3288 93.9034C44.4992 93.5057 44.7265 93.196 45.0106 92.9744C45.2975 92.75 45.61 92.5937 45.9481 92.5057C46.289 92.4148 46.6242 92.3693 46.9538 92.3693C47.164 92.3693 47.4055 92.3949 47.6782 92.446C47.9538 92.4943 48.2194 92.5952 48.4751 92.7486C48.7336 92.902 48.9481 93.1335 49.1185 93.4432C49.289 93.7528 49.3742 94.1676 49.3742 94.6875V99H48.3685V98.1136H48.3174C48.2492 98.2557 48.1356 98.4077 47.9765 98.5696C47.8174 98.7315 47.6058 98.8693 47.3415 98.983C47.0773 99.0966 46.7549 99.1534 46.3742 99.1534ZM46.5276 98.25C46.9254 98.25 47.2606 98.1719 47.5333 98.0156C47.8089 97.8594 48.0163 97.6577 48.1555 97.4105C48.2975 97.1634 48.3685 96.9034 48.3685 96.6307V95.7102C48.3259 95.7614 48.2322 95.8082 48.0873 95.8509C47.9452 95.8906 47.7805 95.9261 47.593 95.9574C47.4083 95.9858 47.2279 96.0114 47.0518 96.0341C46.8785 96.054 46.7379 96.071 46.6299 96.0852C46.3685 96.1193 46.1242 96.1747 45.8969 96.2514C45.6725 96.3253 45.4907 96.4375 45.3515 96.5881C45.2151 96.7358 45.1469 96.9375 45.1469 97.1932C45.1469 97.5426 45.2762 97.8068 45.5347 97.9858C45.7961 98.1619 46.1271 98.25 46.5276 98.25ZM51.2218 99V92.4545H52.1934V93.4773H52.2786C52.415 93.1278 52.6352 92.8565 52.9391 92.6634C53.2431 92.4673 53.6082 92.3693 54.0343 92.3693C54.4661 92.3693 54.8255 92.4673 55.1124 92.6634C55.4022 92.8565 55.628 93.1278 55.79 93.4773H55.8582C56.0258 93.1392 56.2772 92.8707 56.6124 92.6719C56.9477 92.4702 57.3496 92.3693 57.8184 92.3693C58.4036 92.3693 58.8823 92.5526 59.2545 92.919C59.6266 93.2827 59.8127 93.8494 59.8127 94.6193V99H58.807V94.6193C58.807 94.1364 58.6749 93.7912 58.4107 93.5838C58.1465 93.3764 57.8354 93.2727 57.4775 93.2727C57.0173 93.2727 56.6607 93.4119 56.4079 93.6903C56.155 93.9659 56.0286 94.3153 56.0286 94.7386V99H55.0059V94.517C55.0059 94.1449 54.8852 93.8452 54.6437 93.6179C54.4022 93.3878 54.0911 93.2727 53.7104 93.2727C53.4491 93.2727 53.2048 93.3423 52.9775 93.4815C52.753 93.6207 52.5712 93.8139 52.432 94.0611C52.2957 94.3054 52.2275 94.5881 52.2275 94.9091V99H51.2218ZM65.1868 99V90.2727H68.1357C68.8204 90.2727 69.38 90.3963 69.8147 90.6435C70.2522 90.8878 70.5761 91.2188 70.7863 91.6364C70.9965 92.054 71.1016 92.5199 71.1016 93.0341C71.1016 93.5483 70.9965 94.0156 70.7863 94.4361C70.5789 94.8565 70.2579 95.1918 69.8232 95.4418C69.3886 95.6889 68.8317 95.8125 68.1528 95.8125H66.0391V94.875H68.1187C68.5874 94.875 68.9638 94.794 69.2479 94.6321C69.532 94.4702 69.738 94.2514 69.8658 93.9759C69.9965 93.6974 70.0618 93.3835 70.0618 93.0341C70.0618 92.6847 69.9965 92.3722 69.8658 92.0966C69.738 91.821 69.5306 91.6051 69.2437 91.4489C68.9567 91.2898 68.5761 91.2102 68.1016 91.2102H66.2437V99H65.1868ZM76.8047 96.3239V92.4545H77.8104V99H76.8047V97.892H76.7365C76.5831 98.2244 76.3444 98.5071 76.0206 98.7401C75.6967 98.9702 75.2876 99.0852 74.7933 99.0852C74.3842 99.0852 74.0206 98.9957 73.7024 98.8168C73.3842 98.6349 73.1342 98.3622 72.9524 97.9986C72.7706 97.6321 72.6797 97.1705 72.6797 96.6136V92.4545H73.6854V96.5455C73.6854 97.0227 73.8189 97.4034 74.0859 97.6875C74.3558 97.9716 74.6996 98.1136 75.1172 98.1136C75.3672 98.1136 75.6214 98.0497 75.88 97.9219C76.1413 97.794 76.3601 97.598 76.5362 97.3338C76.7152 97.0696 76.8047 96.733 76.8047 96.3239ZM80.67 90.2727V99H79.6643V90.2727H80.67ZM84.4501 99.1534C84.0353 99.1534 83.6589 99.0753 83.3209 98.919C82.9828 98.7599 82.7143 98.5312 82.5155 98.233C82.3166 97.9318 82.2172 97.5682 82.2172 97.142C82.2172 96.767 82.291 96.4631 82.4388 96.2301C82.5865 95.9943 82.7839 95.8097 83.0311 95.6761C83.2782 95.5426 83.551 95.4432 83.8493 95.3778C84.1504 95.3097 84.453 95.2557 84.7569 95.2159C85.1547 95.1648 85.4771 95.1264 85.7243 95.1009C85.9743 95.0724 86.1561 95.0256 86.2697 94.9602C86.3862 94.8949 86.4444 94.7812 86.4444 94.6193V94.5852C86.4444 94.1648 86.3294 93.8381 86.0993 93.6051C85.872 93.3722 85.5268 93.2557 85.0638 93.2557C84.5836 93.2557 84.2072 93.3608 83.9345 93.571C83.6618 93.7812 83.47 94.0057 83.3592 94.2443L82.4047 93.9034C82.5751 93.5057 82.8024 93.196 83.0865 92.9744C83.3734 92.75 83.6859 92.5937 84.024 92.5057C84.3649 92.4148 84.7001 92.3693 85.0297 92.3693C85.2399 92.3693 85.4814 92.3949 85.7541 92.446C86.0297 92.4943 86.2953 92.5952 86.551 92.7486C86.8095 92.902 87.024 93.1335 87.1944 93.4432C87.3649 93.7528 87.4501 94.1676 87.4501 94.6875V99H86.4444V98.1136H86.3933C86.3251 98.2557 86.2115 98.4077 86.0524 98.5696C85.8933 98.7315 85.6817 98.8693 85.4175 98.983C85.1532 99.0966 84.8308 99.1534 84.4501 99.1534ZM84.6035 98.25C85.0013 98.25 85.3365 98.1719 85.6092 98.0156C85.8848 97.8594 86.0922 97.6577 86.2314 97.4105C86.3734 97.1634 86.4444 96.9034 86.4444 96.6307V95.7102C86.4018 95.7614 86.3081 95.8082 86.1632 95.8509C86.0211 95.8906 85.8564 95.9261 85.6689 95.9574C85.4842 95.9858 85.3038 96.0114 85.1277 96.0341C84.9544 96.054 84.8138 96.071 84.7058 96.0852C84.4444 96.1193 84.2001 96.1747 83.9728 96.2514C83.7484 96.3253 83.5666 96.4375 83.4274 96.5881C83.291 96.7358 83.2228 96.9375 83.2228 97.1932C83.2228 97.5426 83.3521 97.8068 83.6106 97.9858C83.872 98.1619 84.203 98.25 84.6035 98.25ZM90.3034 95.0625V99H89.2977V92.4545H90.2693V93.4773H90.3545C90.5079 93.1449 90.7409 92.8778 91.0534 92.6761C91.3659 92.4716 91.7693 92.3693 92.2636 92.3693C92.7068 92.3693 93.0946 92.4602 93.427 92.642C93.7594 92.821 94.0179 93.0938 94.2025 93.4602C94.3872 93.8239 94.4795 94.2841 94.4795 94.8409V99H93.4738V94.9091C93.4738 94.3949 93.3403 93.9943 93.0733 93.7074C92.8062 93.4176 92.4398 93.2727 91.9738 93.2727C91.6528 93.2727 91.3659 93.3423 91.113 93.4815C90.863 93.6207 90.6656 93.8239 90.5207 94.0909C90.3758 94.358 90.3034 94.6818 90.3034 95.0625ZM98.9713 101.591C98.4855 101.591 98.0679 101.528 97.7184 101.403C97.369 101.281 97.0778 101.119 96.8449 100.918C96.6147 100.719 96.4315 100.506 96.2951 100.278L97.0963 99.7159C97.1872 99.8352 97.3022 99.9716 97.4415 100.125C97.5807 100.281 97.771 100.416 98.0125 100.53C98.2568 100.646 98.5764 100.705 98.9713 100.705C99.4997 100.705 99.9358 100.577 100.28 100.321C100.623 100.065 100.795 99.6648 100.795 99.1193V97.7898H100.71C100.636 97.9091 100.531 98.0568 100.395 98.233C100.261 98.4062 100.068 98.5611 99.815 98.6974C99.565 98.831 99.227 98.8977 98.8008 98.8977C98.2724 98.8977 97.798 98.7727 97.3775 98.5227C96.9599 98.2727 96.629 97.9091 96.3846 97.4318C96.1432 96.9545 96.0224 96.375 96.0224 95.6932C96.0224 95.0227 96.1403 94.4389 96.3761 93.9418C96.6119 93.4418 96.94 93.0554 97.3605 92.7827C97.7809 92.5071 98.2667 92.3693 98.8179 92.3693C99.244 92.3693 99.5821 92.4403 99.8321 92.5824C100.085 92.7216 100.278 92.8807 100.412 93.0597C100.548 93.2358 100.653 93.3807 100.727 93.4943H100.829V92.4545H101.801V99.1875C101.801 99.75 101.673 100.207 101.417 100.56C101.164 100.915 100.824 101.175 100.395 101.339C99.9684 101.507 99.494 101.591 98.9713 101.591ZM98.9372 97.9943C99.3406 97.9943 99.6815 97.902 99.9599 97.7173C100.238 97.5327 100.45 97.267 100.595 96.9205C100.74 96.5739 100.812 96.1591 100.812 95.6761C100.812 95.2045 100.741 94.7884 100.599 94.4276C100.457 94.0668 100.247 93.7841 99.9684 93.5795C99.69 93.375 99.3463 93.2727 98.9372 93.2727C98.5111 93.2727 98.1559 93.3807 97.8719 93.5966C97.5906 93.8125 97.379 94.1023 97.2369 94.4659C97.0977 94.8295 97.0281 95.233 97.0281 95.6761C97.0281 96.1307 97.0991 96.5327 97.2412 96.8821C97.3861 97.2287 97.5991 97.5014 97.8804 97.7003C98.1645 97.8963 98.5167 97.9943 98.9372 97.9943Z" fill="white"/>
</g>
<defs>
<filter id="filter0_d_89_1018" x="0" y="0" width="136" height="136" filterUnits="userSpaceOnUse" color-interpolation-filters="sRGB">
<feFlood flood-opacity="0" result="BackgroundImageFix"/>
<feColorMatrix in="SourceAlpha" type="matrix" values="0 0 0 0 0 0 0 0 0 0 0 0 0 0 0 0 0 0 127 0" result="hardAlpha"/>
<feOffset dy="4"/>
<feGaussianBlur stdDeviation="4"/>
<feComposite in2="hardAlpha" operator="out"/>
<feColorMatrix type="matrix" values="0 0 0 0 0 0 0 0 0 0 0 0 0 0 0 0 0 0 0.12 0"/>
<feBlend mode="normal" in2="BackgroundImageFix" result="effect1_dropShadow_89_1018"/>
<feBlend mode="normal" in="SourceGraphic" in2="effect1_dropShadow_89_1018" result="shape"/>
</filter>
</defs>
</svg>
