<svg width="16" height="16" viewBox="0 0 16 16" fill="none" xmlns="http://www.w3.org/2000/svg">
<path d="M7.99993 1.59998C5.34896 1.59998 3.19993 3.74901 3.19993 6.39998V9.2686L2.63424 9.83429C2.40544 10.0631 2.337 10.4072 2.46082 10.7061C2.58465 11.0051 2.87636 11.2 3.19993 11.2H12.7999C13.1235 11.2 13.4152 11.0051 13.539 10.7061C13.6629 10.4072 13.5944 10.0631 13.3656 9.83429L12.7999 9.2686V6.39998C12.7999 3.74901 10.6509 1.59998 7.99993 1.59998Z" fill="#404040"/>
<path d="M7.9999 14.4C6.67442 14.4 5.5999 13.3255 5.5999 12H10.3999C10.3999 13.3255 9.32539 14.4 7.9999 14.4Z" fill="#404040"/>
</svg>
