<svg width="14" height="12" viewBox="0 0 14 12" fill="none" xmlns="http://www.w3.org/2000/svg">
<path fill-rule="evenodd" clip-rule="evenodd" d="M2.2001 2.00002C1.31644 2.00002 0.600098 2.71637 0.600098 3.60002V10C0.600098 10.8837 1.31644 11.6 2.2001 11.6H11.8001C12.6838 11.6 13.4001 10.8837 13.4001 10V3.60002C13.4001 2.71637 12.6838 2.00002 11.8001 2.00002H10.5315C10.3193 2.00002 10.1158 1.91574 9.96578 1.76571L9.06873 0.868654C8.76867 0.568595 8.3617 0.400024 7.93736 0.400024H6.06284C5.63849 0.400024 5.23153 0.568595 4.93147 0.868653L4.03441 1.76571C3.88438 1.91574 3.6809 2.00002 3.46873 2.00002H2.2001ZM7.0001 9.20003C8.32558 9.20003 9.4001 8.12551 9.4001 6.80002C9.4001 5.47454 8.32558 4.40002 7.0001 4.40002C5.67461 4.40002 4.6001 5.47454 4.6001 6.80002C4.6001 8.12551 5.67461 9.20003 7.0001 9.20003Z" fill="#757575"/>
</svg>
