<svg width="25" height="24" viewBox="0 0 25 24" fill="none" xmlns="http://www.w3.org/2000/svg">
<rect width="24" height="24" transform="translate(0.5)" fill="white"/>
<path fill-rule="evenodd" clip-rule="evenodd" d="M12.5 21C17.4706 21 21.5 16.9706 21.5 12C21.5 7.02944 17.4706 3 12.5 3C7.52944 3 3.5 7.02944 3.5 12H2.5C2.5 6.47715 6.97715 2 12.5 2C18.0228 2 22.5 6.47715 22.5 12C22.5 17.5228 18.0228 22 12.5 22V21ZM10.4082 19.7012L9.96818 18.5771L9.48449 19.6831L9.18427 20.3695C6.1508 19.1668 3.92664 16.3625 3.55493 13H2.54937C2.92401 16.7733 5.3961 19.9296 8.78325 21.2865L8.68309 21.5155L8.1994 22.6215L9.32345 22.1815L10.2014 21.8378L10.6404 21.6659L11.106 21.4837L10.9237 21.0181L10.7519 20.5791L10.4082 19.7012ZM12 5V11.8246L8.10957 16.6877L8.89043 17.3123L12.8904 12.3123L13 12.1754V12V5H12Z" fill="#2094F3"/>
</svg>
