<svg width="25" height="24" viewBox="0 0 25 24" fill="none" xmlns="http://www.w3.org/2000/svg">
<rect width="24" height="24" transform="translate(0.5)" fill="white"/>
<path fill-rule="evenodd" clip-rule="evenodd" d="M12.5 3.62147C7.52944 3.62147 3.5 7.65091 3.5 12.6215C3.5 17.592 7.52944 21.6215 12.5 21.6215C17.4706 21.6215 21.5 17.592 21.5 12.6215H22.5C22.5 18.1443 18.0228 22.6215 12.5 22.6215C6.97715 22.6215 2.5 18.1443 2.5 12.6215C2.5 7.09862 6.97715 2.62147 12.5 2.62147V3.62147ZM14.5918 4.92029L15.0318 6.04434L15.5155 4.93838L15.8157 4.25193C18.8492 5.4547 21.0734 8.25893 21.4451 11.6215H22.4506C22.076 7.84815 19.6039 4.69185 16.2168 3.33498L16.3169 3.10596L16.8006 2L15.6765 2.44001L14.7986 2.78369L14.3596 2.95552L13.894 3.13778L14.0763 3.60338L14.2481 4.04235L14.5918 4.92029ZM12 5V12V12.2676L12.2226 12.416L18.2227 16.416L18.7773 15.584L13 11.7324V5H12Z" fill="#2094F3"/>
</svg>
