<svg width="14" height="13" viewBox="0 0 14 13" fill="none" xmlns="http://www.w3.org/2000/svg">
<path d="M0.600098 1.9999C0.600098 1.11625 1.31644 0.399902 2.2001 0.399902H7.8001C8.68375 0.399902 9.4001 1.11625 9.4001 1.9999V5.1999C9.4001 6.08356 8.68375 6.7999 7.8001 6.7999H6.2001L3.8001 9.1999V6.7999H2.2001C1.31644 6.7999 0.600098 6.08356 0.600098 5.1999V1.9999Z" fill="#404040"/>
<path d="M11.0001 3.5999V4.3999C11.0001 6.60904 9.20924 8.3999 7.0001 8.3999H6.86284L5.44948 9.81326C5.67333 9.93239 5.92883 9.9999 6.2001 9.9999H7.8001L10.2001 12.3999V9.9999H11.8001C12.6838 9.9999 13.4001 9.28356 13.4001 8.3999V5.1999C13.4001 4.31625 12.6838 3.5999 11.8001 3.5999H11.0001Z" fill="#404040"/>
</svg>
