<svg width="231" height="236" viewBox="0 0 231 236" fill="none" xmlns="http://www.w3.org/2000/svg">
<path d="M149.612 40.6892C149.004 37.44 147.699 32.4539 145.294 30.7655C141.65 28.1965 137.945 33.705 133.536 34.4095C129.127 35.114 136.105 20.8174 128.392 18.2423C120.679 15.6673 118.468 25.2266 115.893 29.6359C113.318 34.0451 109.649 27.8139 106.34 28.901C103.03 29.9881 104.87 35.8792 101.566 36.6141C98.262 37.3489 92.7475 32.9397 90.1724 35.5148C87.7431 37.9441 87.6034 38.4178 84.0991 40.6589L149.612 40.6892Z" fill="#2094F3"/>
<path d="M49.038 127.264C48.6372 125.138 47.7869 121.871 46.2079 120.765C43.7786 119.083 41.3978 122.691 38.5069 123.195C35.6161 123.699 40.1893 114.285 35.1363 112.603C30.0833 110.921 28.6378 117.176 26.9555 120.061C25.2732 122.946 22.8621 118.846 20.694 119.581C18.5258 120.316 19.7344 124.154 17.5662 124.634C15.3981 125.114 11.7905 122.205 10.1021 123.918C8.50487 125.515 8.41985 125.812 6.14844 127.282L49.038 127.264Z" fill="#2094F3"/>
<path d="M225.522 108.176C224.307 101.629 221.653 91.5592 216.807 88.1339C209.391 82.9473 201.982 94.0614 193.121 95.5433C184.26 97.0252 198.307 68.1284 182.748 62.9418C167.188 57.7552 162.736 77.0197 157.549 85.911C152.363 94.8023 144.935 82.2367 138.255 84.4595C131.574 86.6824 135.291 98.5435 128.622 100.025C121.954 101.507 110.828 92.6099 105.641 97.7783C100.716 102.704 100.454 103.627 93.458 108.151L225.522 108.176Z" fill="#2094F3"/>
<path opacity="0.4" d="M149.612 40.6892C149.004 37.44 147.699 32.4539 145.294 30.7655C141.65 28.1965 137.945 33.705 133.536 34.4095C129.127 35.114 136.105 20.8174 128.392 18.2423C120.679 15.6673 118.468 25.2266 115.893 29.6359C113.318 34.0451 109.649 27.8139 106.34 28.901C103.03 29.9881 104.87 35.8792 101.566 36.6141C98.262 37.3489 92.7475 32.9397 90.1724 35.5148C87.7431 37.9441 87.6034 38.4178 84.0991 40.6589L149.612 40.6892Z" fill="white"/>
<path opacity="0.4" d="M49.038 127.264C48.6372 125.138 47.7869 121.871 46.2079 120.765C43.7786 119.083 41.3978 122.691 38.5069 123.195C35.6161 123.699 40.1893 114.285 35.1363 112.603C30.0833 110.921 28.6378 117.176 26.9555 120.061C25.2732 122.946 22.8621 118.846 20.694 119.581C18.5258 120.316 19.7344 124.154 17.5662 124.634C15.3981 125.114 11.7905 122.205 10.1021 123.918C8.50487 125.515 8.41985 125.812 6.14844 127.282L49.038 127.264Z" fill="white"/>
<path opacity="0.4" d="M225.522 108.176C224.307 101.629 221.653 91.5592 216.807 88.1339C209.391 82.9473 201.982 94.0614 193.121 95.5433C184.26 97.0252 198.307 68.1284 182.748 62.9418C167.188 57.7552 162.736 77.0197 157.549 85.911C152.363 94.8023 144.935 82.2367 138.255 84.4595C131.574 86.6824 135.291 98.5435 128.622 100.025C121.954 101.507 110.828 92.6099 105.641 97.7783C100.716 102.704 100.454 103.627 93.458 108.151L225.522 108.176Z" fill="white"/>
<path d="M185.317 200.751C185.317 200.751 193.576 201.571 197.767 206.691C199.271 204.867 201.161 203.4 203.3 202.395C205.439 201.39 207.775 200.872 210.138 200.879C212.079 198.536 213.314 195.69 213.7 192.673C214.086 189.655 213.607 186.59 212.319 183.834C211.031 181.079 208.986 178.746 206.424 177.107C203.861 175.468 200.885 174.59 197.843 174.577C194.801 174.564 191.818 175.415 189.241 177.031C186.664 178.647 184.599 180.962 183.286 183.707C181.974 186.451 181.468 189.512 181.827 192.532C182.187 195.553 183.397 198.41 185.317 200.769V200.751Z" fill="#2094F3"/>
<path opacity="0.3" d="M185.317 200.751C185.317 200.751 193.576 201.571 197.767 206.691C199.271 204.867 201.161 203.4 203.3 202.395C205.439 201.39 207.775 200.872 210.138 200.879C212.079 198.536 213.314 195.69 213.7 192.673C214.086 189.655 213.607 186.59 212.319 183.834C211.031 181.079 208.986 178.746 206.424 177.107C203.861 175.468 200.885 174.59 197.843 174.577C194.801 174.564 191.818 175.415 189.241 177.031C186.664 178.647 184.599 180.962 183.286 183.707C181.974 186.451 181.468 189.512 181.827 192.532C182.187 195.553 183.397 198.41 185.317 200.769V200.751Z" fill="white"/>
<path d="M197.493 175.705L197.214 217.125H198.611L197.493 175.705Z" fill="#263238"/>
<path d="M197.913 205.13C197.913 205.13 200.7 200.113 205.723 198.577C205.723 198.577 200.421 199.834 197.773 204.152L197.913 205.13Z" fill="#263238"/>
<path d="M197.913 190.906C197.913 190.906 200.7 185.89 205.723 184.353C205.723 184.353 200.421 185.61 197.773 189.928L197.913 190.906Z" fill="#263238"/>
<path d="M197.913 198.018C197.913 198.018 200.7 193.002 205.723 191.465C205.723 191.465 200.421 192.722 197.773 197.04L197.913 198.018Z" fill="#263238"/>
<path d="M197.5 194.532C197.5 194.532 194.809 189.516 189.963 187.979C189.963 187.979 195.076 189.236 197.633 193.555L197.5 194.532Z" fill="#263238"/>
<path d="M197.5 201.504C197.5 201.504 194.809 196.487 189.963 194.951C189.963 194.951 195.076 196.208 197.633 200.526L197.5 201.504Z" fill="#263238"/>
<path d="M154.616 191.259C154.616 191.259 165.676 192.358 171.287 199.215C171.287 199.215 177.209 191.271 187.849 191.429C190.449 188.292 192.105 184.481 192.623 180.44C193.141 176.398 192.5 172.293 190.776 168.602C189.051 164.911 186.314 161.785 182.882 159.589C179.45 157.394 175.464 156.218 171.39 156.199C167.316 156.181 163.32 157.32 159.868 159.484C156.416 161.649 153.65 164.749 151.892 168.424C150.134 172.1 149.456 176.199 149.937 180.245C150.418 184.291 152.039 188.116 154.61 191.277L154.616 191.259Z" fill="#2094F3"/>
<path opacity="0.5" d="M154.616 191.259C154.616 191.259 165.676 192.358 171.287 199.215C171.287 199.215 177.209 191.271 187.849 191.429C190.449 188.292 192.105 184.481 192.623 180.44C193.141 176.398 192.5 172.293 190.776 168.602C189.051 164.911 186.314 161.785 182.882 159.589C179.45 157.394 175.464 156.218 171.39 156.199C167.316 156.181 163.32 157.32 159.868 159.484C156.416 161.649 153.65 164.749 151.892 168.424C150.134 172.1 149.456 176.199 149.937 180.245C150.418 184.291 152.039 188.116 154.61 191.277L154.616 191.259Z" fill="white"/>
<path d="M170.917 157.722L170.546 213.183H172.411L170.917 157.722Z" fill="#263238"/>
<path d="M171.482 197.126C171.482 197.126 175.217 190.402 181.94 188.35C181.94 188.35 174.84 190.026 171.293 195.814L171.482 197.126Z" fill="#263238"/>
<path d="M171.482 178.073C171.482 178.073 175.217 171.35 181.94 169.297C181.94 169.297 174.84 170.98 171.293 176.768L171.482 178.073Z" fill="#263238"/>
<path d="M171.482 187.603C171.482 187.603 175.217 180.879 181.94 178.821C181.94 178.821 174.84 180.503 171.293 186.291L171.482 187.603Z" fill="#263238"/>
<path d="M170.929 182.932C170.929 182.932 167.321 176.209 160.835 174.156C160.835 174.156 167.68 175.832 171.105 181.626L170.929 182.932Z" fill="#263238"/>
<path d="M170.929 192.267C170.929 192.267 167.321 185.543 160.835 183.491C160.835 183.491 167.68 185.173 171.105 190.961L170.929 192.267Z" fill="#263238"/>
<path d="M58.0325 190.967C58.0325 190.967 69.3592 192.085 75.0985 199.105C75.0985 199.105 81.1718 190.973 92.0551 191.143C94.7198 187.933 96.4174 184.032 96.9502 179.894C97.4831 175.756 96.8291 171.552 95.0646 167.771C93.3001 163.99 90.4976 160.789 86.9837 158.54C83.4698 156.29 79.3891 155.086 75.217 155.067C71.045 155.047 66.9533 156.214 63.4186 158.43C59.884 160.647 57.0519 163.822 55.2524 167.586C53.4528 171.35 52.7599 175.548 53.2542 179.691C53.7486 183.834 55.4099 187.75 58.0447 190.985L58.0325 190.967Z" fill="#2094F3"/>
<path opacity="0.3" d="M58.0325 190.967C58.0325 190.967 69.3592 192.085 75.0985 199.105C75.0985 199.105 81.1718 190.973 92.0551 191.143C94.7198 187.933 96.4174 184.032 96.9502 179.894C97.4831 175.756 96.8291 171.552 95.0646 167.771C93.3001 163.99 90.4976 160.789 86.9837 158.54C83.4698 156.29 79.3891 155.086 75.217 155.067C71.045 155.047 66.9533 156.214 63.4186 158.43C59.884 160.647 57.0519 163.822 55.2524 167.586C53.4528 171.35 52.7599 175.548 53.2542 179.691C53.7486 183.834 55.4099 187.75 58.0447 190.985L58.0325 190.967Z" fill="white"/>
<path d="M74.722 156.635L74.3394 213.408H76.2524L74.722 156.635Z" fill="#263238"/>
<path d="M75.299 196.967C75.299 196.967 79.1191 190.092 86.0244 187.985C86.0244 187.985 78.7364 189.704 75.1289 195.631L75.299 196.967Z" fill="#263238"/>
<path d="M75.2988 177.472C75.2988 177.472 79.1189 170.591 86 168.49C86 168.49 78.712 170.208 75.1045 176.13L75.2988 177.472Z" fill="#263238"/>
<path d="M75.2988 187.22C75.2988 187.22 79.1189 180.339 86 178.237C86 178.237 78.712 179.956 75.1045 185.884L75.2988 187.22Z" fill="#263238"/>
<path d="M74.7279 182.44C74.7279 182.44 71.0414 175.559 64.4033 173.458C64.4033 173.458 71.4119 175.176 74.9162 181.104L74.7279 182.44Z" fill="#263238"/>
<path d="M74.7279 191.999C74.7279 191.999 71.0414 185.118 64.4033 183.011C64.4033 183.011 71.4119 184.736 74.9162 190.657L74.7279 191.999Z" fill="#263238"/>
<path d="M19.6311 202.105C19.6311 202.105 28.4192 202.974 32.877 208.422C32.877 208.422 37.5838 202.111 46.0317 202.239C48.0981 199.747 49.414 196.72 49.8263 193.509C50.2386 190.299 49.7303 187.037 48.3606 184.104C46.9909 181.171 44.8161 178.688 42.0895 176.943C39.363 175.198 36.1969 174.264 32.9599 174.249C29.723 174.234 26.5484 175.139 23.8059 176.859C21.0634 178.578 18.8658 181.042 17.4692 183.962C16.0725 186.882 15.5342 190.139 15.917 193.353C16.2997 196.568 17.5878 199.607 19.6311 202.118V202.105Z" fill="#2094F3"/>
<path opacity="0.5" d="M19.6311 202.105C19.6311 202.105 28.4192 202.974 32.877 208.422C32.877 208.422 37.5838 202.111 46.0317 202.239C48.0981 199.747 49.414 196.72 49.8263 193.509C50.2386 190.299 49.7303 187.037 48.3606 184.104C46.9909 181.171 44.8161 178.688 42.0895 176.943C39.363 175.198 36.1969 174.264 32.9599 174.249C29.723 174.234 26.5484 175.139 23.8059 176.859C21.0634 178.578 18.8658 181.042 17.4692 183.962C16.0725 186.882 15.5342 190.139 15.917 193.353C16.2997 196.568 17.5878 199.607 19.6311 202.118V202.105Z" fill="white"/>
<path d="M32.5854 175.462L32.2878 219.518H33.7697L32.5854 175.462Z" fill="#263238"/>
<path d="M33.0288 206.757C33.0288 206.757 35.9987 201.419 41.3371 199.785C41.3371 199.785 35.7011 201.121 32.8831 205.719L33.0288 206.757Z" fill="#263238"/>
<path d="M33.0288 191.629C33.0288 191.629 35.9987 186.29 41.3371 184.657C41.3371 184.657 35.7011 185.993 32.8831 190.59L33.0288 191.629Z" fill="#263238"/>
<path d="M33.0288 199.202C33.0288 199.202 35.9987 193.858 41.3371 192.23C41.3371 192.23 35.7011 193.566 32.8831 198.164L33.0288 199.202Z" fill="#263238"/>
<path d="M32.5792 195.486C32.5792 195.486 29.7127 190.147 24.5625 188.514C24.5625 188.514 30.0285 189.85 32.7189 194.447L32.5792 195.486Z" fill="#263238"/>
<path d="M32.5792 202.901C32.5792 202.901 29.7127 197.563 24.5625 195.929C24.5625 195.929 30.0285 197.265 32.7189 201.863L32.5792 202.901Z" fill="#263238"/>
<path d="M219.03 214.562L215.58 213.955C215.288 213.797 214.979 213.645 214.651 213.499L217.396 210.754L209.239 211.301L208.42 209.94L206.245 210.481L205.158 207.76L202.164 208.853L201.35 205.045L198.629 206.405L195.909 204.225L195.083 205.883L192.908 205.337L192.161 206.454L191.469 206.278L190.485 204.225L187.145 205.209L185.323 204.802L184.758 203.952H181.254L180.646 203.836L180.385 201.504L176.037 201.778L173.862 199.348L171.955 201.523L170.874 200.417L169.514 200.964L167.607 198.534C167.607 198.534 165.979 200.964 164.892 201.255C163.805 201.547 161.898 199.348 161.898 199.348L160.787 200.83L159.572 200.697L158.649 199.622L157.027 200.417L156.371 200.356L155.916 198.534L152.648 199.622L150.474 197.715L149.199 199.755L148.312 199.694L146.94 199.348L143.945 198.534L142.858 199.075L139.324 196.087V199.178H139.002L135.516 197.186L135.054 199.008H134.095L133.335 197.186L130.104 198.899H128.586L128.44 198.024L122.974 198.571L121.073 195.303L119.44 198.298L117.539 195.577L115.875 198.899H114.053L112.899 198L112.632 198.929L111.107 198.972L109.103 197.429L108.83 198.783L106.674 197.988L104.536 199.203H104.123L103.139 197.727L99.8716 198.814L98.918 199.452L97.2236 199.543L96.8835 198L93.0938 199.822L91.2171 199.943C90.5794 199.3 89.4619 198.298 88.721 198.298C88.3786 198.325 88.0489 198.439 87.7629 198.629C87.477 198.819 87.2445 199.079 87.0873 199.385L86.0244 198.516L84.7794 200.381L83.9656 200.454L83.0364 199.33L80.3155 200.69L79.2284 198.261L76.2343 200.69L75.6877 198.783L72.6632 200.69L70.7562 198.516L68.8006 201.936L68.1932 202.002L66.3713 200.417L64.7922 202.391L63.7111 202.525L62.29 200.703L61.7434 202.063L59.3141 200.703L57.9537 203.132L55.2328 202.045L52.1658 204.061L48.455 204.59L46.8395 203.43L45.4791 204.243L43.5721 203.43L43.0316 205.063L41.1246 204.517L39.6913 205.95L39.4301 205.992L38.6527 204.225L35.9562 205.883L34.3286 203.709L32.1482 206.43L28.6136 206.697L25.3522 206.97L22.9229 208.057L20.5604 209.4L18.8417 209.145L17.2869 210.134L17.1229 210.177L15.3009 209.655L13.9405 210.468L11.5112 210.201L11.1346 212.066C10.5273 212.284 9.96857 212.509 9.39768 212.746C8.85716 212.691 8.30449 212.649 7.97046 212.649C7.63643 212.649 7.19308 213.256 6.7558 213.967C2.78994 216.019 0.360618 218.588 3.49444 221.346C7.61213 224.99 18.0703 223.386 22.8925 223.065C43.5417 221.692 59.1319 217.362 67.1486 218.066C75.1654 218.771 43.3352 235.454 77.7587 235.46C112.182 235.466 182.827 231.476 193.151 230.504C203.476 229.533 182.906 225.743 185.863 221.2C188.821 216.657 212.835 220.508 216.874 219.427C219.552 218.71 218.696 216.918 217.833 215.783L219.03 214.562Z" fill="#2094F3"/>
<path opacity="0.4" d="M219.03 214.562L215.58 213.955C215.288 213.797 214.979 213.645 214.651 213.499L217.396 210.754L209.239 211.301L208.42 209.94L206.245 210.481L205.158 207.76L202.164 208.853L201.35 205.045L198.629 206.405L195.909 204.225L195.083 205.883L192.908 205.337L192.161 206.454L191.469 206.278L190.485 204.225L187.145 205.209L185.323 204.802L184.758 203.952H181.254L180.646 203.836L180.385 201.504L176.037 201.778L173.862 199.348L171.955 201.523L170.874 200.417L169.514 200.964L167.607 198.534C167.607 198.534 165.979 200.964 164.892 201.255C163.805 201.547 161.898 199.348 161.898 199.348L160.787 200.83L159.572 200.697L158.649 199.622L157.027 200.417L156.371 200.356L155.916 198.534L152.648 199.622L150.474 197.715L149.199 199.755L148.312 199.694L146.94 199.348L143.945 198.534L142.858 199.075L139.324 196.087V199.178H139.002L135.516 197.186L135.054 199.008H134.095L133.335 197.186L130.104 198.899H128.586L128.44 198.024L122.974 198.571L121.073 195.303L119.44 198.298L117.539 195.577L115.875 198.899H114.053L112.899 198L112.632 198.929L111.107 198.972L109.103 197.429L108.83 198.783L106.674 197.988L104.536 199.203H104.123L103.139 197.727L99.8716 198.814L98.918 199.452L97.2236 199.543L96.8835 198L93.0938 199.822L91.2171 199.943C90.5794 199.3 89.4619 198.298 88.721 198.298C88.3786 198.325 88.0489 198.439 87.7629 198.629C87.477 198.819 87.2445 199.079 87.0873 199.385L86.0244 198.516L84.7794 200.381L83.9656 200.454L83.0364 199.33L80.3155 200.69L79.2284 198.261L76.2343 200.69L75.6877 198.783L72.6632 200.69L70.7562 198.516L68.8006 201.936L68.1932 202.002L66.3713 200.417L64.7922 202.391L63.7111 202.525L62.29 200.703L61.7434 202.063L59.3141 200.703L57.9537 203.132L55.2328 202.045L52.1658 204.061L48.455 204.59L46.8395 203.43L45.4791 204.243L43.5721 203.43L43.0316 205.063L41.1246 204.517L39.6913 205.95L39.4301 205.992L38.6527 204.225L35.9562 205.883L34.3286 203.709L32.1482 206.43L28.6136 206.697L25.3522 206.97L22.9229 208.057L20.5604 209.4L18.8417 209.145L17.2869 210.134L17.1229 210.177L15.3009 209.655L13.9405 210.468L11.5112 210.201L11.1346 212.066C10.5273 212.284 9.96857 212.509 9.39768 212.746C8.85716 212.691 8.30449 212.649 7.97046 212.649C7.63643 212.649 7.19308 213.256 6.7558 213.967C2.78994 216.019 0.360618 218.588 3.49444 221.346C7.61213 224.99 18.0703 223.386 22.8925 223.065C43.5417 221.692 59.1319 217.362 67.1486 218.066C75.1654 218.771 43.3352 235.454 77.7587 235.46C112.182 235.466 182.827 231.476 193.151 230.504C203.476 229.533 182.906 225.743 185.863 221.2C188.821 216.657 212.835 220.508 216.874 219.427C219.552 218.71 218.696 216.918 217.833 215.783L219.03 214.562Z" fill="white"/>
<path d="M133.73 132.189C133.73 132.189 131.975 136.78 130.627 139.477C129.278 142.173 126.983 153.664 126.436 159.337C125.89 165.009 125.088 172.169 125.088 172.169C125.088 172.169 121.978 177.842 120.496 180.004C119.015 182.166 116.853 183.381 118.067 184.863C119.282 186.345 122.258 184.322 124.42 183.107C126.582 181.893 126.849 179.731 128.064 179.19C129.278 178.65 131.847 179.05 131.441 175.546C131.034 172.042 129.145 170.281 129.552 169.333C129.959 168.386 132.789 159.069 134.003 156.64C135.218 154.211 137.921 151.368 139.002 147.591C139.68 144.897 139.998 142.126 139.949 139.349C139.949 139.349 142.512 134.217 142.919 133.944C143.326 133.671 135.218 133.27 133.73 132.189Z" fill="white"/>
<path d="M133.73 132.189C133.73 132.189 131.975 136.78 130.627 139.477C129.278 142.173 126.983 153.664 126.436 159.337C125.89 165.009 125.088 172.169 125.088 172.169C125.088 172.169 121.978 177.842 120.496 180.004C119.015 182.166 116.853 183.381 118.067 184.863C119.282 186.345 122.258 184.322 124.42 183.107C126.582 181.893 126.849 179.731 128.064 179.19C129.278 178.65 131.847 179.05 131.441 175.546C131.034 172.042 129.145 170.281 129.552 169.333C129.959 168.386 132.789 159.069 134.003 156.64C135.218 154.211 137.921 151.368 139.002 147.591C139.68 144.897 139.998 142.126 139.949 139.349C139.949 139.349 142.512 134.217 142.919 133.944C143.326 133.671 135.218 133.27 133.73 132.189Z" fill="#D9D9D9" stroke="#263238" stroke-linecap="round" stroke-linejoin="round"/>
<path opacity="0.25" d="M131.793 136.944C132.971 137.552 135.23 138.669 136.615 138.669H138.553C138.553 138.669 140.059 142.113 137.478 147.925C134.896 153.737 130.372 160.618 129.297 165.137C128.689 167.657 127.098 175.516 125.799 181.984C126.782 180.854 127.171 179.597 128.058 179.202C129.273 178.662 131.842 179.063 131.435 175.558C131.028 172.054 129.139 170.293 129.546 169.345C129.953 168.398 132.789 159.069 134.004 156.64C135.218 154.211 137.921 151.368 139.002 147.591C139.68 144.897 139.998 142.126 139.949 139.349C139.949 139.349 142.512 134.217 142.919 133.944C143.326 133.671 135.218 133.27 133.73 132.189C133.73 132.189 132.789 134.594 131.793 136.944Z" fill="black"/>
<path d="M133.73 132.189C133.73 132.189 131.975 136.78 130.627 139.477C129.278 142.173 126.983 153.664 126.436 159.337C125.89 165.009 125.088 172.169 125.088 172.169C125.088 172.169 121.978 177.842 120.496 180.004C119.015 182.166 116.853 183.381 118.067 184.863C119.282 186.345 122.258 184.322 124.42 183.107C126.582 181.893 126.849 179.731 128.064 179.19C129.278 178.65 131.847 179.05 131.441 175.546C131.034 172.042 129.145 170.281 129.552 169.333C129.959 168.386 132.789 159.069 134.003 156.64C135.218 154.211 137.921 151.368 139.002 147.591C139.68 144.897 139.998 142.126 139.949 139.349C139.949 139.349 142.512 134.217 142.919 133.944C143.326 133.671 135.218 133.27 133.73 132.189Z" stroke="#263238" stroke-linecap="round" stroke-linejoin="round"/>
<path d="M118.061 184.875C119.276 186.363 122.252 184.335 124.414 183.12C126.576 181.905 126.843 179.743 128.058 179.203C129.272 178.662 131.841 179.063 131.435 175.559C131.076 172.437 129.546 170.7 129.491 169.692C129.21 170.685 128.613 171.559 127.791 172.182C126.035 173.67 125.088 172.182 125.088 172.182C125.088 172.182 121.978 177.854 120.497 180.016C119.015 182.179 116.846 183.411 118.061 184.875Z" fill="#263238" stroke="#263238" stroke-linecap="round" stroke-linejoin="round"/>
<path d="M131.441 175.589C130.784 176.165 130.055 176.653 129.272 177.041C126.977 178.122 126.436 180.144 123.199 182.713C122.461 183.362 121.587 183.836 120.64 184.101C119.694 184.366 118.701 184.415 117.733 184.244C117.794 184.467 117.904 184.675 118.055 184.851C119.27 186.339 122.246 184.31 124.408 183.096C126.57 181.881 126.837 179.719 128.052 179.178C129.266 178.638 131.817 179.057 131.441 175.589Z" fill="white" stroke="#263238" stroke-linecap="round" stroke-linejoin="round"/>
<path d="M168.585 132.863L171.694 137.595C171.694 137.595 173.043 143.808 175.071 147.858C177.1 151.909 182.098 158.79 184.527 161.772C186.957 164.754 187.77 170.554 187.77 170.554C187.77 170.554 186.556 173.123 187.364 175.012C188.171 176.901 190.473 178.255 190.88 180.01C191.287 181.766 193.716 185.956 195.605 185.683C197.494 185.41 198.715 182.986 197.227 179.47C195.739 175.954 192.902 173.257 192.095 169.607C191.287 165.957 188.718 150.828 186.556 146.103C185.329 143.379 183.883 140.759 182.232 138.269L180.203 130.161C180.203 130.161 172.642 134.218 168.585 132.863Z" fill="white"/>
<path d="M168.585 132.863L171.694 137.595C171.694 137.595 173.043 143.808 175.071 147.858C177.1 151.909 182.098 158.79 184.527 161.772C186.957 164.754 187.77 170.554 187.77 170.554C187.77 170.554 186.556 173.123 187.364 175.012C188.171 176.901 190.473 178.255 190.88 180.01C191.287 181.766 193.716 185.956 195.605 185.683C197.494 185.41 198.715 182.986 197.227 179.47C195.739 175.954 192.902 173.257 192.095 169.607C191.287 165.957 188.718 150.828 186.556 146.103C185.329 143.379 183.883 140.759 182.232 138.269L180.203 130.161C180.203 130.161 172.642 134.218 168.585 132.863Z" fill="#D9D9D9" stroke="#263238" stroke-linecap="round" stroke-linejoin="round"/>
<path opacity="0.25" d="M186.556 146.103C185.329 143.379 183.883 140.759 182.232 138.269L180.203 130.161C180.203 130.161 172.642 134.218 168.585 132.863L171.676 137.564C172.205 137.564 172.788 137.595 173.413 137.595C175.116 137.55 176.795 137.185 178.363 136.52C178.363 136.52 183.525 144.694 186.106 151.581C187.898 156.361 190.212 163.619 191.742 167.906C190.692 162.592 188.463 150.282 186.556 146.103Z" fill="black"/>
<path d="M168.585 132.863L171.694 137.595C171.694 137.595 173.043 143.808 175.071 147.858C177.1 151.909 182.098 158.79 184.527 161.772C186.957 164.754 187.77 170.554 187.77 170.554C187.77 170.554 186.556 173.123 187.364 175.012C188.171 176.901 190.473 178.255 190.88 180.01C191.287 181.766 193.716 185.956 195.605 185.683C197.494 185.41 198.715 182.986 197.227 179.47C195.739 175.954 192.902 173.257 192.095 169.607C191.287 165.957 188.718 150.828 186.556 146.103C185.329 143.379 183.883 140.759 182.232 138.269L180.203 130.161C180.203 130.161 172.642 134.218 168.585 132.863Z" stroke="#263238" stroke-linecap="round" stroke-linejoin="round"/>
<path d="M197.227 179.47C195.945 176.433 193.662 174.004 192.538 171.07C192.342 171.649 192.004 172.169 191.554 172.583C190.066 173.797 187.771 170.554 187.771 170.554C187.771 170.554 186.556 173.123 187.364 175.012C188.171 176.901 190.473 178.255 190.88 180.01C191.287 181.766 193.716 185.956 195.605 185.683C197.494 185.409 198.715 182.986 197.227 179.47Z" fill="#263238" stroke="#263238" stroke-linecap="round" stroke-linejoin="round"/>
<path d="M190.88 180.01C191.051 180.644 191.296 181.256 191.609 181.832C191.536 181.679 191.473 181.521 191.421 181.359C190.74 179.197 190.34 176.5 188.852 175.14C188.124 174.423 187.548 173.568 187.157 172.625C187.007 173.423 187.079 174.246 187.364 175.006C188.177 176.907 190.485 178.255 190.88 180.01Z" fill="white" stroke="#263238" stroke-linecap="round" stroke-linejoin="round"/>
<path d="M197.773 181.207C197.609 182.342 197.275 183.636 196.559 184.334C195.301 185.591 192.981 184.14 191.888 182.348C192.866 184.085 194.36 185.865 195.611 185.683C197.166 185.464 198.265 183.763 197.773 181.207Z" fill="white" stroke="#263238" stroke-linecap="round" stroke-linejoin="round"/>
<path d="M173.857 90.4476C173.857 90.4476 174.124 90.7148 172.909 91.5226C171.694 92.3303 168.725 93.0105 169.399 94.0916C170.073 95.1726 170.747 95.7132 170.206 96.1201C169.666 96.527 168.858 96.527 168.184 97.0614C167.51 97.5959 165.481 91.1218 165.481 91.1218C165.481 91.1218 170.48 88.6681 173.857 90.4476Z" fill="white"/>
<path d="M173.857 90.4476C173.857 90.4476 174.124 90.7148 172.909 91.5226C171.694 92.3303 168.725 93.0105 169.399 94.0916C170.073 95.1726 170.747 95.7132 170.206 96.1201C169.666 96.527 168.858 96.527 168.184 97.0614C167.51 97.5959 165.481 91.1218 165.481 91.1218C165.481 91.1218 170.48 88.6681 173.857 90.4476Z" fill="#2094F3"/>
<path opacity="0.25" d="M173.857 90.4476C173.857 90.4476 174.124 90.7148 172.909 91.5226C171.694 92.3303 168.725 93.0105 169.399 94.0916C170.073 95.1726 170.747 95.7132 170.206 96.1201C169.666 96.527 168.858 96.527 168.184 97.0614C167.51 97.5959 165.481 91.1218 165.481 91.1218C165.481 91.1218 170.48 88.6681 173.857 90.4476Z" fill="black"/>
<path d="M173.857 90.4476C173.857 90.4476 174.124 90.7148 172.909 91.5226C171.694 92.3303 168.725 93.0105 169.399 94.0916C170.073 95.1726 170.747 95.7132 170.206 96.1201C169.666 96.527 168.858 96.527 168.184 97.0614C167.51 97.5959 165.481 91.1218 165.481 91.1218C165.481 91.1218 170.48 88.6681 173.857 90.4476Z" stroke="#263238" stroke-linecap="round" stroke-linejoin="round"/>
<path d="M142.919 94.9053L141.705 101.926C141.705 101.926 136.706 112.737 134.951 118.275C133.196 123.814 130.627 133.538 130.627 133.538C130.627 133.538 132.516 135.026 138.194 135.967C143.873 136.908 151.009 133.27 151.009 133.27C151.009 133.27 153.171 121.652 153.845 120.164C154.519 118.676 156.408 114.759 156.408 114.759H158.169L162.761 132.596C162.761 132.596 166.945 133.677 169.381 134.078C171.816 134.479 175.454 134.752 178.703 132.457C180.81 130.857 182.558 128.833 183.835 126.517C183.835 126.517 178.703 114.37 176.401 109.36C174.1 104.349 168.84 95.8467 168.84 95.8467L167.219 90.3079L142.919 94.9053Z" fill="#263238" stroke="#263238" stroke-linecap="round" stroke-linejoin="round"/>
<path d="M143.193 104.629L148.865 110.034" stroke="white" stroke-linecap="round" stroke-linejoin="round"/>
<path d="M150.086 111.777L151.027 112.463" stroke="white" stroke-linecap="round" stroke-linejoin="round"/>
<path d="M143.326 106.791L149.011 110.981" stroke="white" stroke-linecap="round" stroke-linejoin="round"/>
<path d="M148.13 133.003C148.938 132.703 149.725 132.35 150.487 131.947" stroke="white" stroke-linecap="round" stroke-linejoin="round"/>
<path d="M132.115 132.456C136.166 134.142 140.616 134.629 144.935 133.859" stroke="white" stroke-linecap="round" stroke-linejoin="round"/>
<path d="M163.319 131.242C163.319 131.242 172.642 137.187 182.754 125.836" stroke="white" stroke-linecap="round" stroke-linejoin="round"/>
<path d="M170.48 100.711L167.777 105.843" stroke="white" stroke-linecap="round" stroke-linejoin="round"/>
<path d="M148.458 98.956C153.475 99.463 158.532 98.5253 163.034 96.2534" stroke="white" stroke-linecap="round" stroke-linejoin="round"/>
<path d="M168.111 93.3081L167.237 90.3079L142.944 94.9053L142.725 96.1564C146.699 97.3175 150.881 97.581 154.969 96.9278C159.469 96.2049 163.876 94.9911 168.111 93.3081Z" fill="white"/>
<path d="M168.111 93.3081L167.237 90.3079L142.944 94.9053L142.725 96.1564C146.699 97.3175 150.881 97.581 154.969 96.9278C159.469 96.2049 163.876 94.9911 168.111 93.3081Z" fill="#949494" stroke="#263238" stroke-linecap="round" stroke-linejoin="round"/>
<path d="M168.111 93.3081L167.237 90.3079L142.944 94.9053L142.725 96.1564C146.699 97.3175 150.881 97.581 154.969 96.9278C159.469 96.2049 163.876 94.9911 168.111 93.3081V93.3081Z" stroke="#263238" stroke-linecap="round" stroke-linejoin="round"/>
<path d="M181.46 41.4055C180.13 36.5892 178.37 31.902 176.201 27.4005C174.555 23.8962 172.921 19.5052 170.383 16.5475C168.761 14.6588 165.785 13.1708 165.111 13.4441C164.437 13.7174 161.467 14.926 161.467 16.5475C161.467 18.1691 162.548 18.1691 162.548 18.1691C162.548 18.1691 162.275 20.1976 163.089 21.0053C163.903 21.8131 168.087 21.5459 168.087 21.5459C168.834 22.6448 169.456 23.8244 169.939 25.0623C170.747 27.7588 171.464 28.2994 172.004 33.1641C172.539 37.0348 173.305 40.8699 174.3 44.6487C173.779 44.9689 173.32 45.3804 172.946 45.8633C172.138 46.8108 167.006 51.9366 167.006 51.9366C165.522 52.6405 163.984 53.2274 162.408 53.6918C161.026 54.1219 159.688 54.6831 158.412 55.368C157.58 55.2709 156.742 55.1798 156.293 55.1798C155.345 55.1798 148.731 56.3944 148.731 56.3944C147.203 55.4852 145.572 54.7595 143.873 54.2323C142.297 53.7679 140.76 53.1811 139.275 52.4772C139.275 52.4772 134.143 47.3452 133.336 46.4039C132.961 45.9209 132.502 45.5095 131.981 45.1892C132.976 41.4105 133.743 37.5753 134.277 33.7046C134.714 29.7813 135.844 25.3235 138.2 22.0864C138.2 22.0864 142.385 22.3597 143.199 21.5459C144.012 20.732 143.733 18.7096 143.733 18.7096C143.733 18.7096 144.814 18.7096 144.814 17.0881C144.814 15.4665 141.844 14.2518 141.17 13.9846C140.496 13.7174 137.526 15.1993 135.899 17.0881C134.271 18.9769 134.417 20.8717 132.795 23.5743C131.174 26.277 125.507 39.3649 124.821 41.9461C124.135 44.5272 123.339 45.997 123.473 47.2177C123.606 48.4384 130.092 55.4531 131.714 57.3479C133.336 59.2428 139.549 65.723 139.549 65.723C139.549 65.723 141.844 77.0679 142.518 81.1249C143.193 85.1818 142.792 96.3871 142.792 96.3871C142.792 96.3871 150.219 94.7655 157.246 93.9578C164.273 93.15 171.968 90.4474 172.915 90.4474H173.863C173.863 90.4474 168.591 83.9611 168.591 83.0137C168.591 82.2606 168.767 68.4985 168.834 62.9718C170.796 60.9069 173.571 57.9674 174.573 56.7953C176.195 54.9004 182.681 47.8797 182.815 46.665C182.948 45.4504 182.135 43.9745 181.46 41.4055Z" fill="white"/>
<path d="M181.46 41.4055C180.13 36.5892 178.37 31.902 176.201 27.4005C174.555 23.8962 172.921 19.5052 170.383 16.5475C168.761 14.6588 165.785 13.1708 165.111 13.4441C164.437 13.7174 161.467 14.926 161.467 16.5475C161.467 18.1691 162.548 18.1691 162.548 18.1691C162.548 18.1691 162.275 20.1976 163.089 21.0053C163.903 21.8131 168.087 21.5459 168.087 21.5459C168.834 22.6448 169.456 23.8244 169.939 25.0623C170.747 27.7588 171.464 28.2994 172.004 33.1641C172.539 37.0348 173.305 40.8699 174.3 44.6487C173.779 44.9689 173.32 45.3804 172.946 45.8633C172.138 46.8108 167.006 51.9366 167.006 51.9366C165.522 52.6405 163.984 53.2274 162.408 53.6918C161.026 54.1219 159.688 54.6831 158.412 55.368C157.58 55.2709 156.742 55.1798 156.293 55.1798C155.345 55.1798 148.731 56.3944 148.731 56.3944C147.203 55.4852 145.572 54.7595 143.873 54.2323C142.297 53.7679 140.76 53.1811 139.275 52.4772C139.275 52.4772 134.143 47.3452 133.336 46.4039C132.961 45.9209 132.502 45.5095 131.981 45.1892C132.976 41.4105 133.743 37.5753 134.277 33.7046C134.714 29.7813 135.844 25.3235 138.2 22.0864C138.2 22.0864 142.385 22.3597 143.199 21.5459C144.012 20.732 143.733 18.7096 143.733 18.7096C143.733 18.7096 144.814 18.7096 144.814 17.0881C144.814 15.4665 141.844 14.2518 141.17 13.9846C140.496 13.7174 137.526 15.1993 135.899 17.0881C134.271 18.9769 134.417 20.8717 132.795 23.5743C131.174 26.277 125.507 39.3649 124.821 41.9461C124.135 44.5272 123.339 45.997 123.473 47.2177C123.606 48.4384 130.092 55.4531 131.714 57.3479C133.336 59.2428 139.549 65.723 139.549 65.723C139.549 65.723 141.844 77.0679 142.518 81.1249C143.193 85.1818 142.792 96.3871 142.792 96.3871C142.792 96.3871 150.219 94.7655 157.246 93.9578C164.273 93.15 171.968 90.4474 172.915 90.4474H173.863C173.863 90.4474 168.591 83.9611 168.591 83.0137C168.591 82.2606 168.767 68.4985 168.834 62.9718C170.796 60.9069 173.571 57.9674 174.573 56.7953C176.195 54.9004 182.681 47.8797 182.815 46.665C182.948 45.4504 182.135 43.9745 181.46 41.4055Z" fill="#D9D9D9" stroke="#263238" stroke-linecap="round" stroke-linejoin="round"/>
<path opacity="0.25" d="M143.326 83.8091C142.919 81.9142 142.379 70.9701 141.705 67.4598C141.031 63.9494 139.409 62.6011 138.462 61.1132C137.514 59.6252 134.818 57.4692 131.435 53.8252C128.052 50.1813 124.955 47.0778 125.501 44.3752C125.872 42.4985 129.516 31.931 131.702 25.6694C129.437 30.3155 125.386 39.802 124.821 41.9459C124.147 44.5149 123.339 45.9968 123.473 47.2175C123.606 48.4382 130.093 55.4529 131.714 57.3477C133.336 59.2426 139.549 65.7228 139.549 65.7228C139.549 65.7228 141.844 77.0677 142.518 81.1247C142.79 83.2962 142.918 85.4833 142.901 87.6717C143.241 85.9408 143.46 84.4164 143.326 83.8091Z" fill="black"/>
<path opacity="0.25" d="M180.768 45.997C180.768 48.0255 170.905 55.3195 168.621 59.1032C166.338 62.8868 167 72.2093 167 75.9869C167.044 77.5207 166.999 79.0558 166.866 80.5844L168.627 82.7222C168.627 80.5601 168.798 68.1463 168.864 62.984C170.826 60.9191 173.602 57.9796 174.604 56.8075C176.225 54.9126 182.711 47.8919 182.845 46.6772C182.979 45.4626 182.171 43.9746 181.497 41.4056C180.166 36.5892 178.406 31.9021 176.237 27.4006C174.591 23.8963 172.958 19.5053 170.419 16.5476C170.419 16.5476 174.701 26.9512 177.27 33.8383C179.839 40.7254 180.768 43.9746 180.768 45.997Z" fill="black"/>
<path d="M181.46 41.4055C180.13 36.5892 178.37 31.902 176.201 27.4005C174.555 23.8962 172.921 19.5052 170.383 16.5475C168.761 14.6588 165.785 13.1708 165.111 13.4441C164.437 13.7174 161.467 14.926 161.467 16.5475C161.467 18.1691 162.548 18.1691 162.548 18.1691C162.548 18.1691 162.275 20.1976 163.089 21.0053C163.903 21.8131 168.087 21.5459 168.087 21.5459C168.834 22.6448 169.456 23.8244 169.939 25.0623C170.747 27.7588 171.464 28.2994 172.004 33.1641C172.539 37.0348 173.305 40.8699 174.3 44.6487C173.779 44.9689 173.32 45.3804 172.946 45.8633C172.138 46.8108 167.006 51.9366 167.006 51.9366C165.522 52.6405 163.984 53.2274 162.408 53.6918C161.026 54.1219 159.688 54.6831 158.412 55.368C157.58 55.2709 156.742 55.1798 156.293 55.1798C155.345 55.1798 148.731 56.3944 148.731 56.3944C147.203 55.4852 145.572 54.7595 143.873 54.2323C142.297 53.7679 140.76 53.1811 139.275 52.4772C139.275 52.4772 134.143 47.3452 133.336 46.4039C132.961 45.9209 132.502 45.5095 131.981 45.1892C132.976 41.4105 133.743 37.5753 134.277 33.7046C134.714 29.7813 135.844 25.3235 138.2 22.0864C138.2 22.0864 142.385 22.3597 143.199 21.5459C144.012 20.732 143.733 18.7096 143.733 18.7096C143.733 18.7096 144.814 18.7096 144.814 17.0881C144.814 15.4665 141.844 14.2518 141.17 13.9846C140.496 13.7174 137.526 15.1993 135.899 17.0881C134.271 18.9769 134.417 20.8717 132.795 23.5743C131.174 26.277 125.507 39.3649 124.821 41.9461C124.135 44.5272 123.339 45.997 123.473 47.2177C123.606 48.4384 130.092 55.4531 131.714 57.3479C133.336 59.2428 139.549 65.723 139.549 65.723C139.549 65.723 141.844 77.0679 142.518 81.1249C143.193 85.1818 142.792 96.3871 142.792 96.3871C142.792 96.3871 150.219 94.7655 157.246 93.9578C164.273 93.15 171.968 90.4474 172.915 90.4474H173.863C173.863 90.4474 168.591 83.9611 168.591 83.0137C168.591 82.2606 168.767 68.4985 168.834 62.9718C170.796 60.9069 173.571 57.9674 174.573 56.7953C176.195 54.9004 182.681 47.8797 182.815 46.665C182.948 45.4504 182.135 43.9745 181.46 41.4055Z" stroke="#263238" stroke-linecap="round" stroke-linejoin="round"/>
<path d="M143.721 18.7097C143.721 18.7097 140.344 15.8734 140.077 17.0881C139.81 18.3028 142.105 19.9243 142.105 19.9243" stroke="#263238" stroke-linecap="round" stroke-linejoin="round"/>
<path d="M139.136 18.4424C139.172 18.797 139.137 19.1553 139.035 19.4966C138.932 19.8379 138.763 20.1557 138.537 20.4316C138.312 20.7075 138.034 20.9361 137.72 21.1044C137.405 21.2727 137.061 21.3773 136.706 21.4122" stroke="#263238" stroke-linecap="round" stroke-linejoin="round"/>
<path d="M141.03 19.1169L138.328 17.7626L138.461 16.8212L139.269 16.4143" stroke="#263238" stroke-linecap="round" stroke-linejoin="round"/>
<path d="M141.292 14.8533C141.427 15.6018 141.51 16.3587 141.541 17.1186" stroke="#263238" stroke-linecap="round" stroke-linejoin="round"/>
<path d="M142.798 15.2297C142.947 16.1468 142.947 17.0821 142.798 17.9992" stroke="#263238" stroke-linecap="round" stroke-linejoin="round"/>
<path d="M144.182 15.8613C144.243 16.2828 144.193 16.7126 144.039 17.1094C143.885 17.5062 143.631 17.8565 143.302 18.1267" stroke="#263238" stroke-linecap="round" stroke-linejoin="round"/>
<path d="M162.548 18.1691C162.548 18.1691 167.237 16.9544 166.563 18.3027C165.888 19.651 163.726 20.064 163.726 20.064" stroke="#263238" stroke-linecap="round" stroke-linejoin="round"/>
<path d="M169.399 20.1974C168.809 19.7301 168.174 19.3232 167.504 18.9827C166.83 18.7094 166.696 17.7681 166.696 17.7681C166.696 17.7681 168.184 17.5009 168.184 16.8267C168.184 16.1526 167.103 15.6121 167.103 15.6121L166.963 16.2923" stroke="#263238" stroke-linecap="round" stroke-linejoin="round"/>
<path d="M165.202 14.5737C165.202 14.5737 164.668 17.2521 166.696 17.7379" stroke="#263238" stroke-linecap="round" stroke-linejoin="round"/>
<path d="M163.69 14.7258C163.69 14.7258 163.313 16.7422 164.57 17.7625" stroke="#263238" stroke-linecap="round" stroke-linejoin="round"/>
<path d="M162.548 15.4846C162.548 15.4846 162.165 17.2459 163.046 17.8714" stroke="#263238" stroke-linecap="round" stroke-linejoin="round"/>
<path d="M157.24 93.9577C164.267 93.1439 171.962 90.4474 172.909 90.4474H173.857C173.857 90.4474 168.585 83.9611 168.585 83.0137C168.585 82.2606 168.761 68.4985 168.828 62.9718L171.865 59.7469C170.377 59.3035 168.767 58.5322 168.172 57.2022C167.431 55.5563 167.789 52.7079 168.172 50.728L166.957 51.9427C165.473 52.6466 163.936 53.2334 162.36 53.6979C160.977 54.1279 159.639 54.6892 158.364 55.3741C157.532 55.2769 156.693 55.1858 156.244 55.1858C155.297 55.1858 148.683 56.4005 148.683 56.4005C147.154 55.4913 145.523 54.7656 143.824 54.2384C142.248 53.774 140.711 53.1871 139.227 52.4832L139.032 52.2889C139.317 54.5039 139.382 56.7417 139.227 58.9695C138.972 60.9676 137.368 61.9029 136.257 62.3159C137.988 64.1379 139.5 65.723 139.5 65.723C139.5 65.723 141.796 77.0679 142.47 81.1249C143.144 85.1818 142.743 96.3871 142.743 96.3871C142.743 96.3871 150.213 94.7412 157.24 93.9577Z" fill="#2094F3" stroke="#263238" stroke-linecap="round" stroke-linejoin="round"/>
<path d="M154.301 68.8448C153.747 68.2488 153.239 67.6112 152.782 66.9377" stroke="#263238" stroke-linecap="round" stroke-linejoin="round"/>
<path d="M168.585 83.0137C165.975 79.9203 163.133 77.0311 160.082 74.3714C158.522 73.0414 157.264 71.8874 156.268 70.9036" stroke="#263238" stroke-linecap="round" stroke-linejoin="round"/>
<path d="M145.986 50.2423C145.986 50.2423 145.251 48.7665 143.654 45.8209C142.057 42.8754 143.405 37.7252 149.424 35.7575C155.442 33.7897 159.244 37.4762 160.101 39.9298C160.957 42.3835 160.222 45.0861 159.73 46.5619C159.439 47.4327 159.276 48.3409 159.244 49.2584C158.928 48.8781 158.555 48.5484 158.139 48.2806C157.277 47.6733 155.807 41.1567 153.839 40.6708C151.871 40.1849 147.705 41.2963 147.365 44.333C147.025 47.3696 146.97 52.0825 145.986 50.2423Z" fill="#263238" stroke="#263238" stroke-linecap="round" stroke-linejoin="round"/>
<path d="M158.752 48.7663C158.752 48.7663 159.487 46.6832 160.471 47.6671C161.455 48.6509 160.957 50.7037 160.343 51.5904C159.73 52.4771 159.244 51.9609 158.874 50.9831C158.655 50.2648 158.613 49.5042 158.752 48.7663Z" fill="white"/>
<path d="M158.752 48.7663C158.752 48.7663 159.487 46.6832 160.471 47.6671C161.455 48.6509 160.957 50.7037 160.343 51.5904C159.73 52.4771 159.244 51.9609 158.874 50.9831C158.655 50.2648 158.613 49.5042 158.752 48.7663Z" fill="#D9D9D9" stroke="#263238" stroke-linecap="round" stroke-linejoin="round"/>
<path d="M158.752 48.7663C158.752 48.7663 159.487 46.6832 160.471 47.6671C161.455 48.6509 160.957 50.7037 160.343 51.5904C159.73 52.4771 159.244 51.9609 158.874 50.9831C158.655 50.2648 158.613 49.5042 158.752 48.7663V48.7663Z" stroke="#263238" stroke-linecap="round" stroke-linejoin="round"/>
<path d="M146.545 49.9809C146.545 49.9809 145.276 48.1589 144.595 49.3736C143.915 50.5883 144.948 52.4649 145.774 53.1208C146.6 53.7767 146.934 53.1816 147.025 52.1369C147.04 51.3902 146.875 50.6508 146.545 49.9809Z" fill="white"/>
<path d="M146.545 49.9809C146.545 49.9809 145.276 48.1589 144.595 49.3736C143.915 50.5883 144.948 52.4649 145.774 53.1208C146.6 53.7767 146.934 53.1816 147.025 52.1369C147.04 51.3902 146.875 50.6508 146.545 49.9809Z" fill="#D9D9D9" stroke="#263238" stroke-linecap="round" stroke-linejoin="round"/>
<path d="M146.545 49.9809C146.545 49.9809 145.276 48.1589 144.595 49.3736C143.915 50.5883 144.948 52.4649 145.774 53.1208C146.6 53.7767 146.934 53.1816 147.025 52.1369C147.04 51.3902 146.875 50.6508 146.545 49.9809V49.9809Z" stroke="#263238" stroke-linecap="round" stroke-linejoin="round"/>
<path d="M148.197 55.7631C148.141 57.5301 148.263 59.2982 148.561 61.0408C148.824 62.6187 149.194 64.177 149.667 65.7051L154.088 61.5327L159.609 64.4783C159.609 64.4783 160.471 58.8362 158.752 56.3765C157.034 53.9168 151.385 53.68 149.916 54.5545C149.277 54.8554 148.696 55.2643 148.197 55.7631Z" fill="white" stroke="#263238" stroke-linecap="round" stroke-linejoin="round"/>
<path d="M149.794 56.9958C149.794 56.9958 152.989 65.3405 154.707 64.7271C156.426 64.1137 156.918 56.7468 156.918 56.7468C156.918 56.7468 151.616 57.8522 149.794 56.9958Z" fill="white"/>
<path d="M149.794 56.9958C149.794 56.9958 152.989 65.3405 154.707 64.7271C156.426 64.1137 156.918 56.7468 156.918 56.7468C156.918 56.7468 151.616 57.8522 149.794 56.9958Z" fill="#D9D9D9" stroke="#263238" stroke-linecap="round" stroke-linejoin="round"/>
<path opacity="0.25" d="M149.794 56.9958C149.794 56.9958 152.989 65.3405 154.707 64.7271C156.426 64.1137 156.918 56.7468 156.918 56.7468C156.918 56.7468 151.616 57.8522 149.794 56.9958Z" fill="black"/>
<path d="M149.794 56.9958C149.794 56.9958 152.989 65.3405 154.707 64.7271C156.426 64.1137 156.918 56.7468 156.918 56.7468C156.918 56.7468 151.616 57.8522 149.794 56.9958Z" stroke="#263238" stroke-linecap="round" stroke-linejoin="round"/>
<path d="M145.616 46.6832C145.616 46.6832 146.223 52.0824 146.97 54.536C147.717 56.9896 150.553 59.2185 154.355 58.6051C158.157 57.9917 159.512 52.4528 159.512 52.0824C159.512 51.7119 159.269 45.0859 157.793 42.6323C156.317 40.1787 153.499 37.8466 149.57 39.6868C145.64 41.527 145.251 45.3349 145.616 46.6832Z" fill="white"/>
<path d="M145.616 46.6832C145.616 46.6832 146.223 52.0824 146.97 54.536C147.717 56.9896 150.553 59.2185 154.355 58.6051C158.157 57.9917 159.512 52.4528 159.512 52.0824C159.512 51.7119 159.269 45.0859 157.793 42.6323C156.317 40.1787 153.499 37.8466 149.57 39.6868C145.64 41.527 145.251 45.3349 145.616 46.6832Z" fill="#D9D9D9" stroke="#263238" stroke-linecap="round" stroke-linejoin="round"/>
<path opacity="0.25" d="M159.512 52.0826C159.512 51.7121 159.269 45.0861 157.793 42.6325C157.499 42.1414 157.162 41.6779 156.785 41.2478C157.143 42.7783 159.001 51.0197 157.532 53.8317C155.91 56.9412 152.4 57.2145 149.157 55.5929C146.727 54.3783 146.059 47.3272 145.859 43.75C145.525 44.6906 145.449 45.7037 145.64 46.6834C145.64 46.6834 146.247 52.0826 146.995 54.5362C147.742 56.9898 150.578 59.2187 154.38 58.6053C158.182 57.9919 159.512 52.453 159.512 52.0826Z" fill="black"/>
<path d="M145.616 46.6832C145.616 46.6832 146.223 52.0824 146.97 54.536C147.717 56.9896 150.553 59.2185 154.355 58.6051C158.157 57.9917 159.512 52.4528 159.512 52.0824C159.512 51.7119 159.269 45.0859 157.793 42.6323C156.317 40.1787 153.499 37.8466 149.57 39.6868C145.64 41.527 145.251 45.3349 145.616 46.6832Z" stroke="#263238" stroke-linecap="round" stroke-linejoin="round"/>
<path d="M149.108 49.8414C150.184 50.1564 151.324 50.1837 152.415 49.9205C153.505 49.6572 154.507 49.1128 155.321 48.3413C155.867 48.5235 155.661 51.8213 152.643 52.3011C151.85 52.4234 151.041 52.2362 150.383 51.7783C149.725 51.3204 149.269 50.6268 149.108 49.8414Z" fill="white" stroke="#263238" stroke-linecap="round" stroke-linejoin="round"/>
<path d="M150.851 46.9203C150.851 46.9203 150.098 47.9709 150.474 48.3414C150.851 48.7119 152.345 48.7908 153.098 47.9709C153.851 47.151 152.649 46.3979 152.649 46.3979" stroke="#263238" stroke-linecap="round" stroke-linejoin="round"/>
<path d="M147.972 47.4183C147.972 47.4183 148.343 46.2036 150.304 46.2036" stroke="#263238" stroke-linecap="round" stroke-linejoin="round"/>
<path d="M153.718 45.6995C154.076 45.3036 154.567 45.052 155.098 44.9916C155.629 44.9313 156.164 45.0663 156.602 45.3716" stroke="#263238" stroke-linecap="round" stroke-linejoin="round"/>
<path d="M150.037 43.7256C150.037 43.7256 147.231 43.1669 146.885 45.7116" stroke="#263238" stroke-width="2" stroke-linecap="round" stroke-linejoin="round"/>
<path d="M153.013 43.4096C153.013 43.4096 154.993 41.8062 156.833 43.525" stroke="#263238" stroke-width="2" stroke-linecap="round" stroke-linejoin="round"/>
<path d="M83.2975 45.9979C83.2975 45.9979 83.2975 43.1373 80.2184 41.0481C77.1392 38.9589 69.7602 40.1675 67.009 43.69C64.2578 47.2125 64.033 49.7633 60.8446 50.735C57.6561 51.7067 50.3863 52.8364 45.3334 58.108C40.2804 63.3796 42.4729 74.1779 44.7868 75.0586C47.1007 75.9392 44.2341 74.2873 44.5621 71.4146C44.6221 70.6222 44.9009 69.8621 45.3673 69.2187C45.8337 68.5754 46.4695 68.0741 47.2039 67.7706C47.2039 67.7706 44.2341 72.5017 50.5078 78.6661C56.7815 84.8305 63.7172 83.4033 69.5537 82.1886C75.3901 80.974 82.5384 76.6862 83.091 71.6211C83.6437 66.5559 81.7671 63.6954 83.091 61.3876C84.415 59.0797 89.2554 59.4016 89.9174 55.0046C90.5794 50.6075 88.7999 44.7893 83.2975 45.9979Z" fill="#263238" stroke="#263238" stroke-linecap="round" stroke-linejoin="round"/>
<path d="M104.5 124.653C104.5 124.653 107.573 120.766 108.751 120.639C109.929 120.511 111.678 123.184 112.443 125.224C113.209 127.265 114.988 131.455 114.988 133.496C114.988 137.061 113.458 138.203 112.826 137.565C112.194 136.927 110.53 132.986 109.644 132.221C109.079 131.749 108.421 131.401 107.712 131.2C107.712 131.2 105.757 126.251 104.5 124.653Z" fill="white" stroke="#263238" stroke-linecap="round" stroke-linejoin="round"/>
<path d="M107.615 121.611C107.615 121.611 111.338 125.334 112.662 128.899C113.986 132.464 114.393 135.944 113.197 137.401" stroke="#263238" stroke-linecap="round" stroke-linejoin="round"/>
<path d="M97.649 152.208C97.649 152.208 101.335 152.463 102.611 152.59C103.886 152.718 103.886 155.773 103.376 157.935C102.866 160.097 102.228 161.5 102.769 163.917C103.309 166.334 101.876 169.007 101.111 170.154C100.346 171.302 98.6814 171.047 98.566 170.154C98.4507 169.262 98.9487 164.045 97.1692 161.117C95.3897 158.19 95.6084 154.261 97.649 152.208Z" fill="white" stroke="#263238" stroke-linecap="round" stroke-linejoin="round"/>
<path d="M101.105 152.438C101.882 153.857 102.162 155.495 101.9 157.091C101.499 159.878 102.034 164.269 102.034 165.332C102.034 166.395 100.57 170.513 100.042 170.646" stroke="#263238" stroke-linecap="round" stroke-linejoin="round"/>
<path d="M114.338 21.2553C113.676 21.2553 111.034 21.9173 110.816 22.6886C110.597 23.4599 110.269 30.9422 110.269 30.9422C110.269 30.9422 105.641 39.7485 104.105 43.0524C102.568 46.3563 98.487 54.2819 98.487 54.2819L88.2535 64.9588C88.2535 64.9588 86.7109 65.7301 84.069 67.2666C83.82 67.4124 83.5588 67.5763 83.2977 67.7403L78.439 68.8092L74.2727 68.0197C72.2963 66.479 70.2386 65.0457 68.1084 63.7259C65.4665 62.1893 63.9239 61.418 63.9239 61.418L53.6904 50.7412C53.6904 50.7412 49.6152 42.8459 48.0726 39.5117C46.5299 36.1774 41.9082 27.4015 41.9082 27.4015C41.9082 27.4015 41.5802 19.9192 41.3616 19.1479C41.1429 18.3766 38.495 17.7146 37.8391 17.7146C37.1831 17.7146 35.9685 21.2371 36.4058 22.0084C36.843 22.7797 38.0455 22.7737 38.0455 22.7737C37.9895 23.6534 37.9895 24.5358 38.0455 25.4155C38.1549 25.9682 39.8068 27.0675 39.8068 27.0675C39.8068 27.0675 42.1207 36.6451 43.6573 43.2467C45.1938 49.8484 47.1798 54.2576 48.0604 55.0289C48.941 55.8002 57.638 64.6004 59.3993 67.5764C60.8206 69.7785 62.4828 71.8155 64.3551 73.6496C64.3551 73.6496 63.3651 78.5083 63.3651 81.1319C63.3651 83.7556 66.007 89.3856 66.8876 91.9181C67.7683 94.4507 68.8675 106.227 68.8675 106.561C68.8675 106.895 69.4141 114.152 69.4141 114.152C69.4141 114.152 63.4744 127.143 61.6039 136.387C59.7333 145.63 60.6078 150.92 64.9017 152.9C69.1955 154.88 88.6786 157.631 89.2313 158.293C89.7839 158.955 90.2212 159.392 90.9925 159.392C91.7638 159.392 92.7538 158.955 93.4218 159.392C94.0899 159.83 94.0778 160.164 94.8491 160.164C95.2175 160.213 95.569 160.349 95.8751 160.56C96.1811 160.771 96.433 161.052 96.6103 161.378C96.829 161.816 98.153 160.935 98.5902 157.631C99.0275 154.327 98.3716 152.773 97.7096 152.681C97.0476 152.59 97.163 151.467 96.0637 151.467C94.8816 151.542 93.7052 151.69 92.5412 151.91C91.9677 151.737 91.3772 151.627 90.78 151.582C90.118 151.582 89.3467 151.029 88.9033 150.92C88.46 150.811 81.2024 147.835 81.2024 147.835L80.923 147.689C88.2717 143.499 98.6935 136.083 98.6935 136.083C98.6935 136.083 101.688 135.895 102.999 134.771C103.889 133.976 104.702 133.1 105.429 132.154L107.676 131.218C107.647 129.748 107.192 128.317 106.364 127.101C105.058 125.418 104.493 124.671 104.493 124.671C104.493 124.671 100.941 126.354 99.817 126.73C98.6935 127.107 97.0112 127.289 96.0759 128.224C95.1406 129.16 92.7113 131.03 92.7113 131.03L84.482 135.33C84.482 135.33 94.9584 121.866 96.2642 116.254C97.3877 111.444 95.6568 106.13 92.7902 102.249C90.6221 99.3336 87.5793 97.1108 85.2715 94.2867C84.1661 92.9445 83.322 91.9485 83.4009 91.3715C83.5285 90.4787 84.5731 85.9845 85.5205 82.1583L88.4721 76.498C89.2009 75.7389 92.4562 71.6394 92.7599 71.1171C94.5211 68.1412 103.218 59.3349 104.099 58.5636C104.979 57.7923 106.959 53.3952 108.502 46.7875C110.044 40.1797 112.352 30.6082 112.352 30.6082C112.352 30.6082 114.004 29.5089 114.114 28.9563C114.17 28.0765 114.17 27.1941 114.114 26.3144C114.114 26.3144 115.328 26.3144 115.766 25.5431C116.203 24.7718 115 21.2553 114.338 21.2553Z" fill="white" stroke="#263238" stroke-linecap="round" stroke-linejoin="round"/>
<path d="M104.5 124.653C104.5 124.653 100.947 126.336 99.8232 126.712C98.6996 127.089 97.0173 127.271 96.082 128.206C95.1467 129.142 92.7174 131.012 92.7174 131.012L84.4881 135.312C84.4881 135.312 94.9645 121.847 96.2703 116.236C97.3938 111.426 95.663 106.112 92.7964 102.231C91.7037 100.828 90.4971 99.5177 89.1888 98.3135C86.8902 100.319 84.3934 102.085 81.7369 103.585C77.8526 105.863 73.3369 106.825 68.8615 106.33C68.8615 106.446 68.8615 106.518 68.8615 106.543C68.8615 106.871 69.4081 114.134 69.4081 114.134C69.4081 114.134 63.4684 127.125 61.5979 136.369C59.7273 145.612 60.6018 150.902 64.8957 152.882C69.1895 154.862 88.6726 157.613 89.2253 158.275C89.7779 158.937 90.2152 159.374 90.9865 159.374C91.7578 159.374 92.7478 158.937 93.4158 159.374C94.0839 159.812 94.0718 160.146 94.8431 160.146C95.2115 160.195 95.563 160.331 95.8691 160.542C96.1751 160.753 96.427 161.034 96.6043 161.36C96.823 161.798 98.1469 160.917 98.5842 157.613C99.0215 154.309 98.3656 152.754 97.7036 152.663C97.0416 152.572 97.157 151.449 96.0577 151.449C94.8756 151.524 93.6992 151.672 92.5352 151.892C91.9617 151.719 91.3712 151.609 90.774 151.564C90.112 151.564 89.3407 151.011 88.8973 150.902C88.454 150.793 81.1964 147.817 81.1964 147.817L80.917 147.671C88.2657 143.481 98.6875 136.065 98.6875 136.065C98.6875 136.065 101.682 135.877 102.993 134.753C103.883 133.958 104.696 133.082 105.423 132.136L107.67 131.2C107.641 129.73 107.186 128.299 106.358 127.083C105.064 125.4 104.5 124.653 104.5 124.653Z" fill="#263238" stroke="#263238" stroke-linecap="round" stroke-linejoin="round"/>
<path d="M76.3922 113.381L78.5543 114.402C78.5543 114.402 69.5173 136.168 68.2297 142.406C66.9422 148.643 68.4848 151.698 70.902 151.698C73.3192 151.698 80.1941 148.133 80.1941 148.133" stroke="white" stroke-linecap="round" stroke-linejoin="round"/>
<path d="M84.488 135.312C84.488 135.312 79.0646 143.328 77.522 145.205" stroke="white" stroke-linecap="round" stroke-linejoin="round"/>
<path d="M40.3715 20.6845C40.3715 20.6845 38.1669 17.5993 37.8389 16.9373C37.511 16.2753 36.849 18.1519 37.3956 19.2512C37.7455 19.9347 38.1913 20.5646 38.7196 21.1218C38.7196 21.1218 37.8389 23.7637 39.1569 24.8629" fill="white"/>
<path d="M40.3715 20.6845C40.3715 20.6845 38.1669 17.5993 37.8389 16.9373C37.511 16.2753 36.849 18.1519 37.3956 19.2512C37.7455 19.9347 38.1913 20.5646 38.7196 21.1218C38.7196 21.1218 37.8389 23.7637 39.1569 24.8629" stroke="#263238" stroke-linecap="round" stroke-linejoin="round"/>
<path d="M111.18 24.8081C111.18 24.8081 113.379 21.7289 113.713 21.0669C114.047 20.4049 114.703 22.2816 114.15 23.3808C113.801 24.0633 113.357 24.6931 112.832 25.2514C112.832 25.2514 113.713 27.8933 112.389 28.9926" fill="white"/>
<path d="M111.18 24.8081C111.18 24.8081 113.379 21.7289 113.713 21.0669C114.047 20.4049 114.703 22.2816 114.15 23.3808C113.801 24.0633 113.357 24.6931 112.832 25.2514C112.832 25.2514 113.713 27.8933 112.389 28.9926" stroke="#263238" stroke-linecap="round" stroke-linejoin="round"/>
<path d="M64.3671 73.6312C64.3671 73.6312 63.3771 78.4898 63.3771 81.1135C63.3771 83.7372 66.019 89.3671 66.8996 91.8997C67.7803 94.4322 68.8795 106.208 68.8795 106.542C68.8795 106.633 68.9221 107.283 68.9889 108.17C72.8818 109.257 80.9107 109.628 90.4822 99.5945C88.7453 97.8272 86.8383 96.1813 85.2774 94.2683C84.1721 92.9261 83.3279 91.93 83.4069 91.3531C83.5344 90.4603 84.579 85.9661 85.5264 82.1399L88.4781 76.4796C89.2069 75.7204 92.4621 71.6209 92.7658 71.0986C94.5271 68.1227 103.224 59.3164 104.105 58.5451C104.985 57.7738 106.965 53.3768 108.508 46.769C109.073 44.3397 109.722 41.4913 110.372 38.8737C109.13 38.6156 107.929 38.1907 106.801 37.6105C105.738 39.6876 104.694 41.7646 104.105 43.0279C102.562 46.3317 98.4869 54.2574 98.4869 54.2574L88.2533 64.9342C88.2533 64.9342 86.7107 65.7056 84.0688 67.2421C83.8198 67.3879 83.5587 67.5518 83.2975 67.7158L78.4389 68.7847L74.2726 68.0195C72.2962 66.4788 70.2385 65.0455 68.1082 63.7257C65.4663 62.1891 63.9237 61.4178 63.9237 61.4178L53.6902 50.741C53.6902 50.741 49.615 42.8457 48.0724 39.5114C47.3619 37.9931 46.0014 35.3026 44.7382 32.8308C43.6742 33.2779 42.5877 33.6692 41.4829 34.003C42.1935 36.9546 43.0012 40.3738 43.6693 43.2344C45.2119 49.8421 47.1918 54.2452 48.0724 55.0166C48.9531 55.7879 57.65 64.5881 59.4113 67.564C60.833 69.764 62.4951 71.7989 64.3671 73.6312Z" fill="#2094F3"/>
<path d="M64.6707 61.7945C64.1849 61.5394 63.9237 61.4119 63.9237 61.4119L63.3164 60.7742L58.3545 66.0822C58.7096 66.5309 59.042 66.9971 59.3505 67.4791L64.6707 61.7945Z" fill="#263238"/>
<path d="M60.0246 57.3426L58.8524 56.1279L53.3865 60.446C53.7691 60.853 54.1578 61.2659 54.5343 61.6607L60.0246 57.3426Z" fill="#263238"/>
<path d="M68.8675 64.1814L68.1083 63.7199L67.3978 63.3069L61.3245 70.2669C61.701 70.7345 62.0715 71.1718 62.4237 71.5666L68.8675 64.1814Z" fill="#263238"/>
<path d="M55.1478 52.229L48.8315 55.7272L50.0462 56.9419L56.326 53.4558L55.1478 52.229Z" fill="#263238"/>
<path d="M70.6467 65.3596L68.017 68.293C67.8968 68.3306 67.7867 68.395 67.6951 68.4813C67.5795 68.5942 67.5029 68.741 67.4764 68.9004L63.7717 73.0302C64.1361 73.4067 64.3791 73.6375 64.3791 73.6375C64.3791 73.6375 64.1969 74.5242 63.9904 75.751L64.6645 74.7307C66.3104 75.4352 70.8896 76.7045 82.5261 76.7045C83.7164 76.7045 84.9817 76.6904 86.3219 76.662C86.444 76.6591 86.5641 76.6301 86.6741 76.577C87.0878 76.9086 87.5718 77.1412 88.0892 77.2572L88.49 76.4859C88.6358 76.3341 88.8848 76.0425 89.1885 75.6782C88.9862 75.6912 88.7834 75.6912 88.5811 75.6782C86.4859 75.4231 85.2044 70.9592 84.6517 66.9447L84.0444 67.2788C83.7954 67.4245 83.5342 67.5885 83.2731 67.7525L83.0544 67.8011C83.1455 68.4084 83.2488 69.0157 83.3824 69.6231C75.3353 71.6941 71.1508 70.0118 69.5899 69.0704L72.0193 66.3739C71.6002 66.0277 71.1326 65.6937 70.6467 65.3596ZM76.307 72.271C78.8369 72.2358 81.3525 71.8849 83.7954 71.2264C84.1318 72.5444 84.6446 73.811 85.3198 74.9919C72.7845 75.1923 67.604 73.9837 65.7577 73.3399L68.4725 70.3033C69.6264 71.0564 72.0921 72.271 76.307 72.271Z" fill="#263238"/>
<path d="M49.2568 41.9592L43.9062 44.2246C44.052 44.7955 44.1917 45.3421 44.3375 45.8765L50.0099 43.4472L49.2568 41.9592Z" fill="#263238"/>
<path d="M46.7848 36.8635L42.5334 38.4365C42.661 38.9892 42.7946 39.5358 42.9221 40.0824L47.5318 38.3818L46.7848 36.8635Z" fill="#263238"/>
<path d="M52.5546 48.5126C52.3177 48.0571 52.0627 47.5469 51.7894 47.0125L45.8132 50.5167C46.0258 51.0937 46.2323 51.6221 46.4206 52.0958L52.5546 48.5126Z" fill="#263238"/>
<path d="M101.104 49.1074C100.837 49.6479 100.57 50.1763 100.315 50.6743C101.973 52.1744 103.88 53.8203 105.86 55.3325C106.066 54.8345 106.273 54.2879 106.467 53.6867C104.566 52.1927 102.708 50.5711 101.104 49.1074Z" fill="#263238"/>
<path d="M83.7227 89.7924C83.8321 89.2883 83.9657 88.6871 84.1175 88.0312C75.2566 89.2458 68.7399 88.183 65.0474 87.1809C65.3085 87.855 65.5697 88.517 65.8247 89.1426C69.2415 89.9337 72.7394 90.321 76.2465 90.2965C78.7469 90.2923 81.2444 90.1239 83.7227 89.7924Z" fill="#263238"/>
<path d="M103.151 45.0018C104.757 46.1728 106.421 47.2613 108.137 48.2632C108.265 47.7773 108.386 47.2793 108.508 46.7691C108.508 46.6963 108.508 46.6173 108.556 46.5444C106.952 45.5943 105.397 44.5625 103.898 43.4531C103.686 43.9147 103.43 44.437 103.151 45.0018Z" fill="#263238"/>
<path d="M63.3833 80.8402C63.3833 80.9313 63.3833 81.0285 63.3833 81.1135C63.3953 81.5899 63.4542 82.0639 63.5594 82.5286C67.1487 82.2614 74.5764 82.0913 85.1439 83.7433C85.2715 83.2088 85.4051 82.6744 85.5326 82.1521V82.0974C74.6432 80.3665 67.0698 80.5487 63.3833 80.8402Z" fill="#263238"/>
<path d="M88.393 97.5421C87.974 97.1412 87.5671 96.7343 87.1784 96.3274C80.8439 100.579 73.307 102.316 68.5637 103.008C68.6305 103.615 68.6852 104.223 68.7338 104.709C73.6896 104.01 81.6577 102.194 88.393 97.5421Z" fill="#263238"/>
<path d="M67.6709 95.8173C67.7499 96.3639 67.8288 96.9409 67.9078 97.53C68.5151 97.53 69.2196 97.53 69.9484 97.53C75.4359 97.5855 80.9005 96.8136 86.158 95.2404C85.8604 94.9124 85.5507 94.5844 85.2774 94.2383L84.9494 93.8435C78.4996 95.7748 71.7522 95.957 67.6709 95.8173Z" fill="#263238"/>
<path d="M97.2417 55.551C98.6932 57.373 100.278 59.1281 101.857 60.7679L103.072 59.5533C101.493 57.8953 99.8836 56.1036 98.4381 54.312L97.2417 55.551Z" fill="#263238"/>
<path d="M97.7155 65.1225L98.8694 63.9079C97.0259 62.4973 95.3508 60.8792 93.8772 59.0857L92.699 60.3004C94.1864 62.0895 95.869 63.7069 97.7155 65.1225Z" fill="#263238"/>
<path d="M92.7658 71.0992C92.9644 70.7675 93.1813 70.4472 93.4156 70.1397C92.4742 68.3662 91.1017 65.7304 89.887 63.2222L88.6724 64.5219C90.0146 67.2731 91.4964 70.085 92.3649 71.6944C92.5532 71.4029 92.705 71.1903 92.7658 71.0992Z" fill="#263238"/>
<path opacity="0.25" d="M110.214 38.8679C107.615 44.6011 102.647 55.5574 101.663 57.7377C100.321 60.7257 89.7231 71.4694 87.9315 72.514C86.1398 73.5586 85.0952 76.0972 84.3482 78.7816C83.6376 81.3385 81.5788 83.3548 81.3845 86.1182C80.3641 85.3408 78.3478 84.691 75.542 84.4541C70.1671 84.0047 65.0959 85.3529 65.0959 80.4275C65.0959 75.5021 68.2297 70.7102 68.3815 69.2284C68.5334 67.7465 65.5453 70.443 64.0513 69.3802C62.5572 68.3174 52.4088 56.6931 49.4207 52.9823C47.5198 50.6016 44.143 40.7507 41.9445 33.9182L41.4829 34.064C42.1935 37.0156 43.0012 40.4349 43.6693 43.2954C45.2119 49.9031 47.1918 54.3063 48.0724 55.0715C48.9531 55.8367 57.65 64.6491 59.4113 67.625C60.8326 69.8271 62.4948 71.8641 64.3671 73.6983C64.3671 73.6983 63.3771 78.5569 63.3771 81.1806C63.3771 83.8043 66.019 89.4342 66.8996 91.9668C67.7803 94.4993 68.8795 106.275 68.8795 106.609C68.8795 106.701 68.9221 107.35 68.9889 108.237C69.5264 108.385 70.0718 108.503 70.6226 108.589C70.5193 103.974 69.7541 94.3536 71.0659 92.2522C72.4931 89.9686 79.3803 89.8654 81.3905 88.5596C81.4759 90.9962 82.3473 93.3398 83.8745 95.2403C84.9616 96.6675 87.4395 98.617 89.8142 100.324L90.458 99.6677C88.721 97.9004 86.814 96.2545 85.2531 94.3414C84.1478 92.9992 83.3036 92.0032 83.3826 91.4262C83.5101 90.5335 84.5547 86.0392 85.5021 82.213L88.4538 76.5527C89.1826 75.7936 92.4379 71.6941 92.7415 71.1718C94.5028 68.1959 103.2 59.3896 104.08 58.6183C104.961 57.847 106.941 53.4499 108.483 46.8422C109.048 44.4129 109.698 41.5645 110.348 38.9469L110.214 38.8679Z" fill="black"/>
<path d="M64.3671 73.6312C64.3671 73.6312 63.3771 78.4898 63.3771 81.1135C63.3771 83.7372 66.019 89.3671 66.8996 91.8997C67.7803 94.4322 68.8795 106.208 68.8795 106.542C68.8795 106.633 68.922 107.283 68.9889 108.17C72.8818 109.257 80.9107 109.628 90.4822 99.5945C88.7453 97.8272 86.8383 96.1813 85.2774 94.2683C84.1721 92.9261 83.3279 91.93 83.4069 91.3531C83.5344 90.4603 84.579 85.9661 85.5264 82.1399L88.4781 76.4796C89.2069 75.7204 92.4621 71.6209 92.7658 71.0986C94.5271 68.1227 103.224 59.3164 104.105 58.5451C104.985 57.7738 106.965 53.3768 108.508 46.769C109.073 44.3397 109.722 41.4913 110.372 38.8737C109.13 38.6156 107.929 38.1907 106.801 37.6105C105.738 39.6876 104.694 41.7646 104.105 43.0279C102.562 46.3317 98.4869 54.2574 98.4869 54.2574L88.2533 64.9342C88.2533 64.9342 86.7107 65.7056 84.0688 67.2421C83.8198 67.3879 83.5587 67.5518 83.2975 67.7158L78.4389 68.7847L74.2726 68.0195C72.2962 66.4788 70.2385 65.0455 68.1082 63.7257C65.4663 62.1891 63.9237 61.4178 63.9237 61.4178L53.6902 50.741C53.6902 50.741 49.615 42.8457 48.0724 39.5114C47.3619 37.9931 46.0014 35.3026 44.7382 32.8308C43.6742 33.2779 42.5877 33.6692 41.4829 34.003C42.1935 36.9546 43.0012 40.3738 43.6693 43.2344C45.2119 49.8421 47.1918 54.2452 48.0724 55.0166C48.9531 55.7879 57.65 64.5881 59.4113 67.564C60.833 69.764 62.4951 71.7989 64.3671 73.6312V73.6312Z" stroke="#263238" stroke-linecap="round" stroke-linejoin="round"/>
<path d="M73.1736 59.4258C73.1736 59.4258 73.2829 66.3615 72.7302 68.0134C72.1775 69.6654 69.0862 72.8721 70.4224 75.5018C71.7585 78.1315 76.5868 75.1678 78.3176 71.9793C80.0485 68.7908 79.2043 67.7948 79.2043 67.7948V62.9361L73.1736 59.4258Z" fill="white"/>
<path d="M79.2285 62.9483L73.1552 59.4258C73.1552 59.4258 73.2646 66.3615 72.7119 68.0134C72.6314 68.242 72.5319 68.4635 72.4143 68.6754C73.5675 69.0483 74.8046 69.0757 75.9733 68.7544C77.2019 68.2368 78.3057 67.4623 79.2103 66.4829L79.2285 62.9483Z" fill="#2094F3"/>
<path opacity="0.5" d="M79.2285 62.9483L73.1552 59.4258C73.1552 59.4258 73.2646 66.3615 72.7119 68.0134C72.6314 68.242 72.5319 68.4635 72.4143 68.6754C73.5675 69.0483 74.8046 69.0757 75.9733 68.7544C77.2019 68.2368 78.3057 67.4623 79.2103 66.4829L79.2285 62.9483Z" fill="white"/>
<path d="M73.1736 59.4258C73.1736 59.4258 73.2829 66.3615 72.7302 68.0134C72.1775 69.6654 69.0862 72.8721 70.4224 75.5018C71.7585 78.1315 76.5868 75.1678 78.3176 71.9793C80.0485 68.7908 79.2043 67.7948 79.2043 67.7948V62.9361L73.1736 59.4258Z" stroke="#263238" stroke-linecap="round" stroke-linejoin="round"/>
<path d="M71.9587 54.8043C71.9587 54.8043 69.8695 52.8244 69.3168 54.2577C68.7642 55.691 70.1975 57.7803 70.9688 57.9989L71.7401 58.2175C72.0819 59.7865 72.844 61.2329 73.9447 62.402C75.7059 64.1633 77.6858 65.0439 79.8844 63.9446C82.0829 62.8454 83.8502 60.0881 84.3968 56.7903C84.7294 55.1608 84.8418 53.4939 84.7308 51.8345C84.7308 51.2818 83.7409 47.322 80.8743 46.3321C78.0077 45.3421 78.3417 46.5507 76.1432 49.0833C74.6211 50.8939 73.2231 52.8053 71.9587 54.8043Z" fill="white"/>
<path d="M84.1296 49.8C84.3118 51.622 84.6154 56.3471 83.3036 58.6124C81.6638 61.4426 80.018 64.133 76.7384 62.7908C73.4588 61.4486 72.4081 58.0111 72.4081 58.0111C72.4081 58.0111 71.5153 58.163 70.1671 56.9665C70.029 56.8372 69.8685 56.7343 69.6934 56.6629C69.9602 57.2377 70.4082 57.7092 70.9688 58.0051L71.7401 58.2237C72.0819 59.7926 72.844 61.2391 73.9447 62.4082C75.7059 64.1695 77.6858 65.0501 79.8843 63.9508C82.0829 62.8516 83.8502 60.0943 84.3968 56.7965C84.7294 55.1669 84.8417 53.5001 84.7308 51.8407C84.6332 51.1343 84.4306 50.4465 84.1296 49.8Z" fill="#2094F3"/>
<path opacity="0.5" d="M84.1296 49.8C84.3118 51.622 84.6154 56.3471 83.3036 58.6124C81.6638 61.4426 80.018 64.133 76.7384 62.7908C73.4588 61.4486 72.4081 58.0111 72.4081 58.0111C72.4081 58.0111 71.5153 58.163 70.1671 56.9665C70.029 56.8372 69.8685 56.7343 69.6934 56.6629C69.9602 57.2377 70.4082 57.7092 70.9688 58.0051L71.7401 58.2237C72.0819 59.7926 72.844 61.2391 73.9447 62.4082C75.7059 64.1695 77.6858 65.0501 79.8843 63.9508C82.0829 62.8516 83.8502 60.0943 84.3968 56.7965C84.7294 55.1669 84.8417 53.5001 84.7308 51.8407C84.6332 51.1343 84.4306 50.4465 84.1296 49.8Z" fill="white"/>
<path d="M71.9587 54.8043C71.9587 54.8043 69.8695 52.8244 69.3168 54.2577C68.7642 55.691 70.1975 57.7803 70.9688 57.9989L71.7401 58.2175C72.0819 59.7865 72.844 61.2329 73.9447 62.402C75.7059 64.1633 77.6858 65.0439 79.8844 63.9446C82.0829 62.8454 83.8502 60.0881 84.3968 56.7903C84.7294 55.1608 84.8418 53.4939 84.7308 51.8345C84.7308 51.2818 83.7409 47.322 80.8743 46.3321C78.0077 45.3421 78.3417 46.5507 76.1432 49.0833C74.6211 50.8939 73.2231 52.8053 71.9587 54.8043V54.8043Z" stroke="#263238" stroke-linecap="round" stroke-linejoin="round"/>
<path d="M81.0992 52.6057C81.0992 52.6057 80.3279 54.0329 80.6558 54.367C80.9838 54.701 82.0891 55.3569 81.5365 55.6849C81.0151 55.9101 80.4524 56.0239 79.8845 56.0189" stroke="#263238" stroke-linecap="round" stroke-linejoin="round"/>
<path d="M76.696 56.4805C76.696 56.4805 78.0139 58.0231 82.1984 57.4704C82.1984 57.4704 79.6659 60.003 78.5545 60.003C77.4431 60.003 76.696 56.4805 76.696 56.4805Z" stroke="#263238" stroke-linecap="round" stroke-linejoin="round"/>
<path d="M75.9246 52.9338C75.9246 52.9338 77.4672 52.3872 78.3539 53.2678" stroke="#263238" stroke-linecap="round" stroke-linejoin="round"/>
<path d="M81.427 53.8145C81.427 53.8145 83.1883 53.2679 83.5162 54.4764" stroke="#263238" stroke-linecap="round" stroke-linejoin="round"/>
<path d="M75.8154 51.0632C76.1607 50.6643 76.6241 50.3856 77.1385 50.2677C77.6528 50.1497 78.1913 50.1987 78.6759 50.4073" stroke="#263238" stroke-linecap="round" stroke-linejoin="round"/>
<path d="M81.6458 51.6217C81.6458 51.6217 83.079 50.2977 84.0751 52.721" stroke="#263238" stroke-linecap="round" stroke-linejoin="round"/>
</svg>
