<svg width="21" height="20" viewBox="0 0 21 20" fill="none" xmlns="http://www.w3.org/2000/svg">
<path fill-rule="evenodd" clip-rule="evenodd" d="M10.4999 0.333252C7.99824 2.5723 4.70915 3.94961 1.09923 3.99859C0.968139 4.77952 0.899902 5.58176 0.899902 6.39994C0.899902 12.6698 4.90698 18.0037 10.4999 19.9805C16.0928 18.0037 20.0999 12.6698 20.0999 6.39994C20.0999 5.58176 20.0317 4.77952 19.9006 3.99859C16.2907 3.94961 13.0016 2.5723 10.4999 0.333252ZM11.6999 14.7999C11.6999 15.4626 11.1626 15.9999 10.4999 15.9999C9.83716 15.9999 9.2999 15.4626 9.2999 14.7999C9.2999 14.1372 9.83716 13.5999 10.4999 13.5999C11.1626 13.5999 11.6999 14.1372 11.6999 14.7999ZM11.6999 6.3999C11.6999 5.73716 11.1626 5.1999 10.4999 5.1999C9.83716 5.1999 9.2999 5.73716 9.2999 6.3999V9.9999C9.2999 10.6626 9.83716 11.1999 10.4999 11.1999C11.1626 11.1999 11.6999 10.6626 11.6999 9.9999V6.3999Z" fill="#757575"/>
</svg>
