<svg width="16" height="16" viewBox="0 0 16 16" fill="none" xmlns="http://www.w3.org/2000/svg">
<g clip-path="url(#clip0_1278_8337)">
<path d="M7.93625 0H8.05656C8.26062 0.0315625 8.44 0.197188 8.46313 0.406563C8.47688 0.599063 8.46437 0.792188 8.46937 0.985C9.69938 1.06344 10.9069 1.4725 11.9263 2.16563C13.3338 3.11375 14.3866 4.58094 14.8056 6.22781C14.9166 6.65437 14.9841 7.09125 15.015 7.53062C15.2081 7.53562 15.4016 7.52281 15.5944 7.53687C15.8056 7.56031 15.9731 7.74406 16 7.95156V8.04531C15.9747 8.25375 15.8072 8.43875 15.5953 8.46281C15.4022 8.4775 15.2084 8.46406 15.015 8.46937C14.9366 9.66156 14.5516 10.8334 13.8953 11.8328C13.2944 12.7544 12.4756 13.5331 11.5244 14.0859C10.5969 14.6287 9.54094 14.9444 8.46937 15.015C8.46406 15.2088 8.4775 15.4028 8.4625 15.5959C8.43844 15.8066 8.25562 15.9725 8.04906 16H7.955C7.74687 15.975 7.56187 15.8078 7.53719 15.5962C7.5225 15.4028 7.53625 15.2084 7.53031 15.0147C6.62813 14.9544 5.73688 14.7216 4.92438 14.3244C3.19219 13.4859 1.83281 11.9078 1.27625 10.0641C1.1175 9.54594 1.02188 9.00969 0.984688 8.46937C0.790938 8.46406 0.596563 8.4775 0.403125 8.4625C0.19375 8.43781 0.028125 8.25625 0 8.05094V7.94312C0.0315625 7.73906 0.1975 7.56 0.40625 7.53687C0.59875 7.52312 0.791875 7.53562 0.984688 7.53062C1.03219 6.83375 1.17906 6.14313 1.42906 5.49062C1.92062 4.19375 2.81375 3.0575 3.94375 2.25594C4.99094 1.51 6.24844 1.06781 7.53062 0.985C7.53531 0.792188 7.52313 0.599375 7.53656 0.406875C7.55875 0.199375 7.73531 0.036875 7.93625 0ZM3.44906 3.95281C2.56813 4.93656 2.02187 6.21375 1.92406 7.53125C2.09625 7.53344 2.26813 7.52719 2.44 7.53375C2.63625 7.54469 2.81344 7.69406 2.85969 7.885C2.93438 8.14313 2.73781 8.43281 2.47156 8.46313C2.28969 8.47656 2.10687 8.465 1.92438 8.46875C1.99063 9.33 2.24187 10.1766 2.66062 10.9325C3.21125 11.9344 4.05 12.7747 5.04969 13.3287C5.81 13.7534 6.66344 14.0075 7.53125 14.0756C7.53344 13.9031 7.52688 13.7303 7.53375 13.5578C7.54563 13.3528 7.70969 13.1713 7.91125 13.1341C8.16313 13.0778 8.4325 13.2709 8.46281 13.5266C8.47656 13.7091 8.465 13.8925 8.46875 14.0756C10.025 13.9625 11.5194 13.2153 12.5509 12.0463C13.4319 11.0628 13.9766 9.78594 14.0756 8.46875C13.9034 8.46656 13.7309 8.47313 13.5591 8.46625C13.3553 8.45438 13.1737 8.29344 13.135 8.09344C13.075 7.83937 13.2706 7.56625 13.5288 7.53656C13.7106 7.52406 13.8934 7.53469 14.0756 7.53125C14.0159 6.77031 13.8144 6.02031 13.4781 5.33469C13.0037 4.36094 12.2647 3.51844 11.3619 2.92031C10.5034 2.34875 9.4975 2.00156 8.46906 1.92438C8.46625 2.09719 8.47313 2.27 8.46594 2.4425C8.45375 2.63094 8.31531 2.8025 8.13375 2.85406C7.88125 2.93969 7.5875 2.75906 7.54125 2.49875C7.51906 2.30844 7.53688 2.11563 7.53094 1.92438C5.975 2.03781 4.48125 2.78437 3.44906 3.95281Z" fill="white"/>
<path d="M7.61095 3.80545C8.33407 3.71858 9.08532 3.8767 9.70689 4.25795C10.4494 4.70733 10.9925 5.4667 11.19 6.31077C11.3672 7.04827 11.2734 7.84608 10.93 8.52202C10.7775 8.83514 10.5569 9.10702 10.3509 9.38545C9.6922 10.2667 9.03501 11.1495 8.37501 12.0305C8.20782 12.2705 7.81564 12.2805 7.63845 12.047C6.95501 11.137 6.27657 10.2233 5.5947 9.31202C5.43907 9.1017 5.27532 8.89577 5.1472 8.6667C4.79657 8.05389 4.6547 7.32483 4.75126 6.62545C4.86407 5.77952 5.3197 4.98389 5.99689 4.46327C6.46157 4.10233 7.02657 3.87389 7.61095 3.80545ZM7.7347 5.68295C7.23126 5.77483 6.79876 6.16514 6.6547 6.65608C6.5272 7.06952 6.60595 7.54014 6.86345 7.88827C7.12782 8.25577 7.57814 8.48139 8.03126 8.46733C8.43439 8.46139 8.82845 8.26858 9.08314 7.9567C9.3247 7.66764 9.44032 7.27827 9.39595 6.90452C9.3547 6.51702 9.14095 6.15358 8.82564 5.92577C8.51657 5.69733 8.11095 5.60858 7.7347 5.68295Z" fill="white"/>
<path d="M7.91219 6.60242C8.14 6.55367 8.38657 6.70492 8.44813 6.92929C8.52719 7.16711 8.37313 7.44586 8.1325 7.51086C7.88781 7.59242 7.60282 7.42554 7.54594 7.17586C7.47438 6.92523 7.65688 6.64586 7.91219 6.60242Z" fill="white"/>
</g>
<defs>
<clipPath id="clip0_1278_8337">
<rect width="16" height="16" fill="white"/>
</clipPath>
</defs>
</svg>
