<svg width="16" height="16" viewBox="0 0 16 16" fill="none" xmlns="http://www.w3.org/2000/svg">
<path d="M7.99999 4.79998C7.11634 4.79998 6.39999 4.08363 6.39999 3.19998C6.39999 2.31632 7.11634 1.59998 7.99999 1.59998C8.88365 1.59998 9.59999 2.31632 9.59999 3.19998C9.59999 4.08363 8.88365 4.79998 7.99999 4.79998Z" fill="#424242"/>
<path d="M7.99999 9.59998C7.11634 9.59998 6.39999 8.88363 6.39999 7.99998C6.39999 7.11632 7.11634 6.39998 7.99999 6.39998C8.88365 6.39998 9.59999 7.11632 9.59999 7.99998C9.59999 8.88363 8.88365 9.59998 7.99999 9.59998Z" fill="#424242"/>
<path d="M7.99999 14.4C7.11634 14.4 6.39999 13.6836 6.39999 12.8C6.39999 11.9163 7.11634 11.2 7.99999 11.2C8.88365 11.2 9.59999 11.9163 9.59999 12.8C9.59999 13.6836 8.88365 14.4 7.99999 14.4Z" fill="#424242"/>
</svg>
