<svg width="13" height="16" viewBox="0 0 13 16" fill="none" xmlns="http://www.w3.org/2000/svg">
<path fill-rule="evenodd" clip-rule="evenodd" d="M-0.600098 4.80002C-0.600098 3.47454 0.474419 2.40002 1.7999 2.40002H9.7999C10.1029 2.40002 10.3799 2.57123 10.5154 2.84225C10.651 3.11328 10.6217 3.43761 10.4399 3.68002L8.3999 6.40002L10.4399 9.12002C10.6217 9.36244 10.651 9.68677 10.5154 9.9578C10.3799 10.2288 10.1029 10.4 9.7999 10.4H1.7999C1.35807 10.4 0.999902 10.7582 0.999902 11.2V13.6C0.999902 14.0419 0.64173 14.4 0.199902 14.4C-0.241925 14.4 -0.600098 14.0419 -0.600098 13.6V4.80002Z" fill="#404040"/>
</svg>
