<svg width="16" height="16" viewBox="0 0 16 16" fill="none" xmlns="http://www.w3.org/2000/svg">
<path fill-rule="evenodd" clip-rule="evenodd" d="M2.3999 4.80002C2.3999 3.47454 3.47442 2.40002 4.7999 2.40002H12.7999C13.1029 2.40002 13.3799 2.57123 13.5154 2.84225C13.651 3.11328 13.6217 3.43761 13.4399 3.68002L11.3999 6.40002L13.4399 9.12002C13.6217 9.36244 13.651 9.68677 13.5154 9.9578C13.3799 10.2288 13.1029 10.4 12.7999 10.4H4.7999C4.35807 10.4 3.9999 10.7582 3.9999 11.2V13.6C3.9999 14.0419 3.64173 14.4 3.1999 14.4C2.75807 14.4 2.3999 14.0419 2.3999 13.6V4.80002Z" fill="#404040"/>
</svg>
