<svg width="20" height="18" viewBox="0 0 20 18" fill="none" xmlns="http://www.w3.org/2000/svg">
<path d="M0.399902 10.2001C0.399902 9.53736 0.937161 9.0001 1.5999 9.0001H3.9999C4.66264 9.0001 5.1999 9.53736 5.1999 10.2001V16.2001C5.1999 16.8628 4.66264 17.4001 3.9999 17.4001H1.5999C0.937161 17.4001 0.399902 16.8628 0.399902 16.2001V10.2001Z" fill="#2094F3"/>
<path d="M7.5999 5.4001C7.5999 4.73736 8.13716 4.2001 8.7999 4.2001H11.1999C11.8626 4.2001 12.3999 4.73736 12.3999 5.4001V16.2001C12.3999 16.8628 11.8626 17.4001 11.1999 17.4001H8.7999C8.13716 17.4001 7.5999 16.8628 7.5999 16.2001V5.4001Z" fill="#2094F3"/>
<path d="M14.7999 1.8001C14.7999 1.13736 15.3372 0.600098 15.9999 0.600098H18.3999C19.0626 0.600098 19.5999 1.13736 19.5999 1.8001V16.2001C19.5999 16.8628 19.0626 17.4001 18.3999 17.4001H15.9999C15.3372 17.4001 14.7999 16.8628 14.7999 16.2001V1.8001Z" fill="#2094F3"/>
</svg>
