<svg width="16" height="16" viewBox="0 0 16 16" fill="none" xmlns="http://www.w3.org/2000/svg">
<path fill-rule="evenodd" clip-rule="evenodd" d="M14.4001 7.99998C14.4001 11.5346 11.5347 14.4 8.0001 14.4C4.46548 14.4 1.6001 11.5346 1.6001 7.99998C1.6001 4.46535 4.46548 1.59998 8.0001 1.59998C11.5347 1.59998 14.4001 4.46535 14.4001 7.99998ZM8.8001 4.79998C8.8001 5.2418 8.44192 5.59998 8.0001 5.59998C7.55827 5.59998 7.2001 5.2418 7.2001 4.79998C7.2001 4.35815 7.55827 3.99998 8.0001 3.99998C8.44192 3.99998 8.8001 4.35815 8.8001 4.79998ZM7.2001 7.19998C6.75827 7.19998 6.4001 7.55815 6.4001 7.99998C6.4001 8.4418 6.75827 8.79998 7.2001 8.79998V11.2C7.2001 11.6418 7.55827 12 8.0001 12H8.8001C9.24192 12 9.6001 11.6418 9.6001 11.2C9.6001 10.7581 9.24192 10.4 8.8001 10.4V7.99998C8.8001 7.55815 8.44192 7.19998 8.0001 7.19998H7.2001Z" fill="#404040"/>
</svg>
