<svg width="17" height="16" viewBox="0 0 17 16" fill="none" xmlns="http://www.w3.org/2000/svg">
<path d="M6.1001 2.3999C5.65827 2.3999 5.3001 2.75807 5.3001 3.1999C5.3001 3.64173 5.65827 3.9999 6.1001 3.9999H10.9001C11.3419 3.9999 11.7001 3.64173 11.7001 3.1999C11.7001 2.75807 11.3419 2.3999 10.9001 2.3999H6.1001Z" fill="#2094F3"/>
<path d="M3.7001 5.5999C3.7001 5.15807 4.05827 4.7999 4.5001 4.7999H12.5001C12.9419 4.7999 13.3001 5.15807 13.3001 5.5999C13.3001 6.04173 12.9419 6.3999 12.5001 6.3999H4.5001C4.05827 6.3999 3.7001 6.04173 3.7001 5.5999Z" fill="#2094F3"/>
<path d="M2.1001 8.7999C2.1001 7.91625 2.81644 7.1999 3.7001 7.1999H13.3001C14.1838 7.1999 14.9001 7.91625 14.9001 8.7999V11.9999C14.9001 12.8836 14.1838 13.5999 13.3001 13.5999H3.7001C2.81644 13.5999 2.1001 12.8836 2.1001 11.9999V8.7999Z" fill="#2094F3"/>
</svg>
