<svg width="20" height="20" viewBox="0 0 20 20" fill="none" xmlns="http://www.w3.org/2000/svg">
<path fill-rule="evenodd" clip-rule="evenodd" d="M9.9999 19.5999C15.3018 19.5999 19.5999 15.3018 19.5999 9.9999C19.5999 4.69797 15.3018 0.399902 9.9999 0.399902C4.69797 0.399902 0.399902 4.69797 0.399902 9.9999C0.399902 15.3018 4.69797 19.5999 9.9999 19.5999ZM6.3999 8.7999C7.06264 8.7999 7.5999 8.26264 7.5999 7.5999C7.5999 6.93716 7.06264 6.3999 6.3999 6.3999C5.73716 6.3999 5.1999 6.93716 5.1999 7.5999C5.1999 8.26264 5.73716 8.7999 6.3999 8.7999ZM14.7999 7.5999C14.7999 8.26264 14.2626 8.7999 13.5999 8.7999C12.9372 8.7999 12.3999 8.26264 12.3999 7.5999C12.3999 6.93716 12.9372 6.3999 13.5999 6.3999C14.2626 6.3999 14.7999 6.93716 14.7999 7.5999ZM5.75726 14.6541C6.22589 15.1227 6.98569 15.1227 7.45432 14.6541C8.86021 13.2482 11.1396 13.2482 12.5455 14.6541C13.0141 15.1227 13.7739 15.1227 14.2425 14.6541C14.7112 14.1854 14.7112 13.4256 14.2425 12.957C11.8994 10.6139 8.10041 10.6139 5.75726 12.957C5.28863 13.4256 5.28863 14.1854 5.75726 14.6541Z" fill="#757575"/>
</svg>
