<svg width="16" height="16" viewBox="0 0 16 16" fill="none" xmlns="http://www.w3.org/2000/svg">
<path fill-rule="evenodd" clip-rule="evenodd" d="M3.9999 7.19998V5.59998C3.9999 3.39084 5.79076 1.59998 7.9999 1.59998C10.209 1.59998 11.9999 3.39084 11.9999 5.59998V7.19998C12.8836 7.19998 13.5999 7.91632 13.5999 8.79998V12.8C13.5999 13.6836 12.8836 14.4 11.9999 14.4H3.9999C3.11625 14.4 2.3999 13.6836 2.3999 12.8V8.79998C2.3999 7.91632 3.11625 7.19998 3.9999 7.19998ZM10.3999 5.59998V7.19998H5.5999V5.59998C5.5999 4.27449 6.67442 3.19998 7.9999 3.19998C9.32539 3.19998 10.3999 4.27449 10.3999 5.59998Z" fill="#404040"/>
</svg>
