<svg width="17" height="11" viewBox="0 0 17 11" fill="none" xmlns="http://www.w3.org/2000/svg">
<path fill-rule="evenodd" clip-rule="evenodd" d="M10.5 8.5C9.94771 8.5 9.5 8.94772 9.5 9.5C9.5 10.0523 9.94771 10.5 10.5 10.5H15.5C16.0523 10.5 16.5 10.0523 16.5 9.5V4.5C16.5 3.94772 16.0523 3.5 15.5 3.5C14.9477 3.5 14.5 3.94772 14.5 4.5V7.08579L10.2071 2.79289C9.81658 2.40237 9.18342 2.40237 8.79289 2.79289L6.5 5.08579L2.20711 0.792894C1.81658 0.402369 1.18342 0.402369 0.792893 0.792894C0.402369 1.18342 0.402369 1.81658 0.792893 2.20711L5.79289 7.20711C6.18342 7.59763 6.81658 7.59763 7.20711 7.20711L9.5 4.91421L13.0858 8.5H10.5Z" fill="#F32020"/>
</svg>
