<svg width="317" height="270" viewBox="0 0 317 270" fill="none" xmlns="http://www.w3.org/2000/svg">
<path d="M27.2491 159.877L152.594 232.246L288.839 153.584L163.495 81.2153L27.2491 159.877Z" fill="#2094F3"/>
<path d="M73.2211 132.379C72.9857 129.632 72.3436 126.934 71.3159 124.376C69.6322 120.257 66.4055 116.111 62.7025 115.34C58.9995 114.568 57.4432 117.057 58.2281 119.506C58.8989 121.605 61.6627 123.349 63.7557 125.181C65.8487 127.012 69.7932 131.44 70.8598 135.726L72.9461 135.948L73.2211 132.379Z" fill="#2094F3"/>
<g opacity="0.35">
<path d="M73.2211 132.379C72.9857 129.632 72.3436 126.934 71.3159 124.376C69.6322 120.257 66.4055 116.111 62.7025 115.34C58.9995 114.568 57.4432 117.057 58.2281 119.506C58.8989 121.605 61.6627 123.349 63.7557 125.181C65.8487 127.012 69.7932 131.44 70.8598 135.726L72.9461 135.948L73.2211 132.379Z" fill="black"/>
</g>
<path d="M71.7988 134.31C71.7395 134.311 71.6825 134.287 71.6399 134.246C71.5973 134.205 71.5725 134.148 71.5708 134.089C71.1481 123.302 60.5759 117.318 60.4685 117.245C60.4158 117.214 60.3773 117.163 60.361 117.105C60.3447 117.046 60.352 116.983 60.3813 116.929C60.4111 116.875 60.4608 116.835 60.5198 116.818C60.5787 116.8 60.6422 116.807 60.6966 116.835C60.8039 116.896 71.6043 123.027 72.0336 134.069C72.0354 134.099 72.0311 134.13 72.0209 134.159C72.0106 134.188 71.9947 134.214 71.9741 134.237C71.9534 134.259 71.9285 134.277 71.9007 134.29C71.8729 134.303 71.8428 134.31 71.8122 134.31H71.7988Z" fill="white"/>
<path d="M72.2753 146.594V146.648C71.9716 146.978 71.5549 147.182 71.108 147.218C69.9499 147.349 68.7842 147.048 67.8344 146.373C66.8961 145.694 66.0987 144.84 65.4865 143.857C65.2115 143.375 64.883 142.925 64.5071 142.516C63.6886 141.717 62.3537 141.744 61.2938 141.516C60.602 141.383 59.9573 141.071 59.424 140.611C58.8908 140.15 58.4876 139.558 58.2549 138.893C57.8524 137.552 58.0067 135.901 59.2612 135.029L58.1878 134.358C57.6993 134.066 57.2486 133.715 56.8462 133.312C56.4401 132.901 56.2011 132.353 56.1754 131.776C56.1956 131.361 56.3288 130.96 56.5606 130.616C56.7923 130.272 57.1138 129.998 57.4902 129.824C58.286 129.515 59.1499 129.425 59.9924 129.562C60.8456 129.662 61.6849 129.858 62.4946 130.146C62.7061 130.24 62.9339 130.292 63.1654 130.3C63.4789 130.244 63.7724 130.108 64.0173 129.904C65.842 128.69 68.8205 128.77 69.8133 131.045C69.9542 131.38 70.0414 131.715 70.1957 132.071C70.7726 133.292 72.3692 132.923 73.4023 133.493C73.7287 133.696 74.0062 133.968 74.215 134.29C74.4237 134.613 74.5586 134.977 74.6097 135.358C74.7096 136.634 74.5939 137.917 74.2676 139.155C74.053 140.322 73.7645 141.469 73.4425 142.61C73.1809 143.549 72.8924 144.475 72.5838 145.4C72.5236 145.808 72.4201 146.208 72.2753 146.594Z" fill="#2094F3"/>
<g opacity="0.2">
<path d="M72.2753 146.594V146.648C71.9716 146.978 71.5549 147.182 71.108 147.218C69.9499 147.349 68.7842 147.048 67.8344 146.373C66.8961 145.694 66.0987 144.84 65.4865 143.857C65.2115 143.375 64.883 142.925 64.5071 142.516C63.6886 141.717 62.3537 141.744 61.2938 141.516C60.602 141.383 59.9573 141.071 59.424 140.611C58.8908 140.15 58.4876 139.558 58.2549 138.893C57.8524 137.552 58.0067 135.901 59.2612 135.029L58.1878 134.358C57.6993 134.066 57.2486 133.715 56.8462 133.312C56.4401 132.901 56.2011 132.353 56.1754 131.776C56.1956 131.361 56.3288 130.96 56.5606 130.616C56.7923 130.272 57.1138 129.998 57.4902 129.824C58.286 129.515 59.1499 129.425 59.9924 129.562C60.8456 129.662 61.6849 129.858 62.4946 130.146C62.7061 130.24 62.9339 130.292 63.1654 130.3C63.4789 130.244 63.7724 130.108 64.0173 129.904C65.842 128.69 68.8205 128.77 69.8133 131.045C69.9542 131.38 70.0414 131.715 70.1957 132.071C70.7726 133.292 72.3692 132.923 73.4023 133.493C73.7287 133.696 74.0062 133.968 74.215 134.29C74.4237 134.613 74.5586 134.977 74.6097 135.358C74.7096 136.634 74.5939 137.917 74.2676 139.155C74.053 140.322 73.7645 141.469 73.4425 142.61C73.1809 143.549 72.8924 144.475 72.5838 145.4C72.5236 145.808 72.4201 146.208 72.2753 146.594Z" fill="black"/>
</g>
<path d="M73.2948 143.716C72.3761 141.209 70.872 138.958 68.9076 137.149C68.8866 137.106 68.8509 137.073 68.807 137.055C68.2402 136.526 67.6469 136.027 67.0293 135.559C66.7904 133.947 66.9945 132.301 67.6196 130.796C67.64 130.751 67.6416 130.699 67.624 130.653C67.6064 130.606 67.571 130.568 67.5257 130.548C67.5038 130.537 67.4799 130.53 67.4553 130.528C67.4307 130.527 67.4061 130.53 67.3828 130.538C67.3596 130.546 67.3383 130.559 67.3202 130.576C67.3021 130.592 67.2875 130.613 67.2775 130.635C66.6671 132.09 66.4363 133.675 66.6067 135.244C64.0933 133.454 61.31 132.077 58.3622 131.165C58.3142 131.155 58.2641 131.162 58.2218 131.187C58.1795 131.212 58.1482 131.252 58.1341 131.299C58.1216 131.346 58.1279 131.396 58.1517 131.439C58.1755 131.482 58.2149 131.513 58.2616 131.527C61.8503 132.643 65.1785 134.468 68.049 136.894C65.3656 136.431 62.1524 137.739 62.0115 137.8C61.9661 137.82 61.9304 137.857 61.9117 137.904C61.8929 137.95 61.8927 138.001 61.9109 138.048C61.9254 138.082 61.9498 138.111 61.9808 138.131C62.0118 138.151 62.0482 138.162 62.0853 138.162H62.1591C62.1926 138.162 65.956 136.612 68.6259 137.431C70.5599 139.204 72.0412 141.414 72.946 143.877C72.9588 143.915 72.9832 143.948 73.0158 143.971C73.0483 143.993 73.0873 144.005 73.1271 144.005C73.1468 144.011 73.1679 144.011 73.1875 144.005C73.2167 143.997 73.2437 143.983 73.2661 143.962C73.2885 143.942 73.3057 143.917 73.3163 143.888C73.3268 143.86 73.3304 143.83 73.3266 143.8C73.3229 143.77 73.312 143.741 73.2948 143.716Z" fill="white"/>
<path d="M147.79 19.7134L164.601 29.427V48.8408L147.79 39.1339V19.7134Z" fill="#E0E0E0"/>
<path d="M164.601 29.427L181.419 19.7134V58.5477L164.601 48.8408V29.427Z" fill="#F0F0F0"/>
<path d="M164.601 3.19092L146.04 13.8839V18.7407L164.601 29.4271L183.17 18.7407V13.8839L164.601 3.19092Z" fill="#455A64"/>
<path d="M146.04 18.7406L164.601 29.4269V24.5701L146.04 13.8838V18.7406Z" fill="#37474F"/>
<path d="M183.17 18.7406L164.601 29.4269V24.5701L183.17 13.8838V18.7406Z" fill="#263238"/>
<path d="M152.265 13.8839L164.601 6.77979L176.945 13.8839L164.608 20.988L152.265 13.8839Z" fill="#2094F3"/>
<path d="M164.601 6.77979L164.608 20.988L152.265 13.8839L164.601 6.77979Z" fill="#37474F"/>
<path d="M164.601 6.77979L176.945 13.8839L164.608 20.988L164.601 6.77979Z" fill="#263238"/>
<path d="M70.8462 147.292V80.377L152.593 127.57V194.485L70.8462 147.292Z" fill="#F0F0F0"/>
<path d="M70.8462 80.377L152.593 127.57V154.222L70.8462 107.069V80.377Z" fill="#E0E0E0"/>
<path d="M229.927 149.841V82.9589L191.227 60.6538L152.594 127.569V194.484L229.927 149.841Z" fill="#FAFAFA"/>
<path d="M146.227 138.725L191.227 60.654V53.2212L139.787 142.441L146.227 138.725Z" fill="#37474F"/>
<path d="M111.727 7.26953L191.227 53.2213L139.787 142.442L60.2808 96.4898L111.727 7.26953Z" fill="#455A64"/>
<path d="M191.227 60.654L236.367 86.6822L242.807 82.9591L191.227 53.2212V60.654Z" fill="#263238"/>
<path d="M207.367 119.68L222.501 111V133.305L207.367 141.985V119.68Z" fill="#455A64"/>
<path d="M221.213 132.561V111.751L207.367 119.681V140.497L221.213 132.561Z" fill="#E0E0E0"/>
<path d="M222.501 133.305L221.213 132.561L207.367 140.496V141.986L222.501 133.305Z" fill="#37474F"/>
<path d="M207.367 130.837L222.501 122.157V120.661L207.367 129.334V130.837Z" fill="#455A64"/>
<path d="M159.483 147.292L174.617 138.611V160.916L159.483 169.597V147.292Z" fill="#455A64"/>
<path d="M173.322 160.172V139.356L159.483 147.292V168.101L173.322 160.172Z" fill="#E0E0E0"/>
<path d="M174.617 160.917L173.322 160.172L159.483 168.102V169.598L174.617 160.917Z" fill="#37474F"/>
<path d="M159.483 158.442L174.617 149.768V148.265L159.483 156.946V158.442Z" fill="#455A64"/>
<path d="M181.567 94.1154L200.887 82.9595V99.69L181.567 110.846V94.1154Z" fill="#455A64"/>
<path d="M199.599 98.9453V83.7041L181.567 94.1154V109.35L199.599 98.9453Z" fill="#E0E0E0"/>
<path d="M200.887 99.6899L199.599 98.9453L181.567 109.35V110.846L200.887 99.6899Z" fill="#37474F"/>
<path d="M236.367 86.6827H229.927L229.933 82.9663L236.367 86.6827Z" fill="black"/>
<path d="M179.843 178.754V126.724L201.645 114.14V166.169L179.843 178.754Z" fill="#37474F"/>
<path d="M200.887 165.592V114.576L179.843 126.724V177.741L200.887 165.592Z" fill="#455A64"/>
<path d="M201.645 114.14L200.886 114.576V165.592L201.645 166.169V114.14Z" fill="#263238"/>
<path d="M134.696 141.141L119.596 132.42V154.678L134.703 163.399L134.696 141.141Z" fill="#455A64"/>
<path d="M120.883 153.933V133.164L134.696 141.14L134.703 161.909L120.883 153.933Z" fill="#FAFAFA"/>
<path d="M119.596 154.677L120.884 153.933L134.703 161.909V163.398L119.596 154.677Z" fill="#37474F"/>
<path d="M134.696 152.195L119.596 143.535V142.039L134.696 150.699V152.195Z" fill="#455A64"/>
<path d="M120.883 133.164L134.696 141.14V143.897L120.883 135.975V133.164Z" fill="#F5F5F5"/>
<path d="M98.3972 120.123L83.2968 111.462V133.721L98.3972 142.381V120.123Z" fill="#455A64"/>
<path d="M84.5848 132.976V112.208L98.3972 120.123V140.892L84.5848 132.976Z" fill="#FAFAFA"/>
<path d="M84.5848 112.208L98.3972 120.184V122.941L84.5848 115.018V112.208Z" fill="#F5F5F5"/>
<path d="M83.2968 133.721L84.5848 132.977L98.3972 140.892V142.382L83.2968 133.721Z" fill="#37474F"/>
<path d="M98.3972 131.253L83.2968 122.593V121.097L98.3972 129.757V131.253Z" fill="#455A64"/>
<path d="M287.216 112.795L279.971 127.068L281.138 127.66L288.382 113.387L287.216 112.795Z" fill="#455A64"/>
<path d="M273.782 111.647L272.67 112.336L279.735 123.749L280.847 123.061L273.782 111.647Z" fill="#455A64"/>
<path d="M281.661 110.309V153.457C281.651 153.553 281.616 153.646 281.56 153.724C281.503 153.803 281.427 153.866 281.339 153.906C281.1 154.029 280.836 154.093 280.568 154.093C280.299 154.093 280.035 154.029 279.796 153.906C279.708 153.866 279.632 153.803 279.576 153.724C279.519 153.646 279.484 153.553 279.474 153.457V110.309H281.661Z" fill="#455A64"/>
<path d="M307.227 103.262C309.253 94.677 303.936 86.0745 295.35 84.0481C286.765 82.0218 278.162 87.3389 276.136 95.9244C274.11 104.51 279.427 113.112 288.012 115.139C296.598 117.165 305.2 111.848 307.227 103.262Z" fill="#2094F3"/>
<path opacity="0.2" d="M296.701 95.5178C298.761 89.0309 300.961 86.4951 299.566 85.7035C296.92 84.2067 293.902 83.4961 290.866 83.6552C287.83 83.8142 284.902 84.8363 282.427 86.6014C279.952 88.3665 278.032 90.8012 276.893 93.6196C275.754 96.438 275.442 99.5231 275.996 102.512C276.549 105.502 277.944 108.271 280.016 110.495C282.088 112.719 284.753 114.305 287.695 115.068C290.638 115.83 293.738 115.737 296.629 114.799C299.521 113.861 302.085 112.117 304.02 109.773C299.284 111.155 294.031 103.937 296.701 95.5178Z" fill="black"/>
<path d="M277.757 104.123C277.764 106.346 277.111 108.52 275.881 110.371C274.651 112.222 272.899 113.667 270.848 114.522C268.797 115.377 266.538 115.604 264.357 115.175C262.177 114.745 260.172 113.679 258.599 112.109C257.025 110.54 255.952 108.539 255.516 106.36C255.08 104.181 255.3 101.921 256.149 99.8673C256.998 97.8134 258.437 96.0576 260.285 94.8221C262.132 93.5867 264.305 92.9273 266.527 92.9272C269.5 92.9272 272.351 94.1058 274.456 96.2045C276.561 98.3032 277.748 101.151 277.757 104.123Z" fill="#2094F3"/>
<path opacity="0.2" d="M266.527 92.9273C264.171 92.9234 261.875 93.6655 259.967 95.0471C259.658 101.903 265.481 108.591 263.857 110.838C262.234 113.086 258.216 111.704 256.82 109.799C257.81 111.502 259.231 112.915 260.939 113.896C262.648 114.877 264.584 115.391 266.554 115.387C268.524 115.382 270.458 114.86 272.163 113.872C273.867 112.884 275.281 111.465 276.264 109.757C277.246 108.05 277.762 106.114 277.76 104.144C277.757 102.174 277.237 100.239 276.25 98.5336C275.264 96.8284 273.846 95.4127 272.139 94.4286C270.433 93.4446 268.497 92.9268 266.527 92.9273Z" fill="black"/>
<path d="M295.135 106.589C303.181 98.5435 303.181 85.4995 295.135 77.4543C287.09 69.409 274.046 69.409 266.001 77.4543C257.956 85.4995 257.956 98.5435 266.001 106.589C274.046 114.634 287.09 114.634 295.135 106.589Z" fill="#2094F3"/>
<path opacity="0.1" d="M300.619 96.7246C299.839 100.059 298.24 103.146 295.967 105.706C293.693 108.267 290.818 110.221 287.6 111.391C284.382 112.561 280.923 112.911 277.536 112.409C274.149 111.906 270.941 110.567 268.201 108.513C265.462 106.459 263.277 103.755 261.846 100.644C260.414 97.5336 259.78 94.1154 260.001 90.6985C260.223 87.2815 261.292 83.9736 263.114 81.0739C264.935 78.1743 267.45 75.7742 270.431 74.0908C268.646 75.1047 267.021 76.3775 265.608 77.8676C265.25 79.4072 265.068 80.9826 265.065 82.5634C265.061 86.6866 266.296 90.7159 268.609 94.1293C270.922 97.5427 274.207 100.183 278.038 101.708C281.868 103.233 286.069 103.573 290.095 102.683C294.121 101.793 297.787 99.7153 300.619 96.7179V96.7246Z" fill="black"/>
<path d="M177.119 180.331L209.822 199.208L235.729 184.241L202.879 165.445L177.119 180.331Z" fill="#F5F5F5"/>
<path d="M288.839 153.584L316.095 169.315L152.6 263.708L0 175.608L27.2491 159.877L152.594 232.246L288.839 153.584Z" fill="#F5F5F5"/>
<path d="M316.095 169.316V175.608L152.6 270.001V263.708L316.095 169.316Z" fill="#EBEBEB"/>
<path d="M152.6 263.708L0 175.608V181.9L152.6 270V263.708Z" fill="#E0E0E0"/>
<path d="M152.594 232.246L179.843 247.977L181.231 247.172L153.982 231.441L152.594 232.246Z" fill="#E0E0E0"/>
<path d="M179.843 216.515L207.092 232.246L208.48 231.441L181.231 215.704L179.843 216.515Z" fill="#E0E0E0"/>
<path d="M207.092 200.784L234.341 216.515L235.729 215.704L208.48 199.973L207.092 200.784Z" fill="#E0E0E0"/>
<path d="M234.341 185.047L261.59 200.784L262.979 199.973L235.729 184.242L234.341 185.047Z" fill="#E0E0E0"/>
<path d="M261.59 169.316L288.839 185.047L290.228 184.242L262.979 168.511L261.59 169.316Z" fill="#E0E0E0"/>
<path d="M125.344 216.515L98.0953 232.246L96.7134 231.441L123.963 215.704L125.344 216.515Z" fill="#E0E0E0"/>
<path d="M98.0954 200.784L70.8463 216.515L69.4644 215.704L96.7134 199.973L98.0954 200.784Z" fill="#E0E0E0"/>
<path d="M70.8463 185.047L43.5972 200.784L42.2153 199.973L69.4644 184.242L70.8463 185.047Z" fill="#E0E0E0"/>
<path d="M43.5972 169.316L16.3548 185.047L14.9662 184.242L42.2153 168.511L43.5972 169.316Z" fill="#E0E0E0"/>
<path d="M152.594 232.246L125.344 247.977L123.963 247.172L151.212 231.441L152.594 232.246Z" fill="#E0E0E0"/>
<path d="M264.327 197.161C257.297 200.515 245.893 200.515 238.835 197.161C231.778 193.807 231.805 188.366 238.835 185.012C245.866 181.658 257.276 181.658 264.327 185.012C271.377 188.366 271.384 193.807 264.327 197.161Z" fill="#E0E0E0"/>
<path d="M106.273 221.231C99.3901 225.189 100.792 227.497 114.45 235.318C124.298 240.98 129.403 242.557 136.245 238.512C143.088 234.466 136.299 230.763 126.854 225.229C115.47 218.554 112.015 217.931 106.273 221.231Z" fill="#E0E0E0"/>
<path d="M83.0353 214.912C92.0271 214.912 99.3163 211.437 99.3163 207.15C99.3163 202.864 92.0271 199.389 83.0353 199.389C74.0435 199.389 66.7543 202.864 66.7543 207.15C66.7543 211.437 74.0435 214.912 83.0353 214.912Z" fill="#E0E0E0"/>
<path d="M253.198 126.852C254.165 126.835 255.126 127.018 256.02 127.39C256.913 127.762 257.72 128.314 258.39 129.012C259.524 130.146 262.214 138.048 261.154 143.375C260.342 147.473 255.485 149.6 251.762 147.702C248.831 146.212 248.482 140.269 248.562 137.572C248.643 134.875 253.198 126.852 253.198 126.852Z" fill="#2094F3"/>
<path opacity="0.3" d="M253.198 126.852C254.165 126.835 255.126 127.018 256.02 127.39C256.913 127.762 257.72 128.314 258.39 129.012C259.524 130.146 262.214 138.048 261.154 143.375C260.342 147.473 255.485 149.6 251.762 147.702C248.831 146.212 248.482 140.269 248.562 137.572C248.643 134.875 253.198 126.852 253.198 126.852Z" fill="black"/>
<path d="M255.861 128.838C255.861 128.838 256.438 128.08 257.786 128.503C258.893 129.997 259.741 131.666 260.295 133.44C260.295 133.44 260.644 133.44 260.423 132.521C260.039 131.167 259.473 129.872 258.739 128.671C258.169 127.906 257.498 126.712 253.372 126.296C251.26 126.215 249.145 126.402 247.08 126.853C245.282 127.476 245.631 128.51 245.631 128.51L255.861 128.838Z" fill="#2094F3"/>
<path opacity="0.5" d="M255.861 128.838C255.861 128.838 256.438 128.08 257.786 128.503C258.893 129.997 259.741 131.666 260.295 133.44C260.295 133.44 260.644 133.44 260.423 132.521C260.039 131.167 259.473 129.872 258.739 128.671C258.169 127.906 257.498 126.712 253.372 126.296C251.26 126.215 249.145 126.402 247.08 126.853C245.282 127.476 245.631 128.51 245.631 128.51L255.861 128.838Z" fill="black"/>
<path d="M240.922 150.284C240.527 151.326 240.066 152.341 239.54 153.323C237.997 155.966 236.32 156.624 235.602 156.577C233.59 156.456 233.402 155.409 234.649 154.363C235.26 153.805 235.737 153.118 236.045 152.35C235.688 152.512 235.315 152.633 234.931 152.713C234.76 152.751 234.58 152.721 234.431 152.628C234.281 152.535 234.174 152.387 234.133 152.216C234.133 152.062 234.482 152.022 234.992 151.66C235.543 151.18 236.16 150.78 236.823 150.472C237.114 150.354 237.352 150.135 237.494 149.855C238.513 147.596 239.304 145.241 239.855 142.825C240.526 140.141 241.096 136.116 241.814 132.816C242.565 129.368 243.585 128.409 245.973 127.966H247.395C249.958 129.683 246.221 135.345 243.632 143.717C243.115 145.394 242.008 147.581 240.922 150.284Z" fill="#FFA8A7"/>
<path d="M242.029 127.362H249.461C251.091 127.362 252.654 126.715 253.806 125.562C254.959 124.41 255.606 122.847 255.606 121.217V119.701C255.606 117.901 254.891 116.174 253.618 114.901C252.345 113.628 250.618 112.913 248.817 112.913C247.017 112.913 245.29 113.628 244.017 114.901C242.744 116.174 242.029 117.901 242.029 119.701V127.362Z" fill="#37474F"/>
<path d="M265.494 180.015C266.011 179.754 266.339 180.411 266.836 180.941C267.239 181.329 267.553 181.801 267.755 182.323C267.869 182.954 267.305 183.94 266.681 184.483C266.058 185.026 265.34 185.416 265.098 186.61C265.04 187.155 264.828 187.673 264.488 188.103C264.147 188.533 263.691 188.857 263.173 189.038C262.574 189.289 261.931 189.418 261.281 189.418C260.632 189.418 259.989 189.289 259.39 189.038C258.658 188.568 259.329 188.052 260.349 186.589C261.69 184.684 262.717 183.323 262.717 181.545L265.494 180.015Z" fill="#263238"/>
<path d="M264.428 178.459L265.521 180.062C265.637 180.227 265.72 180.412 265.764 180.608C265.808 180.804 265.813 181.007 265.779 181.205C265.745 181.404 265.672 181.593 265.564 181.763C265.457 181.933 265.317 182.08 265.152 182.196C264.819 182.394 264.426 182.47 264.043 182.41C263.659 182.35 263.309 182.158 263.052 181.867L261.322 180.029L264.428 178.459Z" fill="#FFA8A7"/>
<path d="M242.72 146.058C242.533 148.135 242.56 150.225 242.8 152.297C243.18 155.038 243.832 157.735 244.745 160.347C245.567 162.571 246.608 164.708 247.851 166.726C248.294 167.484 262.167 181.042 262.167 181.042C262.772 180.991 263.345 180.744 263.797 180.338C264.25 179.933 264.558 179.391 264.676 178.795C264.676 178.795 258.363 168.786 257.23 166.961C256.096 165.136 252.071 162.326 252.071 162.326L252.433 146.32L242.72 146.058Z" fill="#37474F"/>
<path d="M246.818 187.147L244.11 186.531L243.213 190.475L245.921 191.091L246.818 187.147Z" fill="#FFA8A7"/>
<path d="M244.819 146.058L256.344 146.508C257.112 148.217 257.44 150.092 257.297 151.961C256.908 157.583 251.581 167.632 251.581 167.632C251.834 169.907 251.718 172.209 251.239 174.448C250.092 178.935 246.818 187.985 246.818 187.985C246.818 187.985 244.86 188.26 243.88 187.126C243.88 187.126 245.758 170.262 246.228 166.331C246.731 162.057 248.033 154.256 248.033 154.256C247.172 153.402 246.392 152.47 245.705 151.472C244.502 149.935 243.882 148.022 243.954 146.072" fill="#37474F"/>
<path d="M243.531 189.131L243.618 188.742C243.33 188.796 242.116 190.815 240.935 191.694C239.593 192.653 238.466 193.223 237.876 193.653C237.085 194.236 238.232 195.417 240.17 195.524C241.136 195.578 242.894 195.283 243.431 194.773C243.967 194.263 244.363 193.431 244.772 193.042C245.181 192.653 246.067 192.371 246.362 191.875C246.525 191.408 246.582 190.911 246.53 190.419C246.53 189.909 246.496 189.353 246.329 189.359L246.261 189.655C245.751 189.914 245.183 190.039 244.611 190.017C244.155 189.997 243.303 189.889 243.531 189.131Z" fill="#263238"/>
<path d="M246.563 163.701C246.563 163.701 247.717 155.51 248.026 154.242C247.098 153.736 246.235 153.119 245.457 152.404C245.993 153.173 246.58 153.906 247.214 154.597L246.563 163.701Z" fill="#263238"/>
<path d="M253.54 163.426C252.979 164.869 252.33 166.276 251.595 167.639C251.595 167.639 251.735 170.268 251.715 170.798L252.44 171.435C252.459 170.244 252.351 169.055 252.118 167.887C252.752 166.456 253.229 164.96 253.54 163.426Z" fill="#263238"/>
<path d="M252.138 128.107C252.138 128.107 255.72 128.557 256.197 128.778C252.447 131.415 255.667 136.748 255.667 136.748L253.875 141.175C255.045 142.922 255.926 144.845 256.485 146.871C255.438 148.085 249.777 152.163 242.599 147.541C242.599 147.541 242.787 142.584 243.27 138.398C241.579 136.781 242.123 134.521 242.599 133.427C243.618 131.012 245.047 128.765 246.168 127.953H247.409L252.138 128.107Z" fill="#F0F0F0"/>
<path d="M244.812 115.871C244.095 116.293 243.209 118.098 243.296 121.908C243.37 125.108 244.41 125.933 244.933 126.134C245.456 126.336 246.463 126.222 247.435 126.061V127.979C247.435 127.979 246.094 129.549 246.174 130.434C246.255 131.32 248.126 131.521 249.387 130.662C250.302 129.953 251.09 129.094 251.715 128.12V123.699C251.715 123.699 252.292 124.256 253.265 123.404C254.077 122.733 254.345 121.512 253.714 120.875C253.551 120.724 253.355 120.614 253.141 120.554C252.927 120.494 252.703 120.485 252.485 120.528C252.267 120.571 252.063 120.665 251.888 120.803C251.713 120.94 251.574 121.116 251.48 121.318C250.197 121.266 248.948 120.895 247.845 120.238C247.031 119.801 246.331 119.177 245.804 118.418C245.277 117.659 244.938 116.786 244.812 115.871Z" fill="#FFA8A7"/>
<path d="M246.879 121.103C246.871 121.21 246.907 121.317 246.977 121.398C247.047 121.48 247.147 121.53 247.254 121.539C247.358 121.533 247.456 121.489 247.529 121.416C247.603 121.342 247.646 121.244 247.652 121.141C247.658 121.037 247.625 120.935 247.561 120.854C247.496 120.772 247.404 120.718 247.301 120.7C247.247 120.699 247.193 120.708 247.142 120.727C247.091 120.746 247.045 120.776 247.006 120.813C246.966 120.851 246.935 120.895 246.913 120.945C246.891 120.995 246.88 121.049 246.879 121.103Z" fill="#263238"/>
<path d="M246.771 123.787L245.832 124.082C245.849 124.145 245.878 124.203 245.919 124.255C245.959 124.306 246.009 124.348 246.066 124.38C246.123 124.411 246.186 124.43 246.25 124.437C246.315 124.443 246.381 124.437 246.443 124.417C246.568 124.374 246.672 124.285 246.733 124.167C246.794 124.05 246.808 123.914 246.771 123.787Z" fill="#F28F8F"/>
<path d="M243.692 119.809L244.645 119.547C244.632 119.484 244.606 119.424 244.568 119.371C244.531 119.318 244.483 119.274 244.427 119.24C244.372 119.207 244.31 119.185 244.246 119.177C244.182 119.168 244.117 119.173 244.054 119.191C243.926 119.228 243.817 119.312 243.749 119.427C243.682 119.542 243.661 119.679 243.692 119.809Z" fill="#263238"/>
<path d="M243.759 120.781C243.755 120.835 243.761 120.889 243.778 120.941C243.795 120.992 243.822 121.04 243.858 121.081C243.894 121.121 243.937 121.154 243.986 121.178C244.035 121.201 244.088 121.215 244.142 121.217C244.224 121.224 244.307 121.206 244.379 121.165C244.451 121.124 244.509 121.063 244.546 120.989C244.584 120.915 244.598 120.832 244.587 120.75C244.577 120.668 244.542 120.591 244.487 120.528C244.433 120.466 244.361 120.422 244.281 120.401C244.201 120.379 244.116 120.383 244.038 120.41C243.96 120.437 243.892 120.487 243.842 120.553C243.792 120.619 243.764 120.699 243.759 120.781Z" fill="#263238"/>
<path d="M245.658 120.553L245.597 122.975L244.323 122.586L245.658 120.553Z" fill="#F28F8F"/>
<path d="M247.435 126.034C248.469 125.893 250.588 125.289 250.917 124.451C250.786 124.873 250.529 125.246 250.179 125.517C249.32 126.022 248.397 126.41 247.435 126.671V126.034Z" fill="#F28F8F"/>
<path d="M255.11 138.116L252.125 142.04L253.875 141.175L255.11 138.116Z" fill="#E0E0E0"/>
<path d="M252.601 128.168C251.89 128.767 251.318 129.515 250.925 130.358C250.532 131.202 250.328 132.121 250.327 133.051C249.897 141.685 255.559 143.999 255.559 143.999C256.109 142.912 255.774 141.859 255.318 140.813C254.416 139.86 253.714 138.736 253.253 137.508C252.793 136.28 252.582 134.972 252.634 133.662C252.789 130.516 254.352 128.751 255.137 128.51C254.341 128.157 253.461 128.038 252.601 128.168Z" fill="#2094F3"/>
<path opacity="0.5" d="M252.601 128.168C251.89 128.767 251.318 129.515 250.925 130.358C250.532 131.202 250.328 132.121 250.327 133.051C249.897 141.685 255.559 143.999 255.559 143.999C256.109 142.912 255.774 141.859 255.318 140.813C254.416 139.86 253.714 138.736 253.253 137.508C252.793 136.28 252.582 134.972 252.634 133.662C252.789 130.516 254.352 128.751 255.137 128.51C254.341 128.157 253.461 128.038 252.601 128.168Z" fill="black"/>
<path d="M258.343 145.387C257.095 144.818 255.959 144.029 254.989 143.059C253.446 141.576 252.916 140.469 251.682 138.947C251.522 138.746 251.347 138.558 251.159 138.383C250.824 138.09 250.527 137.756 250.273 137.39C249.805 136.653 249.585 135.786 249.643 134.915C249.539 133.74 249.692 132.556 250.092 131.447C250.159 131.292 250.541 131.212 250.649 131.239C250.588 131.474 250.541 131.702 250.501 131.91C250.705 132.432 250.99 132.919 251.346 133.352C251.87 133.969 252.44 134.304 252.5 134.177C252.561 134.05 252.373 133.64 252.44 132.99C252.507 132.339 252.681 132.097 252.883 132.05C253.205 131.97 253.198 132.312 253.332 132.835C253.572 133.491 253.697 134.183 253.701 134.881C253.69 135.507 253.782 136.131 253.976 136.726C254.151 137.431 256.606 139.658 256.606 139.658C256.606 139.658 254.989 135.894 254.526 134.412C253.627 131.507 255.056 129.179 256.203 128.75C257.008 128.75 257.659 129.421 258.518 131.608C259.77 134.696 260.58 137.946 260.926 141.261C261.322 144.508 261.322 146.829 258.343 145.387Z" fill="#FFA8A7"/>
<path d="M256.626 139.678C256.626 139.678 258.229 140.879 258.679 141.335C259.181 141.854 259.559 142.48 259.785 143.166C259.83 142.552 259.641 141.943 259.255 141.463C258.585 140.436 256.264 138.826 256.264 138.826L256.626 139.678Z" fill="#F28F8F"/>
<path d="M90.8236 156.274C90.1458 152.464 89.9475 148.583 90.2333 144.723C90.2388 144.63 90.2744 144.541 90.3347 144.47C90.395 144.399 90.4768 144.35 90.5676 144.329C90.6585 144.309 90.7535 144.319 90.8384 144.357C90.9233 144.395 90.9935 144.46 91.0383 144.542L93.9899 150.016C93.9899 150.016 94.3455 154.041 94.7144 156.791C94.9785 159.294 95.4862 161.766 96.2305 164.17C96.3647 164.513 96.6201 164.795 96.9483 164.962C97.6541 165.39 98.2956 165.916 98.8534 166.525C99.3767 166.994 99.806 167.088 99.7524 167.256C99.6733 167.443 99.526 167.593 99.3403 167.675C99.1546 167.758 98.9445 167.766 98.7528 167.699C98.326 167.566 97.9163 167.384 97.5319 167.155C97.8698 167.879 98.3229 168.543 98.8736 169.121C100.135 170.463 100.255 171.321 97.921 171.522C96.4586 171.643 95.2377 170.852 93.896 167.692C93.3748 166.542 92.9376 165.356 92.5879 164.143C91.7829 160.984 91.2127 158.2 90.8236 156.274Z" fill="#B16668"/>
<path d="M87.0736 143.167C89.2001 143.167 91.7694 143.837 92.7757 145.796C93.8691 147.889 94.5869 153.491 94.5869 153.491C94.5869 153.491 93.7819 155.221 90.8034 155.027L87.0736 143.167Z" fill="#2094F3"/>
<path opacity="0.4" d="M87.0736 143.167C89.2001 143.167 91.7694 143.837 92.7757 145.796C93.8691 147.889 94.5869 153.491 94.5869 153.491C94.5869 153.491 93.7819 155.221 90.8034 155.027L87.0736 143.167Z" fill="black"/>
<path d="M70.1352 195.391C69.6053 195.122 69.2698 195.793 68.7936 196.33C68.3842 196.728 68.064 197.208 67.8544 197.739C67.7404 198.376 68.3173 199.382 68.9546 199.932C69.5918 200.482 70.3298 200.878 70.5578 202.092C70.6158 202.648 70.8307 203.176 71.1776 203.615C71.5244 204.053 71.9889 204.383 72.5167 204.568C73.7496 205.077 75.1343 205.077 76.3672 204.568C77.1051 204.091 76.4276 203.561 75.3878 202.079C74.0462 200.14 72.9795 198.725 72.9795 196.947L70.1352 195.391Z" fill="#263238"/>
<path d="M71.222 193.807L70.1352 195.437C70.0289 195.59 69.9566 195.764 69.9233 195.947C69.89 196.13 69.8965 196.319 69.9423 196.499C69.988 196.68 70.0721 196.849 70.1887 196.994C70.3053 197.139 70.4518 197.258 70.6182 197.342C70.902 197.599 71.2732 197.738 71.6559 197.73C72.0387 197.723 72.4041 197.569 72.6777 197.302L74.4151 195.403L71.222 193.807Z" fill="#B16668"/>
<path d="M91.8433 164.64C91.8364 168.578 91.1159 172.483 89.7168 176.165C88.9427 178.483 88.0333 180.755 86.9932 182.967C86.5438 183.745 73.523 196.383 73.523 196.383C72.903 196.333 72.3167 196.08 71.8538 195.665C71.391 195.249 71.0772 194.693 70.9604 194.082C70.9604 194.082 76.327 185.013 77.454 183.148C78.581 181.283 82.6999 178.452 82.6999 178.452L82.3242 162.178L91.8433 164.64Z" fill="#455A64"/>
<path d="M88.7844 206.277L91.5383 205.65L90.6266 201.641L87.8727 202.267L88.7844 206.277Z" fill="#B16668"/>
<path d="M91.6688 161.963L78.3193 161.473C78.2052 162.936 78.0308 164.25 77.9637 167.786C77.8631 173.515 83.1895 183.886 83.1895 183.886C82.9343 186.218 83.0566 188.576 83.5518 190.869C84.7257 195.431 87.9054 203.145 87.9054 203.145C87.9054 203.145 89.9179 203.434 90.8906 202.28C90.8906 202.28 89.1264 186.609 88.6501 182.591C88.1402 178.251 86.8187 170.315 86.8187 170.315C87.6901 169.445 88.4805 168.497 89.18 167.484C90.4037 165.855 91.2597 163.981 91.6889 161.99" fill="#455A64"/>
<path d="M73.2211 158.884C73.8181 152.766 76.0318 148.278 76.3069 146.742L78.098 154.323C77.4877 156.326 76.9883 158.362 76.6021 160.42C76.1442 162.756 75.9195 165.131 75.9312 167.511C75.9573 167.854 76.1075 168.176 76.3538 168.417C76.8938 168.994 77.3459 169.647 77.6955 170.355C78.0376 170.926 78.3663 171.127 78.306 171.261C78.1837 171.41 78.0092 171.506 77.8182 171.529C77.6272 171.553 77.4344 171.503 77.2796 171.388C76.9287 171.154 76.6087 170.877 76.327 170.563C76.4313 171.313 76.6579 172.04 76.9978 172.717C77.7827 174.266 77.6687 175.085 75.4818 174.629C74.1401 174.34 73.2278 173.287 72.8655 170.054C72.7059 168.871 72.6341 167.678 72.6509 166.485C72.8186 163.412 73.0467 160.736 73.2211 158.884Z" fill="#B16668"/>
<path d="M82.626 143.301C80.097 143.911 76.7294 144.696 75.7299 147.44C74.899 150.051 74.207 152.704 73.657 155.389C74.2091 155.92 74.8803 156.311 75.6144 156.529C76.3485 156.747 77.1242 156.786 77.8766 156.643L78.4602 154.597L77.9638 164.962C79.9763 167.115 87.6371 168.081 91.964 164.921C91.964 164.921 91.6688 150.398 91.6688 148.204C91.6688 146.011 90.4479 143.361 87.0736 143.167L82.626 143.301Z" fill="#2094F3"/>
<path opacity="0.3" d="M82.626 143.301C80.097 143.911 76.7294 144.696 75.7299 147.44C74.899 150.051 74.207 152.704 73.657 155.389C74.2091 155.92 74.8803 156.311 75.6144 156.529C76.3485 156.747 77.1242 156.786 77.8766 156.643L78.4602 154.597L77.9638 164.962C79.9763 167.115 87.6371 168.081 91.964 164.921C91.964 164.921 91.6688 150.398 91.6688 148.204C91.6688 146.011 90.4479 143.361 87.0736 143.167L82.626 143.301Z" fill="black"/>
<path opacity="0.2" d="M78.4602 154.598L79.7347 150.6L78.3193 157.61L78.4602 154.598Z" fill="black"/>
<path d="M91.2395 204.285L91.1522 203.896C91.4407 203.95 92.675 206.002 93.9026 206.895C95.2443 207.867 96.4115 208.444 97.0086 208.907C97.8136 209.497 96.653 210.705 94.6741 210.812C93.6947 210.866 91.9103 210.564 91.3602 210.041C90.8101 209.518 90.4143 208.659 89.9783 208.283C89.5422 207.908 88.6366 207.579 88.3549 207.096C88.1912 206.62 88.134 206.114 88.1872 205.613C88.1872 205.097 88.2207 204.533 88.3951 204.54L88.4622 204.842C88.982 205.102 89.5583 205.229 90.1393 205.211C90.6022 205.164 91.4675 205.057 91.2395 204.285Z" fill="#263238"/>
<path d="M88.2811 179.907C88.2811 179.907 87.1139 171.576 86.7986 170.288C87.7394 169.772 88.6154 169.146 89.4081 168.423C88.8636 169.204 88.2675 169.948 87.6237 170.65L88.2811 179.907Z" fill="#37474F"/>
<path d="M81.2106 179.626C81.7916 181.095 82.4637 182.527 83.2231 183.913C83.2231 183.913 83.0823 186.596 83.1024 187.126L82.3578 187.797C82.3381 186.587 82.4506 185.379 82.6932 184.194C82.033 182.731 81.5358 181.199 81.2106 179.626Z" fill="#37474F"/>
<path d="M80.4659 132.634C80.6705 132.418 80.9382 132.273 81.2306 132.218L80.2311 131.681C80.2782 131.583 80.3445 131.496 80.4261 131.424C80.5078 131.352 80.6031 131.297 80.7063 131.262C80.8096 131.228 80.9187 131.215 81.0272 131.223C81.1358 131.232 81.2414 131.262 81.338 131.313C81.5254 131.419 81.6672 131.59 81.7365 131.794C81.8058 131.998 81.7976 132.221 81.7136 132.419L82.0625 136.303L82.3912 136.27L82.5253 138.531L82.5656 140.409C81.66 140.409 80.9824 139.497 80.4659 136.464C80.0433 134.17 79.9359 133.177 80.4659 132.634Z" fill="#263238"/>
<path d="M92.5006 131.051C92.595 131.17 92.6594 131.311 92.6885 131.46C92.7113 131.63 92.698 131.802 92.6495 131.966C92.6009 132.131 92.5182 132.283 92.4067 132.413C92.2892 132.543 92.1614 132.665 92.0243 132.775C91.9707 132.822 90.7296 133.58 90.6827 133.365C90.5768 133.063 90.4349 132.775 90.2601 132.506C90.1326 132.245 90.0051 131.983 89.871 131.722C90.3035 131.548 90.7135 131.323 91.0919 131.051C91.3444 130.831 91.6698 130.714 92.0042 130.722C92.2056 130.764 92.3832 130.882 92.5006 131.051Z" fill="#263238"/>
<path d="M82.4584 136.652C82.2101 136.793 81.868 136.33 81.5729 136.015C81.455 135.881 81.3048 135.778 81.1365 135.718C80.9681 135.657 80.7872 135.641 80.6107 135.67C80.4341 135.699 80.2679 135.772 80.1275 135.883C79.9872 135.994 79.8774 136.139 79.8086 136.304C79.3189 137.343 80.2379 138.725 81.0094 138.987C82.351 139.403 82.5254 138.551 82.5254 138.551L82.6261 143.32C82.9194 143.96 83.3663 144.517 83.9269 144.942C84.4875 145.366 85.1445 145.646 85.8393 145.756C88.1805 146.071 87.6975 144.139 86.9261 143.193V141.744C87.5137 141.838 88.1098 141.867 88.7038 141.831C89.178 141.73 89.6108 141.488 89.9458 141.138C90.2808 140.787 90.5025 140.344 90.5821 139.866C91.0584 138.175 91.2529 136.813 90.837 133.486C90.3943 129.844 86.1412 129.81 83.8738 131.246C81.6064 132.681 82.4584 136.652 82.4584 136.652Z" fill="#B16668"/>
<path d="M82.4584 137.055C82.331 137.055 81.8681 136.291 81.5729 136.016C81.1503 135.64 81.6937 132.199 81.6937 132.199C81.5777 131.832 81.5538 131.443 81.624 131.065C81.6942 130.687 81.8564 130.332 82.0962 130.032C82.9213 129.166 84.5179 129.314 85.6851 129.267C86.4459 129.255 87.2044 129.178 87.9525 129.039C88.791 128.871 89.6765 128.368 90.5419 128.368C90.8639 128.381 91.1751 128.488 91.4365 128.676C91.6978 128.865 91.8977 129.126 92.011 129.428C92.1121 129.733 92.1387 130.058 92.0885 130.375C92.0383 130.693 91.9129 130.994 91.7226 131.253C91.2608 131.755 90.6791 132.131 90.0321 132.346C89.4923 132.582 88.9158 132.723 88.3282 132.762C86.9 132.87 85.4647 132.843 84.0416 132.682C83.5921 132.621 83.4982 133.057 83.25 134.245C83.042 135.284 82.881 137.049 82.4584 137.055Z" fill="#263238"/>
<path d="M86.9059 141.724C85.9044 141.535 84.9229 141.252 83.9744 140.879C83.5292 140.648 83.1644 140.288 82.9279 139.846C83.0415 140.289 83.2447 140.705 83.525 141.067C84.075 141.778 86.8791 142.301 86.8791 142.301L86.9059 141.724Z" fill="#9A4A4D"/>
<path d="M87.2547 136.089C87.2508 136.174 87.2219 136.256 87.1717 136.326C87.1214 136.395 87.052 136.447 86.9721 136.477C86.8921 136.507 86.8052 136.513 86.722 136.494C86.6387 136.475 86.5629 136.432 86.504 136.37C86.445 136.308 86.4054 136.231 86.3901 136.147C86.3749 136.063 86.3846 135.976 86.4181 135.898C86.4516 135.819 86.5075 135.752 86.5787 135.705C86.6499 135.658 86.7333 135.633 86.8187 135.633C86.9367 135.636 87.0486 135.686 87.1302 135.772C87.2118 135.857 87.2566 135.971 87.2547 136.089Z" fill="#263238"/>
<path d="M86.7919 134.446L85.8595 134.962C85.7932 134.834 85.7786 134.686 85.8185 134.547C85.8584 134.409 85.9499 134.291 86.0741 134.218C86.136 134.184 86.2039 134.164 86.2739 134.157C86.3439 134.15 86.4145 134.158 86.4815 134.179C86.5485 134.201 86.6105 134.235 86.6638 134.281C86.7172 134.327 86.7607 134.383 86.7919 134.446Z" fill="#263238"/>
<path d="M87.3085 139.088L88.3013 139.464C88.2803 139.53 88.2459 139.592 88.2003 139.645C88.1547 139.698 88.0989 139.741 88.0362 139.771C87.9735 139.802 87.9052 139.82 87.8355 139.823C87.7658 139.827 87.696 139.816 87.6305 139.792C87.497 139.738 87.3892 139.635 87.3293 139.504C87.2694 139.373 87.262 139.224 87.3085 139.088Z" fill="#9A4A4D"/>
<path d="M90.7431 134.808L89.8978 134.137C89.9365 134.079 89.9867 134.03 90.0454 133.993C90.104 133.955 90.1697 133.93 90.2384 133.92C90.3071 133.909 90.3773 133.913 90.4445 133.93C90.5118 133.948 90.5746 133.98 90.629 134.023C90.6885 134.067 90.7387 134.122 90.7767 134.185C90.8146 134.248 90.8397 134.318 90.8503 134.391C90.8609 134.464 90.8569 134.539 90.8385 134.61C90.8201 134.682 90.7876 134.749 90.7431 134.808Z" fill="#263238"/>
<path d="M90.6424 135.821C90.6398 135.907 90.6118 135.99 90.562 136.06C90.5122 136.13 90.4428 136.184 90.3626 136.214C90.2823 136.245 90.1948 136.251 90.1109 136.233C90.0271 136.214 89.9507 136.17 89.8913 136.108C89.8319 136.046 89.7923 135.968 89.7773 135.883C89.7623 135.799 89.7726 135.711 89.807 135.633C89.8414 135.554 89.8983 135.487 89.9705 135.441C90.0428 135.394 90.1272 135.37 90.2131 135.371C90.3294 135.375 90.4396 135.424 90.5199 135.508C90.6002 135.592 90.6443 135.704 90.6424 135.821Z" fill="#263238"/>
<path d="M88.5092 135.552L88.6501 138.168L90.0119 137.699L88.5092 135.552Z" fill="#9A4A4D"/>
<path d="M95.8145 164.895V165.298H94.6003L129.966 213.208L130.946 212.484L95.8145 164.895Z" fill="#2094F3"/>
<g opacity="0.3">
<path d="M95.8145 164.895V165.298H94.6003L129.966 213.208L130.946 212.484L95.8145 164.895Z" fill="black"/>
</g>
<path d="M93.0507 165.605C93.7215 165.934 96.1835 166.075 96.6531 164.747L96.2304 164.156C96.2304 164.156 95.2913 165.424 92.7153 164.592C92.7065 164.959 92.8251 165.317 93.0507 165.605Z" fill="#2094F3"/>
<path opacity="0.3" d="M93.0507 165.605C93.7215 165.934 96.1835 166.075 96.6531 164.747L96.2304 164.156C96.2304 164.156 95.2913 165.424 92.7153 164.592C92.7065 164.959 92.8251 165.317 93.0507 165.605Z" fill="black"/>
<path d="M136.118 219.788C135.89 221.304 136.118 225.215 133.321 227.61C132.65 228.173 127.504 230.038 127.122 230.132C127.122 230.132 128.584 230.991 128.115 231.474C127.645 231.957 126.337 232.145 124.586 230.931C123.372 230.079 124.331 229.072 125.405 228.475C126.129 228.08 128.088 226.678 129.114 225.96C129.407 225.795 129.648 225.552 129.811 225.258C129.975 224.965 130.054 224.632 130.04 224.296L129.94 221.76L136.118 219.788Z" fill="#37474F"/>
<path d="M118.589 213.093C117.046 210.362 113.974 209.396 113.088 207.726C111.854 205.425 113.39 203.641 113.35 202.889C113.31 202.138 111.8 202.655 111.297 205.164C111.117 206.05 111.161 206.968 111.425 207.833C111.688 208.699 112.163 209.485 112.807 210.121C114.014 211.463 116.516 213.126 116.832 214.683L118.589 213.093Z" fill="#37474F"/>
<path d="M117.972 221.244C117.415 221.862 115.96 223.626 116.033 224.344C116.201 225.137 116.425 225.917 116.704 226.678C116.704 226.678 117.992 227.309 118.388 227.584C118.784 227.859 118.616 228.999 117.046 229.046C115.477 229.093 114.678 228.577 114.309 227.751C114.081 227.235 113.477 225.585 113.048 224.397C112.735 223.536 112.693 222.6 112.927 221.714C113.122 220.875 113.431 220.067 113.846 219.312C114.531 218.326 117.972 221.244 117.972 221.244Z" fill="#37474F"/>
<path d="M130.268 210.88C128.98 212.027 123.989 210.779 122.165 209.686C119.83 208.284 116.697 207.761 114.303 208.861C112.075 209.88 110.049 211.403 109.452 218.252C109.043 219.547 105.749 222.398 105.689 223.74C105.565 224.726 105.585 225.725 105.749 226.705C105.854 227.277 106.173 227.789 106.642 228.134C106.706 228.174 106.776 228.206 106.85 228.228C107.048 228.309 107.27 228.315 107.473 228.246C107.676 228.177 107.848 228.037 107.957 227.852C108.113 227.5 108.178 227.115 108.144 226.732C108.144 226.45 108.144 226.168 108.144 225.88C108.109 225.524 108.154 225.164 108.277 224.829C108.401 224.493 108.598 224.189 108.855 223.941C109.394 223.53 109.974 223.177 110.586 222.888C110.955 222.653 111.344 222.465 111.727 222.264C112.169 222.032 112.588 221.76 112.981 221.452C113.269 221.231 113.538 220.989 113.806 220.741C114.107 220.382 114.437 220.048 114.792 219.742C116.134 220.171 117.187 220.962 119.247 222.546C121.568 224.343 123.728 225.598 124.56 226.571C125.063 227.181 125.982 230.025 126.035 230.16C126.512 231.501 127.243 234.339 127.424 235.124C127.503 235.666 127.769 236.163 128.175 236.531C128.582 236.898 129.104 237.112 129.651 237.136C131.295 237.398 132.395 237.27 132.603 236.935C133.475 235.533 130.53 234.681 130.53 234.681C130.53 234.681 130.141 233.473 129.551 230.938C128.806 227.704 129.128 226.577 129.128 226.577C131.341 226.141 133.308 224.886 134.635 223.062C136.084 221.003 136.158 220.298 136.44 217.374C135.534 213.919 133.978 211.202 130.268 210.88Z" fill="#455A64"/>
<path d="M136.702 215.851L133.951 215.971L131 215.052L128.779 212.745C128.837 213.78 129.203 214.775 129.829 215.601C130.455 216.428 131.313 217.05 132.294 217.387C133.623 217.877 135.084 217.877 136.413 217.387C136.487 216.931 136.574 216.461 136.675 215.971L136.702 215.851Z" fill="#37474F"/>
<path d="M131.972 222.398C131.235 222.875 130.602 223.495 130.108 224.221C129.615 224.946 129.273 225.764 129.101 226.625C130.557 226.584 132.791 225.538 134.535 223.21C134.971 222.683 135.332 222.098 135.608 221.473C134.159 222.888 132.965 221.795 131.972 222.398Z" fill="#F5F5F5"/>
<path d="M129.101 226.591C130.389 226.557 132.294 225.726 133.924 223.908C133.837 223.982 132.18 225.41 131.241 225.444C130.302 225.477 130.074 224.733 130.215 224.022C129.697 224.807 129.321 225.677 129.101 226.591Z" fill="#E0E0E0"/>
<path d="M137.178 203.42C137.395 203.153 137.694 202.965 138.029 202.886C138.364 202.807 138.716 202.842 139.029 202.984C140.042 203.299 141.713 204.46 142.041 205.124C142.518 206.11 140.19 210.242 138.882 209.223C137.574 208.203 137.178 203.42 137.178 203.42Z" fill="#263238"/>
<path d="M136.681 215.972C136.728 215.717 136.782 215.455 136.849 215.193C138.085 215.5 139.353 215.66 140.626 215.67L140.928 215.629C141.019 215.616 141.108 215.596 141.196 215.569C141.598 215.425 141.974 215.216 142.31 214.952C142.535 214.809 142.74 214.638 142.92 214.442L143.074 214.281C143.079 214.273 143.081 214.264 143.081 214.254C143.081 214.245 143.079 214.236 143.074 214.227C143.291 213.961 143.471 213.668 143.611 213.355C143.973 212.51 142.786 211.692 142.303 210.612C141.82 209.532 141.733 207.257 141.008 205.681C140.284 204.105 138.05 203.118 135.756 203.481C132.402 204.017 131.489 206.627 130.624 209.304C130.532 209.648 130.369 209.97 130.145 210.247C129.921 210.525 129.64 210.752 129.322 210.914" fill="#455A64"/>
<path d="M140.572 210.766C139.761 211.028 139.801 211.907 139.231 212.537C138.66 213.168 136.145 214.436 134.951 213.658C133.441 212.678 131.778 212.987 132.388 214.778C132.999 216.569 136.017 216.193 136.822 215.194C138.058 215.5 139.326 215.66 140.599 215.67L140.901 215.63C140.992 215.616 141.081 215.596 141.169 215.569C141.571 215.425 141.947 215.216 142.283 214.952C142.508 214.81 142.713 214.638 142.893 214.442L143.048 214.281C143.052 214.273 143.054 214.264 143.054 214.255C143.054 214.245 143.052 214.236 143.048 214.228C143.264 213.962 143.444 213.668 143.584 213.356C143.866 212.685 143.209 212.061 142.679 211.303C142.196 210.666 142.102 210.283 140.572 210.766Z" fill="#F5F5F5"/>
<path d="M136.849 215.193C134.481 214.905 133.777 213.852 133.777 213.852C133.645 213.969 133.54 214.114 133.472 214.276C133.403 214.439 133.372 214.615 133.38 214.791C133.388 214.968 133.436 215.14 133.52 215.296C133.604 215.451 133.721 215.586 133.864 215.69C134.978 216.535 136.849 215.193 136.849 215.193Z" fill="#E0E0E0"/>
<path d="M136.849 215.193C135.279 216.025 132.958 215.401 131.61 214.241C131.036 213.71 130.617 213.034 130.397 212.283C130.177 211.533 130.165 210.737 130.362 209.981C130.362 209.981 129.061 210.196 128.759 211.101C128.63 211.855 128.693 212.629 128.942 213.351C129.192 214.073 129.621 214.721 130.188 215.234C131.476 216.441 134.656 217.917 136.574 216.542C136.757 216.375 136.882 216.155 136.931 215.912C136.981 215.67 136.952 215.418 136.849 215.193Z" fill="#2094F3"/>
<path d="M135.615 203.997C135.105 202.776 132.261 202.991 130.644 204.46C129.618 205.379 129.302 207.479 129.195 208.754C129.114 210.203 129.047 212.503 131.603 211.813C132.771 211.491 133.529 209.042 133.75 207.922C134.052 206.339 134.931 204.386 135.615 203.997Z" fill="#263238"/>
<path d="M142.719 214.502C142.416 214.472 142.125 214.374 141.865 214.215C141.606 214.056 141.387 213.84 141.223 213.583C141.17 213.477 141.139 213.361 141.131 213.243C141.124 213.124 141.14 213.005 141.18 212.893C141.219 212.781 141.281 212.678 141.361 212.591C141.441 212.503 141.538 212.432 141.646 212.383C142.16 212.183 142.717 212.12 143.262 212.202C143.443 212.291 143.593 212.431 143.695 212.605C143.796 212.78 143.844 212.98 143.833 213.181C143.785 213.482 143.656 213.764 143.46 213.997C143.264 214.23 143.007 214.405 142.719 214.502Z" fill="#263238"/>
<path d="M140.8 208.753C140.8 208.66 140.828 208.569 140.879 208.492C140.931 208.415 141.004 208.354 141.09 208.319C141.176 208.283 141.27 208.274 141.362 208.292C141.453 208.31 141.536 208.355 141.602 208.421C141.668 208.486 141.712 208.57 141.73 208.661C141.749 208.752 141.739 208.847 141.704 208.932C141.668 209.018 141.608 209.092 141.531 209.143C141.454 209.195 141.363 209.222 141.27 209.222C141.145 209.222 141.026 209.173 140.938 209.085C140.85 208.997 140.8 208.877 140.8 208.753Z" fill="black"/>
<path d="M137.178 209.176C137.178 209.035 137.234 208.901 137.333 208.801C137.433 208.702 137.567 208.646 137.708 208.646C137.778 208.645 137.848 208.658 137.913 208.684C137.978 208.711 138.037 208.75 138.087 208.799C138.137 208.848 138.176 208.907 138.204 208.972C138.231 209.036 138.245 209.106 138.245 209.176C138.245 209.246 138.231 209.316 138.204 209.381C138.177 209.446 138.137 209.506 138.087 209.555C138.037 209.605 137.978 209.645 137.913 209.672C137.848 209.699 137.778 209.713 137.708 209.713C137.638 209.713 137.568 209.699 137.503 209.672C137.439 209.645 137.38 209.605 137.331 209.555C137.281 209.505 137.243 209.446 137.216 209.381C137.19 209.316 137.177 209.246 137.178 209.176Z" fill="black"/>
<path d="M49.2389 2.54704L44.5766 5.23036C44.5766 5.01569 44.5766 4.81445 44.5766 4.60649V3.26483C44.5766 0.86326 42.8928 -0.0893163 40.8065 1.09134C39.9268 1.64823 39.1766 2.38706 38.6062 3.25812C38.2708 0.232684 35.9229 -0.894311 33.0182 0.769346C29.8988 2.56717 27.3765 6.94098 27.3765 10.5366V12.5491C27.3616 13.3614 27.5314 14.1665 27.8729 14.9037L23.9687 17.1242C23.3592 17.5205 22.8519 18.0551 22.4882 18.6846C22.1245 19.3141 21.9146 20.0207 21.8757 20.7466C21.8757 22.0883 22.8082 22.6183 23.9687 21.9541L49.2389 7.37702C49.8521 6.98298 50.3633 6.44929 50.7306 5.81965C51.0979 5.19001 51.3108 4.48232 51.352 3.75454C51.352 2.41959 50.3927 1.88292 49.2389 2.54704Z" fill="#EBEBEB"/>
<path d="M69.1961 16.1377L65.6742 18.1502C65.6841 17.9938 65.6841 17.837 65.6742 17.6806V16.6811C65.6742 14.8698 64.4064 14.1319 62.8299 15.0375C62.1554 15.4525 61.5787 16.0087 61.1394 16.6676C60.8778 14.3868 59.0867 13.5416 56.9132 14.796C55.673 15.6039 54.6412 16.6934 53.9021 17.9758C53.163 19.2581 52.7374 20.697 52.6602 22.1752V23.6979C52.6448 24.3074 52.7663 24.9126 53.0157 25.4689L50.0976 27.1527C49.6451 27.4537 49.269 27.856 48.9989 28.3275C48.7287 28.7991 48.5721 29.327 48.5413 29.8696C48.5413 30.8758 49.2523 31.2783 50.1244 30.7752L69.1961 19.8071C69.6658 19.5087 70.0571 19.1019 70.3373 18.621C70.6174 18.1402 70.7782 17.5991 70.8061 17.0433C70.8061 16.0371 70.0682 15.6346 69.1961 16.1377Z" fill="#EBEBEB"/>
<path d="M268.406 27.4019L264.884 29.4143C264.905 29.2609 264.916 29.1063 264.917 28.9515V27.9318C264.917 26.1139 263.643 25.3827 262.073 26.2883C261.396 26.703 260.817 27.2591 260.376 27.9184C260.114 25.6376 258.363 24.7856 256.15 26.0401C254.911 26.8499 253.881 27.9399 253.142 29.2218C252.403 30.5038 251.976 31.9417 251.896 33.4192V34.9487C251.879 35.5569 252.003 36.1608 252.259 36.713L249.334 38.4035C248.875 38.7024 248.493 39.1055 248.219 39.5799C247.945 40.0543 247.787 40.5867 247.757 41.1337C247.757 42.14 248.462 42.5492 249.334 42.0461L268.406 31.0377C268.865 30.7373 269.247 30.333 269.521 29.8575C269.795 29.382 269.953 28.8487 269.982 28.3008C269.982 27.3079 269.278 26.8987 268.406 27.4019Z" fill="#EBEBEB"/>
</svg>
