<svg width="316" height="236" viewBox="0 0 316 236" fill="none" xmlns="http://www.w3.org/2000/svg">
<path d="M316 206.917H0V207.075H316V206.917Z" fill="#EBEBEB"/>
<path d="M274.155 213.641H253.224V213.799H274.155V213.641Z" fill="#EBEBEB"/>
<path d="M197.86 213.565H192.368V213.723H197.86V213.565Z" fill="#EBEBEB"/>
<path d="M284.337 217.086H272.209V217.244H284.337V217.086Z" fill="#EBEBEB"/>
<path d="M72.4272 219.184H45.1311V219.342H72.4272V219.184Z" fill="#EBEBEB"/>
<path d="M70.0825 212.283H66.0819V212.441H70.0825V212.283Z" fill="#EBEBEB"/>
<path d="M157.02 212.958H118.532V213.116H157.02V212.958Z" fill="#EBEBEB"/>
<path d="M149.784 178.73H27.7511C26.7951 178.728 25.8788 178.347 25.2034 177.67C24.528 176.994 24.1487 176.077 24.1487 175.121V3.57712C24.157 2.62661 24.54 1.71776 25.2145 1.04799C25.889 0.378226 26.8005 0.00162828 27.7511 0H149.784C150.741 0 151.659 0.380203 152.336 1.05697C153.012 1.73374 153.393 2.65163 153.393 3.60872V175.121C153.393 176.078 153.012 176.996 152.336 177.673C151.659 178.349 150.741 178.73 149.784 178.73ZM27.7511 0.1264C26.837 0.128075 25.9609 0.492369 25.3151 1.13932C24.6694 1.78628 24.3067 2.66303 24.3067 3.57712V175.121C24.3067 176.035 24.6694 176.912 25.3151 177.559C25.9609 178.206 26.837 178.57 27.7511 178.572H149.784C150.699 178.57 151.575 178.206 152.222 177.559C152.869 176.912 153.233 176.036 153.235 175.121V3.57712C153.233 2.66245 152.869 1.78571 152.222 1.13894C151.575 0.492164 150.699 0.128071 149.784 0.1264H27.7511Z" fill="#EBEBEB"/>
<path d="M286.492 178.73H164.453C163.496 178.728 162.579 178.347 161.903 177.671C161.226 176.994 160.846 176.077 160.844 175.121V3.57712C160.854 2.62603 161.238 1.71719 161.914 1.0476C162.589 0.378005 163.502 0.00161052 164.453 0H286.492C287.441 0.00328924 288.351 0.380621 289.024 1.05021C289.698 1.7198 290.08 2.6277 290.088 3.57712V175.121C290.088 176.076 289.71 176.992 289.036 177.668C288.361 178.345 287.447 178.726 286.492 178.73ZM164.453 0.1264C163.538 0.128071 162.661 0.492164 162.015 1.13894C161.368 1.78571 161.004 2.66245 161.002 3.57712V175.121C161.004 176.036 161.368 176.912 162.015 177.559C162.661 178.206 163.538 178.57 164.453 178.572H286.492C287.407 178.57 288.283 178.206 288.93 177.559C289.577 176.912 289.941 176.036 289.943 175.121V3.57712C289.941 2.66245 289.577 1.78571 288.93 1.13894C288.283 0.492164 287.407 0.128071 286.492 0.1264H164.453Z" fill="#EBEBEB"/>
<path d="M47.2421 188.147C46.924 187.099 46.7496 186.012 46.7238 184.917C46.7238 180.632 50.1619 179.754 55.3253 179.754C60.4888 179.754 63.9269 180.632 63.9269 184.917C63.9116 185.839 63.7843 186.756 63.5477 187.647C61.1884 185.839 58.277 184.901 55.3059 184.992C52.3348 185.083 49.4862 186.197 47.2421 188.147ZM65.9429 190.011C66.4645 188.362 66.7434 186.646 66.7709 184.917C66.7709 175.696 58.7761 175.696 55.3253 175.696C51.8746 175.696 43.8798 175.696 43.8798 184.93C43.9185 186.91 44.2748 188.871 44.9353 190.738C43.2893 193.192 42.5305 196.135 42.7845 199.08C43.0385 202.024 44.29 204.793 46.332 206.93H65.0961C67.2462 204.685 68.5169 201.742 68.6759 198.638C68.8348 195.534 67.8715 192.476 65.9619 190.024L65.9429 190.011Z" fill="#E6E6E6"/>
<path d="M81.5975 189.6C81.3054 188.634 81.146 187.633 81.1235 186.623C81.1235 182.68 84.2835 181.871 89.0551 181.871C93.8267 181.871 96.9804 182.68 96.9804 186.623C96.9697 187.478 96.8508 188.327 96.6265 189.151C94.45 187.489 91.7673 186.628 89.03 186.712C86.2927 186.796 83.6679 187.82 81.5975 189.613V189.6ZM98.8385 191.326C99.3197 189.803 99.5773 188.22 99.6032 186.623C99.6032 178.117 92.2088 178.117 89.0551 178.117C85.9015 178.117 78.5007 178.117 78.5007 186.623C78.5377 188.45 78.8663 190.26 79.474 191.983C77.9565 194.243 77.2547 196.953 77.4845 199.666C77.7143 202.378 78.8619 204.932 80.738 206.904H98.0169C99.9971 204.835 101.167 202.123 101.313 199.263C101.46 196.403 100.572 193.586 98.8132 191.326H98.8385Z" fill="#E6E6E6"/>
<path d="M115.959 191.079C115.689 190.198 115.542 189.283 115.523 188.361C115.523 184.746 118.424 184.007 122.779 184.007C127.133 184.007 130.034 184.746 130.034 188.361C130.02 189.139 129.912 189.911 129.712 190.662C127.722 189.138 125.267 188.347 122.761 188.423C120.256 188.499 117.853 189.437 115.959 191.079ZM131.759 192.659C132.201 191.268 132.437 189.82 132.461 188.361C132.461 180.575 125.692 180.575 122.804 180.575C119.916 180.575 113.128 180.575 113.128 188.336C113.164 190.006 113.465 191.659 114.019 193.234C112.633 195.305 111.994 197.787 112.208 200.269C112.422 202.752 113.475 205.088 115.195 206.892H130.995C132.805 204.997 133.875 202.515 134.008 199.898C134.142 197.281 133.33 194.703 131.721 192.634L131.759 192.659Z" fill="#E6E6E6"/>
<path d="M150.315 192.552C150.074 191.749 149.942 190.918 149.923 190.08C149.923 186.8 152.552 186.13 156.502 186.13C160.452 186.13 163.088 186.8 163.088 190.08C163.075 190.787 162.978 191.489 162.797 192.172C160.99 190.79 158.762 190.072 156.488 190.141C154.215 190.21 152.034 191.062 150.315 192.552ZM164.63 193.98C165.029 192.718 165.242 191.404 165.262 190.08C165.262 183.015 159.125 183.015 156.502 183.015C153.879 183.015 147.743 183.015 147.743 190.08C147.777 191.589 148.05 193.082 148.552 194.504C147.293 196.382 146.712 198.633 146.907 200.886C147.101 203.138 148.058 205.257 149.62 206.892H163.966C165.609 205.173 166.581 202.921 166.702 200.546C166.824 198.172 166.089 195.832 164.63 193.955V193.98Z" fill="#E6E6E6"/>
<path d="M183.141 194.024C182.922 193.307 182.803 192.562 182.787 191.812C182.787 188.867 185.151 188.267 188.696 188.267C192.242 188.267 194.605 188.867 194.605 191.812C194.598 192.453 194.509 193.09 194.34 193.708C192.718 192.471 190.719 191.829 188.68 191.891C186.641 191.953 184.685 192.715 183.141 194.049V194.024ZM195.99 195.288C196.348 194.155 196.539 192.975 196.558 191.787C196.558 185.467 191.047 185.467 188.696 185.467C186.345 185.467 180.834 185.467 180.834 191.787C180.861 193.146 181.107 194.493 181.561 195.775C180.431 197.461 179.91 199.482 180.084 201.504C180.257 203.526 181.115 205.429 182.515 206.898H195.395C196.869 205.355 197.739 203.334 197.848 201.203C197.957 199.073 197.298 196.973 195.99 195.288Z" fill="#E6E6E6"/>
<path d="M156.881 28.6484H16.59V130.331H156.881V28.6484Z" fill="#F5F5F5"/>
<path d="M156.875 82.1602H53.088V130.331H156.875V82.1602Z" fill="#FAFAFA"/>
<path d="M16.0844 130.337H16.59L16.59 28.6549H16.0844L16.0844 130.337Z" fill="#E6E6E6"/>
<path d="M88.7708 28.6484H60.6025L31.8907 130.331H60.059L88.7708 28.6484Z" fill="white"/>
<path d="M102.738 28.6484H92.9293L64.2175 130.331H74.0262L102.738 28.6484Z" fill="white"/>
<path d="M299.922 28.6484H159.63V130.331H299.922V28.6484Z" fill="#F5F5F5"/>
<path d="M269.302 62.2139H204.812V110.385H269.302V62.2139Z" fill="#FAFAFA"/>
<path d="M283.913 110.391H299.922V62.2201H283.913V110.391Z" fill="#FAFAFA"/>
<path d="M159.125 130.337H159.63V28.6549H159.125V130.337Z" fill="#E6E6E6"/>
<path d="M217.724 28.6484H202.55L173.832 130.331H189.006L217.724 28.6484Z" fill="white"/>
<path d="M236.981 28.6484H221.807L193.095 130.331H208.269L236.981 28.6484Z" fill="white"/>
<path d="M300.061 144.52H20.66V149.999H300.061V144.52Z" fill="#EBEBEB"/>
<path d="M26.1395 144.52H20.66V149.999H26.1395V144.52Z" fill="#E0E0E0"/>
<path d="M223.627 159.542H224.259C237.095 159.871 248.521 170.349 249.931 183.229C251.34 196.11 242.195 206.588 229.416 206.91H228.784C215.708 206.91 203.934 196.305 202.506 183.229C201.077 170.153 210.551 159.542 223.627 159.542ZM226.913 187.167C227.414 187.178 227.911 187.08 228.37 186.88C228.829 186.681 229.239 186.384 229.572 186.01C229.905 185.636 230.153 185.194 230.298 184.715C230.444 184.236 230.483 183.732 230.415 183.236C230.279 182.166 229.764 181.181 228.964 180.459C228.164 179.736 227.131 179.325 226.054 179.298C225.553 179.287 225.055 179.385 224.595 179.585C224.135 179.785 223.724 180.083 223.391 180.457C223.057 180.831 222.809 181.274 222.663 181.754C222.517 182.233 222.477 182.739 222.546 183.236C222.683 184.301 223.195 185.282 223.991 186.003C224.787 186.724 225.815 187.136 226.888 187.167H226.913Z" fill="#E0E0E0"/>
<path d="M224.139 159.548H224.771C237.853 159.548 249.615 170.16 251.049 183.242C252.484 196.324 243.042 206.923 229.966 206.923H229.334C216.498 206.601 205.071 196.122 203.656 183.248C202.24 170.374 211.372 159.896 224.139 159.548ZM227.779 187.167C228.28 187.178 228.776 187.08 229.236 186.88C229.695 186.681 230.105 186.384 230.438 186.01C230.771 185.636 231.018 185.194 231.164 184.715C231.309 184.236 231.349 183.732 231.28 183.236C231.144 182.161 230.625 181.172 229.818 180.448C229.011 179.725 227.971 179.317 226.888 179.298C226.387 179.288 225.89 179.387 225.431 179.587C224.972 179.788 224.562 180.085 224.229 180.46C223.896 180.834 223.649 181.276 223.503 181.755C223.358 182.234 223.318 182.74 223.387 183.236C223.525 184.309 224.044 185.297 224.851 186.019C225.658 186.741 226.697 187.148 227.779 187.167Z" fill="#F0F0F0"/>
<path d="M211.985 170.223C213.603 168.557 215.544 167.239 217.689 166.351C219.835 165.463 222.139 165.024 224.461 165.06C234.99 165.06 244.464 173.592 245.621 184.121C245.91 186.419 245.734 188.752 245.104 190.982C244.473 193.211 243.4 195.29 241.949 197.096C243.662 195.254 244.95 193.057 245.721 190.662C246.492 188.267 246.728 185.732 246.411 183.236C245.254 172.701 235.787 164.169 225.257 164.169C222.734 164.125 220.232 164.646 217.936 165.693C215.64 166.741 213.607 168.288 211.985 170.223Z" fill="#E6E6E6"/>
<path d="M259.297 166.665H259.815C270.723 166.943 280.431 175.848 281.632 186.787C282.833 197.727 275.072 206.632 264.227 206.904H263.708C252.598 206.904 242.599 197.892 241.38 186.781C240.16 175.671 248.186 166.665 259.297 166.665ZM262.09 190.137C262.516 190.146 262.938 190.062 263.328 189.892C263.717 189.721 264.066 189.469 264.349 189.151C264.632 188.833 264.842 188.458 264.966 188.051C265.09 187.644 265.125 187.215 265.067 186.794C264.95 185.885 264.511 185.049 263.831 184.436C263.15 183.823 262.273 183.473 261.357 183.45C260.932 183.441 260.509 183.524 260.119 183.694C259.728 183.864 259.379 184.116 259.096 184.434C258.813 184.752 258.603 185.128 258.479 185.535C258.355 185.943 258.322 186.372 258.381 186.794C258.489 187.706 258.925 188.547 259.607 189.162C260.29 189.777 261.172 190.124 262.09 190.137Z" fill="#E0E0E0"/>
<path d="M259.752 166.671H260.27C271.387 166.671 281.379 175.683 282.599 186.8C283.819 197.917 275.798 206.923 264.682 206.923H264.176C253.268 206.651 243.56 197.746 242.359 186.806C241.159 175.866 248.888 166.949 259.752 166.671ZM262.842 190.137C263.268 190.147 263.691 190.064 264.081 189.894C264.471 189.724 264.82 189.471 265.103 189.153C265.386 188.835 265.597 188.46 265.721 188.052C265.844 187.645 265.878 187.215 265.819 186.794C265.703 185.885 265.265 185.048 264.584 184.434C263.903 183.821 263.025 183.472 262.109 183.45C261.684 183.441 261.261 183.524 260.871 183.694C260.48 183.864 260.132 184.116 259.848 184.434C259.565 184.752 259.355 185.128 259.231 185.535C259.108 185.943 259.074 186.372 259.133 186.794C259.248 187.7 259.684 188.534 260.361 189.147C261.037 189.76 261.911 190.111 262.824 190.137H262.842Z" fill="#F5F5F5"/>
<path d="M249.406 175.734C250.781 174.32 252.43 173.202 254.253 172.449C256.076 171.696 258.033 171.323 260.005 171.354C268.954 171.354 276.999 178.603 277.985 187.546C278.23 189.5 278.08 191.483 277.543 193.377C277.007 195.272 276.096 197.039 274.863 198.574C276.32 197.009 277.415 195.142 278.07 193.106C278.726 191.071 278.925 188.916 278.655 186.794C277.669 177.845 269.63 170.596 260.681 170.596C258.538 170.559 256.413 171.002 254.463 171.891C252.512 172.779 250.785 174.093 249.406 175.734Z" fill="#E6E6E6"/>
<path d="M158 235.458C225.676 235.458 280.539 232.255 280.539 228.304C280.539 224.352 225.676 221.149 158 221.149C90.3239 221.149 35.4615 224.352 35.4615 228.304C35.4615 232.255 90.3239 235.458 158 235.458Z" fill="#F5F5F5"/>
<path d="M148.52 91.4381C147.505 90.7879 146.273 90.5671 145.095 90.8243C143.917 91.0814 142.89 91.7954 142.238 92.8096L142.099 93.0307L141.834 93.4479L141.518 93.9156C141.309 94.2379 141.094 94.5475 140.886 94.8762C140.443 95.5082 139.994 96.1402 139.527 96.7722C138.621 97.9945 137.649 99.1655 136.613 100.28C135.654 101.325 134.596 102.276 133.453 103.117C133.181 103.32 132.91 103.503 132.638 103.68C132.423 103.275 132.208 102.789 132.006 102.277C131.456 100.814 131 99.3172 130.641 97.796C129.87 94.636 129.276 91.2612 128.713 87.9684V87.8926C128.625 87.3467 128.341 86.8517 127.914 86.5005C127.487 86.1494 126.946 85.9664 126.394 85.9858C125.841 86.0052 125.314 86.2257 124.913 86.6059C124.512 86.9861 124.263 87.4999 124.213 88.0506C123.849 91.6335 123.806 95.242 124.087 98.8325C124.221 100.728 124.509 102.609 124.946 104.457C125.196 105.51 125.545 106.536 125.989 107.523C126.261 108.121 126.584 108.694 126.956 109.235C127.446 109.953 128.058 110.58 128.764 111.087C129.725 111.783 130.865 112.189 132.05 112.256C132.631 112.291 133.213 112.246 133.782 112.123C134.037 112.071 134.288 112.002 134.534 111.915L134.875 111.795L135.071 111.725C136.099 111.34 137.093 110.869 138.042 110.316C139.798 109.276 141.433 108.042 142.914 106.638C144.32 105.312 145.622 103.879 146.807 102.353C147.389 101.601 147.951 100.836 148.482 100.052C148.748 99.6541 149.007 99.2559 149.26 98.8451L149.632 98.2131L150.031 97.518C150.604 96.5036 150.767 95.3081 150.486 94.1773C150.205 93.0465 149.501 92.0663 148.52 91.4381Z" fill="#CE7A63"/>
<path d="M128.163 88.954L131.69 85.2695L124.738 83.4746C124.738 83.4746 121.786 86.8116 124.523 89.7377L128.163 88.954Z" fill="#CE7A63"/>
<path d="M128.707 92.569L124.182 92.8597C124.02 92.8738 123.856 92.8538 123.703 92.801C123.549 92.7481 123.408 92.6635 123.289 92.5528C123.169 92.442 123.075 92.3074 123.011 92.1578C122.947 92.0082 122.915 91.8468 122.918 91.6842V89.6302C122.921 89.2946 123.049 88.9723 123.277 88.7258C123.505 88.4794 123.816 88.3264 124.15 88.2966L128.682 88.0059C128.841 87.9954 129.002 88.0181 129.152 88.0727C129.303 88.1273 129.44 88.2126 129.556 88.3231C129.672 88.4336 129.763 88.5669 129.825 88.7147C129.887 88.8624 129.917 89.0214 129.914 89.1814V91.2354C129.913 91.5675 129.789 91.8873 129.566 92.1334C129.343 92.3795 129.037 92.5347 128.707 92.569Z" fill="#263238"/>
<path d="M131.007 81.5029L124.738 81.8063V83.4748L131.69 85.2696L131.007 81.5029Z" fill="#CE7A63"/>
<path d="M142.017 93.081C141.802 98.9965 143.281 112.635 153.917 140.197L187.186 137.776C186.389 133.207 179.4 113.501 178.338 91.7475C178.199 89.0109 175.601 86.6915 172.599 86.5335C170.703 86.4513 168.529 86.4071 166.418 86.4829C161.539 86.5989 156.669 86.9829 151.832 87.6331C149.619 88.0148 147.429 88.519 145.272 89.1436C144.375 89.358 143.573 89.858 142.986 90.5682C142.399 91.2785 142.059 92.1604 142.017 93.081Z" fill="#2094F3"/>
<path opacity="0.3" d="M160.528 104.217C160.453 104.218 160.38 104.191 160.323 104.143C160.266 104.094 160.229 104.026 160.218 103.952C160.204 103.87 160.222 103.785 160.269 103.716C160.317 103.648 160.389 103.6 160.471 103.585L166.159 102.574C166.243 102.559 166.329 102.578 166.399 102.626C166.469 102.675 166.517 102.749 166.532 102.833C166.547 102.917 166.528 103.003 166.48 103.073C166.431 103.143 166.357 103.191 166.273 103.206L160.585 104.217H160.528Z" fill="white"/>
<path opacity="0.3" d="M160.629 105.544C160.545 105.551 160.462 105.524 160.398 105.47C160.334 105.415 160.295 105.338 160.288 105.254C160.281 105.17 160.308 105.087 160.363 105.023C160.417 104.959 160.495 104.919 160.579 104.912L166.267 103.901C166.307 103.894 166.349 103.895 166.389 103.904C166.43 103.913 166.468 103.931 166.501 103.955C166.535 103.979 166.563 104.01 166.585 104.045C166.606 104.08 166.621 104.119 166.627 104.16C166.642 104.242 166.623 104.327 166.576 104.396C166.529 104.464 166.456 104.512 166.374 104.527L160.686 105.538L160.629 105.544Z" fill="white"/>
<path opacity="0.3" d="M160.718 106.922C160.643 106.922 160.57 106.896 160.513 106.847C160.456 106.798 160.419 106.73 160.408 106.656C160.393 106.574 160.411 106.49 160.459 106.421C160.506 106.352 160.579 106.305 160.661 106.29L166.349 105.285C166.431 105.27 166.515 105.288 166.584 105.336C166.653 105.383 166.7 105.456 166.715 105.538C166.728 105.62 166.708 105.705 166.66 105.773C166.612 105.842 166.539 105.889 166.456 105.904L160.768 106.915L160.718 106.922Z" fill="white"/>
<path opacity="0.3" d="M183.508 138.301C183.434 138.302 183.362 138.276 183.305 138.229C183.248 138.181 183.21 138.115 183.198 138.042C183.015 136.98 182.49 135.097 181.763 132.493C179.457 124.15 175.146 108.635 174.318 91.9689C174.314 91.8851 174.343 91.8031 174.4 91.7408C174.456 91.6786 174.535 91.6413 174.619 91.6371C174.702 91.6329 174.784 91.6622 174.847 91.7185C174.909 91.7748 174.946 91.8535 174.95 91.9373C175.778 108.534 180.07 124.005 182.376 132.322C183.103 134.945 183.64 136.841 183.817 137.934C183.832 138.016 183.814 138.101 183.766 138.17C183.719 138.238 183.647 138.285 183.565 138.301H183.508Z" fill="white"/>
<path opacity="0.4" d="M178.698 97.0059C175.582 95.5902 172.599 94.7117 173.01 97.0059C174.05 102.19 176.705 106.911 180.594 110.493C179.791 106.233 179.128 101.695 178.698 97.0059Z" fill="black"/>
<path d="M197.279 89.1119L199.978 84.7511L192.52 83.3354C192.52 83.3354 190.327 87.2602 193.784 90.2874L197.279 89.1119Z" fill="#CE7A63"/>
<path d="M199.188 81.2437L192.83 81.3511L192.52 83.304L199.978 84.7197L199.188 81.2437Z" fill="#CE7A63"/>
<path d="M93.3654 105.184C88.3094 105.184 84.2078 95.9884 84.2078 84.644C84.2078 73.2996 88.3094 64.1104 93.3654 64.1104H96.7972V105.19L93.3654 105.184Z" fill="#2094F3"/>
<path d="M96.7972 105.178C101.855 105.178 105.955 95.9845 105.955 84.644C105.955 73.3036 101.855 64.1104 96.7972 64.1104C91.7396 64.1104 87.6395 73.3036 87.6395 84.644C87.6395 95.9845 91.7396 105.178 96.7972 105.178Z" fill="#2094F3"/>
<path opacity="0.2" d="M96.7972 105.178C101.855 105.178 105.955 95.9845 105.955 84.644C105.955 73.3036 101.855 64.1104 96.7972 64.1104C91.7396 64.1104 87.6395 73.3036 87.6395 84.644C87.6395 95.9845 91.7396 105.178 96.7972 105.178Z" fill="black"/>
<path d="M98.7312 105.184C93.6752 105.184 89.5735 95.9884 89.5735 84.644C89.5735 73.2996 93.6752 64.1104 98.7312 64.1104H102.163V105.19L98.7312 105.184Z" fill="#2094F3"/>
<path d="M102.163 105.178C107.22 105.178 111.32 95.9845 111.32 84.644C111.32 73.3036 107.22 64.1104 102.163 64.1104C97.1052 64.1104 93.0051 73.3036 93.0051 84.644C93.0051 95.9845 97.1052 105.178 102.163 105.178Z" fill="#2094F3"/>
<path opacity="0.2" d="M102.163 105.178C107.22 105.178 111.32 95.9845 111.32 84.644C111.32 73.3036 107.22 64.1104 102.163 64.1104C97.1052 64.1104 93.0051 73.3036 93.0051 84.644C93.0051 95.9845 97.1052 105.178 102.163 105.178Z" fill="black"/>
<path opacity="0.2" d="M102.947 85.2693L110.954 90.3758C111.183 88.6259 111.303 86.8634 111.314 85.0986L102.947 85.2693Z" fill="black"/>
<path d="M221.788 85.769H103.465C103.166 85.769 102.88 85.6504 102.669 85.4395C102.458 85.2285 102.34 84.9424 102.34 84.644C102.34 84.3456 102.458 84.0595 102.669 83.8485C102.88 83.6376 103.166 83.519 103.465 83.519H221.788C222.086 83.5207 222.371 83.6398 222.581 83.8504C222.792 84.061 222.911 84.3462 222.913 84.644C222.911 84.9418 222.792 85.227 222.581 85.4376C222.371 85.6483 222.086 85.7673 221.788 85.769Z" fill="#263238"/>
<path opacity="0.9" d="M166.393 86.4827C161.513 86.5988 156.644 86.9828 151.806 87.633C151.25 87.7215 150.694 87.8289 150.157 87.9363C148.735 91.0458 150.397 95.6657 154.872 100.88L156.186 102.409L156.989 100.557C159.852 93.9909 163.309 89.51 166.981 87.6014L169.231 86.4511C168.289 86.4385 167.335 86.4511 166.393 86.4827Z" fill="white"/>
<path d="M161.546 71.353C161.596 75.777 162.462 83.835 166.393 86.4831C162.291 88.6066 158.632 93.5362 155.826 100.052C151.636 95.1731 149.626 90.332 151.806 87.6334C156.78 86.0597 155.845 82.4699 154.176 79.1582L161.546 71.353Z" fill="#CE7A63"/>
<path opacity="0.2" d="M158.544 74.5381L154.177 79.1517C154.575 79.9088 154.904 80.6998 155.162 81.5154C157.103 81.0919 159.397 78.842 159.176 76.8828C159.112 76.0688 158.898 75.2738 158.544 74.5381Z" fill="black"/>
<path d="M146.751 58.9973C145.05 59.9326 143.628 66.695 147.616 69.3052C151.604 71.9153 150.543 56.9243 146.751 58.9973Z" fill="#263238"/>
<path d="M163.233 64.3629C162.885 70.5439 162.999 74.1779 159.896 77.4137C155.226 82.2864 147.591 79.632 146.081 73.5016C144.728 67.9843 145.524 58.8013 151.554 56.2038C152.863 55.6171 154.302 55.3798 155.731 55.5149C157.159 55.65 158.528 56.153 159.705 56.9747C160.881 57.7965 161.824 58.909 162.443 60.2038C163.061 61.4986 163.333 62.9315 163.233 64.3629Z" fill="#CE7A63"/>
<path d="M147.616 60.2233C142.023 57.9797 137.504 51.1983 140.487 47.539C144.431 42.66 148.823 50.7685 161.527 53.6694C171.803 56.0078 168.005 64.9569 164.592 68.5467C162.405 69.1281 160.364 69.5958 160.364 69.5958C160.364 69.5958 158.107 64.2491 160.326 60.9248C157.93 61.6832 151.446 61.759 147.616 60.2233Z" fill="#263238"/>
<path d="M139.546 55.1611C139.546 55.1611 143.603 60.3183 160.326 60.925C152.944 62.9979 143.464 61.7592 139.546 55.1611Z" fill="#263238"/>
<path d="M152.173 73.6343C152.137 73.6296 152.105 73.6111 152.082 73.5828C152.06 73.5545 152.049 73.5186 152.053 73.4826C152.056 73.4435 152.074 73.4072 152.104 73.3813C152.133 73.3553 152.172 73.3418 152.211 73.3436C152.838 73.3878 153.467 73.2858 154.049 73.0456C154.63 72.8055 155.147 72.4337 155.561 71.9595C155.572 71.9442 155.587 71.9312 155.603 71.9215C155.62 71.9118 155.638 71.9054 155.657 71.9028C155.676 71.9001 155.696 71.9013 155.714 71.9061C155.733 71.911 155.751 71.9195 155.766 71.9311C155.781 71.9427 155.794 71.9572 155.804 71.9738C155.814 71.9904 155.82 72.0088 155.823 72.0279C155.825 72.047 155.824 72.0664 155.819 72.085C155.814 72.1036 155.806 72.1211 155.794 72.1365C155.353 72.6531 154.797 73.0585 154.17 73.3198C153.543 73.5812 152.863 73.6911 152.186 73.6406L152.173 73.6343Z" fill="#263238"/>
<path d="M166.058 71.1065C165.236 72.4416 163.925 73.403 162.405 73.7862C160.395 74.2728 160.667 72.775 161.312 70.9232C161.893 69.2484 162.468 66.6762 164.472 67.0112C166.475 67.3461 167.05 69.4633 166.058 71.1065Z" fill="#CE7A63"/>
<path d="M153.873 66.2966C153.873 66.8022 153.614 67.2131 153.285 67.2194C152.957 67.2257 152.685 66.8275 152.685 66.3219C152.685 65.8163 152.944 65.4118 153.273 65.3992C153.601 65.3866 153.873 65.7974 153.873 66.2966Z" fill="#263238"/>
<path d="M148.033 66.4231C148.033 66.9287 147.774 67.3395 147.446 67.3522C147.117 67.3648 146.814 66.954 146.814 66.4547C146.814 65.9554 147.073 65.5383 147.401 65.5257C147.73 65.513 148.033 65.9238 148.033 66.4231Z" fill="#263238"/>
<path d="M149.999 66.6382C149.999 66.6382 148.868 69.558 147.616 70.9863C148.514 71.8016 150.024 71.3845 150.024 71.3845L149.999 66.6382Z" fill="#BA4D3C"/>
<path d="M156.395 63.6803C156.356 63.6832 156.316 63.6779 156.279 63.6649C156.242 63.6518 156.209 63.6313 156.18 63.6045C155.924 63.3384 155.608 63.138 155.258 63.0203C154.908 62.9025 154.535 62.871 154.17 62.9283C154.133 62.9376 154.094 62.9391 154.056 62.9329C154.018 62.9267 153.981 62.9129 153.949 62.8922C153.916 62.8715 153.888 62.8444 153.867 62.8126C153.845 62.7808 153.83 62.7449 153.823 62.7071C153.807 62.6301 153.823 62.5502 153.865 62.4843C153.907 62.4183 153.974 62.3713 154.05 62.3531C154.506 62.2771 154.974 62.3121 155.414 62.4551C155.854 62.5981 156.254 62.8449 156.578 63.1748C156.633 63.2303 156.664 63.3052 156.664 63.3833C156.664 63.4614 156.633 63.5363 156.578 63.5919C156.53 63.643 156.465 63.6745 156.395 63.6803Z" fill="#263238"/>
<path d="M147.888 63.5161C147.894 63.5474 147.894 63.5796 147.888 63.6109C147.89 63.6498 147.884 63.6887 147.87 63.7251C147.856 63.7615 147.835 63.7947 147.807 63.8225C147.78 63.8504 147.747 63.8723 147.711 63.887C147.675 63.9017 147.636 63.9088 147.597 63.9079C147.126 63.924 146.657 63.8289 146.228 63.6301C145.8 63.4314 145.425 63.1347 145.133 62.764C145.11 62.7328 145.094 62.6973 145.086 62.6598C145.078 62.6222 145.077 62.5834 145.084 62.5455C145.091 62.5077 145.106 62.4718 145.127 62.4398C145.149 62.4078 145.176 62.3805 145.208 62.3595C145.273 62.3155 145.353 62.2988 145.429 62.313C145.506 62.3272 145.575 62.3712 145.619 62.4354C145.856 62.725 146.157 62.9558 146.498 63.1093C146.839 63.2629 147.211 63.335 147.585 63.3202C147.649 63.317 147.714 63.3342 147.768 63.3693C147.822 63.4045 147.864 63.4558 147.888 63.5161Z" fill="#263238"/>
<path d="M198.258 94.3955C198.034 92.5601 197.686 90.7421 197.216 88.954C197.075 88.4319 196.752 87.9771 196.306 87.6711C195.86 87.3652 195.32 87.228 194.782 87.2843C194.244 87.3406 193.744 87.5867 193.371 87.9783C192.998 88.37 192.777 88.8817 192.747 89.4216V89.5164C192.657 92.7969 192.315 96.0655 191.724 99.2935C191.578 99.9985 191.386 100.693 191.148 101.373C191.007 101.766 190.831 102.147 190.624 102.51L190.523 102.46C189.37 101.935 188.296 101.252 187.331 100.431C186.17 99.446 185.07 98.3907 184.038 97.2711C182.97 96.1082 181.915 94.8884 180.878 93.6181C180.373 92.9861 179.88 92.3541 179.381 91.7221L178.654 90.7488L177.978 89.8261L177.87 89.6744C177.172 88.711 176.125 88.0592 174.952 87.8587C173.779 87.6581 172.575 87.9248 171.596 88.6016C170.618 89.2784 169.944 90.3115 169.718 91.4795C169.492 92.6475 169.732 93.8576 170.387 94.8505C170.697 95.3245 170.937 95.6784 171.209 96.0766C171.481 96.4748 171.752 96.8413 172.03 97.2205C172.58 97.9726 173.162 98.6994 173.749 99.4262C174.938 100.888 176.203 102.284 177.541 103.61C178.23 104.28 178.938 104.937 179.684 105.576C180.43 106.214 181.232 106.84 182.067 107.415C183.873 108.729 185.891 109.725 188.033 110.36C189.739 110.895 191.577 110.838 193.247 110.195C194.147 109.819 194.96 109.262 195.636 108.559C196.179 107.994 196.641 107.356 197.007 106.663C197.567 105.577 197.955 104.411 198.157 103.206C198.345 102.189 198.459 101.161 198.499 100.128C198.576 98.2136 198.495 96.2964 198.258 94.3955Z" fill="#CE7A63"/>
<path d="M164.32 139.438L153.924 140.196C153.924 140.196 117.483 148.653 118.886 167.853C119.827 180.746 125.307 201.602 129.067 214.766H137.599C137.087 201.602 138.01 181.384 134.439 168.207C139.963 167.189 158.935 160.408 165.635 158.17C167.248 155.255 167.982 151.934 167.749 148.61C167.516 145.285 166.325 142.1 164.32 139.438Z" fill="#263238"/>
<path opacity="0.4" d="M152.23 151.244C145.057 156.692 144.065 163.536 145.057 165.148C148.217 164.124 151.617 162.968 154.821 161.868C154.84 158.032 155.175 149.013 152.23 151.244Z" fill="black"/>
<path d="M178.06 138.439L164.32 139.438L178.06 138.446V138.439Z" fill="#263238"/>
<path d="M187.186 137.776L164.32 139.439C164.32 139.439 147.256 152.622 147.819 159.031C147.975 161.566 148.506 164.064 149.392 166.444C153.987 178.667 163.157 200.913 168.757 214.754H177.434C174.862 200.54 172.075 177.687 166.399 167.354C172.403 164.674 180.613 161.287 186.269 156.97C192.615 152.161 187.186 137.776 187.186 137.776Z" fill="#263238"/>
<path d="M132.676 226.888L138.01 226.983C138.01 226.983 137.877 222.028 137.599 214.753H129.067C131.127 221.99 132.676 226.888 132.676 226.888Z" fill="#CE7A63"/>
<path d="M131.342 222.906L138.294 222.957C138.419 222.957 138.54 223.001 138.635 223.082C138.73 223.163 138.793 223.276 138.813 223.399L139.678 229.087C139.697 229.229 139.686 229.373 139.644 229.51C139.603 229.647 139.532 229.773 139.437 229.881C139.343 229.988 139.226 230.074 139.095 230.132C138.965 230.19 138.823 230.22 138.68 230.218C136.152 230.155 132.531 229.978 129.371 229.953C125.667 229.953 125.762 230.105 121.42 230.073C118.797 230.073 118.26 227.387 119.366 227.16C124.422 226.104 125.231 226.016 129.743 223.368C130.223 223.067 130.777 222.908 131.342 222.906Z" fill="#263238"/>
<path d="M173.667 226.888L179.545 226.983C179.545 226.983 178.736 221.983 177.434 214.753H168.744C171.67 221.977 173.667 226.888 173.667 226.888Z" fill="#CE7A63"/>
<path d="M172.321 222.906L179.273 222.957C179.4 222.959 179.523 223.004 179.621 223.084C179.72 223.165 179.788 223.275 179.817 223.399L181.036 229.087C181.067 229.225 181.066 229.368 181.033 229.505C181.001 229.642 180.937 229.77 180.848 229.879C180.758 229.988 180.645 230.076 180.517 230.134C180.388 230.193 180.248 230.222 180.107 230.219C177.579 230.155 173.945 229.978 170.779 229.953C167.076 229.953 170.097 230.105 165.755 230.073C163.132 230.073 162.43 227.431 163.524 227.16C167.613 226.123 169.092 225.061 170.747 223.368C170.965 223.188 171.217 223.055 171.487 222.976C171.758 222.897 172.041 222.873 172.321 222.906Z" fill="#263238"/>
<path d="M223.096 105.184C218.04 105.184 213.938 95.9884 213.938 84.644C213.938 73.2996 218.04 64.1104 223.096 64.1104H226.528V105.19L223.096 105.184Z" fill="#2094F3"/>
<path opacity="0.2" d="M223.096 105.184C218.04 105.184 213.938 95.9884 213.938 84.644C213.938 73.2996 218.04 64.1104 223.096 64.1104H226.528V105.19L223.096 105.184Z" fill="black"/>
<path d="M226.528 105.178C231.585 105.178 235.685 95.9845 235.685 84.644C235.685 73.3036 231.585 64.1104 226.528 64.1104C221.47 64.1104 217.37 73.3036 217.37 84.644C217.37 95.9845 221.47 105.178 226.528 105.178Z" fill="#2094F3"/>
<path d="M228.462 105.184C223.406 105.184 219.304 95.9884 219.304 84.644C219.304 73.2996 223.406 64.1104 228.462 64.1104H231.894V105.19L228.462 105.184Z" fill="#2094F3"/>
<path opacity="0.2" d="M228.462 105.184C223.406 105.184 219.304 95.9884 219.304 84.644C219.304 73.2996 223.406 64.1104 228.462 64.1104H231.894V105.19L228.462 105.184Z" fill="black"/>
<path d="M241.822 75.9604C240.988 71.7197 239.553 68.2184 237.676 65.8484L238.169 65.4565C240.116 67.9213 241.588 71.5174 242.448 75.8593L241.822 75.9604Z" fill="#2094F3"/>
<path d="M243.263 84.6437H242.631C242.632 82.9677 242.546 81.2927 242.372 79.6257L243.004 79.5562C243.181 81.2462 243.267 82.9445 243.263 84.6437Z" fill="#2094F3"/>
<path d="M231.894 105.178C236.951 105.178 241.051 95.9845 241.051 84.644C241.051 73.3036 236.951 64.1104 231.894 64.1104C226.836 64.1104 222.736 73.3036 222.736 84.644C222.736 95.9845 226.836 105.178 231.894 105.178Z" fill="#2094F3"/>
<path d="M232.962 95.8618C230.2 95.8618 227.956 90.8058 227.956 84.6438C227.956 78.4818 230.2 73.4321 232.962 73.4321H234.858V95.8618H232.962Z" fill="#2094F3"/>
<path opacity="0.2" d="M234.832 95.8618H232.936C230.181 95.8618 227.937 90.8058 227.937 84.6501C227.937 78.4944 230.181 73.4321 232.936 73.4321H234.832C232.071 73.4321 229.833 78.4502 229.833 84.6501C229.833 90.85 232.071 95.8618 234.832 95.8618Z" fill="black"/>
<path opacity="0.1" d="M234.832 95.8555C237.593 95.8555 239.831 90.8358 239.831 84.6438C239.831 78.4518 237.593 73.4321 234.832 73.4321C232.071 73.4321 229.833 78.4518 229.833 84.6438C229.833 90.8358 232.071 95.8555 234.832 95.8555Z" fill="white"/>
<path d="M269.017 168.112L251.643 228.303H254.835L272.209 168.112H269.017Z" fill="#263238"/>
<path d="M216.043 228.303H219.234L236.608 168.112H233.41L216.043 228.303Z" fill="#263238"/>
<path d="M213.186 223.146C209.794 223.146 206.54 221.799 204.141 219.4C201.742 217.001 200.395 213.747 200.395 210.355C200.395 206.962 201.742 203.708 204.141 201.31C206.54 198.911 209.794 197.563 213.186 197.563H215.133V223.146H213.186Z" fill="#2094F3"/>
<path opacity="0.2" d="M213.186 223.146C209.794 223.146 206.54 221.799 204.141 219.4C201.742 217.001 200.395 213.747 200.395 210.355C200.395 206.962 201.742 203.708 204.141 201.31C206.54 198.911 209.794 197.563 213.186 197.563H215.133V223.146H213.186Z" fill="black"/>
<path d="M215.133 223.146C222.197 223.146 227.924 217.419 227.924 210.355C227.924 203.29 222.197 197.563 215.133 197.563C208.068 197.563 202.341 203.29 202.341 210.355C202.341 217.419 208.068 223.146 215.133 223.146Z" fill="#2094F3"/>
<path opacity="0.1" d="M213.186 197.563H215.133C218.525 197.563 221.779 198.911 224.178 201.31C226.577 203.708 227.924 206.962 227.924 210.355C227.924 213.747 226.577 217.001 224.178 219.4C221.779 221.799 218.525 223.146 215.133 223.146H213.186C209.794 223.146 206.54 221.799 204.141 219.4C201.742 217.001 200.395 213.747 200.395 210.355C200.395 206.962 201.742 203.708 204.141 201.31C206.54 198.911 209.794 197.563 213.186 197.563Z" fill="black"/>
<path d="M216.542 223.146C213.15 223.146 209.896 221.799 207.497 219.4C205.098 217.001 203.75 213.747 203.75 210.355C203.75 206.962 205.098 203.708 207.497 201.31C209.896 198.911 213.15 197.563 216.542 197.563H218.489V223.146H216.542Z" fill="#2094F3"/>
<path opacity="0.2" d="M216.542 223.146C213.15 223.146 209.896 221.799 207.497 219.4C205.098 217.001 203.75 213.747 203.75 210.355C203.75 206.962 205.098 203.708 207.497 201.31C209.896 198.911 213.15 197.563 216.542 197.563H218.489V223.146H216.542Z" fill="black"/>
<path d="M218.489 223.146C225.553 223.146 231.28 217.419 231.28 210.355C231.28 203.29 225.553 197.563 218.489 197.563C211.424 197.563 205.697 203.29 205.697 210.355C205.697 217.419 211.424 223.146 218.489 223.146Z" fill="#2094F3"/>
<path opacity="0.1" d="M216.542 197.563H218.489C221.881 197.563 225.135 198.911 227.534 201.31C229.933 203.708 231.28 206.962 231.28 210.355C231.28 213.747 229.933 217.001 227.534 219.4C225.135 221.799 221.881 223.146 218.489 223.146H216.542C213.15 223.146 209.896 221.799 207.497 219.4C205.098 217.001 203.75 213.747 203.75 210.355C203.75 206.962 205.098 203.708 207.497 201.31C209.896 198.911 213.15 197.563 216.542 197.563Z" fill="black"/>
<path d="M220.505 213.344H242.372C242.435 213.344 242.497 213.331 242.555 213.307C242.613 213.283 242.665 213.248 242.709 213.203C242.754 213.158 242.788 213.105 242.812 213.047C242.835 212.989 242.847 212.926 242.846 212.864V207.846C242.847 207.783 242.835 207.72 242.812 207.662C242.788 207.604 242.754 207.551 242.709 207.506C242.665 207.462 242.613 207.426 242.555 207.402C242.497 207.378 242.435 207.365 242.372 207.365H220.505C220.112 207.365 219.724 207.443 219.361 207.593C218.998 207.743 218.669 207.963 218.391 208.241C218.113 208.518 217.893 208.848 217.743 209.211C217.593 209.573 217.516 209.962 217.516 210.355C217.516 211.147 217.83 211.908 218.391 212.468C218.952 213.029 219.712 213.344 220.505 213.344Z" fill="#263238"/>
<path d="M246.113 223.146C242.721 223.146 239.467 221.799 237.068 219.4C234.669 217.001 233.322 213.747 233.322 210.355C233.322 206.962 234.669 203.708 237.068 201.31C239.467 198.911 242.721 197.563 246.113 197.563H248.06V223.146H246.113Z" fill="#2094F3"/>
<path opacity="0.2" d="M246.113 223.146C242.721 223.146 239.467 221.799 237.068 219.4C234.669 217.001 233.322 213.747 233.322 210.355C233.322 206.962 234.669 203.708 237.068 201.31C239.467 198.911 242.721 197.563 246.113 197.563H248.06V223.146H246.113Z" fill="black"/>
<path d="M248.06 223.146C255.125 223.146 260.852 217.419 260.852 210.355C260.852 203.29 255.125 197.563 248.06 197.563C240.995 197.563 235.268 203.29 235.268 210.355C235.268 217.419 240.995 223.146 248.06 223.146Z" fill="#2094F3"/>
<path d="M249.463 223.146C246.07 223.146 242.817 221.799 240.418 219.4C238.019 217.001 236.671 213.747 236.671 210.355C236.671 206.962 238.019 203.708 240.418 201.31C242.817 198.911 246.07 197.563 249.463 197.563H251.41V223.146H249.463Z" fill="#2094F3"/>
<path opacity="0.2" d="M249.463 223.146C246.07 223.146 242.817 221.799 240.418 219.4C238.019 217.001 236.671 213.747 236.671 210.355C236.671 206.962 238.019 203.708 240.418 201.31C242.817 198.911 246.07 197.563 249.463 197.563H251.41V223.146H249.463Z" fill="black"/>
<path d="M251.41 223.146C258.474 223.146 264.201 217.419 264.201 210.355C264.201 203.29 258.474 197.563 251.41 197.563C244.345 197.563 238.618 203.29 238.618 210.355C238.618 217.419 244.345 223.146 251.41 223.146Z" fill="#2094F3"/>
<path opacity="0.2" d="M250.518 217.016C248.752 217.016 247.057 216.314 245.808 215.065C244.559 213.816 243.857 212.121 243.857 210.355C243.857 208.588 244.559 206.894 245.808 205.644C247.057 204.395 248.752 203.693 250.518 203.693H252.307V217.016H250.518Z" fill="black"/>
<path d="M252.307 217.016C255.986 217.016 258.968 214.034 258.968 210.355C258.968 206.676 255.986 203.693 252.307 203.693C248.628 203.693 245.646 206.676 245.646 210.355C245.646 214.034 248.628 217.016 252.307 217.016Z" fill="#2094F3"/>
<path d="M225.08 194.081C223.569 194.116 222.067 193.85 220.66 193.296C219.254 192.742 217.972 191.913 216.891 190.857C215.809 189.801 214.95 188.539 214.364 187.146C213.777 185.753 213.475 184.257 213.475 182.746C213.475 181.234 213.777 179.738 214.364 178.345C214.95 176.952 215.809 175.691 216.891 174.634C217.972 173.578 219.254 172.749 220.66 172.196C222.067 171.642 223.569 171.375 225.08 171.411H226.806V194.081H225.08Z" fill="#2094F3"/>
<path opacity="0.2" d="M225.08 194.081C223.569 194.116 222.067 193.85 220.66 193.296C219.254 192.742 217.972 191.913 216.891 190.857C215.809 189.801 214.95 188.539 214.364 187.146C213.777 185.753 213.475 184.257 213.475 182.746C213.475 181.234 213.777 179.738 214.364 178.345C214.95 176.952 215.809 175.691 216.891 174.634C217.972 173.578 219.254 172.749 220.66 172.196C222.067 171.642 223.569 171.375 225.08 171.411H226.806V194.081H225.08Z" fill="black"/>
<path d="M238.122 182.897C238.216 176.64 233.219 171.491 226.962 171.397C220.704 171.303 215.555 176.3 215.461 182.557C215.367 188.815 220.364 193.964 226.622 194.058C232.879 194.152 238.028 189.155 238.122 182.897Z" fill="#2094F3"/>
<path opacity="0.1" d="M225.08 171.411H226.806C229.766 171.481 232.581 172.706 234.649 174.824C236.718 176.942 237.876 179.785 237.876 182.746C237.876 185.706 236.718 188.55 234.649 190.668C232.581 192.786 229.766 194.011 226.806 194.081H225.08C223.569 194.116 222.067 193.85 220.66 193.296C219.254 192.742 217.972 191.913 216.891 190.857C215.809 189.801 214.95 188.539 214.364 187.146C213.777 185.753 213.475 184.257 213.475 182.746C213.475 181.234 213.777 179.738 214.364 178.345C214.95 176.952 215.809 175.691 216.891 174.634C217.972 173.578 219.254 172.749 220.66 172.196C222.067 171.642 223.569 171.375 225.08 171.411Z" fill="black"/>
<path d="M228.051 194.081C225.091 194.011 222.276 192.786 220.207 190.668C218.139 188.55 216.98 185.707 216.98 182.746C216.98 179.785 218.139 176.942 220.207 174.824C222.276 172.706 225.091 171.481 228.051 171.411H229.776V194.081H228.051Z" fill="#2094F3"/>
<path opacity="0.2" d="M228.051 194.081C225.091 194.011 222.276 192.786 220.207 190.668C218.139 188.55 216.98 185.707 216.98 182.746C216.98 179.785 218.139 176.942 220.207 174.824C222.276 172.706 225.091 171.481 228.051 171.411H229.776V194.081H228.051Z" fill="black"/>
<path d="M241.093 182.904C241.187 176.647 236.19 171.498 229.932 171.404C223.675 171.31 218.526 176.306 218.432 182.564C218.338 188.822 223.335 193.971 229.592 194.065C235.85 194.159 240.999 189.162 241.093 182.904Z" fill="#2094F3"/>
<path opacity="0.1" d="M228.051 171.411H229.776C231.287 171.375 232.79 171.642 234.197 172.196C235.603 172.749 236.885 173.578 237.966 174.634C239.047 175.691 239.906 176.952 240.493 178.345C241.08 179.738 241.382 181.234 241.382 182.746C241.382 184.257 241.08 185.753 240.493 187.146C239.906 188.539 239.047 189.801 237.966 190.857C236.885 191.913 235.603 192.742 234.197 193.296C232.79 193.85 231.287 194.116 229.776 194.081H228.051C225.091 194.011 222.276 192.786 220.207 190.668C218.139 188.55 216.98 185.706 216.98 182.746C216.98 179.785 218.139 176.942 220.207 174.824C222.276 172.706 225.091 171.481 228.051 171.411Z" fill="black"/>
<path d="M250.942 185.372H231.546C230.849 185.372 230.18 185.095 229.687 184.602C229.194 184.109 228.917 183.44 228.917 182.743C228.917 182.046 229.194 181.377 229.687 180.884C230.18 180.391 230.849 180.114 231.546 180.114H250.942C251.053 180.114 251.159 180.158 251.237 180.236C251.315 180.314 251.359 180.42 251.359 180.531V184.955C251.359 185.066 251.315 185.172 251.237 185.25C251.159 185.328 251.053 185.372 250.942 185.372Z" fill="#263238"/>
<path d="M254.254 194.081C252.743 194.116 251.24 193.85 249.833 193.296C248.427 192.742 247.145 191.913 246.064 190.857C244.983 189.801 244.123 188.539 243.537 187.146C242.95 185.753 242.648 184.257 242.648 182.746C242.648 181.234 242.95 179.738 243.537 178.345C244.123 176.952 244.983 175.691 246.064 174.634C247.145 173.578 248.427 172.749 249.833 172.196C251.24 171.642 252.743 171.375 254.254 171.411H255.96V194.081H254.254Z" fill="#2094F3"/>
<path opacity="0.2" d="M254.254 194.081C252.743 194.116 251.24 193.85 249.833 193.296C248.427 192.742 247.145 191.913 246.064 190.857C244.983 189.801 244.123 188.539 243.537 187.146C242.95 185.753 242.648 184.257 242.648 182.746C242.648 181.234 242.95 179.738 243.537 178.345C244.123 176.952 244.983 175.691 246.064 174.634C247.145 173.578 248.427 172.749 249.833 172.196C251.24 171.642 252.743 171.375 254.254 171.411H255.96V194.081H254.254Z" fill="black"/>
<path d="M255.979 194.081C262.237 194.081 267.311 189.007 267.311 182.749C267.311 176.49 262.237 171.417 255.979 171.417C249.721 171.417 244.647 176.49 244.647 182.749C244.647 189.007 249.721 194.081 255.979 194.081Z" fill="#2094F3"/>
<path d="M257.224 194.081C254.264 194.011 251.449 192.786 249.38 190.668C247.312 188.55 246.154 185.707 246.154 182.746C246.154 179.785 247.312 176.942 249.38 174.824C251.449 172.706 254.264 171.481 257.224 171.411H258.949V194.081H257.224Z" fill="#2094F3"/>
<path opacity="0.2" d="M257.224 194.081C254.264 194.011 251.449 192.786 249.38 190.668C247.312 188.55 246.154 185.707 246.154 182.746C246.154 179.785 247.312 176.942 249.38 174.824C251.449 172.706 254.264 171.481 257.224 171.411H258.949V194.081H257.224Z" fill="black"/>
<path d="M258.943 194.081C265.201 194.081 270.275 189.007 270.275 182.749C270.275 176.49 265.201 171.417 258.943 171.417C252.685 171.417 247.611 176.49 247.611 182.749C247.611 189.007 252.685 194.081 258.943 194.081Z" fill="#2094F3"/>
<path opacity="0.2" d="M258.153 188.645C257.362 188.671 256.574 188.538 255.835 188.253C255.097 187.968 254.423 187.538 253.855 186.987C253.286 186.437 252.834 185.778 252.525 185.049C252.216 184.32 252.057 183.537 252.057 182.746C252.057 181.954 252.216 181.171 252.525 180.442C252.834 179.713 253.286 179.054 253.855 178.504C254.423 177.954 255.097 177.523 255.835 177.238C256.574 176.953 257.362 176.82 258.153 176.846H259.752V188.645H258.153Z" fill="black"/>
<path d="M260.719 187.692C263.979 187.626 266.569 184.931 266.504 181.671C266.439 178.411 263.743 175.821 260.483 175.886C257.223 175.951 254.633 178.647 254.698 181.907C254.763 185.167 257.459 187.757 260.719 187.692Z" fill="#2094F3"/>
<path d="M92.5059 200.471C92.5059 196.331 88.7139 192.969 84.0813 192.969C79.4487 192.969 75.6567 196.331 75.6567 200.471C75.6661 202.141 76.2763 203.751 77.3758 205.008C77.597 205.273 77.7566 205.584 77.8429 205.918C77.9292 206.252 77.94 206.601 77.8747 206.94C77.8093 207.279 77.6694 207.599 77.4651 207.877C77.2607 208.155 76.9971 208.384 76.6932 208.548C76.379 208.719 76.1169 208.972 75.9345 209.28C75.7521 209.589 75.6561 209.94 75.6567 210.298V227.021C75.6567 227.47 75.8352 227.901 76.1528 228.219C76.4705 228.536 76.9013 228.715 77.3505 228.715H90.8121C91.2613 228.715 91.6921 228.536 92.0098 228.219C92.3274 227.901 92.5059 227.47 92.5059 227.021V210.298C92.5065 209.939 92.4099 209.587 92.2263 209.279C92.0427 208.971 91.7789 208.718 91.4631 208.548C91.1592 208.384 90.8956 208.155 90.6912 207.877C90.4869 207.599 90.347 207.279 90.2816 206.94C90.2163 206.601 90.2271 206.252 90.3134 205.918C90.3997 205.584 90.5593 205.273 90.7805 205.008C91.8822 203.752 92.4947 202.141 92.5059 200.471Z" fill="#2094F3"/>
<path opacity="0.2" d="M92.5059 200.471C92.5059 196.331 88.7139 192.969 84.0813 192.969C79.4487 192.969 75.6567 196.331 75.6567 200.471C75.6661 202.141 76.2763 203.751 77.3758 205.008C77.597 205.273 77.7566 205.584 77.8429 205.918C77.9292 206.252 77.94 206.601 77.8747 206.94C77.8093 207.279 77.6694 207.599 77.4651 207.877C77.2607 208.155 76.9971 208.384 76.6932 208.548C76.379 208.719 76.1169 208.972 75.9345 209.28C75.7521 209.589 75.6561 209.94 75.6567 210.298V227.021C75.6567 227.47 75.8352 227.901 76.1528 228.219C76.4705 228.536 76.9013 228.715 77.3505 228.715H90.8121C91.2613 228.715 91.6921 228.536 92.0098 228.219C92.3274 227.901 92.5059 227.47 92.5059 227.021V210.298C92.5065 209.939 92.4099 209.587 92.2263 209.279C92.0427 208.971 91.7789 208.718 91.4631 208.548C91.1592 208.384 90.8956 208.155 90.6912 207.877C90.4869 207.599 90.347 207.279 90.2816 206.94C90.2163 206.601 90.2271 206.252 90.3134 205.918C90.3997 205.584 90.5593 205.273 90.7805 205.008C91.8822 203.752 92.4947 202.141 92.5059 200.471Z" fill="white"/>
<path d="M87.6015 194.416H80.5547C80.172 194.414 79.8055 194.261 79.5354 193.989C79.2654 193.718 79.1138 193.351 79.1138 192.968C79.1154 192.587 79.2678 192.221 79.5377 191.951C79.8075 191.681 80.1731 191.529 80.5547 191.527H87.6015C87.9843 191.527 88.3514 191.679 88.6227 191.949C88.8939 192.219 89.0471 192.586 89.0488 192.968C89.0471 193.352 88.8941 193.719 88.6231 193.99C88.352 194.261 87.9849 194.414 87.6015 194.416Z" fill="#263238"/>
<path d="M85.4591 188.715H82.7035C82.2009 188.715 81.7935 189.123 81.7935 189.625V192.059C81.7935 192.561 82.2009 192.969 82.7035 192.969H85.4591C85.9617 192.969 86.3691 192.561 86.3691 192.059V189.625C86.3691 189.123 85.9617 188.715 85.4591 188.715Z" fill="#263238"/>
</svg>
