<svg width="150" height="125" viewBox="0 0 150 125" fill="none" xmlns="http://www.w3.org/2000/svg">
<path d="M23.8636 55.0278C31.0533 55.5808 36.5378 51.5713 38.3813 49.4975C59.1211 30.8327 75.7121 39.1282 84.6992 39.8195C93.6863 40.5108 110.969 30.8327 121.339 26.685C131.709 22.5373 135.857 26.685 139.313 32.2153C142.77 37.7456 144.153 45.3497 141.387 55.0278C138.622 64.7058 146.918 68.8535 148.992 75.0751C151.066 81.2967 150.374 85.4444 142.77 95.1224C135.165 104.8 122.722 105.492 106.13 101.344C89.5384 97.1963 83.3166 106.183 74.3295 114.478C65.3423 122.774 48.0594 128.304 33.5417 122.774C19.0241 117.244 20.4067 106.183 21.098 99.2701C21.7893 92.3573 17.6418 90.2834 7.272 86.827C-3.09776 83.3705 -0.332495 75.7664 3.12409 69.5448C6.58068 63.3232 14.8765 54.3365 23.8636 55.0278Z" fill="#2196F3" fill-opacity="0.2"/>
<path d="M95.2118 71.7411L89.2574 70.505L96.7946 34.2434C97.075 32.342 96.6573 30.4035 95.6188 28.7864C86.1294 15.649 70.6931 20.9854 68.3264 32.3364L61.5429 64.7465L55.5885 63.5029L63.1936 27.0076C63.5854 25.1196 64.3928 23.3426 65.557 21.8055C66.7212 20.2684 68.2131 19.0098 69.9243 18.1212C89.0991 8.23989 105.191 23.6008 101.912 39.3461L95.2118 71.7411Z" fill="#E0E0E0"/>
<path d="M95.2121 71.7413C95.2121 71.7413 95.2498 71.5152 95.3403 71.0931C95.4307 70.671 95.5513 70.0304 95.7171 69.2088L97.2246 61.9957C97.8728 58.8677 98.6566 55.0463 99.5686 50.6069L101.076 43.5068C101.543 40.9894 102.32 38.3514 102.35 35.5023C102.395 32.5197 101.761 29.5659 100.496 26.8646C100.33 26.5179 100.172 26.1561 99.9983 25.8094L99.3952 24.7919C98.9846 24.1101 98.5342 23.4533 98.0461 22.8247C97.8049 22.493 97.5185 22.2066 97.2547 21.8976C96.9909 21.5885 96.7346 21.272 96.4256 21.0006C95.8398 20.4166 95.2153 19.8727 94.5564 19.3726C93.2192 18.3262 91.7555 17.4525 90.1999 16.7723L88.9863 16.32L88.3005 16.0939L87.6673 15.9281L86.3935 15.5964C85.9564 15.4985 85.5192 15.4532 85.082 15.3779C81.4463 14.8365 77.7317 15.3113 74.349 16.7496C71.6636 17.8907 69.2601 19.6052 67.3071 21.7731C65.3541 23.9409 63.8988 26.5096 63.0432 29.2991C62.493 31.2211 62.1387 33.2336 61.7091 35.2385C60.0358 43.2807 58.2947 51.6094 56.5235 60.1114C56.2823 61.2495 56.0486 62.3725 55.815 63.5107L55.7019 63.3373L61.6564 64.5809L61.4905 64.694C62.8321 58.2497 64.1512 51.941 65.425 45.8509C66.0631 42.7908 66.6937 39.7759 67.3168 36.8062L68.2363 32.3894C68.5592 30.9305 69.087 29.5247 69.8041 28.2138C71.2569 25.6839 73.4437 23.6548 76.0751 22.395C76.3992 22.2518 76.7082 22.0785 77.0474 21.9654L78.0423 21.6187C78.7091 21.4182 79.3891 21.2646 80.0774 21.1589C80.761 21.055 81.4511 20.9996 82.1425 20.9931C82.4817 20.9931 82.8284 20.9931 83.1676 21.0383H83.6726L84.1776 21.1212C85.5042 21.302 86.7983 21.67 88.0216 22.2141C89.2035 22.7585 90.3105 23.4525 91.3153 24.2793C93.2368 25.9015 94.6998 27.9986 95.5588 30.3619C96.3886 32.5737 96.6301 34.963 96.2598 37.2961L96.1241 38.1328C96.0714 38.4041 96.011 38.6755 95.9583 38.9468L95.6191 40.5598C95.393 41.6225 95.1744 42.6627 94.9634 43.6877C94.1041 47.7729 93.3127 51.534 92.6042 54.9182C91.1722 61.7017 90.0566 66.9778 89.318 70.5127L89.2803 70.46L93.8026 71.4172L94.9031 71.6584L95.2649 71.7413L94.9106 71.6735L93.8177 71.4624L89.2954 70.5429V70.4977L92.5062 54.8956C93.2072 51.5038 94.0137 47.7428 94.8352 43.65C95.0463 42.6325 95.2649 41.5848 95.4835 40.5221C95.589 39.9945 95.702 39.4518 95.8151 38.9167C95.8754 38.6453 95.9281 38.374 95.9884 38.0951C96.0487 37.8162 96.0713 37.5449 96.1166 37.2735C96.4777 34.975 96.2361 32.6221 95.4156 30.4448C94.5653 28.1203 93.1203 26.0595 91.2249 24.4678C90.231 23.655 89.1367 22.9736 87.9688 22.4403C86.7681 21.9111 85.4998 21.5509 84.2002 21.37L83.7028 21.2946H83.1977C82.8661 21.2946 82.5345 21.2494 82.1953 21.2946C80.8313 21.31 79.4762 21.5181 78.1704 21.9127L77.1906 22.2594C76.8661 22.3814 76.5489 22.5223 76.2409 22.6814C73.6559 23.9174 71.5101 25.9133 70.0905 28.4022C69.393 29.6865 68.8852 31.065 68.5831 32.4949C68.2816 33.9572 67.975 35.4294 67.6635 36.9118C67.0455 39.8814 66.4173 42.8963 65.7792 45.9564L61.8523 64.7995V64.9427H61.7091L55.7547 63.6991H55.619V63.5559C55.8527 62.4328 56.0863 61.2947 56.3275 60.1566C58.1063 51.632 59.8398 43.3033 61.5206 35.2837C61.9503 33.2713 62.2744 31.2739 62.8623 29.3142C63.4745 27.3987 64.3496 25.5774 65.4626 23.9025C67.668 20.6635 70.7615 18.13 74.3717 16.6064C77.7982 15.1538 81.5596 14.6765 85.2403 15.2271C85.685 15.3025 86.1297 15.3553 86.5669 15.4457L88.0743 15.8376L88.8808 16.0939L90.0868 16.5461L90.6445 16.7798C92.1192 17.4481 93.5084 18.2907 94.7825 19.2897C95.4432 19.8015 96.0724 20.3528 96.6668 20.9403C96.9046 21.1991 97.1309 21.4682 97.3451 21.7468C97.6089 22.0634 97.9029 22.3498 98.1365 22.6814C98.6329 23.3195 99.091 23.9865 99.5083 24.6788L100.111 25.7039C100.292 26.0581 100.443 26.4576 100.616 26.7742C101.887 29.508 102.519 32.4955 102.463 35.5098C102.463 38.389 101.641 41.0346 101.167 43.5596C100.692 46.0846 100.134 48.4588 99.6591 50.6823C98.7245 55.1217 97.9104 58.9732 97.2547 62.071C96.599 65.1688 96.0789 67.6109 95.7472 69.254L95.3478 71.1157C95.2648 71.5378 95.2121 71.7413 95.2121 71.7413Z" fill="#263238"/>
<path d="M53.0192 40.9268L106.213 52.0104C106.945 52.1629 107.586 52.5999 107.996 53.2253C108.405 53.8506 108.55 54.6132 108.397 55.3451L99.9934 95.6774C99.8548 96.3427 99.4575 96.9258 98.889 97.2982C98.3205 97.6707 97.6273 97.802 96.9619 97.6634L43.5176 86.5275L53.0192 40.9268Z" fill="#FF813B"/>
<g opacity="0.3">
<path d="M53.0468 40.9697L105.96 51.9949C106.766 52.1629 107.473 52.6443 107.924 53.3333C108.375 54.0222 108.534 54.8621 108.366 55.6684L100.079 95.4399C99.9254 96.1797 99.4836 96.8279 98.8516 97.242C98.2195 97.656 97.4489 97.8021 96.7091 97.6479L43.5452 86.5705L53.0468 40.9697Z" fill="#FF813B"/>
</g>
<path d="M53.4725 41.0229L99.3536 50.5828C100.148 50.7484 100.844 51.2228 101.289 51.9017C101.734 52.5806 101.891 53.4083 101.725 54.2028L93.612 93.1406C93.4081 94.119 92.8238 94.9764 91.9878 95.5242C91.1517 96.0719 90.1323 96.2651 89.1538 96.0612L44.0991 86.6734C43.6922 86.5886 43.3058 86.4245 42.9623 86.1904C42.6187 85.9563 42.3247 85.6568 42.0969 85.3091C41.8691 84.9613 41.712 84.5722 41.6346 84.1637C41.5572 83.7553 41.561 83.3355 41.6458 82.9286L49.882 43.4006C50.0465 42.6111 50.5159 41.9185 51.1882 41.4732C51.8606 41.028 52.6815 40.8661 53.4725 41.0229Z" fill="#FFBF4D"/>
<g opacity="0.3">
<path d="M79.7151 66.1109C79.893 65.2586 79.8979 64.3793 79.7296 63.5251C79.5613 62.6708 79.2233 61.8591 78.7355 61.1379C78.2477 60.4167 77.6201 59.8008 76.8898 59.3267C76.1596 58.8526 75.3416 58.5299 74.4843 58.3777C72.8303 58.1052 71.1346 58.4734 69.7426 59.4075C68.3506 60.3415 67.367 61.7711 66.9923 63.4051C66.6952 64.7947 66.8626 66.2434 67.4685 67.5287C68.0744 68.8141 69.0854 69.865 70.3464 70.5202L64.3542 78.4419L75.2908 80.9291L73.7833 71.2438C75.1971 71.154 76.5425 70.6035 77.6138 69.6765C78.685 68.7495 79.4231 67.4971 79.7151 66.1109Z" fill="black"/>
</g>
<path d="M93.7948 92.5587C93.7194 92.5587 95.3474 84.5994 97.4277 74.8161C99.508 65.0328 101.264 57.1036 101.34 57.1187C101.415 57.1337 99.7869 65.0855 97.7066 74.8839C95.6263 84.6823 93.8701 92.5738 93.7948 92.5587Z" fill="#D36A2F"/>
<path d="M90.0866 50.1167C90.0866 50.192 83.0544 48.8881 74.4167 47.2073C65.7791 45.5265 58.7769 44.1019 58.792 44.0266C58.8071 43.9512 65.8243 45.2476 74.4695 46.9284C83.1147 48.6092 90.1017 50.0111 90.0866 50.1167Z" fill="white"/>
<path d="M66.0651 66.8419C66.0651 66.8419 65.9747 66.6911 65.8842 66.3896C65.7547 65.9655 65.6738 65.5281 65.643 65.0857C65.5239 63.6087 65.8522 62.13 66.5852 60.8422C67.3308 59.5625 68.4408 58.5339 69.7734 57.8876C70.1744 57.6957 70.5936 57.5442 71.0246 57.4354C71.1807 57.3868 71.3436 57.3639 71.507 57.3676C71.507 57.4203 70.8362 57.556 69.8639 58.0685C68.5992 58.7346 67.5501 59.7466 66.8388 60.9864C66.1275 62.2262 65.7833 63.6427 65.8466 65.0706C65.8842 66.1711 66.1179 66.8268 66.0651 66.8419Z" fill="white"/>
<path d="M67.9497 70.3619C67.897 70.4222 67.5502 70.1886 67.196 69.8418C66.8417 69.4951 66.5704 69.171 66.6232 69.0881C66.6759 69.0052 67.0226 69.269 67.3769 69.6082C67.7311 69.9474 68.0025 70.3619 67.9497 70.3619Z" fill="white"/>
<path d="M84.0419 16.6517C84.0419 16.6517 83.65 16.6518 82.9415 16.5764C81.9367 16.5136 80.9286 16.5312 79.9266 16.6291C76.6283 16.9273 73.4825 18.1559 70.8552 20.1721C68.2279 22.1883 66.2272 24.9091 65.0858 28.0179C64.736 28.9543 64.4613 29.9171 64.2642 30.8971C64.1285 31.5906 64.0683 31.9825 64.0456 31.9825C64.0343 31.8874 64.0343 31.7912 64.0456 31.6961C64.0456 31.5076 64.0456 31.2288 64.1436 30.8745C64.3044 29.8786 64.5567 28.8996 64.8974 27.9501C66.0056 24.7727 68.0189 21.9889 70.6893 19.9412C73.3596 17.8936 76.5705 16.6716 79.9266 16.4256C80.9307 16.3447 81.9403 16.3599 82.9415 16.4709C83.2957 16.4709 83.5671 16.5613 83.7555 16.5839C83.8537 16.5927 83.9502 16.6156 84.0419 16.6517Z" fill="white"/>
<path d="M62.7869 36.8513C62.768 36.2799 62.8444 35.7093 63.013 35.163C63.0878 34.599 63.2559 34.0513 63.5104 33.5425C63.5338 34.1111 63.4599 34.6795 63.2919 35.2233C63.2173 35.7907 63.0465 36.3413 62.7869 36.8513Z" fill="white"/>
<path d="M62.0056 15.2528C62.0056 15.5995 61.9028 15.9384 61.7102 16.2266C61.5176 16.5149 61.2438 16.7395 60.9235 16.8722C60.6033 17.0048 60.2508 17.0395 59.9108 16.9719C59.5708 16.9043 59.2585 16.7373 59.0134 16.4922C58.7682 16.2471 58.6013 15.9347 58.5337 15.5947C58.466 15.2547 58.5008 14.9023 58.6334 14.582C58.7661 14.2617 58.9908 13.988 59.279 13.7954C59.5672 13.6028 59.9061 13.5 60.2528 13.5C60.483 13.5 60.7109 13.5453 60.9236 13.6334C61.1362 13.7215 61.3295 13.8506 61.4922 14.0134C61.655 14.1762 61.7841 14.3694 61.8722 14.5821C61.9603 14.7947 62.0056 15.0226 62.0056 15.2528Z" stroke="#2094F3"/>
<path d="M42.0056 10.2527C42.0056 10.5994 41.9028 10.9383 41.7102 11.2265C41.5176 11.5148 41.2439 11.7395 40.9236 11.8721C40.6033 12.0048 40.2509 12.0395 39.9109 11.9719C39.5708 11.9043 39.2585 11.7373 39.0134 11.4922C38.7682 11.2471 38.6013 10.9347 38.5337 10.5947C38.466 10.2547 38.5008 9.90224 38.6335 9.58195C38.7661 9.26166 38.9908 8.98791 39.2791 8.79532C39.5674 8.60274 39.9063 8.49997 40.253 8.5C40.7178 8.50004 41.1636 8.68471 41.4922 9.01339C41.8209 9.34207 42.0056 9.78785 42.0056 10.2527Z" stroke="#2094F3"/>
<path d="M31 39C34.3137 39 37 36.3137 37 33C37 29.6863 34.3137 27 31 27C27.6863 27 25 29.6863 25 33C25 36.3137 27.6863 39 31 39Z" stroke="#2094F3" stroke-width="2" stroke-linecap="round" stroke-linejoin="round"/>
<path d="M115.165 11.0827C115.165 11.6924 114.985 12.2884 114.646 12.7954C114.307 13.3023 113.826 13.6974 113.262 13.9307C112.699 14.1641 112.079 14.2251 111.481 14.1062C110.883 13.9872 110.334 13.6936 109.903 13.2625C109.472 12.8313 109.178 12.2821 109.059 11.6841C108.94 11.0861 109.001 10.4663 109.235 9.90297C109.468 9.33968 109.863 8.85823 110.37 8.5195C110.877 8.18078 111.473 7.99999 112.083 8C112.488 8 112.888 8.07974 113.262 8.23466C113.636 8.38958 113.976 8.61665 114.263 8.90291C114.549 9.18916 114.776 9.529 114.931 9.90301C115.086 10.277 115.165 10.6779 115.165 11.0827V11.0827Z" stroke="#2094F3" stroke-width="2" stroke-linecap="round" stroke-linejoin="round"/>
<path d="M119.004 32.2521V32.2521C119.004 32.4009 118.96 32.5463 118.878 32.67C118.795 32.7937 118.677 32.8901 118.54 32.9471C118.403 33.004 118.251 33.0189 118.105 32.9899C117.96 32.9609 117.826 32.8892 117.72 32.784C117.615 32.6788 117.543 32.5448 117.514 32.3989C117.485 32.253 117.5 32.1017 117.557 31.9643C117.614 31.8269 117.711 31.7094 117.834 31.6267C117.958 31.5441 118.103 31.5 118.252 31.5H118.252C118.452 31.5 118.643 31.5792 118.784 31.7203C118.925 31.8613 119.004 32.0526 119.004 32.2521Z" stroke="#2094F3"/>
<path d="M130.004 42.2521V42.2522C130.004 42.4009 129.96 42.5464 129.878 42.67C129.795 42.7937 129.677 42.8901 129.54 42.9471C129.403 43.004 129.251 43.0189 129.105 42.9899C128.96 42.9609 128.825 42.8892 128.72 42.784C128.615 42.6788 128.543 42.5448 128.514 42.3989C128.485 42.253 128.5 42.1017 128.557 41.9643C128.614 41.8269 128.711 41.7094 128.834 41.6268C128.958 41.5441 129.103 41.5 129.252 41.5H129.252C129.351 41.5 129.449 41.5195 129.54 41.5573C129.631 41.5951 129.714 41.6505 129.784 41.7203C129.854 41.7901 129.909 41.8731 129.947 41.9643C129.985 42.0556 130.004 42.1534 130.004 42.2521Z" stroke="#2094F3"/>
<path d="M83.0106 3.50528C83.0106 4.00077 82.8636 4.48514 82.5883 4.89713C82.3131 5.30913 81.9218 5.63023 81.464 5.81985C81.0062 6.00947 80.5025 6.05908 80.0165 5.96242C79.5306 5.86575 79.0841 5.62715 78.7338 5.27678C78.3834 4.92641 78.1448 4.48001 78.0481 3.99403C77.9515 3.50805 78.0011 3.00433 78.1907 2.54655C78.3803 2.08877 78.7014 1.6975 79.1134 1.42221C79.5254 1.14693 80.0098 1 80.5053 1C80.8343 0.999993 81.1601 1.06479 81.464 1.19069C81.768 1.31659 82.0442 1.50112 82.2768 1.73376C82.5094 1.9664 82.694 2.24258 82.8199 2.54654C82.9458 2.8505 83.0106 3.17628 83.0106 3.50528Z" stroke="#2094F3" stroke-width="2" stroke-linecap="round" stroke-linejoin="round"/>
<path d="M31.0106 56.5053C31.0106 57.0008 30.8636 57.4851 30.5883 57.8971C30.3131 58.3091 29.9218 58.6302 29.464 58.8198C29.0062 59.0095 28.5025 59.0591 28.0165 58.9624C27.5305 58.8657 27.0842 58.6271 26.7338 58.2768C26.3834 57.9264 26.1448 57.48 26.0481 56.994C25.9515 56.5081 26.0011 56.0043 26.1907 55.5465C26.3803 55.0888 26.7014 54.6975 27.1134 54.4222C27.5254 54.1469 28.0098 54 28.5053 54C29.1697 54 29.8069 54.2639 30.2768 54.7338C30.7466 55.2036 31.0106 55.8408 31.0106 56.5053V56.5053Z" stroke="#2094F3" stroke-width="2" stroke-linecap="round" stroke-linejoin="round"/>
</svg>
