<svg width="150" height="125" viewBox="0 0 150 125" fill="none" xmlns="http://www.w3.org/2000/svg">
<path d="M23.8636 55.0278C31.0533 55.5808 36.5378 51.5713 38.3813 49.4975C59.1211 30.8327 75.7121 39.1282 84.6992 39.8195C93.6863 40.5108 110.969 30.8327 121.339 26.685C131.709 22.5373 135.857 26.685 139.313 32.2153C142.77 37.7456 144.153 45.3497 141.387 55.0278C138.622 64.7058 146.918 68.8535 148.992 75.0751C151.066 81.2967 150.374 85.4444 142.77 95.1224C135.165 104.8 122.722 105.492 106.13 101.344C89.5384 97.1963 83.3166 106.183 74.3295 114.478C65.3423 122.774 48.0594 128.304 33.5417 122.774C19.0241 117.244 20.4067 106.183 21.098 99.2701C21.7893 92.3573 17.6418 90.2834 7.272 86.827C-3.09776 83.3705 -0.332495 75.7664 3.12409 69.5448C6.58068 63.3232 14.8765 54.3365 23.8636 55.0278Z" fill="#2196F3" fill-opacity="0.2"/>
<path fill-rule="evenodd" clip-rule="evenodd" d="M95.1368 42.2192L96.7946 34.2434C97.075 32.342 96.6573 30.4035 95.6188 28.7864C86.1294 15.649 70.6931 20.9854 68.3264 32.3364L61.5429 64.7465L55.5885 63.5029L63.1936 27.0076C63.5854 25.1196 64.3928 23.3426 65.557 21.8055C66.7212 20.2684 68.2131 19.0098 69.9243 18.1212C89.0991 8.23989 105.191 23.6008 101.912 39.3461L101.084 43.3495L95.1368 42.2192Z" fill="#E0E0E0"/>
<path fill-rule="evenodd" clip-rule="evenodd" d="M101.024 43.7505L101.126 43.7739C101.14 43.7026 101.153 43.6312 101.167 43.5596C101.294 42.8827 101.446 42.1971 101.601 41.5007C102.023 39.5993 102.463 37.6172 102.463 35.5098C102.519 32.4955 101.887 29.508 100.616 26.7742C100.522 26.6025 100.435 26.4065 100.346 26.2066C100.271 26.0377 100.194 25.8661 100.111 25.7039L99.5083 24.6788C99.091 23.9865 98.6329 23.3195 98.1365 22.6814C97.9874 22.4698 97.8138 22.2766 97.6391 22.0822C97.54 21.972 97.4406 21.8614 97.3451 21.7468C97.1309 21.4682 96.9046 21.1991 96.6668 20.9403C96.0724 20.3528 95.4432 19.8015 94.7825 19.2897C93.5084 18.2907 92.1192 17.4481 90.6445 16.7798L90.0868 16.5461L88.8808 16.0939L88.0743 15.8376L86.5669 15.4457C86.2906 15.3885 86.0114 15.3464 85.731 15.3042C85.5677 15.2795 85.404 15.2549 85.2403 15.2271C81.5596 14.6765 77.7982 15.1538 74.3717 16.6064C70.7615 18.13 67.668 20.6635 65.4626 23.9025C64.3496 25.5774 63.4745 27.3987 62.8623 29.3142C62.4356 30.7366 62.1478 32.1788 61.8579 33.6322C61.7483 34.1812 61.6384 34.7319 61.5206 35.2837C60.2984 41.1156 59.0482 47.1108 57.773 53.2261C57.2947 55.5201 56.8128 57.8311 56.3275 60.1566C56.157 60.9612 55.9902 61.7659 55.8246 62.5652C55.7559 62.8965 55.6875 63.2268 55.619 63.5559V63.6991H55.7547L61.7091 64.9427H61.8523V64.7995L65.7792 45.9564C66.4173 42.8963 67.0455 39.8814 67.6635 36.9118C67.975 35.4294 68.2816 33.9572 68.5831 32.4949C68.8852 31.065 69.393 29.6865 70.0905 28.4022C71.5101 25.9133 73.6559 23.9174 76.2409 22.6814C76.5489 22.5223 76.8661 22.3814 77.1906 22.2594L78.1704 21.9127C79.4762 21.5181 80.8313 21.31 82.1953 21.2946C82.4217 21.2644 82.6447 21.2745 82.8667 21.2846C82.9772 21.2896 83.0875 21.2946 83.1977 21.2946H83.7028L84.2002 21.37C85.4998 21.5509 86.7681 21.9111 87.9688 22.4403C89.1367 22.9736 90.231 23.655 91.2249 24.4678C93.1203 26.0595 94.5653 28.1203 95.4156 30.4448C96.2361 32.6221 96.4777 34.975 96.1166 37.2735C96.0993 37.377 96.0854 37.4806 96.0713 37.5845C96.0486 37.753 96.0257 37.9226 95.9884 38.0951C95.9618 38.2184 95.9366 38.3402 95.9116 38.4612C95.88 38.6139 95.8487 38.7653 95.8151 38.9167C95.702 39.4518 95.589 39.9945 95.4835 40.5221C95.3543 41.1503 95.225 41.7733 95.0974 42.3878L95.227 42.4176C95.3551 41.8052 95.4858 41.1864 95.6191 40.5598L95.9583 38.9468C95.9846 38.8111 96.0129 38.6755 96.0412 38.5398C96.0695 38.4041 96.0977 38.2685 96.1241 38.1328L96.2598 37.2961C96.6301 34.963 96.3886 32.5737 95.5588 30.3619C94.6998 27.9986 93.2368 25.9015 91.3153 24.2793C90.3105 23.4525 89.2035 22.7585 88.0216 22.2141C86.7984 21.67 85.5042 21.302 84.1776 21.1212L83.6726 21.0383H83.1676C82.8284 20.9931 82.4818 20.9931 82.1426 20.9931H82.1425C81.4511 20.9996 80.761 21.055 80.0774 21.1589C79.3891 21.2646 78.7091 21.4182 78.0423 21.6187L77.0474 21.9654C76.8213 22.0408 76.6086 22.143 76.3959 22.2451C76.2895 22.2962 76.1831 22.3473 76.0751 22.395C73.4437 23.6548 71.2569 25.6839 69.8041 28.2138C69.087 29.5247 68.5592 30.9305 68.2363 32.3894L67.3168 36.8062C66.6937 39.7759 66.0631 42.7908 65.425 45.8509C64.1605 51.8964 62.8514 58.1573 61.52 64.5525L55.8445 63.3671C56.0683 62.278 56.2925 61.2016 56.5235 60.1114C57.2789 56.4856 58.0287 52.8914 58.7702 49.3374C59.7674 44.5578 60.7494 39.851 61.7091 35.2385C61.8225 34.7093 61.9306 34.1795 62.0385 33.651C62.3394 32.1775 62.6382 30.7138 63.0432 29.2991C63.8988 26.5096 65.3541 23.9409 67.3071 21.7731C69.2601 19.6052 71.6636 17.8907 74.349 16.7496C77.7317 15.3113 81.4463 14.8365 85.082 15.3779C85.241 15.4053 85.4 15.4287 85.5589 15.4521C85.8371 15.4931 86.1153 15.5341 86.3935 15.5964L87.6673 15.9281L88.3005 16.0939L88.9863 16.32L90.1999 16.7723C91.7555 17.4525 93.2192 18.3262 94.5564 19.3726C95.2153 19.8727 95.8398 20.4166 96.4256 21.0006C96.6936 21.236 96.922 21.5054 97.15 21.7743C97.1848 21.8154 97.2197 21.8566 97.2547 21.8976C97.3426 22.0006 97.4331 22.1011 97.5235 22.2016C97.7044 22.4026 97.8853 22.6036 98.0461 22.8247C98.5342 23.4533 98.9847 24.1101 99.3952 24.7919L99.9983 25.8094C100.103 26.0185 100.202 26.2331 100.3 26.4465C100.365 26.587 100.43 26.727 100.496 26.8646C101.761 29.5659 102.395 32.5197 102.35 35.5023C102.328 37.6009 101.901 39.585 101.49 41.4908C101.344 42.1723 101.199 42.8437 101.076 43.5068L101.024 43.7505Z" fill="#263238"/>
<path d="M53.0192 40.9272L106.213 52.0109C106.945 52.1634 107.586 52.6004 107.996 53.2258C108.405 53.8511 108.55 54.6136 108.397 55.3455L99.9934 95.6779C99.8548 96.3432 99.4575 96.9263 98.889 97.2987C98.3205 97.6712 97.6273 97.8025 96.9619 97.6639L43.5176 86.528L53.0192 40.9272Z" fill="#FF813B"/>
<g opacity="0.3">
<path d="M53.0468 40.9702L105.96 51.9954C106.766 52.1634 107.473 52.6448 107.924 53.3337C108.375 54.0227 108.534 54.8626 108.366 55.6689L100.079 95.4404C99.9254 96.1802 99.4836 96.8284 98.8516 97.2424C98.2195 97.6565 97.4489 97.8026 96.7091 97.6484L43.5452 86.571L53.0468 40.9702Z" fill="#FF813B"/>
</g>
<path d="M53.4725 41.0233L99.3536 50.5833C100.148 50.7489 100.844 51.2233 101.289 51.9022C101.734 52.581 101.891 53.4088 101.725 54.2033L93.612 93.141C93.4081 94.1195 92.8238 94.9769 91.9878 95.5247C91.1517 96.0724 90.1323 96.2656 89.1538 96.0617L44.0991 86.6739C43.6922 86.5891 43.3058 86.4249 42.9623 86.1909C42.6187 85.9568 42.3247 85.6573 42.0969 85.3096C41.8691 84.9618 41.712 84.5726 41.6346 84.1642C41.5572 83.7557 41.561 83.336 41.6458 82.9291L49.882 43.401C50.0465 42.6116 50.5159 41.919 51.1882 41.4737C51.8606 41.0285 52.6815 40.8666 53.4725 41.0233Z" fill="#FFBF4D"/>
<path d="M93.7948 92.5592C93.7194 92.5592 95.3474 84.5999 97.4277 74.8166C99.508 65.0333 101.264 57.1041 101.34 57.1192C101.415 57.1342 99.7869 65.086 97.7066 74.8844C95.6263 84.6828 93.8701 92.5743 93.7948 92.5592Z" fill="#D36A2F"/>
<path d="M90.0866 50.1171C90.0866 50.1925 83.0544 48.8886 74.4167 47.2078C65.7791 45.527 58.7769 44.1024 58.792 44.0271C58.8071 43.9517 65.8243 45.2481 74.4695 46.9289C83.1147 48.6097 90.1017 50.0116 90.0866 50.1171Z" fill="white"/>
<path d="M84.0419 16.6517C84.0419 16.6517 83.65 16.6518 82.9415 16.5764C81.9367 16.5136 80.9286 16.5312 79.9266 16.6291C76.6283 16.9273 73.4825 18.1559 70.8552 20.1721C68.2279 22.1883 66.2272 24.9091 65.0858 28.0179C64.736 28.9543 64.4613 29.9171 64.2642 30.8971C64.1285 31.5906 64.0683 31.9825 64.0456 31.9825C64.0343 31.8874 64.0343 31.7912 64.0456 31.6961C64.0456 31.5076 64.0456 31.2288 64.1436 30.8745C64.3044 29.8786 64.5567 28.8996 64.8974 27.9501C66.0056 24.7727 68.0189 21.9889 70.6893 19.9412C73.3596 17.8936 76.5705 16.6716 79.9266 16.4256C80.9307 16.3447 81.9403 16.3599 82.9415 16.4709C83.2957 16.4709 83.5671 16.5613 83.7555 16.5839C83.8537 16.5927 83.9502 16.6156 84.0419 16.6517Z" fill="white"/>
<path d="M62.7869 36.8513C62.768 36.2799 62.8444 35.7093 63.013 35.163C63.0878 34.599 63.2559 34.0513 63.5104 33.5425C63.5338 34.1111 63.4599 34.6795 63.2919 35.2233C63.2173 35.7907 63.0465 36.3413 62.7869 36.8513Z" fill="white"/>
<path d="M62.0056 15.2528C62.0056 15.5995 61.9028 15.9384 61.7102 16.2266C61.5176 16.5149 61.2438 16.7395 60.9235 16.8722C60.6033 17.0048 60.2508 17.0395 59.9108 16.9719C59.5708 16.9043 59.2585 16.7373 59.0134 16.4922C58.7682 16.2471 58.6013 15.9347 58.5337 15.5947C58.466 15.2547 58.5008 14.9023 58.6334 14.582C58.7661 14.2617 58.9908 13.988 59.279 13.7954C59.5672 13.6028 59.9061 13.5 60.2528 13.5C60.483 13.5 60.7109 13.5453 60.9236 13.6334C61.1362 13.7215 61.3295 13.8506 61.4922 14.0134C61.655 14.1762 61.7841 14.3694 61.8722 14.5821C61.9603 14.7947 62.0056 15.0226 62.0056 15.2528Z" stroke="#2094F3"/>
<path d="M42.0056 10.2527C42.0056 10.5994 41.9028 10.9383 41.7102 11.2265C41.5176 11.5148 41.2439 11.7395 40.9236 11.8721C40.6033 12.0048 40.2509 12.0395 39.9109 11.9719C39.5708 11.9043 39.2585 11.7373 39.0134 11.4922C38.7682 11.2471 38.6013 10.9347 38.5337 10.5947C38.466 10.2547 38.5008 9.90224 38.6335 9.58195C38.7661 9.26166 38.9908 8.98791 39.2791 8.79532C39.5674 8.60274 39.9063 8.49997 40.253 8.5C40.7178 8.50004 41.1636 8.68471 41.4922 9.01339C41.8209 9.34207 42.0056 9.78785 42.0056 10.2527Z" stroke="#2094F3"/>
<path d="M31 39C34.3137 39 37 36.3137 37 33C37 29.6863 34.3137 27 31 27C27.6863 27 25 29.6863 25 33C25 36.3137 27.6863 39 31 39Z" stroke="#2094F3" stroke-width="2" stroke-linecap="round" stroke-linejoin="round"/>
<path d="M115.165 11.0827C115.165 11.6924 114.985 12.2884 114.646 12.7954C114.307 13.3023 113.826 13.6974 113.262 13.9307C112.699 14.1641 112.079 14.2251 111.481 14.1062C110.883 13.9872 110.334 13.6936 109.903 13.2625C109.472 12.8313 109.178 12.2821 109.059 11.6841C108.94 11.0861 109.001 10.4663 109.235 9.90297C109.468 9.33968 109.863 8.85823 110.37 8.5195C110.877 8.18078 111.473 7.99999 112.083 8C112.488 8 112.888 8.07974 113.262 8.23466C113.636 8.38958 113.976 8.61665 114.263 8.90291C114.549 9.18916 114.776 9.529 114.931 9.90301C115.086 10.277 115.165 10.6779 115.165 11.0827V11.0827Z" stroke="#2094F3" stroke-width="2" stroke-linecap="round" stroke-linejoin="round"/>
<path d="M119.004 32.2521V32.2521C119.004 32.4009 118.96 32.5463 118.878 32.67C118.795 32.7937 118.677 32.8901 118.54 32.9471C118.403 33.004 118.251 33.0189 118.105 32.9899C117.96 32.9609 117.826 32.8892 117.72 32.784C117.615 32.6788 117.543 32.5448 117.514 32.3989C117.485 32.253 117.5 32.1017 117.557 31.9643C117.614 31.8269 117.711 31.7094 117.834 31.6267C117.958 31.5441 118.103 31.5 118.252 31.5H118.252C118.452 31.5 118.643 31.5792 118.784 31.7203C118.925 31.8613 119.004 32.0526 119.004 32.2521Z" stroke="#2094F3"/>
<path d="M130.004 42.2521V42.2522C130.004 42.4009 129.96 42.5464 129.878 42.67C129.795 42.7937 129.677 42.8901 129.54 42.9471C129.403 43.004 129.251 43.0189 129.105 42.9899C128.96 42.9609 128.825 42.8892 128.72 42.784C128.615 42.6788 128.543 42.5448 128.514 42.3989C128.485 42.253 128.5 42.1017 128.557 41.9643C128.614 41.8269 128.711 41.7094 128.834 41.6268C128.958 41.5441 129.103 41.5 129.252 41.5H129.252C129.351 41.5 129.449 41.5195 129.54 41.5573C129.631 41.5951 129.714 41.6505 129.784 41.7203C129.854 41.7901 129.909 41.8731 129.947 41.9643C129.985 42.0556 130.004 42.1534 130.004 42.2521Z" stroke="#2094F3"/>
<path d="M83.0106 3.50528C83.0106 4.00077 82.8636 4.48514 82.5883 4.89713C82.3131 5.30913 81.9218 5.63023 81.464 5.81985C81.0062 6.00947 80.5025 6.05908 80.0165 5.96242C79.5306 5.86575 79.0841 5.62715 78.7338 5.27678C78.3834 4.92641 78.1448 4.48001 78.0481 3.99403C77.9515 3.50805 78.0011 3.00433 78.1907 2.54655C78.3803 2.08877 78.7014 1.6975 79.1134 1.42221C79.5254 1.14693 80.0098 1 80.5053 1C80.8343 0.999993 81.1601 1.06479 81.464 1.19069C81.768 1.31659 82.0442 1.50112 82.2768 1.73376C82.5094 1.9664 82.694 2.24258 82.8199 2.54654C82.9458 2.8505 83.0106 3.17628 83.0106 3.50528Z" stroke="#2094F3" stroke-width="2" stroke-linecap="round" stroke-linejoin="round"/>
<path d="M31.0106 56.5053C31.0106 57.0008 30.8636 57.4851 30.5883 57.8971C30.3131 58.3091 29.9218 58.6302 29.464 58.8198C29.0062 59.0095 28.5025 59.0591 28.0165 58.9624C27.5305 58.8657 27.0842 58.6271 26.7338 58.2768C26.3834 57.9264 26.1448 57.48 26.0481 56.994C25.9515 56.5081 26.0011 56.0043 26.1907 55.5465C26.3803 55.0888 26.7014 54.6975 27.1134 54.4222C27.5254 54.1469 28.0098 54 28.5053 54C29.1697 54 29.8069 54.2639 30.2768 54.7338C30.7466 55.2036 31.0106 55.8408 31.0106 56.5053V56.5053Z" stroke="#2094F3" stroke-width="2" stroke-linecap="round" stroke-linejoin="round"/>
<path d="M60 64.9434L65.4775 74L92 59" stroke="#2094F3" stroke-width="4" stroke-linecap="round" stroke-linejoin="round"/>
</svg>
