<svg width="150" height="125" viewBox="0 0 150 125" fill="none" xmlns="http://www.w3.org/2000/svg">
<path d="M23.8636 55.0278C31.0533 55.5808 36.5378 51.5713 38.3813 49.4975C59.1211 30.8327 75.7121 39.1282 84.6992 39.8195C93.6863 40.5108 110.969 30.8327 121.339 26.685C131.709 22.5373 135.857 26.685 139.313 32.2153C142.77 37.7456 144.153 45.3497 141.387 55.0278C138.622 64.7058 146.918 68.8535 148.992 75.0751C151.066 81.2967 150.374 85.4444 142.77 95.1224C135.165 104.8 122.722 105.492 106.13 101.344C89.5384 97.1963 83.3166 106.183 74.3295 114.478C65.3423 122.774 48.0594 128.304 33.5417 122.774C19.0241 117.244 20.4067 106.183 21.098 99.2701C21.7893 92.3573 17.6418 90.2834 7.272 86.827C-3.09776 83.3705 -0.332495 75.7664 3.12409 69.5448C6.58068 63.3232 14.8765 54.3365 23.8636 55.0278Z" fill="#2196F3" fill-opacity="0.2"/>
<path d="M36 92.8343C36 93.6052 36.3062 94.3445 36.8513 94.8896C37.3964 95.4347 38.1357 95.7409 38.9066 95.7409H111.935C112.316 95.7409 112.694 95.6657 113.047 95.5197C113.4 95.3736 113.72 95.1595 113.99 94.8896C114.26 94.6197 114.474 94.2993 114.62 93.9466C114.766 93.594 114.841 93.216 114.841 92.8343V47.7822H36V92.8343Z" fill="#FFBF4D"/>
<path d="M36 47.7823L75.4208 18L114.841 47.7823H36Z" fill="#FF813B"/>
<path d="M114.841 47.7822H36L64.0331 68.9609H86.8082L114.841 47.7822Z" fill="#D36A2F"/>
<path d="M38.9066 95.7407H111.935C112.316 95.7407 112.694 95.6655 113.047 95.5195C113.4 95.3734 113.72 95.1593 113.99 94.8894C114.26 94.6195 114.474 94.2991 114.62 93.9464C114.766 93.5938 114.841 93.2158 114.841 92.8341L86.8082 68.9609H64.033L36 92.8341C36 93.605 36.3062 94.3443 36.8513 94.8894C37.3964 95.4345 38.1357 95.7407 38.9066 95.7407Z" fill="#DEAC4A"/>
<path d="M97.6068 26.2974H43.855V53.7168L64.033 68.961H86.8081L106.986 53.7168V35.667H97.6068V26.2974Z" fill="#F5F6F8"/>
<path d="M97.6073 35.667H106.987L97.6073 26.2974V35.667Z" fill="#D8D9DA"/>
<g style="mix-blend-mode:multiply">
<path d="M97.6072 26.2974H76.0576V68.961H86.8085L106.987 53.7168V35.667H97.6072V26.2974Z" fill="#ECECED"/>
</g>
<path d="M62.0056 15.2528C62.0056 15.5995 61.9028 15.9384 61.7102 16.2266C61.5176 16.5149 61.2438 16.7395 60.9235 16.8722C60.6033 17.0048 60.2508 17.0395 59.9108 16.9719C59.5708 16.9043 59.2585 16.7373 59.0134 16.4922C58.7682 16.2471 58.6013 15.9347 58.5337 15.5947C58.466 15.2547 58.5008 14.9023 58.6334 14.582C58.7661 14.2617 58.9908 13.988 59.279 13.7954C59.5672 13.6028 59.9061 13.5 60.2528 13.5C60.483 13.5 60.7109 13.5453 60.9236 13.6334C61.1362 13.7215 61.3295 13.8506 61.4922 14.0134C61.655 14.1762 61.7841 14.3694 61.8722 14.5821C61.9603 14.7947 62.0056 15.0226 62.0056 15.2528Z" stroke="#2094F3"/>
<path d="M42.0056 10.2527C42.0056 10.5994 41.9028 10.9383 41.7102 11.2265C41.5176 11.5148 41.2439 11.7395 40.9236 11.8721C40.6033 12.0048 40.2509 12.0395 39.9109 11.9719C39.5708 11.9043 39.2585 11.7373 39.0134 11.4922C38.7682 11.2471 38.6013 10.9347 38.5337 10.5947C38.466 10.2547 38.5008 9.90224 38.6335 9.58195C38.7661 9.26166 38.9908 8.98791 39.2791 8.79532C39.5674 8.60274 39.9063 8.49997 40.253 8.5C40.7178 8.50004 41.1636 8.68471 41.4922 9.01339C41.8209 9.34207 42.0056 9.78785 42.0056 10.2527Z" stroke="#2094F3"/>
<path d="M31 39C34.3137 39 37 36.3137 37 33C37 29.6863 34.3137 27 31 27C27.6863 27 25 29.6863 25 33C25 36.3137 27.6863 39 31 39Z" stroke="#2094F3" stroke-width="2" stroke-linecap="round" stroke-linejoin="round"/>
<path d="M115.165 11.0827C115.165 11.6924 114.985 12.2884 114.646 12.7954C114.307 13.3023 113.826 13.6974 113.262 13.9307C112.699 14.1641 112.079 14.2251 111.481 14.1062C110.883 13.9872 110.334 13.6936 109.903 13.2625C109.472 12.8313 109.178 12.2821 109.059 11.6841C108.94 11.0861 109.001 10.4663 109.235 9.90297C109.468 9.33968 109.863 8.85823 110.37 8.5195C110.877 8.18078 111.473 7.99999 112.083 8C112.488 8 112.888 8.07974 113.262 8.23466C113.636 8.38958 113.976 8.61665 114.263 8.90291C114.549 9.18916 114.776 9.529 114.931 9.90301C115.086 10.277 115.165 10.6779 115.165 11.0827V11.0827Z" stroke="#2094F3" stroke-width="2" stroke-linecap="round" stroke-linejoin="round"/>
<path d="M119.004 32.2521V32.2521C119.004 32.4009 118.96 32.5463 118.878 32.67C118.795 32.7937 118.677 32.8901 118.54 32.9471C118.403 33.004 118.251 33.0189 118.105 32.9899C117.96 32.9609 117.826 32.8892 117.72 32.784C117.615 32.6788 117.543 32.5448 117.514 32.3989C117.485 32.253 117.5 32.1017 117.557 31.9643C117.614 31.8269 117.711 31.7094 117.834 31.6267C117.958 31.5441 118.103 31.5 118.252 31.5H118.252C118.452 31.5 118.643 31.5792 118.784 31.7203C118.925 31.8613 119.004 32.0526 119.004 32.2521Z" stroke="#2094F3"/>
<path d="M130.004 42.2521V42.2522C130.004 42.4009 129.96 42.5464 129.878 42.67C129.795 42.7937 129.677 42.8901 129.54 42.9471C129.403 43.004 129.251 43.0189 129.105 42.9899C128.96 42.9609 128.825 42.8892 128.72 42.784C128.615 42.6788 128.543 42.5448 128.514 42.3989C128.485 42.253 128.5 42.1017 128.557 41.9643C128.614 41.8269 128.711 41.7094 128.834 41.6268C128.958 41.5441 129.103 41.5 129.252 41.5H129.252C129.351 41.5 129.449 41.5195 129.54 41.5573C129.631 41.5951 129.714 41.6505 129.784 41.7203C129.854 41.7901 129.909 41.8731 129.947 41.9643C129.985 42.0556 130.004 42.1534 130.004 42.2521Z" stroke="#2094F3"/>
<path d="M83.0106 3.50528C83.0106 4.00077 82.8636 4.48514 82.5883 4.89713C82.3131 5.30913 81.9218 5.63023 81.464 5.81985C81.0062 6.00947 80.5025 6.05908 80.0165 5.96242C79.5306 5.86575 79.0841 5.62715 78.7338 5.27678C78.3834 4.92641 78.1448 4.48001 78.0481 3.99403C77.9515 3.50805 78.0011 3.00433 78.1907 2.54655C78.3803 2.08877 78.7014 1.6975 79.1134 1.42221C79.5254 1.14693 80.0098 1 80.5053 1C80.8343 0.999993 81.1601 1.06479 81.464 1.19069C81.768 1.31659 82.0442 1.50112 82.2768 1.73376C82.5094 1.9664 82.694 2.24258 82.8199 2.54654C82.9458 2.8505 83.0106 3.17628 83.0106 3.50528Z" stroke="#2094F3" stroke-width="2" stroke-linecap="round" stroke-linejoin="round"/>
<path d="M31.0106 56.5053C31.0106 57.0008 30.8636 57.4851 30.5883 57.8971C30.3131 58.3091 29.9218 58.6302 29.464 58.8198C29.0062 59.0095 28.5025 59.0591 28.0165 58.9624C27.5305 58.8657 27.0842 58.6271 26.7338 58.2768C26.3834 57.9264 26.1448 57.48 26.0481 56.994C25.9515 56.5081 26.0011 56.0043 26.1907 55.5465C26.3803 55.0888 26.7014 54.6975 27.1134 54.4222C27.5254 54.1469 28.0098 54 28.5053 54C29.1697 54 29.8069 54.2639 30.2768 54.7338C30.7466 55.2036 31.0106 55.8408 31.0106 56.5053V56.5053Z" stroke="#2094F3" stroke-width="2" stroke-linecap="round" stroke-linejoin="round"/>
<path d="M67.2851 44C67.2851 44.862 67.1236 45.6003 66.8007 46.2148C66.4804 46.8268 66.0429 47.2956 65.4882 47.6211C64.9361 47.9466 64.3098 48.1094 63.6093 48.1094C62.9088 48.1094 62.2812 47.9466 61.7265 47.6211C61.1744 47.293 60.7369 46.8229 60.414 46.2109C60.0937 45.5964 59.9335 44.8594 59.9335 44C59.9335 43.138 60.0937 42.401 60.414 41.7891C60.7369 41.1745 61.1744 40.7044 61.7265 40.3789C62.2812 40.0534 62.9088 39.8906 63.6093 39.8906C64.3098 39.8906 64.9361 40.0534 65.4882 40.3789C66.0429 40.7044 66.4804 41.1745 66.8007 41.7891C67.1236 42.401 67.2851 43.138 67.2851 44ZM65.828 44C65.828 43.3932 65.733 42.8815 65.5429 42.4648C65.3554 42.0456 65.095 41.7292 64.7616 41.5156C64.4283 41.2995 64.0442 41.1914 63.6093 41.1914C63.1744 41.1914 62.7903 41.2995 62.4569 41.5156C62.1236 41.7292 61.8619 42.0456 61.6718 42.4648C61.4843 42.8815 61.3905 43.3932 61.3905 44C61.3905 44.6068 61.4843 45.1198 61.6718 45.5391C61.8619 45.9557 62.1236 46.2721 62.4569 46.4883C62.7903 46.7018 63.1744 46.8086 63.6093 46.8086C64.0442 46.8086 64.4283 46.7018 64.7616 46.4883C65.095 46.2721 65.3554 45.9557 65.5429 45.5391C65.733 45.1198 65.828 44.6068 65.828 44ZM72.3491 41.2148V40H78.7319V41.2148H76.2593V48H74.8218V41.2148H72.3491ZM84.3624 48V40H87.3624C87.977 40 88.4926 40.1146 88.9093 40.3437C89.3285 40.5729 89.645 40.888 89.8585 41.2891C90.0746 41.6875 90.1827 42.1406 90.1827 42.6484C90.1827 43.1615 90.0746 43.6172 89.8585 44.0156C89.6424 44.4141 89.3233 44.7279 88.9015 44.957C88.4796 45.1836 87.9601 45.2969 87.3429 45.2969H85.3546V44.1055H87.1476C87.5069 44.1055 87.8012 44.043 88.0304 43.918C88.2595 43.793 88.4288 43.6211 88.5382 43.4023C88.6502 43.1836 88.7062 42.9323 88.7062 42.6484C88.7062 42.3646 88.6502 42.1146 88.5382 41.8984C88.4288 41.6823 88.2582 41.5143 88.0265 41.3945C87.7973 41.2721 87.5017 41.2109 87.1397 41.2109H85.8116V48H84.3624Z" fill="#2094F3"/>
<path d="M67.0906 57V57.625H63.4543V57H67.0906ZM73.9078 57V57.625H70.2714V57H73.9078ZM80.725 57V57.625H77.0886V57H80.725ZM87.5422 57V57.625H83.9058V57H87.5422Z" fill="#2094F3"/>
</svg>
