<svg width="16" height="16" viewBox="0 0 16 16" fill="none" xmlns="http://www.w3.org/2000/svg">
<path fill-rule="evenodd" clip-rule="evenodd" d="M9.19148 2.53673C8.88826 1.28772 7.11194 1.28772 6.80872 2.53673C6.61285 3.34357 5.68846 3.72646 4.97943 3.29445C3.88184 2.62567 2.6258 3.88172 3.29457 4.97931C3.72659 5.68833 3.34369 6.61272 2.53685 6.8086C1.28785 7.11182 1.28785 8.88813 2.53685 9.19135C3.34369 9.38723 3.72659 10.3116 3.29457 11.0206C2.6258 12.1182 3.88184 13.3743 4.97943 12.7055C5.68846 12.2735 6.61285 12.6564 6.80872 13.4632C7.11194 14.7122 8.88826 14.7122 9.19148 13.4632C9.38735 12.6564 10.3117 12.2735 11.0208 12.7055C12.1184 13.3743 13.3744 12.1182 12.7056 11.0206C12.2736 10.3116 12.6565 9.38723 13.4633 9.19135C14.7123 8.88813 14.7123 7.11182 13.4633 6.8086C12.6565 6.61272 12.2736 5.68833 12.7056 4.97931C13.3744 3.88172 12.1184 2.62568 11.0208 3.29445C10.3117 3.72646 9.38735 3.34357 9.19148 2.53673ZM8.0001 10.4C9.32558 10.4 10.4001 9.32546 10.4001 7.99998C10.4001 6.67449 9.32558 5.59998 8.0001 5.59998C6.67461 5.59998 5.6001 6.67449 5.6001 7.99998C5.6001 9.32546 6.67461 10.4 8.0001 10.4Z" fill="#404040"/>
</svg>
