<svg width="13" height="12" viewBox="0 0 13 12" fill="none" xmlns="http://www.w3.org/2000/svg">
<path fill-rule="evenodd" clip-rule="evenodd" d="M1.7001 1.9999C0.816442 1.9999 0.100098 2.71625 0.100098 3.5999V9.9999C0.100098 10.8836 0.816442 11.5999 1.7001 11.5999H11.3001C12.1838 11.5999 12.9001 10.8836 12.9001 9.9999V3.5999C12.9001 2.71625 12.1838 1.9999 11.3001 1.9999H10.0315C9.81929 1.9999 9.61581 1.91562 9.46578 1.76559L8.56873 0.868532C8.26867 0.568473 7.8617 0.399902 7.43736 0.399902H5.56284C5.13849 0.399902 4.73153 0.568473 4.43147 0.868531L3.53441 1.76559C3.38438 1.91562 3.1809 1.9999 2.96873 1.9999H1.7001ZM6.5001 9.1999C7.82558 9.1999 8.9001 8.12539 8.9001 6.7999C8.9001 5.47442 7.82558 4.3999 6.5001 4.3999C5.17461 4.3999 4.1001 5.47442 4.1001 6.7999C4.1001 8.12539 5.17461 9.1999 6.5001 9.1999Z" fill="#C2C2C2"/>
</svg>
