<svg width="15" height="20" viewBox="0 0 15 20" fill="none" xmlns="http://www.w3.org/2000/svg">
<path fill-rule="evenodd" clip-rule="evenodd" d="M2.6998 0.399902C1.37432 0.399902 0.299805 1.47442 0.299805 2.7999V17.1999C0.299805 18.5254 1.37432 19.5999 2.6998 19.5999H12.2998C13.6253 19.5999 14.6998 18.5254 14.6998 17.1999V6.89696C14.6998 6.26044 14.4469 5.64999 13.9969 5.1999L9.89981 1.10285C9.44972 0.652759 8.83927 0.399902 8.20275 0.399902H2.6998ZM5.0998 12.3999C5.0998 11.7372 4.56255 11.1999 3.8998 11.1999C3.23706 11.1999 2.6998 11.7372 2.6998 12.3999V15.9999C2.6998 16.6626 3.23706 17.1999 3.8998 17.1999C4.56255 17.1999 5.0998 16.6626 5.0998 15.9999V12.3999ZM7.4998 8.7999C8.16255 8.7999 8.69981 9.33716 8.69981 9.9999V15.9999C8.69981 16.6626 8.16255 17.1999 7.4998 17.1999C6.83706 17.1999 6.2998 16.6626 6.2998 15.9999V9.9999C6.2998 9.33716 6.83706 8.7999 7.4998 8.7999ZM12.2998 7.5999C12.2998 6.93716 11.7625 6.3999 11.0998 6.3999C10.4371 6.3999 9.89981 6.93716 9.89981 7.5999V15.9999C9.89981 16.6626 10.4371 17.1999 11.0998 17.1999C11.7625 17.1999 12.2998 16.6626 12.2998 15.9999V7.5999Z" fill="#757575"/>
</svg>
