<svg width="20" height="20" viewBox="0 0 20 20" fill="none" xmlns="http://www.w3.org/2000/svg">
<path fill-rule="evenodd" clip-rule="evenodd" d="M5.1999 0.399902C4.53716 0.399902 3.9999 0.937161 3.9999 1.5999V2.7999H2.7999C1.47442 2.7999 0.399902 3.87442 0.399902 5.1999V17.1999C0.399902 18.5254 1.47442 19.5999 2.7999 19.5999H17.1999C18.5254 19.5999 19.5999 18.5254 19.5999 17.1999V5.1999C19.5999 3.87442 18.5254 2.7999 17.1999 2.7999H15.9999V1.5999C15.9999 0.937161 15.4626 0.399902 14.7999 0.399902C14.1372 0.399902 13.5999 0.937161 13.5999 1.5999V2.7999H6.3999V1.5999C6.3999 0.937161 5.86264 0.399902 5.1999 0.399902ZM5.1999 6.3999C4.53716 6.3999 3.9999 6.93716 3.9999 7.5999C3.9999 8.26264 4.53716 8.7999 5.1999 8.7999H14.7999C15.4626 8.7999 15.9999 8.26264 15.9999 7.5999C15.9999 6.93716 15.4626 6.3999 14.7999 6.3999H5.1999Z" fill="#757575"/>
</svg>
