<svg width="14" height="14" viewBox="0 0 14 14" fill="none" xmlns="http://www.w3.org/2000/svg">
<path fill-rule="evenodd" clip-rule="evenodd" d="M5.4001 2.2001C3.63279 2.2001 2.2001 3.63279 2.2001 5.4001C2.2001 7.16741 3.63279 8.6001 5.4001 8.6001C7.16741 8.6001 8.6001 7.16741 8.6001 5.4001C8.6001 3.63279 7.16741 2.2001 5.4001 2.2001ZM0.600098 5.4001C0.600098 2.74913 2.74913 0.600098 5.4001 0.600098C8.05106 0.600098 10.2001 2.74913 10.2001 5.4001C10.2001 6.43676 9.87146 7.39667 9.3127 8.18133L13.1658 12.0344C13.4782 12.3468 13.4782 12.8534 13.1658 13.1658C12.8534 13.4782 12.3468 13.4782 12.0344 13.1658L8.18133 9.3127C7.39667 9.87146 6.43676 10.2001 5.4001 10.2001C2.74913 10.2001 0.600098 8.05106 0.600098 5.4001Z" fill="#757575"/>
</svg>
