<svg width="16" height="16" viewBox="0 0 16 16" fill="none" xmlns="http://www.w3.org/2000/svg">
<path fill-rule="evenodd" clip-rule="evenodd" d="M8.0001 1.55554C6.33232 3.04824 4.1396 3.96645 1.73298 3.9991C1.64559 4.51972 1.6001 5.05455 1.6001 5.6C1.6001 9.77988 4.27148 13.3358 8.0001 14.6537C11.7287 13.3358 14.4001 9.77988 14.4001 5.6C14.4001 5.05455 14.3546 4.51972 14.2672 3.9991C11.8606 3.96645 9.66787 3.04824 8.0001 1.55554ZM8.8001 11.2C8.8001 11.6418 8.44192 12 8.0001 12C7.55827 12 7.2001 11.6418 7.2001 11.2C7.2001 10.7581 7.55827 10.4 8.0001 10.4C8.44192 10.4 8.8001 10.7581 8.8001 11.2ZM8.8001 5.59998C8.8001 5.15815 8.44193 4.79998 8.0001 4.79998C7.55827 4.79998 7.2001 5.15815 7.2001 5.59998V7.99998C7.2001 8.4418 7.55827 8.79998 8.0001 8.79998C8.44193 8.79998 8.8001 8.4418 8.8001 7.99998V5.59998Z" fill="#404040"/>
</svg>
