<svg width="17" height="16" viewBox="0 0 17 16" fill="none" xmlns="http://www.w3.org/2000/svg">
<path fill-rule="evenodd" clip-rule="evenodd" d="M3.70001 3.9999C2.81635 3.9999 2.10001 4.71625 2.10001 5.5999V11.9999C2.10001 12.8836 2.81635 13.5999 3.70001 13.5999H13.3C14.1837 13.5999 14.9 12.8836 14.9 11.9999V5.5999C14.9 4.71625 14.1837 3.9999 13.3 3.9999H12.0314C11.8192 3.9999 11.6157 3.91562 11.4657 3.76559L10.5686 2.86853C10.2686 2.56847 9.86161 2.3999 9.43726 2.3999H7.56275C7.1384 2.3999 6.73144 2.56847 6.43138 2.86853L5.53432 3.76559C5.38429 3.91562 5.18081 3.9999 4.96864 3.9999H3.70001ZM8.50001 11.1999C9.82549 11.1999 10.9 10.1254 10.9 8.7999C10.9 7.47442 9.82549 6.3999 8.50001 6.3999C7.17452 6.3999 6.10001 7.47442 6.10001 8.7999C6.10001 10.1254 7.17452 11.1999 8.50001 11.1999Z" fill="#C2C2C2"/>
</svg>
