<svg width="21" height="14" viewBox="0 0 21 14" fill="none" xmlns="http://www.w3.org/2000/svg">
<path d="M10.5003 9C11.6048 9 12.5003 8.10457 12.5003 7C12.5003 5.89543 11.6048 5 10.5003 5C9.39568 5 8.50025 5.89543 8.50025 7C8.50025 8.10457 9.39568 9 10.5003 9Z" fill="#C2C2C2"/>
<path fill-rule="evenodd" clip-rule="evenodd" d="M0.958008 7.00004C2.23226 2.94291 6.02256 0 10.5002 0C14.9778 0 18.7681 2.94288 20.0424 6.99996C18.7682 11.0571 14.9778 14 10.5002 14C6.02257 14 2.23228 11.0571 0.958008 7.00004ZM14.5003 7C14.5003 9.20914 12.7094 11 10.5003 11C8.29111 11 6.50025 9.20914 6.50025 7C6.50025 4.79086 8.29111 3 10.5003 3C12.7094 3 14.5003 4.79086 14.5003 7Z" fill="#C2C2C2"/>
</svg>
