<svg width="17" height="14" viewBox="0 0 17 14" fill="none" xmlns="http://www.w3.org/2000/svg">
<path d="M5.5 0C4.94772 0 4.5 0.447715 4.5 1C4.5 1.55228 4.94772 2 5.5 2H11.5C12.0523 2 12.5 1.55228 12.5 1C12.5 0.447715 12.0523 0 11.5 0H5.5Z" fill="#C2C2C2"/>
<path d="M2.5 4C2.5 3.44772 2.94772 3 3.5 3H13.5C14.0523 3 14.5 3.44772 14.5 4C14.5 4.55228 14.0523 5 13.5 5H3.5C2.94772 5 2.5 4.55228 2.5 4Z" fill="#C2C2C2"/>
<path d="M0.5 8C0.5 6.89543 1.39543 6 2.5 6H14.5C15.6046 6 16.5 6.89543 16.5 8V12C16.5 13.1046 15.6046 14 14.5 14H2.5C1.39543 14 0.5 13.1046 0.5 12V8Z" fill="#C2C2C2"/>
</svg>
