<svg width="17" height="12" viewBox="0 0 17 12" fill="none" xmlns="http://www.w3.org/2000/svg">
<path d="M8.50001 7.5999C9.38366 7.5999 10.1 6.88356 10.1 5.9999C10.1 5.11625 9.38366 4.3999 8.50001 4.3999C7.61635 4.3999 6.90001 5.11625 6.90001 5.9999C6.90001 6.88356 7.61635 7.5999 8.50001 7.5999Z" fill="#C2C2C2"/>
<path fill-rule="evenodd" clip-rule="evenodd" d="M0.866211 5.99993C1.88561 2.75423 4.91785 0.399902 8.49998 0.399902C12.0821 0.399902 15.1143 2.75421 16.1337 5.99987C15.1143 9.24557 12.0821 11.5999 8.49996 11.5999C4.91786 11.5999 1.88563 9.2456 0.866211 5.99993ZM11.7 5.9999C11.7 7.76721 10.2673 9.1999 8.50001 9.1999C6.7327 9.1999 5.30001 7.76721 5.30001 5.9999C5.30001 4.23259 6.7327 2.7999 8.50001 2.7999C10.2673 2.7999 11.7 4.23259 11.7 5.9999Z" fill="#C2C2C2"/>
</svg>
