<svg width="13" height="14" viewBox="0 0 13 14" fill="none" xmlns="http://www.w3.org/2000/svg">
<path d="M12.4315 1.06873C11.8066 0.443888 10.7936 0.443888 10.1687 1.06873L4.1001 7.13736V9.4001H6.36284L12.4315 3.33147C13.0563 2.70663 13.0563 1.69357 12.4315 1.06873Z" fill="#C2C2C2"/>
<path fill-rule="evenodd" clip-rule="evenodd" d="M0.100098 3.8001C0.100098 2.91644 0.816442 2.2001 1.7001 2.2001H4.9001C5.34193 2.2001 5.7001 2.55827 5.7001 3.0001C5.7001 3.44193 5.34193 3.8001 4.9001 3.8001H1.7001V11.8001H9.7001V8.6001C9.7001 8.15827 10.0583 7.8001 10.5001 7.8001C10.9419 7.8001 11.3001 8.15827 11.3001 8.6001V11.8001C11.3001 12.6838 10.5838 13.4001 9.7001 13.4001H1.7001C0.816442 13.4001 0.100098 12.6838 0.100098 11.8001V3.8001Z" fill="#C2C2C2"/>
</svg>
