<svg width="16" height="16" viewBox="0 0 16 16" fill="none" xmlns="http://www.w3.org/2000/svg">
<path fill-rule="evenodd" clip-rule="evenodd" d="M7.20003 1.59998C6.89701 1.59998 6.62 1.77118 6.48448 2.0422L5.9056 3.19998H3.20002C2.7582 3.19998 2.40002 3.55815 2.40002 3.99998C2.40002 4.4418 2.7582 4.79998 3.20002 4.79998L3.20002 12.8C3.20002 13.6836 3.91637 14.4 4.80002 14.4H11.2C12.0837 14.4 12.8 13.6836 12.8 12.8V4.79998C13.2419 4.79998 13.6 4.4418 13.6 3.99998C13.6 3.55815 13.2419 3.19998 12.8 3.19998H10.0945L9.51557 2.0422C9.38005 1.77118 9.10304 1.59998 8.80003 1.59998H7.20003ZM5.60002 6.39998C5.60002 5.95815 5.9582 5.59998 6.40002 5.59998C6.84185 5.59998 7.20002 5.95815 7.20002 6.39998V11.2C7.20002 11.6418 6.84185 12 6.40002 12C5.9582 12 5.60002 11.6418 5.60002 11.2V6.39998ZM9.60003 5.59998C9.1582 5.59998 8.80002 5.95815 8.80002 6.39998V11.2C8.80002 11.6418 9.1582 12 9.60003 12C10.0419 12 10.4 11.6418 10.4 11.2V6.39998C10.4 5.95815 10.0419 5.59998 9.60003 5.59998Z" fill="#F54545"/>
</svg>
